<?xml version="1.0" encoding="utf-8" standalone="no"?>
<!DOCTYPE svg PUBLIC "-//W3C//DTD SVG 1.1//EN"
  "http://www.w3.org/Graphics/SVG/1.1/DTD/svg11.dtd">
<svg xmlns:xlink="http://www.w3.org/1999/xlink" width="1440pt" height="1440pt" viewBox="0 0 1440 1440" xmlns="http://www.w3.org/2000/svg" version="1.1">
 <metadata>
  <rdf:RDF xmlns:dc="http://purl.org/dc/elements/1.1/" xmlns:cc="http://creativecommons.org/ns#" xmlns:rdf="http://www.w3.org/1999/02/22-rdf-syntax-ns#">
   <cc:Work>
    <dc:type rdf:resource="http://purl.org/dc/dcmitype/StillImage"/>
    <dc:date>2026-06-29T09:23:10.249392</dc:date>
    <dc:format>image/svg+xml</dc:format>
    <dc:creator>
     <cc:Agent>
      <dc:title>Matplotlib v3.10.0, https://matplotlib.org/</dc:title>
     </cc:Agent>
    </dc:creator>
   </cc:Work>
  </rdf:RDF>
 </metadata>
 <defs>
  <style type="text/css">*{stroke-linejoin: round; stroke-linecap: butt}</style>
 </defs>
 <g id="figure_1">
  <g id="patch_1">
   <path d="M 0 1440 
L 1440 1440 
L 1440 0 
L 0 0 
z
" style="fill: #ffffff"/>
  </g>
  <g id="axes_1">
   <g id="patch_2">
    <path d="M 180 953.067057 
L 1296 953.067057 
L 1296 501.332943 
L 180 501.332943 
z
" style="fill: #ffffff"/>
   </g>
   <g id="PatchCollection_1">
    <path d="M 616.81571 625.006322 
L 859.892521 626.107288 
L 858.952323 829.14753 
L 615.925756 828.046921 
L 616.81571 625.006322 
" clip-path="url(#pb23e5e73bb)" style="fill: #1f77b4; fill-opacity: 0.5"/>
   </g>
   <g id="matplotlib.axis_1">
    <g id="xtick_1">
     <g id="line2d_1">
      <defs>
       <path id="m64463c5104" d="M 0 0 
L 0 3.5 
" style="stroke: #000000; stroke-width: 0.8"/>
      </defs>
      <g>
       <use xlink:href="#m64463c5104" x="265.156225" y="953.067057" style="stroke: #000000; stroke-width: 0.8"/>
      </g>
     </g>
     <g id="text_1">
      <!-- 3.29 -->
      <g transform="translate(254.023412 967.665494) scale(0.1 -0.1)">
       <defs>
        <path id="DejaVuSans-33" d="M 2597 2516 
Q 3050 2419 3304 2112 
Q 3559 1806 3559 1356 
Q 3559 666 3084 287 
Q 2609 -91 1734 -91 
Q 1441 -91 1130 -33 
Q 819 25 488 141 
L 488 750 
Q 750 597 1062 519 
Q 1375 441 1716 441 
Q 2309 441 2620 675 
Q 2931 909 2931 1356 
Q 2931 1769 2642 2001 
Q 2353 2234 1838 2234 
L 1294 2234 
L 1294 2753 
L 1863 2753 
Q 2328 2753 2575 2939 
Q 2822 3125 2822 3475 
Q 2822 3834 2567 4026 
Q 2313 4219 1838 4219 
Q 1578 4219 1281 4162 
Q 984 4106 628 3988 
L 628 4550 
Q 988 4650 1302 4700 
Q 1616 4750 1894 4750 
Q 2613 4750 3031 4423 
Q 3450 4097 3450 3541 
Q 3450 3153 3228 2886 
Q 3006 2619 2597 2516 
z
" transform="scale(0.015625)"/>
        <path id="DejaVuSans-2e" d="M 684 794 
L 1344 794 
L 1344 0 
L 684 0 
L 684 794 
z
" transform="scale(0.015625)"/>
        <path id="DejaVuSans-32" d="M 1228 531 
L 3431 531 
L 3431 0 
L 469 0 
L 469 531 
Q 828 903 1448 1529 
Q 2069 2156 2228 2338 
Q 2531 2678 2651 2914 
Q 2772 3150 2772 3378 
Q 2772 3750 2511 3984 
Q 2250 4219 1831 4219 
Q 1534 4219 1204 4116 
Q 875 4013 500 3803 
L 500 4441 
Q 881 4594 1212 4672 
Q 1544 4750 1819 4750 
Q 2544 4750 2975 4387 
Q 3406 4025 3406 3419 
Q 3406 3131 3298 2873 
Q 3191 2616 2906 2266 
Q 2828 2175 2409 1742 
Q 1991 1309 1228 531 
z
" transform="scale(0.015625)"/>
        <path id="DejaVuSans-39" d="M 703 97 
L 703 672 
Q 941 559 1184 500 
Q 1428 441 1663 441 
Q 2288 441 2617 861 
Q 2947 1281 2994 2138 
Q 2813 1869 2534 1725 
Q 2256 1581 1919 1581 
Q 1219 1581 811 2004 
Q 403 2428 403 3163 
Q 403 3881 828 4315 
Q 1253 4750 1959 4750 
Q 2769 4750 3195 4129 
Q 3622 3509 3622 2328 
Q 3622 1225 3098 567 
Q 2575 -91 1691 -91 
Q 1453 -91 1209 -44 
Q 966 3 703 97 
z
M 1959 2075 
Q 2384 2075 2632 2365 
Q 2881 2656 2881 3163 
Q 2881 3666 2632 3958 
Q 2384 4250 1959 4250 
Q 1534 4250 1286 3958 
Q 1038 3666 1038 3163 
Q 1038 2656 1286 2365 
Q 1534 2075 1959 2075 
z
" transform="scale(0.015625)"/>
       </defs>
       <use xlink:href="#DejaVuSans-33"/>
       <use xlink:href="#DejaVuSans-2e" transform="translate(63.623047 0)"/>
       <use xlink:href="#DejaVuSans-32" transform="translate(95.410156 0)"/>
       <use xlink:href="#DejaVuSans-39" transform="translate(159.033203 0)"/>
      </g>
     </g>
    </g>
    <g id="xtick_2">
     <g id="line2d_2">
      <g>
       <use xlink:href="#m64463c5104" x="401.491172" y="953.067057" style="stroke: #000000; stroke-width: 0.8"/>
      </g>
     </g>
     <g id="text_2">
      <!-- 3.30 -->
      <g transform="translate(390.35836 967.665494) scale(0.1 -0.1)">
       <defs>
        <path id="DejaVuSans-30" d="M 2034 4250 
Q 1547 4250 1301 3770 
Q 1056 3291 1056 2328 
Q 1056 1369 1301 889 
Q 1547 409 2034 409 
Q 2525 409 2770 889 
Q 3016 1369 3016 2328 
Q 3016 3291 2770 3770 
Q 2525 4250 2034 4250 
z
M 2034 4750 
Q 2819 4750 3233 4129 
Q 3647 3509 3647 2328 
Q 3647 1150 3233 529 
Q 2819 -91 2034 -91 
Q 1250 -91 836 529 
Q 422 1150 422 2328 
Q 422 3509 836 4129 
Q 1250 4750 2034 4750 
z
" transform="scale(0.015625)"/>
       </defs>
       <use xlink:href="#DejaVuSans-33"/>
       <use xlink:href="#DejaVuSans-2e" transform="translate(63.623047 0)"/>
       <use xlink:href="#DejaVuSans-33" transform="translate(95.410156 0)"/>
       <use xlink:href="#DejaVuSans-30" transform="translate(159.033203 0)"/>
      </g>
     </g>
    </g>
    <g id="xtick_3">
     <g id="line2d_3">
      <g>
       <use xlink:href="#m64463c5104" x="537.826119" y="953.067057" style="stroke: #000000; stroke-width: 0.8"/>
      </g>
     </g>
     <g id="text_3">
      <!-- 3.31 -->
      <g transform="translate(526.693307 967.665494) scale(0.1 -0.1)">
       <defs>
        <path id="DejaVuSans-31" d="M 794 531 
L 1825 531 
L 1825 4091 
L 703 3866 
L 703 4441 
L 1819 4666 
L 2450 4666 
L 2450 531 
L 3481 531 
L 3481 0 
L 794 0 
L 794 531 
z
" transform="scale(0.015625)"/>
       </defs>
       <use xlink:href="#DejaVuSans-33"/>
       <use xlink:href="#DejaVuSans-2e" transform="translate(63.623047 0)"/>
       <use xlink:href="#DejaVuSans-33" transform="translate(95.410156 0)"/>
       <use xlink:href="#DejaVuSans-31" transform="translate(159.033203 0)"/>
      </g>
     </g>
    </g>
    <g id="xtick_4">
     <g id="line2d_4">
      <g>
       <use xlink:href="#m64463c5104" x="674.161067" y="953.067057" style="stroke: #000000; stroke-width: 0.8"/>
      </g>
     </g>
     <g id="text_4">
      <!-- 3.32 -->
      <g transform="translate(663.028254 967.665494) scale(0.1 -0.1)">
       <use xlink:href="#DejaVuSans-33"/>
       <use xlink:href="#DejaVuSans-2e" transform="translate(63.623047 0)"/>
       <use xlink:href="#DejaVuSans-33" transform="translate(95.410156 0)"/>
       <use xlink:href="#DejaVuSans-32" transform="translate(159.033203 0)"/>
      </g>
     </g>
    </g>
    <g id="xtick_5">
     <g id="line2d_5">
      <g>
       <use xlink:href="#m64463c5104" x="810.496014" y="953.067057" style="stroke: #000000; stroke-width: 0.8"/>
      </g>
     </g>
     <g id="text_5">
      <!-- 3.33 -->
      <g transform="translate(799.363202 967.665494) scale(0.1 -0.1)">
       <use xlink:href="#DejaVuSans-33"/>
       <use xlink:href="#DejaVuSans-2e" transform="translate(63.623047 0)"/>
       <use xlink:href="#DejaVuSans-33" transform="translate(95.410156 0)"/>
       <use xlink:href="#DejaVuSans-33" transform="translate(159.033203 0)"/>
      </g>
     </g>
    </g>
    <g id="xtick_6">
     <g id="line2d_6">
      <g>
       <use xlink:href="#m64463c5104" x="946.830962" y="953.067057" style="stroke: #000000; stroke-width: 0.8"/>
      </g>
     </g>
     <g id="text_6">
      <!-- 3.34 -->
      <g transform="translate(935.698149 967.665494) scale(0.1 -0.1)">
       <defs>
        <path id="DejaVuSans-34" d="M 2419 4116 
L 825 1625 
L 2419 1625 
L 2419 4116 
z
M 2253 4666 
L 3047 4666 
L 3047 1625 
L 3713 1625 
L 3713 1100 
L 3047 1100 
L 3047 0 
L 2419 0 
L 2419 1100 
L 313 1100 
L 313 1709 
L 2253 4666 
z
" transform="scale(0.015625)"/>
       </defs>
       <use xlink:href="#DejaVuSans-33"/>
       <use xlink:href="#DejaVuSans-2e" transform="translate(63.623047 0)"/>
       <use xlink:href="#DejaVuSans-33" transform="translate(95.410156 0)"/>
       <use xlink:href="#DejaVuSans-34" transform="translate(159.033203 0)"/>
      </g>
     </g>
    </g>
    <g id="xtick_7">
     <g id="line2d_7">
      <g>
       <use xlink:href="#m64463c5104" x="1083.165909" y="953.067057" style="stroke: #000000; stroke-width: 0.8"/>
      </g>
     </g>
     <g id="text_7">
      <!-- 3.35 -->
      <g transform="translate(1072.033097 967.665494) scale(0.1 -0.1)">
       <defs>
        <path id="DejaVuSans-35" d="M 691 4666 
L 3169 4666 
L 3169 4134 
L 1269 4134 
L 1269 2991 
Q 1406 3038 1543 3061 
Q 1681 3084 1819 3084 
Q 2600 3084 3056 2656 
Q 3513 2228 3513 1497 
Q 3513 744 3044 326 
Q 2575 -91 1722 -91 
Q 1428 -91 1123 -41 
Q 819 9 494 109 
L 494 744 
Q 775 591 1075 516 
Q 1375 441 1709 441 
Q 2250 441 2565 725 
Q 2881 1009 2881 1497 
Q 2881 1984 2565 2268 
Q 2250 2553 1709 2553 
Q 1456 2553 1204 2497 
Q 953 2441 691 2322 
L 691 4666 
z
" transform="scale(0.015625)"/>
       </defs>
       <use xlink:href="#DejaVuSans-33"/>
       <use xlink:href="#DejaVuSans-2e" transform="translate(63.623047 0)"/>
       <use xlink:href="#DejaVuSans-33" transform="translate(95.410156 0)"/>
       <use xlink:href="#DejaVuSans-35" transform="translate(159.033203 0)"/>
      </g>
     </g>
    </g>
    <g id="xtick_8">
     <g id="line2d_8">
      <g>
       <use xlink:href="#m64463c5104" x="1219.500856" y="953.067057" style="stroke: #000000; stroke-width: 0.8"/>
      </g>
     </g>
     <g id="text_8">
      <!-- 3.36 -->
      <g transform="translate(1208.368044 967.665494) scale(0.1 -0.1)">
       <defs>
        <path id="DejaVuSans-36" d="M 2113 2584 
Q 1688 2584 1439 2293 
Q 1191 2003 1191 1497 
Q 1191 994 1439 701 
Q 1688 409 2113 409 
Q 2538 409 2786 701 
Q 3034 994 3034 1497 
Q 3034 2003 2786 2293 
Q 2538 2584 2113 2584 
z
M 3366 4563 
L 3366 3988 
Q 3128 4100 2886 4159 
Q 2644 4219 2406 4219 
Q 1781 4219 1451 3797 
Q 1122 3375 1075 2522 
Q 1259 2794 1537 2939 
Q 1816 3084 2150 3084 
Q 2853 3084 3261 2657 
Q 3669 2231 3669 1497 
Q 3669 778 3244 343 
Q 2819 -91 2113 -91 
Q 1303 -91 875 529 
Q 447 1150 447 2328 
Q 447 3434 972 4092 
Q 1497 4750 2381 4750 
Q 2619 4750 2861 4703 
Q 3103 4656 3366 4563 
z
" transform="scale(0.015625)"/>
       </defs>
       <use xlink:href="#DejaVuSans-33"/>
       <use xlink:href="#DejaVuSans-2e" transform="translate(63.623047 0)"/>
       <use xlink:href="#DejaVuSans-33" transform="translate(95.410156 0)"/>
       <use xlink:href="#DejaVuSans-36" transform="translate(159.033203 0)"/>
      </g>
     </g>
    </g>
   </g>
   <g id="matplotlib.axis_2">
    <g id="ytick_1">
     <g id="line2d_9">
      <defs>
       <path id="mcca9a2275f" d="M 0 0 
L -3.5 0 
" style="stroke: #000000; stroke-width: 0.8"/>
      </defs>
      <g>
       <use xlink:href="#mcca9a2275f" x="180" y="915.020702" style="stroke: #000000; stroke-width: 0.8"/>
      </g>
     </g>
     <g id="text_9">
      <!-- 52.8625 -->
      <g transform="translate(131.646875 918.819921) scale(0.1 -0.1)">
       <defs>
        <path id="DejaVuSans-38" d="M 2034 2216 
Q 1584 2216 1326 1975 
Q 1069 1734 1069 1313 
Q 1069 891 1326 650 
Q 1584 409 2034 409 
Q 2484 409 2743 651 
Q 3003 894 3003 1313 
Q 3003 1734 2745 1975 
Q 2488 2216 2034 2216 
z
M 1403 2484 
Q 997 2584 770 2862 
Q 544 3141 544 3541 
Q 544 4100 942 4425 
Q 1341 4750 2034 4750 
Q 2731 4750 3128 4425 
Q 3525 4100 3525 3541 
Q 3525 3141 3298 2862 
Q 3072 2584 2669 2484 
Q 3125 2378 3379 2068 
Q 3634 1759 3634 1313 
Q 3634 634 3220 271 
Q 2806 -91 2034 -91 
Q 1263 -91 848 271 
Q 434 634 434 1313 
Q 434 1759 690 2068 
Q 947 2378 1403 2484 
z
M 1172 3481 
Q 1172 3119 1398 2916 
Q 1625 2713 2034 2713 
Q 2441 2713 2670 2916 
Q 2900 3119 2900 3481 
Q 2900 3844 2670 4047 
Q 2441 4250 2034 4250 
Q 1625 4250 1398 4047 
Q 1172 3844 1172 3481 
z
" transform="scale(0.015625)"/>
       </defs>
       <use xlink:href="#DejaVuSans-35"/>
       <use xlink:href="#DejaVuSans-32" transform="translate(63.623047 0)"/>
       <use xlink:href="#DejaVuSans-2e" transform="translate(127.246094 0)"/>
       <use xlink:href="#DejaVuSans-38" transform="translate(159.033203 0)"/>
       <use xlink:href="#DejaVuSans-36" transform="translate(222.65625 0)"/>
       <use xlink:href="#DejaVuSans-32" transform="translate(286.279297 0)"/>
       <use xlink:href="#DejaVuSans-35" transform="translate(349.902344 0)"/>
      </g>
     </g>
    </g>
    <g id="ytick_2">
     <g id="line2d_10">
      <g>
       <use xlink:href="#mcca9a2275f" x="180" y="858.554597" style="stroke: #000000; stroke-width: 0.8"/>
      </g>
     </g>
     <g id="text_10">
      <!-- 52.8650 -->
      <g transform="translate(131.646875 862.353816) scale(0.1 -0.1)">
       <use xlink:href="#DejaVuSans-35"/>
       <use xlink:href="#DejaVuSans-32" transform="translate(63.623047 0)"/>
       <use xlink:href="#DejaVuSans-2e" transform="translate(127.246094 0)"/>
       <use xlink:href="#DejaVuSans-38" transform="translate(159.033203 0)"/>
       <use xlink:href="#DejaVuSans-36" transform="translate(222.65625 0)"/>
       <use xlink:href="#DejaVuSans-35" transform="translate(286.279297 0)"/>
       <use xlink:href="#DejaVuSans-30" transform="translate(349.902344 0)"/>
      </g>
     </g>
    </g>
    <g id="ytick_3">
     <g id="line2d_11">
      <g>
       <use xlink:href="#mcca9a2275f" x="180" y="802.088492" style="stroke: #000000; stroke-width: 0.8"/>
      </g>
     </g>
     <g id="text_11">
      <!-- 52.8675 -->
      <g transform="translate(131.646875 805.887711) scale(0.1 -0.1)">
       <defs>
        <path id="DejaVuSans-37" d="M 525 4666 
L 3525 4666 
L 3525 4397 
L 1831 0 
L 1172 0 
L 2766 4134 
L 525 4134 
L 525 4666 
z
" transform="scale(0.015625)"/>
       </defs>
       <use xlink:href="#DejaVuSans-35"/>
       <use xlink:href="#DejaVuSans-32" transform="translate(63.623047 0)"/>
       <use xlink:href="#DejaVuSans-2e" transform="translate(127.246094 0)"/>
       <use xlink:href="#DejaVuSans-38" transform="translate(159.033203 0)"/>
       <use xlink:href="#DejaVuSans-36" transform="translate(222.65625 0)"/>
       <use xlink:href="#DejaVuSans-37" transform="translate(286.279297 0)"/>
       <use xlink:href="#DejaVuSans-35" transform="translate(349.902344 0)"/>
      </g>
     </g>
    </g>
    <g id="ytick_4">
     <g id="line2d_12">
      <g>
       <use xlink:href="#mcca9a2275f" x="180" y="745.622387" style="stroke: #000000; stroke-width: 0.8"/>
      </g>
     </g>
     <g id="text_12">
      <!-- 52.8700 -->
      <g transform="translate(131.646875 749.421606) scale(0.1 -0.1)">
       <use xlink:href="#DejaVuSans-35"/>
       <use xlink:href="#DejaVuSans-32" transform="translate(63.623047 0)"/>
       <use xlink:href="#DejaVuSans-2e" transform="translate(127.246094 0)"/>
       <use xlink:href="#DejaVuSans-38" transform="translate(159.033203 0)"/>
       <use xlink:href="#DejaVuSans-37" transform="translate(222.65625 0)"/>
       <use xlink:href="#DejaVuSans-30" transform="translate(286.279297 0)"/>
       <use xlink:href="#DejaVuSans-30" transform="translate(349.902344 0)"/>
      </g>
     </g>
    </g>
    <g id="ytick_5">
     <g id="line2d_13">
      <g>
       <use xlink:href="#mcca9a2275f" x="180" y="689.156282" style="stroke: #000000; stroke-width: 0.8"/>
      </g>
     </g>
     <g id="text_13">
      <!-- 52.8725 -->
      <g transform="translate(131.646875 692.955501) scale(0.1 -0.1)">
       <use xlink:href="#DejaVuSans-35"/>
       <use xlink:href="#DejaVuSans-32" transform="translate(63.623047 0)"/>
       <use xlink:href="#DejaVuSans-2e" transform="translate(127.246094 0)"/>
       <use xlink:href="#DejaVuSans-38" transform="translate(159.033203 0)"/>
       <use xlink:href="#DejaVuSans-37" transform="translate(222.65625 0)"/>
       <use xlink:href="#DejaVuSans-32" transform="translate(286.279297 0)"/>
       <use xlink:href="#DejaVuSans-35" transform="translate(349.902344 0)"/>
      </g>
     </g>
    </g>
    <g id="ytick_6">
     <g id="line2d_14">
      <g>
       <use xlink:href="#mcca9a2275f" x="180" y="632.690177" style="stroke: #000000; stroke-width: 0.8"/>
      </g>
     </g>
     <g id="text_14">
      <!-- 52.8750 -->
      <g transform="translate(131.646875 636.489396) scale(0.1 -0.1)">
       <use xlink:href="#DejaVuSans-35"/>
       <use xlink:href="#DejaVuSans-32" transform="translate(63.623047 0)"/>
       <use xlink:href="#DejaVuSans-2e" transform="translate(127.246094 0)"/>
       <use xlink:href="#DejaVuSans-38" transform="translate(159.033203 0)"/>
       <use xlink:href="#DejaVuSans-37" transform="translate(222.65625 0)"/>
       <use xlink:href="#DejaVuSans-35" transform="translate(286.279297 0)"/>
       <use xlink:href="#DejaVuSans-30" transform="translate(349.902344 0)"/>
      </g>
     </g>
    </g>
    <g id="ytick_7">
     <g id="line2d_15">
      <g>
       <use xlink:href="#mcca9a2275f" x="180" y="576.224072" style="stroke: #000000; stroke-width: 0.8"/>
      </g>
     </g>
     <g id="text_15">
      <!-- 52.8775 -->
      <g transform="translate(131.646875 580.02329) scale(0.1 -0.1)">
       <use xlink:href="#DejaVuSans-35"/>
       <use xlink:href="#DejaVuSans-32" transform="translate(63.623047 0)"/>
       <use xlink:href="#DejaVuSans-2e" transform="translate(127.246094 0)"/>
       <use xlink:href="#DejaVuSans-38" transform="translate(159.033203 0)"/>
       <use xlink:href="#DejaVuSans-37" transform="translate(222.65625 0)"/>
       <use xlink:href="#DejaVuSans-37" transform="translate(286.279297 0)"/>
       <use xlink:href="#DejaVuSans-35" transform="translate(349.902344 0)"/>
      </g>
     </g>
    </g>
    <g id="ytick_8">
     <g id="line2d_16">
      <g>
       <use xlink:href="#mcca9a2275f" x="180" y="519.757967" style="stroke: #000000; stroke-width: 0.8"/>
      </g>
     </g>
     <g id="text_16">
      <!-- 52.8800 -->
      <g transform="translate(131.646875 523.557185) scale(0.1 -0.1)">
       <use xlink:href="#DejaVuSans-35"/>
       <use xlink:href="#DejaVuSans-32" transform="translate(63.623047 0)"/>
       <use xlink:href="#DejaVuSans-2e" transform="translate(127.246094 0)"/>
       <use xlink:href="#DejaVuSans-38" transform="translate(159.033203 0)"/>
       <use xlink:href="#DejaVuSans-38" transform="translate(222.65625 0)"/>
       <use xlink:href="#DejaVuSans-30" transform="translate(286.279297 0)"/>
       <use xlink:href="#DejaVuSans-30" transform="translate(349.902344 0)"/>
      </g>
     </g>
    </g>
   </g>
   <g id="LineCollection_1">
    <path d="M 737.439127 828.589671 
L 738.354203 625.549248 
" clip-path="url(#pb23e5e73bb)" style="fill: none; stroke: #1f77b4; stroke-opacity: 0.5; stroke-width: 1.5"/>
   </g>
   <g id="LineCollection_2">
    <path d="M 383.235064 776.288618 
L 484.501719 776.715765 
L 484.933089 675.195373 
L 383.655966 674.768157 
L 383.235064 776.288618 
" clip-path="url(#pb23e5e73bb)" style="fill: none; stroke: #1f77b4; stroke-width: 1.5"/>
    <path d="M 403.488404 776.373208 
L 504.755037 776.802453 
L 505.1885 675.282075 
L 403.911399 674.85276 
L 403.488404 776.373208 
" clip-path="url(#pb23e5e73bb)" style="fill: none; stroke: #1f77b4; stroke-width: 1.5"/>
    <path d="M 423.74174 776.458217 
L 525.00835 776.889561 
L 525.443906 675.369197 
L 424.166828 674.937784 
L 423.74174 776.458217 
" clip-path="url(#pb23e5e73bb)" style="fill: none; stroke: #1f77b4; stroke-width: 1.5"/>
    <path d="M 443.995071 776.543647 
L 545.261658 776.977089 
L 545.699308 675.456739 
L 444.422253 675.023227 
L 443.995071 776.543647 
" clip-path="url(#pb23e5e73bb)" style="fill: none; stroke: #1f77b4; stroke-width: 1.5"/>
    <path d="M 464.248397 776.629496 
L 565.514961 777.065037 
L 565.954705 675.544701 
L 464.677673 675.10909 
L 464.248397 776.629496 
" clip-path="url(#pb23e5e73bb)" style="fill: none; stroke: #1f77b4; stroke-width: 1.5"/>
    <path d="M 484.501719 776.715765 
L 585.76826 777.153404 
L 586.210097 675.633083 
L 484.933089 675.195373 
L 484.501719 776.715765 
" clip-path="url(#pb23e5e73bb)" style="fill: none; stroke: #1f77b4; stroke-width: 1.5"/>
    <path d="M 504.755037 776.802453 
L 606.021555 777.242191 
L 606.465485 675.721884 
L 505.1885 675.282075 
L 504.755037 776.802453 
" clip-path="url(#pb23e5e73bb)" style="fill: none; stroke: #1f77b4; stroke-width: 1.5"/>
    <path d="M 525.00835 776.889561 
L 626.274844 777.331397 
L 626.720868 675.811105 
L 525.443906 675.369197 
L 525.00835 776.889561 
" clip-path="url(#pb23e5e73bb)" style="fill: none; stroke: #1f77b4; stroke-width: 1.5"/>
    <path d="M 545.261658 776.977089 
L 646.528129 777.421024 
L 646.976246 675.900746 
L 545.699308 675.456739 
L 545.261658 776.977089 
" clip-path="url(#pb23e5e73bb)" style="fill: none; stroke: #1f77b4; stroke-width: 1.5"/>
    <path d="M 565.514961 777.065037 
L 666.781409 777.51107 
L 667.231619 675.990807 
L 565.954705 675.544701 
L 565.514961 777.065037 
" clip-path="url(#pb23e5e73bb)" style="fill: none; stroke: #1f77b4; stroke-width: 1.5"/>
    <path d="M 585.76826 777.153404 
L 687.034684 777.601536 
L 687.486988 676.081287 
L 586.210097 675.633083 
L 585.76826 777.153404 
" clip-path="url(#pb23e5e73bb)" style="fill: none; stroke: #1f77b4; stroke-width: 1.5"/>
    <path d="M 606.021555 777.242191 
L 707.287954 777.692421 
L 707.742352 676.172187 
L 606.465485 675.721884 
L 606.021555 777.242191 
" clip-path="url(#pb23e5e73bb)" style="fill: none; stroke: #1f77b4; stroke-width: 1.5"/>
    <path d="M 626.274844 777.331397 
L 727.541219 777.783726 
L 727.997711 676.263507 
L 626.720868 675.811105 
L 626.274844 777.331397 
" clip-path="url(#pb23e5e73bb)" style="fill: none; stroke: #1f77b4; stroke-width: 1.5"/>
    <path d="M 646.528129 777.421024 
L 747.79448 777.875451 
L 748.253065 676.355247 
L 646.976246 675.900746 
L 646.528129 777.421024 
" clip-path="url(#pb23e5e73bb)" style="fill: none; stroke: #1f77b4; stroke-width: 1.5"/>
    <path d="M 666.781409 777.51107 
L 768.047736 777.967596 
L 768.508414 676.447407 
L 667.231619 675.990807 
L 666.781409 777.51107 
" clip-path="url(#pb23e5e73bb)" style="fill: none; stroke: #1f77b4; stroke-width: 1.5"/>
    <path d="M 687.034684 777.601536 
L 788.300987 778.06016 
L 788.763758 676.539986 
L 687.486988 676.081287 
L 687.034684 777.601536 
" clip-path="url(#pb23e5e73bb)" style="fill: none; stroke: #1f77b4; stroke-width: 1.5"/>
    <path d="M 707.287954 777.692421 
L 808.554233 778.153144 
L 809.019098 676.632985 
L 707.742352 676.172187 
L 707.287954 777.692421 
" clip-path="url(#pb23e5e73bb)" style="fill: none; stroke: #1f77b4; stroke-width: 1.5"/>
    <path d="M 727.541219 777.783726 
L 828.807474 778.246548 
L 829.274432 676.726404 
L 727.997711 676.263507 
L 727.541219 777.783726 
" clip-path="url(#pb23e5e73bb)" style="fill: none; stroke: #1f77b4; stroke-width: 1.5"/>
    <path d="M 747.79448 777.875451 
L 849.06071 778.340371 
L 849.529762 676.820242 
L 748.253065 676.355247 
L 747.79448 777.875451 
" clip-path="url(#pb23e5e73bb)" style="fill: none; stroke: #1f77b4; stroke-width: 1.5"/>
    <path d="M 768.047736 777.967596 
L 869.313941 778.434614 
L 869.785086 676.914501 
L 768.508414 676.447407 
L 768.047736 777.967596 
" clip-path="url(#pb23e5e73bb)" style="fill: none; stroke: #1f77b4; stroke-width: 1.5"/>
    <path d="M 788.300987 778.06016 
L 889.567167 778.529277 
L 890.040406 677.009179 
L 788.763758 676.539986 
L 788.300987 778.06016 
" clip-path="url(#pb23e5e73bb)" style="fill: none; stroke: #1f77b4; stroke-width: 1.5"/>
    <path d="M 808.554233 778.153144 
L 909.820388 778.624359 
L 910.29572 677.104277 
L 809.019098 676.632985 
L 808.554233 778.153144 
" clip-path="url(#pb23e5e73bb)" style="fill: none; stroke: #1f77b4; stroke-width: 1.5"/>
    <path d="M 828.807474 778.246548 
L 930.073603 778.719862 
L 930.551029 677.199794 
L 829.274432 676.726404 
L 828.807474 778.246548 
" clip-path="url(#pb23e5e73bb)" style="fill: none; stroke: #1f77b4; stroke-width: 1.5"/>
    <path d="M 849.06071 778.340371 
L 950.326814 778.815783 
L 950.806334 677.295732 
L 849.529762 676.820242 
L 849.06071 778.340371 
" clip-path="url(#pb23e5e73bb)" style="fill: none; stroke: #1f77b4; stroke-width: 1.5"/>
    <path d="M 869.313941 778.434614 
L 970.58002 778.912125 
L 971.061633 677.392089 
L 869.785086 676.914501 
L 869.313941 778.434614 
" clip-path="url(#pb23e5e73bb)" style="fill: none; stroke: #1f77b4; stroke-width: 1.5"/>
    <path d="M 889.567167 778.529277 
L 990.833221 779.008886 
L 991.316927 677.488866 
L 890.040406 677.009179 
L 889.567167 778.529277 
" clip-path="url(#pb23e5e73bb)" style="fill: none; stroke: #1f77b4; stroke-width: 1.5"/>
    <path d="M 909.820388 778.624359 
L 1011.086416 779.106067 
L 1011.572216 677.586063 
L 910.29572 677.104277 
L 909.820388 778.624359 
" clip-path="url(#pb23e5e73bb)" style="fill: none; stroke: #1f77b4; stroke-width: 1.5"/>
    <path d="M 930.073603 778.719862 
L 1031.339606 779.203668 
L 1031.8275 677.683679 
L 930.551029 677.199794 
L 930.073603 778.719862 
" clip-path="url(#pb23e5e73bb)" style="fill: none; stroke: #1f77b4; stroke-width: 1.5"/>
    <path d="M 950.326814 778.815783 
L 1051.592791 779.301688 
L 1052.082778 677.781715 
L 950.806334 677.295732 
L 950.326814 778.815783 
" clip-path="url(#pb23e5e73bb)" style="fill: none; stroke: #1f77b4; stroke-width: 1.5"/>
    <path d="M 970.58002 778.912125 
L 1071.845971 779.400128 
L 1072.338051 677.880171 
L 971.061633 677.392089 
L 970.58002 778.912125 
" clip-path="url(#pb23e5e73bb)" style="fill: none; stroke: #1f77b4; stroke-width: 1.5"/>
    <path d="M 990.833221 779.008886 
L 1092.099146 779.498988 
L 1092.59332 677.979047 
L 991.316927 677.488866 
L 990.833221 779.008886 
" clip-path="url(#pb23e5e73bb)" style="fill: none; stroke: #1f77b4; stroke-width: 1.5"/>
    <path d="M 230.727273 927.948559 
L 635.731104 929.656731 
L 637.519387 523.575591 
L 232.348074 521.866312 
L 230.727273 927.948559 
" clip-path="url(#pb23e5e73bb)" style="fill: none; stroke: #1f77b4; stroke-width: 1.5"/>
    <path d="M 250.977507 928.029982 
L 655.981247 929.746546 
L 657.777904 523.665464 
L 252.606682 521.947787 
L 250.977507 928.029982 
" clip-path="url(#pb23e5e73bb)" style="fill: none; stroke: #1f77b4; stroke-width: 1.5"/>
    <path d="M 271.227736 928.111824 
L 676.231385 929.83678 
L 678.036416 523.755756 
L 272.865286 522.029682 
L 271.227736 928.111824 
" clip-path="url(#pb23e5e73bb)" style="fill: none; stroke: #1f77b4; stroke-width: 1.5"/>
    <path d="M 291.477962 928.194085 
L 696.481519 929.927433 
L 698.294923 523.846469 
L 293.123886 522.111997 
L 291.477962 928.194085 
" clip-path="url(#pb23e5e73bb)" style="fill: none; stroke: #1f77b4; stroke-width: 1.5"/>
    <path d="M 311.728183 928.276766 
L 716.731648 930.018506 
L 718.553426 523.937601 
L 313.382481 522.194732 
L 311.728183 928.276766 
" clip-path="url(#pb23e5e73bb)" style="fill: none; stroke: #1f77b4; stroke-width: 1.5"/>
    <path d="M 331.978399 928.359867 
L 736.981772 930.109999 
L 738.811924 524.029153 
L 333.641071 522.277887 
L 331.978399 928.359867 
" clip-path="url(#pb23e5e73bb)" style="fill: none; stroke: #1f77b4; stroke-width: 1.5"/>
    <path d="M 352.228611 928.443388 
L 757.231891 930.201912 
L 759.070417 524.121125 
L 353.899657 522.361461 
L 352.228611 928.443388 
" clip-path="url(#pb23e5e73bb)" style="fill: none; stroke: #1f77b4; stroke-width: 1.5"/>
    <path d="M 372.478819 928.527328 
L 777.482005 930.294244 
L 779.328905 524.213517 
L 374.158239 522.445456 
L 372.478819 928.527328 
" clip-path="url(#pb23e5e73bb)" style="fill: none; stroke: #1f77b4; stroke-width: 1.5"/>
    <path d="M 392.729022 928.611687 
L 797.732114 930.386995 
L 799.587388 524.306329 
L 394.416816 522.52987 
L 392.729022 928.611687 
" clip-path="url(#pb23e5e73bb)" style="fill: none; stroke: #1f77b4; stroke-width: 1.5"/>
    <path d="M 412.979221 928.696466 
L 817.982218 930.480166 
L 819.845866 524.39956 
L 414.675389 522.614704 
L 412.979221 928.696466 
" clip-path="url(#pb23e5e73bb)" style="fill: none; stroke: #1f77b4; stroke-width: 1.5"/>
    <path d="M 433.229415 928.781665 
L 838.232317 930.573757 
L 840.104339 524.493212 
L 434.933957 522.699958 
L 433.229415 928.781665 
" clip-path="url(#pb23e5e73bb)" style="fill: none; stroke: #1f77b4; stroke-width: 1.5"/>
    <path d="M 453.479605 928.867284 
L 858.482412 930.667768 
L 860.362808 524.587283 
L 455.192521 522.785632 
L 453.479605 928.867284 
" clip-path="url(#pb23e5e73bb)" style="fill: none; stroke: #1f77b4; stroke-width: 1.5"/>
    <path d="M 473.72979 928.953322 
L 878.732501 930.762198 
L 880.621271 524.681774 
L 475.45108 522.871726 
L 473.72979 928.953322 
" clip-path="url(#pb23e5e73bb)" style="fill: none; stroke: #1f77b4; stroke-width: 1.5"/>
    <path d="M 493.97997 929.039779 
L 898.982585 930.857047 
L 900.879729 524.776685 
L 495.709635 522.958239 
L 493.97997 929.039779 
" clip-path="url(#pb23e5e73bb)" style="fill: none; stroke: #1f77b4; stroke-width: 1.5"/>
    <path d="M 514.230146 929.126656 
L 919.232665 930.952316 
L 921.138182 524.872016 
L 515.968185 523.045173 
L 514.230146 929.126656 
" clip-path="url(#pb23e5e73bb)" style="fill: none; stroke: #1f77b4; stroke-width: 1.5"/>
    <path d="M 534.480318 929.213953 
L 939.482739 931.048005 
L 941.39663 524.967767 
L 536.22673 523.132526 
L 534.480318 929.213953 
" clip-path="url(#pb23e5e73bb)" style="fill: none; stroke: #1f77b4; stroke-width: 1.5"/>
    <path d="M 554.730484 929.30167 
L 959.732808 931.144113 
L 961.655073 525.063938 
L 556.485271 523.2203 
L 554.730484 929.30167 
" clip-path="url(#pb23e5e73bb)" style="fill: none; stroke: #1f77b4; stroke-width: 1.5"/>
    <path d="M 574.980646 929.389806 
L 979.982872 931.240641 
L 981.913511 525.160528 
L 576.743807 523.308493 
L 574.980646 929.389806 
" clip-path="url(#pb23e5e73bb)" style="fill: none; stroke: #1f77b4; stroke-width: 1.5"/>
    <path d="M 595.230804 929.478361 
L 1000.232931 931.337589 
L 1002.171944 525.257538 
L 597.002338 523.397106 
L 595.230804 929.478361 
" clip-path="url(#pb23e5e73bb)" style="fill: none; stroke: #1f77b4; stroke-width: 1.5"/>
    <path d="M 615.480956 929.567336 
L 1020.482985 931.434956 
L 1022.430371 525.354969 
L 617.260865 523.486139 
L 615.480956 929.567336 
" clip-path="url(#pb23e5e73bb)" style="fill: none; stroke: #1f77b4; stroke-width: 1.5"/>
    <path d="M 635.731104 929.656731 
L 1040.733033 931.532743 
L 1042.688794 525.452819 
L 637.519387 523.575591 
L 635.731104 929.656731 
" clip-path="url(#pb23e5e73bb)" style="fill: none; stroke: #1f77b4; stroke-width: 1.5"/>
    <path d="M 655.981247 929.746546 
L 1060.983076 931.630949 
L 1062.947211 525.551089 
L 657.777904 523.665464 
L 655.981247 929.746546 
" clip-path="url(#pb23e5e73bb)" style="fill: none; stroke: #1f77b4; stroke-width: 1.5"/>
    <path d="M 676.231385 929.83678 
L 1081.233115 931.729575 
L 1083.205623 525.649779 
L 678.036416 523.755756 
L 676.231385 929.83678 
" clip-path="url(#pb23e5e73bb)" style="fill: none; stroke: #1f77b4; stroke-width: 1.5"/>
    <path d="M 696.481519 929.927433 
L 1101.483147 931.828621 
L 1103.46403 525.748888 
L 698.294923 523.846469 
L 696.481519 929.927433 
" clip-path="url(#pb23e5e73bb)" style="fill: none; stroke: #1f77b4; stroke-width: 1.5"/>
    <path d="M 716.731648 930.018506 
L 1121.733175 931.928086 
L 1123.722431 525.848418 
L 718.553426 523.937601 
L 716.731648 930.018506 
" clip-path="url(#pb23e5e73bb)" style="fill: none; stroke: #1f77b4; stroke-width: 1.5"/>
    <path d="M 736.981772 930.109999 
L 1141.983197 932.02797 
L 1143.980827 525.948367 
L 738.811924 524.029153 
L 736.981772 930.109999 
" clip-path="url(#pb23e5e73bb)" style="fill: none; stroke: #1f77b4; stroke-width: 1.5"/>
    <path d="M 757.231891 930.201912 
L 1162.233214 932.128275 
L 1164.239218 526.048737 
L 759.070417 524.121125 
L 757.231891 930.201912 
" clip-path="url(#pb23e5e73bb)" style="fill: none; stroke: #1f77b4; stroke-width: 1.5"/>
    <path d="M 777.482005 930.294244 
L 1182.483226 932.228999 
L 1184.497603 526.149526 
L 779.328905 524.213517 
L 777.482005 930.294244 
" clip-path="url(#pb23e5e73bb)" style="fill: none; stroke: #1f77b4; stroke-width: 1.5"/>
    <path d="M 797.732114 930.386995 
L 1202.733232 932.330142 
L 1204.755983 526.250735 
L 799.587388 524.306329 
L 797.732114 930.386995 
" clip-path="url(#pb23e5e73bb)" style="fill: none; stroke: #1f77b4; stroke-width: 1.5"/>
    <path d="M 817.982218 930.480166 
L 1222.983233 932.431705 
L 1225.014358 526.352364 
L 819.845866 524.39956 
L 817.982218 930.480166 
" clip-path="url(#pb23e5e73bb)" style="fill: none; stroke: #1f77b4; stroke-width: 1.5"/>
    <path d="M 838.232317 930.573757 
L 1243.233229 932.533688 
L 1245.272727 526.454413 
L 840.104339 524.493212 
L 838.232317 930.573757 
" clip-path="url(#pb23e5e73bb)" style="fill: none; stroke: #1f77b4; stroke-width: 1.5"/>
   </g>
   <g id="patch_3">
    <path d="M 180 953.067057 
L 180 501.332943 
" style="fill: none; stroke: #000000; stroke-width: 0.8; stroke-linejoin: miter; stroke-linecap: square"/>
   </g>
   <g id="patch_4">
    <path d="M 1296 953.067057 
L 1296 501.332943 
" style="fill: none; stroke: #000000; stroke-width: 0.8; stroke-linejoin: miter; stroke-linecap: square"/>
   </g>
   <g id="patch_5">
    <path d="M 180 953.067057 
L 1296 953.067057 
" style="fill: none; stroke: #000000; stroke-width: 0.8; stroke-linejoin: miter; stroke-linecap: square"/>
   </g>
   <g id="patch_6">
    <path d="M 180 501.332943 
L 1296 501.332943 
" style="fill: none; stroke: #000000; stroke-width: 0.8; stroke-linejoin: miter; stroke-linecap: square"/>
   </g>
   <g id="text_17">
    <!-- case1 -->
    <g transform="translate(720.389063 495.332943) scale(0.12 -0.12)">
     <defs>
      <path id="DejaVuSans-63" d="M 3122 3366 
L 3122 2828 
Q 2878 2963 2633 3030 
Q 2388 3097 2138 3097 
Q 1578 3097 1268 2742 
Q 959 2388 959 1747 
Q 959 1106 1268 751 
Q 1578 397 2138 397 
Q 2388 397 2633 464 
Q 2878 531 3122 666 
L 3122 134 
Q 2881 22 2623 -34 
Q 2366 -91 2075 -91 
Q 1284 -91 818 406 
Q 353 903 353 1747 
Q 353 2603 823 3093 
Q 1294 3584 2113 3584 
Q 2378 3584 2631 3529 
Q 2884 3475 3122 3366 
z
" transform="scale(0.015625)"/>
      <path id="DejaVuSans-61" d="M 2194 1759 
Q 1497 1759 1228 1600 
Q 959 1441 959 1056 
Q 959 750 1161 570 
Q 1363 391 1709 391 
Q 2188 391 2477 730 
Q 2766 1069 2766 1631 
L 2766 1759 
L 2194 1759 
z
M 3341 1997 
L 3341 0 
L 2766 0 
L 2766 531 
Q 2569 213 2275 61 
Q 1981 -91 1556 -91 
Q 1019 -91 701 211 
Q 384 513 384 1019 
Q 384 1609 779 1909 
Q 1175 2209 1959 2209 
L 2766 2209 
L 2766 2266 
Q 2766 2663 2505 2880 
Q 2244 3097 1772 3097 
Q 1472 3097 1187 3025 
Q 903 2953 641 2809 
L 641 3341 
Q 956 3463 1253 3523 
Q 1550 3584 1831 3584 
Q 2591 3584 2966 3190 
Q 3341 2797 3341 1997 
z
" transform="scale(0.015625)"/>
      <path id="DejaVuSans-73" d="M 2834 3397 
L 2834 2853 
Q 2591 2978 2328 3040 
Q 2066 3103 1784 3103 
Q 1356 3103 1142 2972 
Q 928 2841 928 2578 
Q 928 2378 1081 2264 
Q 1234 2150 1697 2047 
L 1894 2003 
Q 2506 1872 2764 1633 
Q 3022 1394 3022 966 
Q 3022 478 2636 193 
Q 2250 -91 1575 -91 
Q 1294 -91 989 -36 
Q 684 19 347 128 
L 347 722 
Q 666 556 975 473 
Q 1284 391 1588 391 
Q 1994 391 2212 530 
Q 2431 669 2431 922 
Q 2431 1156 2273 1281 
Q 2116 1406 1581 1522 
L 1381 1569 
Q 847 1681 609 1914 
Q 372 2147 372 2553 
Q 372 3047 722 3315 
Q 1072 3584 1716 3584 
Q 2034 3584 2315 3537 
Q 2597 3491 2834 3397 
z
" transform="scale(0.015625)"/>
      <path id="DejaVuSans-65" d="M 3597 1894 
L 3597 1613 
L 953 1613 
Q 991 1019 1311 708 
Q 1631 397 2203 397 
Q 2534 397 2845 478 
Q 3156 559 3463 722 
L 3463 178 
Q 3153 47 2828 -22 
Q 2503 -91 2169 -91 
Q 1331 -91 842 396 
Q 353 884 353 1716 
Q 353 2575 817 3079 
Q 1281 3584 2069 3584 
Q 2775 3584 3186 3129 
Q 3597 2675 3597 1894 
z
M 3022 2063 
Q 3016 2534 2758 2815 
Q 2500 3097 2075 3097 
Q 1594 3097 1305 2825 
Q 1016 2553 972 2059 
L 3022 2063 
z
" transform="scale(0.015625)"/>
     </defs>
     <use xlink:href="#DejaVuSans-63"/>
     <use xlink:href="#DejaVuSans-61" transform="translate(54.980469 0)"/>
     <use xlink:href="#DejaVuSans-73" transform="translate(116.259766 0)"/>
     <use xlink:href="#DejaVuSans-65" transform="translate(168.359375 0)"/>
     <use xlink:href="#DejaVuSans-31" transform="translate(229.882812 0)"/>
    </g>
   </g>
  </g>
 </g>
 <defs>
  <clipPath id="pb23e5e73bb">
   <rect x="180" y="501.332943" width="1116" height="451.734113"/>
  </clipPath>
 </defs>
</svg>
