<?xml version="1.0" encoding="utf-8" standalone="no"?>
<!DOCTYPE svg PUBLIC "-//W3C//DTD SVG 1.1//EN"
  "http://www.w3.org/Graphics/SVG/1.1/DTD/svg11.dtd">
<svg xmlns:xlink="http://www.w3.org/1999/xlink" width="668.88pt" height="443.52pt" viewBox="0 0 668.88 443.52" xmlns="http://www.w3.org/2000/svg" version="1.1">
 <metadata>
  <rdf:RDF xmlns:dc="http://purl.org/dc/elements/1.1/" xmlns:cc="http://creativecommons.org/ns#" xmlns:rdf="http://www.w3.org/1999/02/22-rdf-syntax-ns#">
   <cc:Work>
    <dc:type rdf:resource="http://purl.org/dc/dcmitype/StillImage"/>
    <dc:date>2025-07-17T08:08:37.760165</dc:date>
    <dc:format>image/svg+xml</dc:format>
    <dc:creator>
     <cc:Agent>
      <dc:title>Matplotlib v3.10.0, https://matplotlib.org/</dc:title>
     </cc:Agent>
    </dc:creator>
   </cc:Work>
  </rdf:RDF>
 </metadata>
 <defs>
  <style type="text/css">*{stroke-linejoin: round; stroke-linecap: butt}</style>
 </defs>
 <g id="figure_1">
  <g id="patch_1">
   <path d="M 0 443.52 
L 668.88 443.52 
L 668.88 0 
L 0 0 
z
" style="fill: #ffffff"/>
  </g>
  <g id="axes_1">
   <g id="patch_2">
    <path d="M 83.61 394.7328 
L 601.992 394.7328 
L 601.992 53.2224 
L 83.61 53.2224 
z
" style="fill: #ffffff"/>
   </g>
   <g id="matplotlib.axis_1">
    <g id="xtick_1">
     <g id="line2d_1">
      <defs>
       <path id="m3b24bce6a7" d="M 0 0 
L 0 3.5 
" style="stroke: #000000; stroke-width: 0.8"/>
      </defs>
      <g>
       <use xlink:href="#m3b24bce6a7" x="83.61" y="394.7328" style="stroke: #000000; stroke-width: 0.8"/>
      </g>
     </g>
     <g id="text_1">
      <!-- −400 -->
      <g transform="translate(69.876406 409.331237) scale(0.1 -0.1)">
       <defs>
        <path id="DejaVuSans-2212" d="M 678 2272 
L 4684 2272 
L 4684 1741 
L 678 1741 
L 678 2272 
z
" transform="scale(0.015625)"/>
        <path id="DejaVuSans-34" d="M 2419 4116 
L 825 1625 
L 2419 1625 
L 2419 4116 
z
M 2253 4666 
L 3047 4666 
L 3047 1625 
L 3713 1625 
L 3713 1100 
L 3047 1100 
L 3047 0 
L 2419 0 
L 2419 1100 
L 313 1100 
L 313 1709 
L 2253 4666 
z
" transform="scale(0.015625)"/>
        <path id="DejaVuSans-30" d="M 2034 4250 
Q 1547 4250 1301 3770 
Q 1056 3291 1056 2328 
Q 1056 1369 1301 889 
Q 1547 409 2034 409 
Q 2525 409 2770 889 
Q 3016 1369 3016 2328 
Q 3016 3291 2770 3770 
Q 2525 4250 2034 4250 
z
M 2034 4750 
Q 2819 4750 3233 4129 
Q 3647 3509 3647 2328 
Q 3647 1150 3233 529 
Q 2819 -91 2034 -91 
Q 1250 -91 836 529 
Q 422 1150 422 2328 
Q 422 3509 836 4129 
Q 1250 4750 2034 4750 
z
" transform="scale(0.015625)"/>
       </defs>
       <use xlink:href="#DejaVuSans-2212"/>
       <use xlink:href="#DejaVuSans-34" transform="translate(83.789062 0)"/>
       <use xlink:href="#DejaVuSans-30" transform="translate(147.412109 0)"/>
       <use xlink:href="#DejaVuSans-30" transform="translate(211.035156 0)"/>
      </g>
     </g>
    </g>
    <g id="xtick_2">
     <g id="line2d_2">
      <g>
       <use xlink:href="#m3b24bce6a7" x="148.40775" y="394.7328" style="stroke: #000000; stroke-width: 0.8"/>
      </g>
     </g>
     <g id="text_2">
      <!-- −300 -->
      <g transform="translate(134.674156 409.331237) scale(0.1 -0.1)">
       <defs>
        <path id="DejaVuSans-33" d="M 2597 2516 
Q 3050 2419 3304 2112 
Q 3559 1806 3559 1356 
Q 3559 666 3084 287 
Q 2609 -91 1734 -91 
Q 1441 -91 1130 -33 
Q 819 25 488 141 
L 488 750 
Q 750 597 1062 519 
Q 1375 441 1716 441 
Q 2309 441 2620 675 
Q 2931 909 2931 1356 
Q 2931 1769 2642 2001 
Q 2353 2234 1838 2234 
L 1294 2234 
L 1294 2753 
L 1863 2753 
Q 2328 2753 2575 2939 
Q 2822 3125 2822 3475 
Q 2822 3834 2567 4026 
Q 2313 4219 1838 4219 
Q 1578 4219 1281 4162 
Q 984 4106 628 3988 
L 628 4550 
Q 988 4650 1302 4700 
Q 1616 4750 1894 4750 
Q 2613 4750 3031 4423 
Q 3450 4097 3450 3541 
Q 3450 3153 3228 2886 
Q 3006 2619 2597 2516 
z
" transform="scale(0.015625)"/>
       </defs>
       <use xlink:href="#DejaVuSans-2212"/>
       <use xlink:href="#DejaVuSans-33" transform="translate(83.789062 0)"/>
       <use xlink:href="#DejaVuSans-30" transform="translate(147.412109 0)"/>
       <use xlink:href="#DejaVuSans-30" transform="translate(211.035156 0)"/>
      </g>
     </g>
    </g>
    <g id="xtick_3">
     <g id="line2d_3">
      <g>
       <use xlink:href="#m3b24bce6a7" x="213.2055" y="394.7328" style="stroke: #000000; stroke-width: 0.8"/>
      </g>
     </g>
     <g id="text_3">
      <!-- −200 -->
      <g transform="translate(199.471906 409.331237) scale(0.1 -0.1)">
       <defs>
        <path id="DejaVuSans-32" d="M 1228 531 
L 3431 531 
L 3431 0 
L 469 0 
L 469 531 
Q 828 903 1448 1529 
Q 2069 2156 2228 2338 
Q 2531 2678 2651 2914 
Q 2772 3150 2772 3378 
Q 2772 3750 2511 3984 
Q 2250 4219 1831 4219 
Q 1534 4219 1204 4116 
Q 875 4013 500 3803 
L 500 4441 
Q 881 4594 1212 4672 
Q 1544 4750 1819 4750 
Q 2544 4750 2975 4387 
Q 3406 4025 3406 3419 
Q 3406 3131 3298 2873 
Q 3191 2616 2906 2266 
Q 2828 2175 2409 1742 
Q 1991 1309 1228 531 
z
" transform="scale(0.015625)"/>
       </defs>
       <use xlink:href="#DejaVuSans-2212"/>
       <use xlink:href="#DejaVuSans-32" transform="translate(83.789062 0)"/>
       <use xlink:href="#DejaVuSans-30" transform="translate(147.412109 0)"/>
       <use xlink:href="#DejaVuSans-30" transform="translate(211.035156 0)"/>
      </g>
     </g>
    </g>
    <g id="xtick_4">
     <g id="line2d_4">
      <g>
       <use xlink:href="#m3b24bce6a7" x="278.00325" y="394.7328" style="stroke: #000000; stroke-width: 0.8"/>
      </g>
     </g>
     <g id="text_4">
      <!-- −100 -->
      <g transform="translate(264.269656 409.331237) scale(0.1 -0.1)">
       <defs>
        <path id="DejaVuSans-31" d="M 794 531 
L 1825 531 
L 1825 4091 
L 703 3866 
L 703 4441 
L 1819 4666 
L 2450 4666 
L 2450 531 
L 3481 531 
L 3481 0 
L 794 0 
L 794 531 
z
" transform="scale(0.015625)"/>
       </defs>
       <use xlink:href="#DejaVuSans-2212"/>
       <use xlink:href="#DejaVuSans-31" transform="translate(83.789062 0)"/>
       <use xlink:href="#DejaVuSans-30" transform="translate(147.412109 0)"/>
       <use xlink:href="#DejaVuSans-30" transform="translate(211.035156 0)"/>
      </g>
     </g>
    </g>
    <g id="xtick_5">
     <g id="line2d_5">
      <g>
       <use xlink:href="#m3b24bce6a7" x="342.801" y="394.7328" style="stroke: #000000; stroke-width: 0.8"/>
      </g>
     </g>
     <g id="text_5">
      <!-- 0 -->
      <g transform="translate(339.61975 409.331237) scale(0.1 -0.1)">
       <use xlink:href="#DejaVuSans-30"/>
      </g>
     </g>
    </g>
    <g id="xtick_6">
     <g id="line2d_6">
      <g>
       <use xlink:href="#m3b24bce6a7" x="407.59875" y="394.7328" style="stroke: #000000; stroke-width: 0.8"/>
      </g>
     </g>
     <g id="text_6">
      <!-- 100 -->
      <g transform="translate(398.055 409.331237) scale(0.1 -0.1)">
       <use xlink:href="#DejaVuSans-31"/>
       <use xlink:href="#DejaVuSans-30" transform="translate(63.623047 0)"/>
       <use xlink:href="#DejaVuSans-30" transform="translate(127.246094 0)"/>
      </g>
     </g>
    </g>
    <g id="xtick_7">
     <g id="line2d_7">
      <g>
       <use xlink:href="#m3b24bce6a7" x="472.3965" y="394.7328" style="stroke: #000000; stroke-width: 0.8"/>
      </g>
     </g>
     <g id="text_7">
      <!-- 200 -->
      <g transform="translate(462.85275 409.331237) scale(0.1 -0.1)">
       <use xlink:href="#DejaVuSans-32"/>
       <use xlink:href="#DejaVuSans-30" transform="translate(63.623047 0)"/>
       <use xlink:href="#DejaVuSans-30" transform="translate(127.246094 0)"/>
      </g>
     </g>
    </g>
    <g id="xtick_8">
     <g id="line2d_8">
      <g>
       <use xlink:href="#m3b24bce6a7" x="537.19425" y="394.7328" style="stroke: #000000; stroke-width: 0.8"/>
      </g>
     </g>
     <g id="text_8">
      <!-- 300 -->
      <g transform="translate(527.6505 409.331237) scale(0.1 -0.1)">
       <use xlink:href="#DejaVuSans-33"/>
       <use xlink:href="#DejaVuSans-30" transform="translate(63.623047 0)"/>
       <use xlink:href="#DejaVuSans-30" transform="translate(127.246094 0)"/>
      </g>
     </g>
    </g>
    <g id="xtick_9">
     <g id="line2d_9">
      <g>
       <use xlink:href="#m3b24bce6a7" x="601.992" y="394.7328" style="stroke: #000000; stroke-width: 0.8"/>
      </g>
     </g>
     <g id="text_9">
      <!-- 400 -->
      <g transform="translate(592.44825 409.331237) scale(0.1 -0.1)">
       <use xlink:href="#DejaVuSans-34"/>
       <use xlink:href="#DejaVuSans-30" transform="translate(63.623047 0)"/>
       <use xlink:href="#DejaVuSans-30" transform="translate(127.246094 0)"/>
      </g>
     </g>
    </g>
   </g>
   <g id="matplotlib.axis_2">
    <g id="ytick_1">
     <g id="line2d_10">
      <defs>
       <path id="mb166c13656" d="M 0 0 
L -3.5 0 
" style="stroke: #000000; stroke-width: 0.8"/>
      </defs>
      <g>
       <use xlink:href="#mb166c13656" x="83.61" y="394.7328" style="stroke: #000000; stroke-width: 0.8"/>
      </g>
     </g>
     <g id="text_10">
      <!-- 0.000 -->
      <g transform="translate(47.981875 398.532019) scale(0.1 -0.1)">
       <defs>
        <path id="DejaVuSans-2e" d="M 684 794 
L 1344 794 
L 1344 0 
L 684 0 
L 684 794 
z
" transform="scale(0.015625)"/>
       </defs>
       <use xlink:href="#DejaVuSans-30"/>
       <use xlink:href="#DejaVuSans-2e" transform="translate(63.623047 0)"/>
       <use xlink:href="#DejaVuSans-30" transform="translate(95.410156 0)"/>
       <use xlink:href="#DejaVuSans-30" transform="translate(159.033203 0)"/>
       <use xlink:href="#DejaVuSans-30" transform="translate(222.65625 0)"/>
      </g>
     </g>
    </g>
    <g id="ytick_2">
     <g id="line2d_11">
      <g>
       <use xlink:href="#mb166c13656" x="83.61" y="326.43072" style="stroke: #000000; stroke-width: 0.8"/>
      </g>
     </g>
     <g id="text_11">
      <!-- 0.001 -->
      <g transform="translate(47.981875 330.229939) scale(0.1 -0.1)">
       <use xlink:href="#DejaVuSans-30"/>
       <use xlink:href="#DejaVuSans-2e" transform="translate(63.623047 0)"/>
       <use xlink:href="#DejaVuSans-30" transform="translate(95.410156 0)"/>
       <use xlink:href="#DejaVuSans-30" transform="translate(159.033203 0)"/>
       <use xlink:href="#DejaVuSans-31" transform="translate(222.65625 0)"/>
      </g>
     </g>
    </g>
    <g id="ytick_3">
     <g id="line2d_12">
      <g>
       <use xlink:href="#mb166c13656" x="83.61" y="258.12864" style="stroke: #000000; stroke-width: 0.8"/>
      </g>
     </g>
     <g id="text_12">
      <!-- 0.002 -->
      <g transform="translate(47.981875 261.927859) scale(0.1 -0.1)">
       <use xlink:href="#DejaVuSans-30"/>
       <use xlink:href="#DejaVuSans-2e" transform="translate(63.623047 0)"/>
       <use xlink:href="#DejaVuSans-30" transform="translate(95.410156 0)"/>
       <use xlink:href="#DejaVuSans-30" transform="translate(159.033203 0)"/>
       <use xlink:href="#DejaVuSans-32" transform="translate(222.65625 0)"/>
      </g>
     </g>
    </g>
    <g id="ytick_4">
     <g id="line2d_13">
      <g>
       <use xlink:href="#mb166c13656" x="83.61" y="189.82656" style="stroke: #000000; stroke-width: 0.8"/>
      </g>
     </g>
     <g id="text_13">
      <!-- 0.003 -->
      <g transform="translate(47.981875 193.625779) scale(0.1 -0.1)">
       <use xlink:href="#DejaVuSans-30"/>
       <use xlink:href="#DejaVuSans-2e" transform="translate(63.623047 0)"/>
       <use xlink:href="#DejaVuSans-30" transform="translate(95.410156 0)"/>
       <use xlink:href="#DejaVuSans-30" transform="translate(159.033203 0)"/>
       <use xlink:href="#DejaVuSans-33" transform="translate(222.65625 0)"/>
      </g>
     </g>
    </g>
    <g id="ytick_5">
     <g id="line2d_14">
      <g>
       <use xlink:href="#mb166c13656" x="83.61" y="121.52448" style="stroke: #000000; stroke-width: 0.8"/>
      </g>
     </g>
     <g id="text_14">
      <!-- 0.004 -->
      <g transform="translate(47.981875 125.323699) scale(0.1 -0.1)">
       <use xlink:href="#DejaVuSans-30"/>
       <use xlink:href="#DejaVuSans-2e" transform="translate(63.623047 0)"/>
       <use xlink:href="#DejaVuSans-30" transform="translate(95.410156 0)"/>
       <use xlink:href="#DejaVuSans-30" transform="translate(159.033203 0)"/>
       <use xlink:href="#DejaVuSans-34" transform="translate(222.65625 0)"/>
      </g>
     </g>
    </g>
    <g id="ytick_6">
     <g id="line2d_15">
      <g>
       <use xlink:href="#mb166c13656" x="83.61" y="53.2224" style="stroke: #000000; stroke-width: 0.8"/>
      </g>
     </g>
     <g id="text_15">
      <!-- 0.005 -->
      <g transform="translate(47.981875 57.021619) scale(0.1 -0.1)">
       <defs>
        <path id="DejaVuSans-35" d="M 691 4666 
L 3169 4666 
L 3169 4134 
L 1269 4134 
L 1269 2991 
Q 1406 3038 1543 3061 
Q 1681 3084 1819 3084 
Q 2600 3084 3056 2656 
Q 3513 2228 3513 1497 
Q 3513 744 3044 326 
Q 2575 -91 1722 -91 
Q 1428 -91 1123 -41 
Q 819 9 494 109 
L 494 744 
Q 775 591 1075 516 
Q 1375 441 1709 441 
Q 2250 441 2565 725 
Q 2881 1009 2881 1497 
Q 2881 1984 2565 2268 
Q 2250 2553 1709 2553 
Q 1456 2553 1204 2497 
Q 953 2441 691 2322 
L 691 4666 
z
" transform="scale(0.015625)"/>
       </defs>
       <use xlink:href="#DejaVuSans-30"/>
       <use xlink:href="#DejaVuSans-2e" transform="translate(63.623047 0)"/>
       <use xlink:href="#DejaVuSans-30" transform="translate(95.410156 0)"/>
       <use xlink:href="#DejaVuSans-30" transform="translate(159.033203 0)"/>
       <use xlink:href="#DejaVuSans-35" transform="translate(222.65625 0)"/>
      </g>
     </g>
    </g>
    <g id="text_16">
     <!-- Probability [-] -->
     <g transform="translate(41.902187 257.701037) rotate(-90) scale(0.1 -0.1)">
      <defs>
       <path id="DejaVuSans-50" d="M 1259 4147 
L 1259 2394 
L 2053 2394 
Q 2494 2394 2734 2622 
Q 2975 2850 2975 3272 
Q 2975 3691 2734 3919 
Q 2494 4147 2053 4147 
L 1259 4147 
z
M 628 4666 
L 2053 4666 
Q 2838 4666 3239 4311 
Q 3641 3956 3641 3272 
Q 3641 2581 3239 2228 
Q 2838 1875 2053 1875 
L 1259 1875 
L 1259 0 
L 628 0 
L 628 4666 
z
" transform="scale(0.015625)"/>
       <path id="DejaVuSans-72" d="M 2631 2963 
Q 2534 3019 2420 3045 
Q 2306 3072 2169 3072 
Q 1681 3072 1420 2755 
Q 1159 2438 1159 1844 
L 1159 0 
L 581 0 
L 581 3500 
L 1159 3500 
L 1159 2956 
Q 1341 3275 1631 3429 
Q 1922 3584 2338 3584 
Q 2397 3584 2469 3576 
Q 2541 3569 2628 3553 
L 2631 2963 
z
" transform="scale(0.015625)"/>
       <path id="DejaVuSans-6f" d="M 1959 3097 
Q 1497 3097 1228 2736 
Q 959 2375 959 1747 
Q 959 1119 1226 758 
Q 1494 397 1959 397 
Q 2419 397 2687 759 
Q 2956 1122 2956 1747 
Q 2956 2369 2687 2733 
Q 2419 3097 1959 3097 
z
M 1959 3584 
Q 2709 3584 3137 3096 
Q 3566 2609 3566 1747 
Q 3566 888 3137 398 
Q 2709 -91 1959 -91 
Q 1206 -91 779 398 
Q 353 888 353 1747 
Q 353 2609 779 3096 
Q 1206 3584 1959 3584 
z
" transform="scale(0.015625)"/>
       <path id="DejaVuSans-62" d="M 3116 1747 
Q 3116 2381 2855 2742 
Q 2594 3103 2138 3103 
Q 1681 3103 1420 2742 
Q 1159 2381 1159 1747 
Q 1159 1113 1420 752 
Q 1681 391 2138 391 
Q 2594 391 2855 752 
Q 3116 1113 3116 1747 
z
M 1159 2969 
Q 1341 3281 1617 3432 
Q 1894 3584 2278 3584 
Q 2916 3584 3314 3078 
Q 3713 2572 3713 1747 
Q 3713 922 3314 415 
Q 2916 -91 2278 -91 
Q 1894 -91 1617 61 
Q 1341 213 1159 525 
L 1159 0 
L 581 0 
L 581 4863 
L 1159 4863 
L 1159 2969 
z
" transform="scale(0.015625)"/>
       <path id="DejaVuSans-61" d="M 2194 1759 
Q 1497 1759 1228 1600 
Q 959 1441 959 1056 
Q 959 750 1161 570 
Q 1363 391 1709 391 
Q 2188 391 2477 730 
Q 2766 1069 2766 1631 
L 2766 1759 
L 2194 1759 
z
M 3341 1997 
L 3341 0 
L 2766 0 
L 2766 531 
Q 2569 213 2275 61 
Q 1981 -91 1556 -91 
Q 1019 -91 701 211 
Q 384 513 384 1019 
Q 384 1609 779 1909 
Q 1175 2209 1959 2209 
L 2766 2209 
L 2766 2266 
Q 2766 2663 2505 2880 
Q 2244 3097 1772 3097 
Q 1472 3097 1187 3025 
Q 903 2953 641 2809 
L 641 3341 
Q 956 3463 1253 3523 
Q 1550 3584 1831 3584 
Q 2591 3584 2966 3190 
Q 3341 2797 3341 1997 
z
" transform="scale(0.015625)"/>
       <path id="DejaVuSans-69" d="M 603 3500 
L 1178 3500 
L 1178 0 
L 603 0 
L 603 3500 
z
M 603 4863 
L 1178 4863 
L 1178 4134 
L 603 4134 
L 603 4863 
z
" transform="scale(0.015625)"/>
       <path id="DejaVuSans-6c" d="M 603 4863 
L 1178 4863 
L 1178 0 
L 603 0 
L 603 4863 
z
" transform="scale(0.015625)"/>
       <path id="DejaVuSans-74" d="M 1172 4494 
L 1172 3500 
L 2356 3500 
L 2356 3053 
L 1172 3053 
L 1172 1153 
Q 1172 725 1289 603 
Q 1406 481 1766 481 
L 2356 481 
L 2356 0 
L 1766 0 
Q 1100 0 847 248 
Q 594 497 594 1153 
L 594 3053 
L 172 3053 
L 172 3500 
L 594 3500 
L 594 4494 
L 1172 4494 
z
" transform="scale(0.015625)"/>
       <path id="DejaVuSans-79" d="M 2059 -325 
Q 1816 -950 1584 -1140 
Q 1353 -1331 966 -1331 
L 506 -1331 
L 506 -850 
L 844 -850 
Q 1081 -850 1212 -737 
Q 1344 -625 1503 -206 
L 1606 56 
L 191 3500 
L 800 3500 
L 1894 763 
L 2988 3500 
L 3597 3500 
L 2059 -325 
z
" transform="scale(0.015625)"/>
       <path id="DejaVuSans-20" transform="scale(0.015625)"/>
       <path id="DejaVuSans-5b" d="M 550 4863 
L 1875 4863 
L 1875 4416 
L 1125 4416 
L 1125 -397 
L 1875 -397 
L 1875 -844 
L 550 -844 
L 550 4863 
z
" transform="scale(0.015625)"/>
       <path id="DejaVuSans-2d" d="M 313 2009 
L 1997 2009 
L 1997 1497 
L 313 1497 
L 313 2009 
z
" transform="scale(0.015625)"/>
       <path id="DejaVuSans-5d" d="M 1947 4863 
L 1947 -844 
L 622 -844 
L 622 -397 
L 1369 -397 
L 1369 4416 
L 622 4416 
L 622 4863 
L 1947 4863 
z
" transform="scale(0.015625)"/>
      </defs>
      <use xlink:href="#DejaVuSans-50"/>
      <use xlink:href="#DejaVuSans-72" transform="translate(58.552734 0)"/>
      <use xlink:href="#DejaVuSans-6f" transform="translate(97.416016 0)"/>
      <use xlink:href="#DejaVuSans-62" transform="translate(158.597656 0)"/>
      <use xlink:href="#DejaVuSans-61" transform="translate(222.074219 0)"/>
      <use xlink:href="#DejaVuSans-62" transform="translate(283.353516 0)"/>
      <use xlink:href="#DejaVuSans-69" transform="translate(346.830078 0)"/>
      <use xlink:href="#DejaVuSans-6c" transform="translate(374.613281 0)"/>
      <use xlink:href="#DejaVuSans-69" transform="translate(402.396484 0)"/>
      <use xlink:href="#DejaVuSans-74" transform="translate(430.179688 0)"/>
      <use xlink:href="#DejaVuSans-79" transform="translate(469.388672 0)"/>
      <use xlink:href="#DejaVuSans-20" transform="translate(528.568359 0)"/>
      <use xlink:href="#DejaVuSans-5b" transform="translate(560.355469 0)"/>
      <use xlink:href="#DejaVuSans-2d" transform="translate(599.369141 0)"/>
      <use xlink:href="#DejaVuSans-5d" transform="translate(635.453125 0)"/>
     </g>
    </g>
   </g>
   <g id="line2d_16">
    <path d="M 83.600279 394.7328 
L 180.709419 394.7328 
L 180.903831 385.566657 
L 202.678053 376.482484 
L 483.409979 376.590866 
L 504.795375 385.607642 
L 504.989788 394.7328 
L 602.001721 394.7328 
L 602.001721 394.7328 
" clip-path="url(#p7563b0a97e)" style="fill: none; stroke-dasharray: 1.5,2.475; stroke-dashoffset: 0; stroke: #0000ff; stroke-width: 1.5"/>
   </g>
   <g id="line2d_17">
    <path d="M 83.600279 394.7328 
L 180.709419 394.7328 
L 180.903831 376.482484 
L 504.795375 376.482484 
L 504.989788 394.7328 
L 602.001721 394.7328 
L 602.001721 394.7328 
" clip-path="url(#p7563b0a97e)" style="fill: none; stroke: #0000ff; stroke-width: 1.5; stroke-linecap: square"/>
   </g>
   <g id="line2d_18">
    <path d="M 83.600279 394.7328 
L 261.779511 394.7328 
L 261.973924 357.945271 
L 283.553732 321.731537 
L 402.145474 321.731537 
L 403.31195 323.681521 
L 423.725283 358.109212 
L 423.919695 394.7328 
L 602.001721 394.7328 
L 602.001721 394.7328 
" clip-path="url(#p7563b0a97e)" style="fill: none; stroke-dasharray: 1.5,2.475; stroke-dashoffset: 0; stroke: #008000; stroke-width: 1.5"/>
   </g>
   <g id="line2d_19">
    <path d="M 83.600279 394.7328 
L 261.779511 394.7328 
L 261.973924 321.731537 
L 423.725283 321.731537 
L 423.919695 394.7328 
L 602.001721 394.7328 
L 602.001721 394.7328 
" clip-path="url(#p7563b0a97e)" style="fill: none; stroke: #008000; stroke-width: 1.5; stroke-linecap: square"/>
   </g>
   <g id="line2d_20">
    <path d="M 83.600279 394.7328 
L 302.217351 394.7328 
L 302.411763 247.992538 
L 323.991572 102.727748 
L 361.610428 102.727748 
L 361.804841 103.724118 
L 383.287443 248.648303 
L 383.481856 394.7328 
L 602.001721 394.7328 
L 602.001721 394.7328 
" clip-path="url(#p7563b0a97e)" style="fill: none; stroke-dasharray: 1.5,2.475; stroke-dashoffset: 0; stroke: #ffa500; stroke-width: 1.5"/>
   </g>
   <g id="line2d_21">
    <path d="M 83.600279 394.7328 
L 302.217351 394.7328 
L 302.411763 102.727748 
L 383.287443 102.727748 
L 383.481856 394.7328 
L 602.001721 394.7328 
L 602.001721 394.7328 
" clip-path="url(#p7563b0a97e)" style="fill: none; stroke: #ffa500; stroke-width: 1.5; stroke-linecap: square"/>
   </g>
   <g id="patch_3">
    <path d="M 83.61 394.7328 
L 83.61 53.2224 
" style="fill: none; stroke: #000000; stroke-width: 0.8; stroke-linejoin: miter; stroke-linecap: square"/>
   </g>
   <g id="patch_4">
    <path d="M 601.992 394.7328 
L 601.992 53.2224 
" style="fill: none; stroke: #000000; stroke-width: 0.8; stroke-linejoin: miter; stroke-linecap: square"/>
   </g>
   <g id="patch_5">
    <path d="M 83.61 394.7328 
L 601.992 394.7328 
" style="fill: none; stroke: #000000; stroke-width: 0.8; stroke-linejoin: miter; stroke-linecap: square"/>
   </g>
   <g id="patch_6">
    <path d="M 83.61 53.2224 
L 601.992 53.2224 
" style="fill: none; stroke: #000000; stroke-width: 0.8; stroke-linejoin: miter; stroke-linecap: square"/>
   </g>
   <g id="text_17">
    <!-- PDF$ ,\overline{b}_{ij}=$33.4 -->
    <g transform="translate(300.921 47.2224) scale(0.12 -0.12)">
     <defs>
      <path id="DejaVuSans-44" d="M 1259 4147 
L 1259 519 
L 2022 519 
Q 2988 519 3436 956 
Q 3884 1394 3884 2338 
Q 3884 3275 3436 3711 
Q 2988 4147 2022 4147 
L 1259 4147 
z
M 628 4666 
L 1925 4666 
Q 3281 4666 3915 4102 
Q 4550 3538 4550 2338 
Q 4550 1131 3912 565 
Q 3275 0 1925 0 
L 628 0 
L 628 4666 
z
" transform="scale(0.015625)"/>
      <path id="DejaVuSans-46" d="M 628 4666 
L 3309 4666 
L 3309 4134 
L 1259 4134 
L 1259 2759 
L 3109 2759 
L 3109 2228 
L 1259 2228 
L 1259 0 
L 628 0 
L 628 4666 
z
" transform="scale(0.015625)"/>
      <path id="DejaVuSans-2c" d="M 750 794 
L 1409 794 
L 1409 256 
L 897 -744 
L 494 -744 
L 750 256 
L 750 794 
z
" transform="scale(0.015625)"/>
      <path id="DejaVuSans-Oblique-62" d="M 3169 2138 
Q 3169 2591 2961 2847 
Q 2753 3103 2388 3103 
Q 2122 3103 1889 2973 
Q 1656 2844 1484 2597 
Q 1303 2338 1198 1995 
Q 1094 1653 1094 1313 
Q 1094 881 1298 636 
Q 1503 391 1863 391 
Q 2134 391 2365 517 
Q 2597 644 2772 891 
Q 2950 1147 3059 1487 
Q 3169 1828 3169 2138 
z
M 1381 2969 
Q 1594 3256 1914 3420 
Q 2234 3584 2584 3584 
Q 3122 3584 3439 3221 
Q 3756 2859 3756 2241 
Q 3756 1734 3570 1259 
Q 3384 784 3041 416 
Q 2816 172 2522 40 
Q 2228 -91 1906 -91 
Q 1566 -91 1316 65 
Q 1066 222 909 531 
L 806 0 
L 231 0 
L 1178 4863 
L 1753 4863 
L 1381 2969 
z
" transform="scale(0.015625)"/>
      <path id="DejaVuSans-Oblique-69" d="M 1172 4863 
L 1747 4863 
L 1606 4134 
L 1031 4134 
L 1172 4863 
z
M 909 3500 
L 1484 3500 
L 800 0 
L 225 0 
L 909 3500 
z
" transform="scale(0.015625)"/>
      <path id="DejaVuSans-Oblique-6a" d="M 928 3500 
L 1503 3500 
L 813 -63 
L 809 -78 
Q 694 -675 544 -897 
Q 403 -1106 132 -1218 
Q -138 -1331 -506 -1331 
L -722 -1331 
L -628 -844 
L -481 -844 
Q -144 -844 -1 -703 
Q 141 -563 238 -63 
L 928 3500 
z
M 1197 4863 
L 1772 4863 
L 1631 4134 
L 1056 4134 
L 1197 4863 
z
" transform="scale(0.015625)"/>
      <path id="DejaVuSans-3d" d="M 678 2906 
L 4684 2906 
L 4684 2381 
L 678 2381 
L 678 2906 
z
M 678 1631 
L 4684 1631 
L 4684 1100 
L 678 1100 
L 678 1631 
z
" transform="scale(0.015625)"/>
     </defs>
     <use xlink:href="#DejaVuSans-50" transform="translate(0 0.265625)"/>
     <use xlink:href="#DejaVuSans-44" transform="translate(60.302734 0.265625)"/>
     <use xlink:href="#DejaVuSans-46" transform="translate(137.304688 0.265625)"/>
     <use xlink:href="#DejaVuSans-2c" transform="translate(194.824219 0.265625)"/>
     <use xlink:href="#DejaVuSans-Oblique-62" transform="translate(246.09375 0.765625)"/>
     <use xlink:href="#DejaVuSans-Oblique-69" transform="translate(310.527344 -16.140625) scale(0.7)"/>
     <use xlink:href="#DejaVuSans-Oblique-6a" transform="translate(329.975586 -16.140625) scale(0.7)"/>
     <use xlink:href="#DejaVuSans-3d" transform="translate(371.640625 0.265625)"/>
     <use xlink:href="#DejaVuSans-33" transform="translate(474.912109 0.265625)"/>
     <use xlink:href="#DejaVuSans-33" transform="translate(538.535156 0.265625)"/>
     <use xlink:href="#DejaVuSans-2e" transform="translate(602.158203 0.265625)"/>
     <use xlink:href="#DejaVuSans-34" transform="translate(633.945312 0.265625)"/>
     <path d="M 246.09375 88.5 
L 246.09375 94.75 
L 309.570312 94.75 
L 309.570312 88.5 
L 246.09375 88.5 
z
"/>
    </g>
   </g>
   <g id="legend_1">
    <g id="patch_7">
     <path d="M 396.092 155.417712 
L 594.992 155.417712 
Q 596.992 155.417712 596.992 153.417712 
L 596.992 60.2224 
Q 596.992 58.2224 594.992 58.2224 
L 396.092 58.2224 
Q 394.092 58.2224 394.092 60.2224 
L 394.092 153.417712 
Q 394.092 155.417712 396.092 155.417712 
z
" style="fill: #ffffff; opacity: 0.8; stroke: #cccccc; stroke-linejoin: miter"/>
    </g>
    <g id="line2d_22">
     <path d="M 398.092 66.320837 
L 408.092 66.320837 
L 418.092 66.320837 
" style="fill: none; stroke-dasharray: 1.5,2.475; stroke-dashoffset: 0; stroke: #0000ff; stroke-width: 1.5"/>
    </g>
    <g id="text_18">
     <!-- $y_0=$-250.0$, \Delta{y}=$500$, P_{ij}=$0.1291 -->
     <g transform="translate(426.092 69.820837) scale(0.1 -0.1)">
      <defs>
       <path id="DejaVuSans-Oblique-79" d="M 1588 -325 
Q 1188 -997 936 -1164 
Q 684 -1331 294 -1331 
L -159 -1331 
L -63 -850 
L 269 -850 
Q 509 -850 678 -719 
Q 847 -588 1056 -206 
L 1234 128 
L 459 3500 
L 1069 3500 
L 1650 819 
L 3256 3500 
L 3859 3500 
L 1588 -325 
z
" transform="scale(0.015625)"/>
       <path id="DejaVuSans-394" d="M 2188 4044 
L 906 525 
L 3472 525 
L 2188 4044 
z
M 50 0 
L 1831 4666 
L 2547 4666 
L 4325 0 
L 50 0 
z
" transform="scale(0.015625)"/>
       <path id="DejaVuSans-Oblique-50" d="M 1081 4666 
L 2541 4666 
Q 3178 4666 3512 4369 
Q 3847 4072 3847 3500 
Q 3847 2731 3353 2303 
Q 2859 1875 1966 1875 
L 1172 1875 
L 806 0 
L 172 0 
L 1081 4666 
z
M 1613 4147 
L 1275 2394 
L 2069 2394 
Q 2606 2394 2893 2669 
Q 3181 2944 3181 3456 
Q 3181 3784 2986 3965 
Q 2791 4147 2438 4147 
L 1613 4147 
z
" transform="scale(0.015625)"/>
       <path id="DejaVuSans-39" d="M 703 97 
L 703 672 
Q 941 559 1184 500 
Q 1428 441 1663 441 
Q 2288 441 2617 861 
Q 2947 1281 2994 2138 
Q 2813 1869 2534 1725 
Q 2256 1581 1919 1581 
Q 1219 1581 811 2004 
Q 403 2428 403 3163 
Q 403 3881 828 4315 
Q 1253 4750 1959 4750 
Q 2769 4750 3195 4129 
Q 3622 3509 3622 2328 
Q 3622 1225 3098 567 
Q 2575 -91 1691 -91 
Q 1453 -91 1209 -44 
Q 966 3 703 97 
z
M 1959 2075 
Q 2384 2075 2632 2365 
Q 2881 2656 2881 3163 
Q 2881 3666 2632 3958 
Q 2384 4250 1959 4250 
Q 1534 4250 1286 3958 
Q 1038 3666 1038 3163 
Q 1038 2656 1286 2365 
Q 1534 2075 1959 2075 
z
" transform="scale(0.015625)"/>
      </defs>
      <use xlink:href="#DejaVuSans-Oblique-79" transform="translate(0 0.78125)"/>
      <use xlink:href="#DejaVuSans-30" transform="translate(59.179688 -15.625) scale(0.7)"/>
      <use xlink:href="#DejaVuSans-3d" transform="translate(125.932617 0.78125)"/>
      <use xlink:href="#DejaVuSans-2d" transform="translate(229.204102 0.78125)"/>
      <use xlink:href="#DejaVuSans-32" transform="translate(265.288086 0.78125)"/>
      <use xlink:href="#DejaVuSans-35" transform="translate(328.911133 0.78125)"/>
      <use xlink:href="#DejaVuSans-30" transform="translate(392.53418 0.78125)"/>
      <use xlink:href="#DejaVuSans-2e" transform="translate(456.157227 0.78125)"/>
      <use xlink:href="#DejaVuSans-30" transform="translate(487.944336 0.78125)"/>
      <use xlink:href="#DejaVuSans-2c" transform="translate(551.567383 0.78125)"/>
      <use xlink:href="#DejaVuSans-394" transform="translate(602.836914 0.78125)"/>
      <use xlink:href="#DejaVuSans-Oblique-79" transform="translate(671.245117 0.78125)"/>
      <use xlink:href="#DejaVuSans-3d" transform="translate(749.907227 0.78125)"/>
      <use xlink:href="#DejaVuSans-35" transform="translate(853.178711 0.78125)"/>
      <use xlink:href="#DejaVuSans-30" transform="translate(916.801758 0.78125)"/>
      <use xlink:href="#DejaVuSans-30" transform="translate(980.424805 0.78125)"/>
      <use xlink:href="#DejaVuSans-2c" transform="translate(1044.047852 0.78125)"/>
      <use xlink:href="#DejaVuSans-Oblique-50" transform="translate(1095.317383 0.78125)"/>
      <use xlink:href="#DejaVuSans-Oblique-69" transform="translate(1155.620117 -15.625) scale(0.7)"/>
      <use xlink:href="#DejaVuSans-Oblique-6a" transform="translate(1175.068359 -15.625) scale(0.7)"/>
      <use xlink:href="#DejaVuSans-3d" transform="translate(1216.733398 0.78125)"/>
      <use xlink:href="#DejaVuSans-30" transform="translate(1320.004883 0.78125)"/>
      <use xlink:href="#DejaVuSans-2e" transform="translate(1383.62793 0.78125)"/>
      <use xlink:href="#DejaVuSans-31" transform="translate(1415.415039 0.78125)"/>
      <use xlink:href="#DejaVuSans-32" transform="translate(1479.038086 0.78125)"/>
      <use xlink:href="#DejaVuSans-39" transform="translate(1540.911133 0.78125)"/>
      <use xlink:href="#DejaVuSans-31" transform="translate(1604.53418 0.78125)"/>
     </g>
    </g>
    <g id="line2d_23">
     <path d="M 398.092 82.020837 
L 408.092 82.020837 
L 418.092 82.020837 
" style="fill: none; stroke: #0000ff; stroke-width: 1.5; stroke-linecap: square"/>
    </g>
    <g id="text_19">
     <!-- Simplified$, P_{ij}=$0.1336 -->
     <g transform="translate(426.092 85.520837) scale(0.1 -0.1)">
      <defs>
       <path id="DejaVuSans-53" d="M 3425 4513 
L 3425 3897 
Q 3066 4069 2747 4153 
Q 2428 4238 2131 4238 
Q 1616 4238 1336 4038 
Q 1056 3838 1056 3469 
Q 1056 3159 1242 3001 
Q 1428 2844 1947 2747 
L 2328 2669 
Q 3034 2534 3370 2195 
Q 3706 1856 3706 1288 
Q 3706 609 3251 259 
Q 2797 -91 1919 -91 
Q 1588 -91 1214 -16 
Q 841 59 441 206 
L 441 856 
Q 825 641 1194 531 
Q 1563 422 1919 422 
Q 2459 422 2753 634 
Q 3047 847 3047 1241 
Q 3047 1584 2836 1778 
Q 2625 1972 2144 2069 
L 1759 2144 
Q 1053 2284 737 2584 
Q 422 2884 422 3419 
Q 422 4038 858 4394 
Q 1294 4750 2059 4750 
Q 2388 4750 2728 4690 
Q 3069 4631 3425 4513 
z
" transform="scale(0.015625)"/>
       <path id="DejaVuSans-6d" d="M 3328 2828 
Q 3544 3216 3844 3400 
Q 4144 3584 4550 3584 
Q 5097 3584 5394 3201 
Q 5691 2819 5691 2113 
L 5691 0 
L 5113 0 
L 5113 2094 
Q 5113 2597 4934 2840 
Q 4756 3084 4391 3084 
Q 3944 3084 3684 2787 
Q 3425 2491 3425 1978 
L 3425 0 
L 2847 0 
L 2847 2094 
Q 2847 2600 2669 2842 
Q 2491 3084 2119 3084 
Q 1678 3084 1418 2786 
Q 1159 2488 1159 1978 
L 1159 0 
L 581 0 
L 581 3500 
L 1159 3500 
L 1159 2956 
Q 1356 3278 1631 3431 
Q 1906 3584 2284 3584 
Q 2666 3584 2933 3390 
Q 3200 3197 3328 2828 
z
" transform="scale(0.015625)"/>
       <path id="DejaVuSans-70" d="M 1159 525 
L 1159 -1331 
L 581 -1331 
L 581 3500 
L 1159 3500 
L 1159 2969 
Q 1341 3281 1617 3432 
Q 1894 3584 2278 3584 
Q 2916 3584 3314 3078 
Q 3713 2572 3713 1747 
Q 3713 922 3314 415 
Q 2916 -91 2278 -91 
Q 1894 -91 1617 61 
Q 1341 213 1159 525 
z
M 3116 1747 
Q 3116 2381 2855 2742 
Q 2594 3103 2138 3103 
Q 1681 3103 1420 2742 
Q 1159 2381 1159 1747 
Q 1159 1113 1420 752 
Q 1681 391 2138 391 
Q 2594 391 2855 752 
Q 3116 1113 3116 1747 
z
" transform="scale(0.015625)"/>
       <path id="DejaVuSans-66" d="M 2375 4863 
L 2375 4384 
L 1825 4384 
Q 1516 4384 1395 4259 
Q 1275 4134 1275 3809 
L 1275 3500 
L 2222 3500 
L 2222 3053 
L 1275 3053 
L 1275 0 
L 697 0 
L 697 3053 
L 147 3053 
L 147 3500 
L 697 3500 
L 697 3744 
Q 697 4328 969 4595 
Q 1241 4863 1831 4863 
L 2375 4863 
z
" transform="scale(0.015625)"/>
       <path id="DejaVuSans-65" d="M 3597 1894 
L 3597 1613 
L 953 1613 
Q 991 1019 1311 708 
Q 1631 397 2203 397 
Q 2534 397 2845 478 
Q 3156 559 3463 722 
L 3463 178 
Q 3153 47 2828 -22 
Q 2503 -91 2169 -91 
Q 1331 -91 842 396 
Q 353 884 353 1716 
Q 353 2575 817 3079 
Q 1281 3584 2069 3584 
Q 2775 3584 3186 3129 
Q 3597 2675 3597 1894 
z
M 3022 2063 
Q 3016 2534 2758 2815 
Q 2500 3097 2075 3097 
Q 1594 3097 1305 2825 
Q 1016 2553 972 2059 
L 3022 2063 
z
" transform="scale(0.015625)"/>
       <path id="DejaVuSans-64" d="M 2906 2969 
L 2906 4863 
L 3481 4863 
L 3481 0 
L 2906 0 
L 2906 525 
Q 2725 213 2448 61 
Q 2172 -91 1784 -91 
Q 1150 -91 751 415 
Q 353 922 353 1747 
Q 353 2572 751 3078 
Q 1150 3584 1784 3584 
Q 2172 3584 2448 3432 
Q 2725 3281 2906 2969 
z
M 947 1747 
Q 947 1113 1208 752 
Q 1469 391 1925 391 
Q 2381 391 2643 752 
Q 2906 1113 2906 1747 
Q 2906 2381 2643 2742 
Q 2381 3103 1925 3103 
Q 1469 3103 1208 2742 
Q 947 2381 947 1747 
z
" transform="scale(0.015625)"/>
       <path id="DejaVuSans-36" d="M 2113 2584 
Q 1688 2584 1439 2293 
Q 1191 2003 1191 1497 
Q 1191 994 1439 701 
Q 1688 409 2113 409 
Q 2538 409 2786 701 
Q 3034 994 3034 1497 
Q 3034 2003 2786 2293 
Q 2538 2584 2113 2584 
z
M 3366 4563 
L 3366 3988 
Q 3128 4100 2886 4159 
Q 2644 4219 2406 4219 
Q 1781 4219 1451 3797 
Q 1122 3375 1075 2522 
Q 1259 2794 1537 2939 
Q 1816 3084 2150 3084 
Q 2853 3084 3261 2657 
Q 3669 2231 3669 1497 
Q 3669 778 3244 343 
Q 2819 -91 2113 -91 
Q 1303 -91 875 529 
Q 447 1150 447 2328 
Q 447 3434 972 4092 
Q 1497 4750 2381 4750 
Q 2619 4750 2861 4703 
Q 3103 4656 3366 4563 
z
" transform="scale(0.015625)"/>
      </defs>
      <use xlink:href="#DejaVuSans-53" transform="translate(0 0.015625)"/>
      <use xlink:href="#DejaVuSans-69" transform="translate(63.476562 0.015625)"/>
      <use xlink:href="#DejaVuSans-6d" transform="translate(91.259766 0.015625)"/>
      <use xlink:href="#DejaVuSans-70" transform="translate(188.671875 0.015625)"/>
      <use xlink:href="#DejaVuSans-6c" transform="translate(252.148438 0.015625)"/>
      <use xlink:href="#DejaVuSans-69" transform="translate(279.931641 0.015625)"/>
      <use xlink:href="#DejaVuSans-66" transform="translate(307.714844 0.015625)"/>
      <use xlink:href="#DejaVuSans-69" transform="translate(342.919922 0.015625)"/>
      <use xlink:href="#DejaVuSans-65" transform="translate(370.703125 0.015625)"/>
      <use xlink:href="#DejaVuSans-64" transform="translate(432.226562 0.015625)"/>
      <use xlink:href="#DejaVuSans-2c" transform="translate(495.703125 0.015625)"/>
      <use xlink:href="#DejaVuSans-Oblique-50" transform="translate(546.972656 0.015625)"/>
      <use xlink:href="#DejaVuSans-Oblique-69" transform="translate(607.275391 -16.390625) scale(0.7)"/>
      <use xlink:href="#DejaVuSans-Oblique-6a" transform="translate(626.723633 -16.390625) scale(0.7)"/>
      <use xlink:href="#DejaVuSans-3d" transform="translate(668.388672 0.015625)"/>
      <use xlink:href="#DejaVuSans-30" transform="translate(771.660156 0.015625)"/>
      <use xlink:href="#DejaVuSans-2e" transform="translate(835.283203 0.015625)"/>
      <use xlink:href="#DejaVuSans-31" transform="translate(867.070312 0.015625)"/>
      <use xlink:href="#DejaVuSans-33" transform="translate(930.693359 0.015625)"/>
      <use xlink:href="#DejaVuSans-33" transform="translate(994.316406 0.015625)"/>
      <use xlink:href="#DejaVuSans-36" transform="translate(1057.939453 0.015625)"/>
     </g>
    </g>
    <g id="line2d_24">
     <path d="M 398.092 97.719275 
L 408.092 97.719275 
L 418.092 97.719275 
" style="fill: none; stroke-dasharray: 1.5,2.475; stroke-dashoffset: 0; stroke: #008000; stroke-width: 1.5"/>
    </g>
    <g id="text_20">
     <!-- $y_0=$-125.0$, \Delta{y}=$250$, P_{ij}=$0.2494 -->
     <g transform="translate(426.092 101.219275) scale(0.1 -0.1)">
      <use xlink:href="#DejaVuSans-Oblique-79" transform="translate(0 0.78125)"/>
      <use xlink:href="#DejaVuSans-30" transform="translate(59.179688 -15.625) scale(0.7)"/>
      <use xlink:href="#DejaVuSans-3d" transform="translate(125.932617 0.78125)"/>
      <use xlink:href="#DejaVuSans-2d" transform="translate(229.204102 0.78125)"/>
      <use xlink:href="#DejaVuSans-31" transform="translate(265.288086 0.78125)"/>
      <use xlink:href="#DejaVuSans-32" transform="translate(328.911133 0.78125)"/>
      <use xlink:href="#DejaVuSans-35" transform="translate(392.53418 0.78125)"/>
      <use xlink:href="#DejaVuSans-2e" transform="translate(456.157227 0.78125)"/>
      <use xlink:href="#DejaVuSans-30" transform="translate(487.944336 0.78125)"/>
      <use xlink:href="#DejaVuSans-2c" transform="translate(551.567383 0.78125)"/>
      <use xlink:href="#DejaVuSans-394" transform="translate(602.836914 0.78125)"/>
      <use xlink:href="#DejaVuSans-Oblique-79" transform="translate(671.245117 0.78125)"/>
      <use xlink:href="#DejaVuSans-3d" transform="translate(749.907227 0.78125)"/>
      <use xlink:href="#DejaVuSans-32" transform="translate(853.178711 0.78125)"/>
      <use xlink:href="#DejaVuSans-35" transform="translate(916.801758 0.78125)"/>
      <use xlink:href="#DejaVuSans-30" transform="translate(980.424805 0.78125)"/>
      <use xlink:href="#DejaVuSans-2c" transform="translate(1044.047852 0.78125)"/>
      <use xlink:href="#DejaVuSans-Oblique-50" transform="translate(1095.317383 0.78125)"/>
      <use xlink:href="#DejaVuSans-Oblique-69" transform="translate(1155.620117 -15.625) scale(0.7)"/>
      <use xlink:href="#DejaVuSans-Oblique-6a" transform="translate(1175.068359 -15.625) scale(0.7)"/>
      <use xlink:href="#DejaVuSans-3d" transform="translate(1216.733398 0.78125)"/>
      <use xlink:href="#DejaVuSans-30" transform="translate(1320.004883 0.78125)"/>
      <use xlink:href="#DejaVuSans-2e" transform="translate(1383.62793 0.78125)"/>
      <use xlink:href="#DejaVuSans-32" transform="translate(1409.915039 0.78125)"/>
      <use xlink:href="#DejaVuSans-34" transform="translate(1473.538086 0.78125)"/>
      <use xlink:href="#DejaVuSans-39" transform="translate(1537.161133 0.78125)"/>
      <use xlink:href="#DejaVuSans-34" transform="translate(1600.78418 0.78125)"/>
     </g>
    </g>
    <g id="line2d_25">
     <path d="M 398.092 113.419275 
L 408.092 113.419275 
L 418.092 113.419275 
" style="fill: none; stroke: #008000; stroke-width: 1.5; stroke-linecap: square"/>
    </g>
    <g id="text_21">
     <!-- Simplified$, P_{ij}=$0.2672 -->
     <g transform="translate(426.092 116.919275) scale(0.1 -0.1)">
      <defs>
       <path id="DejaVuSans-37" d="M 525 4666 
L 3525 4666 
L 3525 4397 
L 1831 0 
L 1172 0 
L 2766 4134 
L 525 4134 
L 525 4666 
z
" transform="scale(0.015625)"/>
      </defs>
      <use xlink:href="#DejaVuSans-53" transform="translate(0 0.015625)"/>
      <use xlink:href="#DejaVuSans-69" transform="translate(63.476562 0.015625)"/>
      <use xlink:href="#DejaVuSans-6d" transform="translate(91.259766 0.015625)"/>
      <use xlink:href="#DejaVuSans-70" transform="translate(188.671875 0.015625)"/>
      <use xlink:href="#DejaVuSans-6c" transform="translate(252.148438 0.015625)"/>
      <use xlink:href="#DejaVuSans-69" transform="translate(279.931641 0.015625)"/>
      <use xlink:href="#DejaVuSans-66" transform="translate(307.714844 0.015625)"/>
      <use xlink:href="#DejaVuSans-69" transform="translate(342.919922 0.015625)"/>
      <use xlink:href="#DejaVuSans-65" transform="translate(370.703125 0.015625)"/>
      <use xlink:href="#DejaVuSans-64" transform="translate(432.226562 0.015625)"/>
      <use xlink:href="#DejaVuSans-2c" transform="translate(495.703125 0.015625)"/>
      <use xlink:href="#DejaVuSans-Oblique-50" transform="translate(546.972656 0.015625)"/>
      <use xlink:href="#DejaVuSans-Oblique-69" transform="translate(607.275391 -16.390625) scale(0.7)"/>
      <use xlink:href="#DejaVuSans-Oblique-6a" transform="translate(626.723633 -16.390625) scale(0.7)"/>
      <use xlink:href="#DejaVuSans-3d" transform="translate(668.388672 0.015625)"/>
      <use xlink:href="#DejaVuSans-30" transform="translate(771.660156 0.015625)"/>
      <use xlink:href="#DejaVuSans-2e" transform="translate(835.283203 0.015625)"/>
      <use xlink:href="#DejaVuSans-32" transform="translate(861.570312 0.015625)"/>
      <use xlink:href="#DejaVuSans-36" transform="translate(925.193359 0.015625)"/>
      <use xlink:href="#DejaVuSans-37" transform="translate(988.816406 0.015625)"/>
      <use xlink:href="#DejaVuSans-32" transform="translate(1052.439453 0.015625)"/>
     </g>
    </g>
    <g id="line2d_26">
     <path d="M 398.092 129.117712 
L 408.092 129.117712 
L 418.092 129.117712 
" style="fill: none; stroke-dasharray: 1.5,2.475; stroke-dashoffset: 0; stroke: #ffa500; stroke-width: 1.5"/>
    </g>
    <g id="text_22">
     <!-- $y_0=$-62.5$, \Delta{y}=$125$, P_{ij}=$0.4630 -->
     <g transform="translate(426.092 132.617712) scale(0.1 -0.1)">
      <use xlink:href="#DejaVuSans-Oblique-79" transform="translate(0 0.78125)"/>
      <use xlink:href="#DejaVuSans-30" transform="translate(59.179688 -15.625) scale(0.7)"/>
      <use xlink:href="#DejaVuSans-3d" transform="translate(125.932617 0.78125)"/>
      <use xlink:href="#DejaVuSans-2d" transform="translate(229.204102 0.78125)"/>
      <use xlink:href="#DejaVuSans-36" transform="translate(265.288086 0.78125)"/>
      <use xlink:href="#DejaVuSans-32" transform="translate(328.911133 0.78125)"/>
      <use xlink:href="#DejaVuSans-2e" transform="translate(392.53418 0.78125)"/>
      <use xlink:href="#DejaVuSans-35" transform="translate(424.321289 0.78125)"/>
      <use xlink:href="#DejaVuSans-2c" transform="translate(487.944336 0.78125)"/>
      <use xlink:href="#DejaVuSans-394" transform="translate(539.213867 0.78125)"/>
      <use xlink:href="#DejaVuSans-Oblique-79" transform="translate(607.62207 0.78125)"/>
      <use xlink:href="#DejaVuSans-3d" transform="translate(686.28418 0.78125)"/>
      <use xlink:href="#DejaVuSans-31" transform="translate(789.555664 0.78125)"/>
      <use xlink:href="#DejaVuSans-32" transform="translate(853.178711 0.78125)"/>
      <use xlink:href="#DejaVuSans-35" transform="translate(916.801758 0.78125)"/>
      <use xlink:href="#DejaVuSans-2c" transform="translate(980.424805 0.78125)"/>
      <use xlink:href="#DejaVuSans-Oblique-50" transform="translate(1031.694336 0.78125)"/>
      <use xlink:href="#DejaVuSans-Oblique-69" transform="translate(1091.99707 -15.625) scale(0.7)"/>
      <use xlink:href="#DejaVuSans-Oblique-6a" transform="translate(1111.445312 -15.625) scale(0.7)"/>
      <use xlink:href="#DejaVuSans-3d" transform="translate(1153.110352 0.78125)"/>
      <use xlink:href="#DejaVuSans-30" transform="translate(1256.381836 0.78125)"/>
      <use xlink:href="#DejaVuSans-2e" transform="translate(1320.004883 0.78125)"/>
      <use xlink:href="#DejaVuSans-34" transform="translate(1351.791992 0.78125)"/>
      <use xlink:href="#DejaVuSans-36" transform="translate(1415.415039 0.78125)"/>
      <use xlink:href="#DejaVuSans-33" transform="translate(1479.038086 0.78125)"/>
      <use xlink:href="#DejaVuSans-30" transform="translate(1542.661133 0.78125)"/>
     </g>
    </g>
    <g id="line2d_27">
     <path d="M 398.092 144.817712 
L 408.092 144.817712 
L 418.092 144.817712 
" style="fill: none; stroke: #ffa500; stroke-width: 1.5; stroke-linecap: square"/>
    </g>
    <g id="text_23">
     <!-- Simplified$, P_{ij}=$0.5344 -->
     <g transform="translate(426.092 148.317712) scale(0.1 -0.1)">
      <use xlink:href="#DejaVuSans-53" transform="translate(0 0.015625)"/>
      <use xlink:href="#DejaVuSans-69" transform="translate(63.476562 0.015625)"/>
      <use xlink:href="#DejaVuSans-6d" transform="translate(91.259766 0.015625)"/>
      <use xlink:href="#DejaVuSans-70" transform="translate(188.671875 0.015625)"/>
      <use xlink:href="#DejaVuSans-6c" transform="translate(252.148438 0.015625)"/>
      <use xlink:href="#DejaVuSans-69" transform="translate(279.931641 0.015625)"/>
      <use xlink:href="#DejaVuSans-66" transform="translate(307.714844 0.015625)"/>
      <use xlink:href="#DejaVuSans-69" transform="translate(342.919922 0.015625)"/>
      <use xlink:href="#DejaVuSans-65" transform="translate(370.703125 0.015625)"/>
      <use xlink:href="#DejaVuSans-64" transform="translate(432.226562 0.015625)"/>
      <use xlink:href="#DejaVuSans-2c" transform="translate(495.703125 0.015625)"/>
      <use xlink:href="#DejaVuSans-Oblique-50" transform="translate(546.972656 0.015625)"/>
      <use xlink:href="#DejaVuSans-Oblique-69" transform="translate(607.275391 -16.390625) scale(0.7)"/>
      <use xlink:href="#DejaVuSans-Oblique-6a" transform="translate(626.723633 -16.390625) scale(0.7)"/>
      <use xlink:href="#DejaVuSans-3d" transform="translate(668.388672 0.015625)"/>
      <use xlink:href="#DejaVuSans-30" transform="translate(771.660156 0.015625)"/>
      <use xlink:href="#DejaVuSans-2e" transform="translate(835.283203 0.015625)"/>
      <use xlink:href="#DejaVuSans-35" transform="translate(867.070312 0.015625)"/>
      <use xlink:href="#DejaVuSans-33" transform="translate(930.693359 0.015625)"/>
      <use xlink:href="#DejaVuSans-34" transform="translate(994.316406 0.015625)"/>
      <use xlink:href="#DejaVuSans-34" transform="translate(1057.939453 0.015625)"/>
     </g>
    </g>
   </g>
  </g>
 </g>
 <defs>
  <clipPath id="p7563b0a97e">
   <rect x="83.61" y="53.2224" width="518.382" height="341.5104"/>
  </clipPath>
 </defs>
</svg>
