<?xml version="1.0" encoding="utf-8" standalone="no"?>
<!DOCTYPE svg PUBLIC "-//W3C//DTD SVG 1.1//EN"
  "http://www.w3.org/Graphics/SVG/1.1/DTD/svg11.dtd">
<svg xmlns:xlink="http://www.w3.org/1999/xlink" width="424.165625pt" height="567.574375pt" viewBox="0 0 424.165625 567.574375" xmlns="http://www.w3.org/2000/svg" version="1.1">
 <metadata>
  <rdf:RDF xmlns:dc="http://purl.org/dc/elements/1.1/" xmlns:cc="http://creativecommons.org/ns#" xmlns:rdf="http://www.w3.org/1999/02/22-rdf-syntax-ns#">
   <cc:Work>
    <dc:type rdf:resource="http://purl.org/dc/dcmitype/StillImage"/>
    <dc:date>2026-06-29T09:23:08.908391</dc:date>
    <dc:format>image/svg+xml</dc:format>
    <dc:creator>
     <cc:Agent>
      <dc:title>Matplotlib v3.10.0, https://matplotlib.org/</dc:title>
     </cc:Agent>
    </dc:creator>
   </cc:Work>
  </rdf:RDF>
 </metadata>
 <defs>
  <style type="text/css">*{stroke-linejoin: round; stroke-linecap: butt}</style>
 </defs>
 <g id="figure_1">
  <g id="patch_1">
   <path d="M 0 567.574375 
L 424.165625 567.574375 
L 424.165625 0 
L 0 0 
z
" style="fill: #ffffff"/>
  </g>
  <g id="axes_1">
   <g id="patch_2">
    <path d="M 66.053125 254.343125 
L 416.965625 254.343125 
L 416.965625 22.318125 
L 66.053125 22.318125 
z
" style="fill: #ffffff"/>
   </g>
   <g id="matplotlib.axis_1">
    <g id="xtick_1">
     <g id="line2d_1">
      <defs>
       <path id="m197762fbba" d="M 0 0 
L 0 3.5 
" style="stroke: #000000; stroke-width: 0.8"/>
      </defs>
      <g>
       <use xlink:href="#m197762fbba" x="82.003693" y="254.343125" style="stroke: #000000; stroke-width: 0.8"/>
      </g>
     </g>
    </g>
    <g id="xtick_2">
     <g id="line2d_2">
      <g>
       <use xlink:href="#m197762fbba" x="126.434245" y="254.343125" style="stroke: #000000; stroke-width: 0.8"/>
      </g>
     </g>
    </g>
    <g id="xtick_3">
     <g id="line2d_3">
      <g>
       <use xlink:href="#m197762fbba" x="170.864797" y="254.343125" style="stroke: #000000; stroke-width: 0.8"/>
      </g>
     </g>
    </g>
    <g id="xtick_4">
     <g id="line2d_4">
      <g>
       <use xlink:href="#m197762fbba" x="215.295349" y="254.343125" style="stroke: #000000; stroke-width: 0.8"/>
      </g>
     </g>
    </g>
    <g id="xtick_5">
     <g id="line2d_5">
      <g>
       <use xlink:href="#m197762fbba" x="259.725901" y="254.343125" style="stroke: #000000; stroke-width: 0.8"/>
      </g>
     </g>
    </g>
    <g id="xtick_6">
     <g id="line2d_6">
      <g>
       <use xlink:href="#m197762fbba" x="304.156453" y="254.343125" style="stroke: #000000; stroke-width: 0.8"/>
      </g>
     </g>
    </g>
    <g id="xtick_7">
     <g id="line2d_7">
      <g>
       <use xlink:href="#m197762fbba" x="348.587005" y="254.343125" style="stroke: #000000; stroke-width: 0.8"/>
      </g>
     </g>
    </g>
    <g id="xtick_8">
     <g id="line2d_8">
      <g>
       <use xlink:href="#m197762fbba" x="393.017557" y="254.343125" style="stroke: #000000; stroke-width: 0.8"/>
      </g>
     </g>
    </g>
    <g id="text_1">
     <!-- orientation -->
     <g transform="translate(214.158594 269.441562) scale(0.1 -0.1)">
      <defs>
       <path id="DejaVuSans-6f" d="M 1959 3097 
Q 1497 3097 1228 2736 
Q 959 2375 959 1747 
Q 959 1119 1226 758 
Q 1494 397 1959 397 
Q 2419 397 2687 759 
Q 2956 1122 2956 1747 
Q 2956 2369 2687 2733 
Q 2419 3097 1959 3097 
z
M 1959 3584 
Q 2709 3584 3137 3096 
Q 3566 2609 3566 1747 
Q 3566 888 3137 398 
Q 2709 -91 1959 -91 
Q 1206 -91 779 398 
Q 353 888 353 1747 
Q 353 2609 779 3096 
Q 1206 3584 1959 3584 
z
" transform="scale(0.015625)"/>
       <path id="DejaVuSans-72" d="M 2631 2963 
Q 2534 3019 2420 3045 
Q 2306 3072 2169 3072 
Q 1681 3072 1420 2755 
Q 1159 2438 1159 1844 
L 1159 0 
L 581 0 
L 581 3500 
L 1159 3500 
L 1159 2956 
Q 1341 3275 1631 3429 
Q 1922 3584 2338 3584 
Q 2397 3584 2469 3576 
Q 2541 3569 2628 3553 
L 2631 2963 
z
" transform="scale(0.015625)"/>
       <path id="DejaVuSans-69" d="M 603 3500 
L 1178 3500 
L 1178 0 
L 603 0 
L 603 3500 
z
M 603 4863 
L 1178 4863 
L 1178 4134 
L 603 4134 
L 603 4863 
z
" transform="scale(0.015625)"/>
       <path id="DejaVuSans-65" d="M 3597 1894 
L 3597 1613 
L 953 1613 
Q 991 1019 1311 708 
Q 1631 397 2203 397 
Q 2534 397 2845 478 
Q 3156 559 3463 722 
L 3463 178 
Q 3153 47 2828 -22 
Q 2503 -91 2169 -91 
Q 1331 -91 842 396 
Q 353 884 353 1716 
Q 353 2575 817 3079 
Q 1281 3584 2069 3584 
Q 2775 3584 3186 3129 
Q 3597 2675 3597 1894 
z
M 3022 2063 
Q 3016 2534 2758 2815 
Q 2500 3097 2075 3097 
Q 1594 3097 1305 2825 
Q 1016 2553 972 2059 
L 3022 2063 
z
" transform="scale(0.015625)"/>
       <path id="DejaVuSans-6e" d="M 3513 2113 
L 3513 0 
L 2938 0 
L 2938 2094 
Q 2938 2591 2744 2837 
Q 2550 3084 2163 3084 
Q 1697 3084 1428 2787 
Q 1159 2491 1159 1978 
L 1159 0 
L 581 0 
L 581 3500 
L 1159 3500 
L 1159 2956 
Q 1366 3272 1645 3428 
Q 1925 3584 2291 3584 
Q 2894 3584 3203 3211 
Q 3513 2838 3513 2113 
z
" transform="scale(0.015625)"/>
       <path id="DejaVuSans-74" d="M 1172 4494 
L 1172 3500 
L 2356 3500 
L 2356 3053 
L 1172 3053 
L 1172 1153 
Q 1172 725 1289 603 
Q 1406 481 1766 481 
L 2356 481 
L 2356 0 
L 1766 0 
Q 1100 0 847 248 
Q 594 497 594 1153 
L 594 3053 
L 172 3053 
L 172 3500 
L 594 3500 
L 594 4494 
L 1172 4494 
z
" transform="scale(0.015625)"/>
       <path id="DejaVuSans-61" d="M 2194 1759 
Q 1497 1759 1228 1600 
Q 959 1441 959 1056 
Q 959 750 1161 570 
Q 1363 391 1709 391 
Q 2188 391 2477 730 
Q 2766 1069 2766 1631 
L 2766 1759 
L 2194 1759 
z
M 3341 1997 
L 3341 0 
L 2766 0 
L 2766 531 
Q 2569 213 2275 61 
Q 1981 -91 1556 -91 
Q 1019 -91 701 211 
Q 384 513 384 1019 
Q 384 1609 779 1909 
Q 1175 2209 1959 2209 
L 2766 2209 
L 2766 2266 
Q 2766 2663 2505 2880 
Q 2244 3097 1772 3097 
Q 1472 3097 1187 3025 
Q 903 2953 641 2809 
L 641 3341 
Q 956 3463 1253 3523 
Q 1550 3584 1831 3584 
Q 2591 3584 2966 3190 
Q 3341 2797 3341 1997 
z
" transform="scale(0.015625)"/>
      </defs>
      <use xlink:href="#DejaVuSans-6f"/>
      <use xlink:href="#DejaVuSans-72" transform="translate(61.181641 0)"/>
      <use xlink:href="#DejaVuSans-69" transform="translate(102.294922 0)"/>
      <use xlink:href="#DejaVuSans-65" transform="translate(130.078125 0)"/>
      <use xlink:href="#DejaVuSans-6e" transform="translate(191.601562 0)"/>
      <use xlink:href="#DejaVuSans-74" transform="translate(254.980469 0)"/>
      <use xlink:href="#DejaVuSans-61" transform="translate(294.189453 0)"/>
      <use xlink:href="#DejaVuSans-74" transform="translate(355.46875 0)"/>
      <use xlink:href="#DejaVuSans-69" transform="translate(394.677734 0)"/>
      <use xlink:href="#DejaVuSans-6f" transform="translate(422.460938 0)"/>
      <use xlink:href="#DejaVuSans-6e" transform="translate(483.642578 0)"/>
     </g>
    </g>
   </g>
   <g id="matplotlib.axis_2">
    <g id="ytick_1">
     <g id="line2d_9">
      <defs>
       <path id="mae718a0f07" d="M 0 0 
L -3.5 0 
" style="stroke: #000000; stroke-width: 0.8"/>
      </defs>
      <g>
       <use xlink:href="#mae718a0f07" x="66.053125" y="235.605958" style="stroke: #000000; stroke-width: 0.8"/>
      </g>
     </g>
     <g id="text_2">
      <!-- 135000 -->
      <g transform="translate(20.878125 239.405176) scale(0.1 -0.1)">
       <defs>
        <path id="DejaVuSans-31" d="M 794 531 
L 1825 531 
L 1825 4091 
L 703 3866 
L 703 4441 
L 1819 4666 
L 2450 4666 
L 2450 531 
L 3481 531 
L 3481 0 
L 794 0 
L 794 531 
z
" transform="scale(0.015625)"/>
        <path id="DejaVuSans-33" d="M 2597 2516 
Q 3050 2419 3304 2112 
Q 3559 1806 3559 1356 
Q 3559 666 3084 287 
Q 2609 -91 1734 -91 
Q 1441 -91 1130 -33 
Q 819 25 488 141 
L 488 750 
Q 750 597 1062 519 
Q 1375 441 1716 441 
Q 2309 441 2620 675 
Q 2931 909 2931 1356 
Q 2931 1769 2642 2001 
Q 2353 2234 1838 2234 
L 1294 2234 
L 1294 2753 
L 1863 2753 
Q 2328 2753 2575 2939 
Q 2822 3125 2822 3475 
Q 2822 3834 2567 4026 
Q 2313 4219 1838 4219 
Q 1578 4219 1281 4162 
Q 984 4106 628 3988 
L 628 4550 
Q 988 4650 1302 4700 
Q 1616 4750 1894 4750 
Q 2613 4750 3031 4423 
Q 3450 4097 3450 3541 
Q 3450 3153 3228 2886 
Q 3006 2619 2597 2516 
z
" transform="scale(0.015625)"/>
        <path id="DejaVuSans-35" d="M 691 4666 
L 3169 4666 
L 3169 4134 
L 1269 4134 
L 1269 2991 
Q 1406 3038 1543 3061 
Q 1681 3084 1819 3084 
Q 2600 3084 3056 2656 
Q 3513 2228 3513 1497 
Q 3513 744 3044 326 
Q 2575 -91 1722 -91 
Q 1428 -91 1123 -41 
Q 819 9 494 109 
L 494 744 
Q 775 591 1075 516 
Q 1375 441 1709 441 
Q 2250 441 2565 725 
Q 2881 1009 2881 1497 
Q 2881 1984 2565 2268 
Q 2250 2553 1709 2553 
Q 1456 2553 1204 2497 
Q 953 2441 691 2322 
L 691 4666 
z
" transform="scale(0.015625)"/>
        <path id="DejaVuSans-30" d="M 2034 4250 
Q 1547 4250 1301 3770 
Q 1056 3291 1056 2328 
Q 1056 1369 1301 889 
Q 1547 409 2034 409 
Q 2525 409 2770 889 
Q 3016 1369 3016 2328 
Q 3016 3291 2770 3770 
Q 2525 4250 2034 4250 
z
M 2034 4750 
Q 2819 4750 3233 4129 
Q 3647 3509 3647 2328 
Q 3647 1150 3233 529 
Q 2819 -91 2034 -91 
Q 1250 -91 836 529 
Q 422 1150 422 2328 
Q 422 3509 836 4129 
Q 1250 4750 2034 4750 
z
" transform="scale(0.015625)"/>
       </defs>
       <use xlink:href="#DejaVuSans-31"/>
       <use xlink:href="#DejaVuSans-33" transform="translate(63.623047 0)"/>
       <use xlink:href="#DejaVuSans-35" transform="translate(127.246094 0)"/>
       <use xlink:href="#DejaVuSans-30" transform="translate(190.869141 0)"/>
       <use xlink:href="#DejaVuSans-30" transform="translate(254.492188 0)"/>
       <use xlink:href="#DejaVuSans-30" transform="translate(318.115234 0)"/>
      </g>
     </g>
    </g>
    <g id="ytick_2">
     <g id="line2d_10">
      <g>
       <use xlink:href="#mae718a0f07" x="66.053125" y="202.974179" style="stroke: #000000; stroke-width: 0.8"/>
      </g>
     </g>
     <g id="text_3">
      <!-- 140000 -->
      <g transform="translate(20.878125 206.773398) scale(0.1 -0.1)">
       <defs>
        <path id="DejaVuSans-34" d="M 2419 4116 
L 825 1625 
L 2419 1625 
L 2419 4116 
z
M 2253 4666 
L 3047 4666 
L 3047 1625 
L 3713 1625 
L 3713 1100 
L 3047 1100 
L 3047 0 
L 2419 0 
L 2419 1100 
L 313 1100 
L 313 1709 
L 2253 4666 
z
" transform="scale(0.015625)"/>
       </defs>
       <use xlink:href="#DejaVuSans-31"/>
       <use xlink:href="#DejaVuSans-34" transform="translate(63.623047 0)"/>
       <use xlink:href="#DejaVuSans-30" transform="translate(127.246094 0)"/>
       <use xlink:href="#DejaVuSans-30" transform="translate(190.869141 0)"/>
       <use xlink:href="#DejaVuSans-30" transform="translate(254.492188 0)"/>
       <use xlink:href="#DejaVuSans-30" transform="translate(318.115234 0)"/>
      </g>
     </g>
    </g>
    <g id="ytick_3">
     <g id="line2d_11">
      <g>
       <use xlink:href="#mae718a0f07" x="66.053125" y="170.3424" style="stroke: #000000; stroke-width: 0.8"/>
      </g>
     </g>
     <g id="text_4">
      <!-- 145000 -->
      <g transform="translate(20.878125 174.141619) scale(0.1 -0.1)">
       <use xlink:href="#DejaVuSans-31"/>
       <use xlink:href="#DejaVuSans-34" transform="translate(63.623047 0)"/>
       <use xlink:href="#DejaVuSans-35" transform="translate(127.246094 0)"/>
       <use xlink:href="#DejaVuSans-30" transform="translate(190.869141 0)"/>
       <use xlink:href="#DejaVuSans-30" transform="translate(254.492188 0)"/>
       <use xlink:href="#DejaVuSans-30" transform="translate(318.115234 0)"/>
      </g>
     </g>
    </g>
    <g id="ytick_4">
     <g id="line2d_12">
      <g>
       <use xlink:href="#mae718a0f07" x="66.053125" y="137.710621" style="stroke: #000000; stroke-width: 0.8"/>
      </g>
     </g>
     <g id="text_5">
      <!-- 150000 -->
      <g transform="translate(20.878125 141.50984) scale(0.1 -0.1)">
       <use xlink:href="#DejaVuSans-31"/>
       <use xlink:href="#DejaVuSans-35" transform="translate(63.623047 0)"/>
       <use xlink:href="#DejaVuSans-30" transform="translate(127.246094 0)"/>
       <use xlink:href="#DejaVuSans-30" transform="translate(190.869141 0)"/>
       <use xlink:href="#DejaVuSans-30" transform="translate(254.492188 0)"/>
       <use xlink:href="#DejaVuSans-30" transform="translate(318.115234 0)"/>
      </g>
     </g>
    </g>
    <g id="ytick_5">
     <g id="line2d_13">
      <g>
       <use xlink:href="#mae718a0f07" x="66.053125" y="105.078842" style="stroke: #000000; stroke-width: 0.8"/>
      </g>
     </g>
     <g id="text_6">
      <!-- 155000 -->
      <g transform="translate(20.878125 108.878061) scale(0.1 -0.1)">
       <use xlink:href="#DejaVuSans-31"/>
       <use xlink:href="#DejaVuSans-35" transform="translate(63.623047 0)"/>
       <use xlink:href="#DejaVuSans-35" transform="translate(127.246094 0)"/>
       <use xlink:href="#DejaVuSans-30" transform="translate(190.869141 0)"/>
       <use xlink:href="#DejaVuSans-30" transform="translate(254.492188 0)"/>
       <use xlink:href="#DejaVuSans-30" transform="translate(318.115234 0)"/>
      </g>
     </g>
    </g>
    <g id="ytick_6">
     <g id="line2d_14">
      <g>
       <use xlink:href="#mae718a0f07" x="66.053125" y="72.447064" style="stroke: #000000; stroke-width: 0.8"/>
      </g>
     </g>
     <g id="text_7">
      <!-- 160000 -->
      <g transform="translate(20.878125 76.246282) scale(0.1 -0.1)">
       <defs>
        <path id="DejaVuSans-36" d="M 2113 2584 
Q 1688 2584 1439 2293 
Q 1191 2003 1191 1497 
Q 1191 994 1439 701 
Q 1688 409 2113 409 
Q 2538 409 2786 701 
Q 3034 994 3034 1497 
Q 3034 2003 2786 2293 
Q 2538 2584 2113 2584 
z
M 3366 4563 
L 3366 3988 
Q 3128 4100 2886 4159 
Q 2644 4219 2406 4219 
Q 1781 4219 1451 3797 
Q 1122 3375 1075 2522 
Q 1259 2794 1537 2939 
Q 1816 3084 2150 3084 
Q 2853 3084 3261 2657 
Q 3669 2231 3669 1497 
Q 3669 778 3244 343 
Q 2819 -91 2113 -91 
Q 1303 -91 875 529 
Q 447 1150 447 2328 
Q 447 3434 972 4092 
Q 1497 4750 2381 4750 
Q 2619 4750 2861 4703 
Q 3103 4656 3366 4563 
z
" transform="scale(0.015625)"/>
       </defs>
       <use xlink:href="#DejaVuSans-31"/>
       <use xlink:href="#DejaVuSans-36" transform="translate(63.623047 0)"/>
       <use xlink:href="#DejaVuSans-30" transform="translate(127.246094 0)"/>
       <use xlink:href="#DejaVuSans-30" transform="translate(190.869141 0)"/>
       <use xlink:href="#DejaVuSans-30" transform="translate(254.492188 0)"/>
       <use xlink:href="#DejaVuSans-30" transform="translate(318.115234 0)"/>
      </g>
     </g>
    </g>
    <g id="ytick_7">
     <g id="line2d_15">
      <g>
       <use xlink:href="#mae718a0f07" x="66.053125" y="39.815285" style="stroke: #000000; stroke-width: 0.8"/>
      </g>
     </g>
     <g id="text_8">
      <!-- 165000 -->
      <g transform="translate(20.878125 43.614504) scale(0.1 -0.1)">
       <use xlink:href="#DejaVuSans-31"/>
       <use xlink:href="#DejaVuSans-36" transform="translate(63.623047 0)"/>
       <use xlink:href="#DejaVuSans-35" transform="translate(127.246094 0)"/>
       <use xlink:href="#DejaVuSans-30" transform="translate(190.869141 0)"/>
       <use xlink:href="#DejaVuSans-30" transform="translate(254.492188 0)"/>
       <use xlink:href="#DejaVuSans-30" transform="translate(318.115234 0)"/>
      </g>
     </g>
    </g>
    <g id="text_9">
     <!-- driftExposure -->
     <g transform="translate(14.798438 171.7275) rotate(-90) scale(0.1 -0.1)">
      <defs>
       <path id="DejaVuSans-64" d="M 2906 2969 
L 2906 4863 
L 3481 4863 
L 3481 0 
L 2906 0 
L 2906 525 
Q 2725 213 2448 61 
Q 2172 -91 1784 -91 
Q 1150 -91 751 415 
Q 353 922 353 1747 
Q 353 2572 751 3078 
Q 1150 3584 1784 3584 
Q 2172 3584 2448 3432 
Q 2725 3281 2906 2969 
z
M 947 1747 
Q 947 1113 1208 752 
Q 1469 391 1925 391 
Q 2381 391 2643 752 
Q 2906 1113 2906 1747 
Q 2906 2381 2643 2742 
Q 2381 3103 1925 3103 
Q 1469 3103 1208 2742 
Q 947 2381 947 1747 
z
" transform="scale(0.015625)"/>
       <path id="DejaVuSans-66" d="M 2375 4863 
L 2375 4384 
L 1825 4384 
Q 1516 4384 1395 4259 
Q 1275 4134 1275 3809 
L 1275 3500 
L 2222 3500 
L 2222 3053 
L 1275 3053 
L 1275 0 
L 697 0 
L 697 3053 
L 147 3053 
L 147 3500 
L 697 3500 
L 697 3744 
Q 697 4328 969 4595 
Q 1241 4863 1831 4863 
L 2375 4863 
z
" transform="scale(0.015625)"/>
       <path id="DejaVuSans-45" d="M 628 4666 
L 3578 4666 
L 3578 4134 
L 1259 4134 
L 1259 2753 
L 3481 2753 
L 3481 2222 
L 1259 2222 
L 1259 531 
L 3634 531 
L 3634 0 
L 628 0 
L 628 4666 
z
" transform="scale(0.015625)"/>
       <path id="DejaVuSans-78" d="M 3513 3500 
L 2247 1797 
L 3578 0 
L 2900 0 
L 1881 1375 
L 863 0 
L 184 0 
L 1544 1831 
L 300 3500 
L 978 3500 
L 1906 2253 
L 2834 3500 
L 3513 3500 
z
" transform="scale(0.015625)"/>
       <path id="DejaVuSans-70" d="M 1159 525 
L 1159 -1331 
L 581 -1331 
L 581 3500 
L 1159 3500 
L 1159 2969 
Q 1341 3281 1617 3432 
Q 1894 3584 2278 3584 
Q 2916 3584 3314 3078 
Q 3713 2572 3713 1747 
Q 3713 922 3314 415 
Q 2916 -91 2278 -91 
Q 1894 -91 1617 61 
Q 1341 213 1159 525 
z
M 3116 1747 
Q 3116 2381 2855 2742 
Q 2594 3103 2138 3103 
Q 1681 3103 1420 2742 
Q 1159 2381 1159 1747 
Q 1159 1113 1420 752 
Q 1681 391 2138 391 
Q 2594 391 2855 752 
Q 3116 1113 3116 1747 
z
" transform="scale(0.015625)"/>
       <path id="DejaVuSans-73" d="M 2834 3397 
L 2834 2853 
Q 2591 2978 2328 3040 
Q 2066 3103 1784 3103 
Q 1356 3103 1142 2972 
Q 928 2841 928 2578 
Q 928 2378 1081 2264 
Q 1234 2150 1697 2047 
L 1894 2003 
Q 2506 1872 2764 1633 
Q 3022 1394 3022 966 
Q 3022 478 2636 193 
Q 2250 -91 1575 -91 
Q 1294 -91 989 -36 
Q 684 19 347 128 
L 347 722 
Q 666 556 975 473 
Q 1284 391 1588 391 
Q 1994 391 2212 530 
Q 2431 669 2431 922 
Q 2431 1156 2273 1281 
Q 2116 1406 1581 1522 
L 1381 1569 
Q 847 1681 609 1914 
Q 372 2147 372 2553 
Q 372 3047 722 3315 
Q 1072 3584 1716 3584 
Q 2034 3584 2315 3537 
Q 2597 3491 2834 3397 
z
" transform="scale(0.015625)"/>
       <path id="DejaVuSans-75" d="M 544 1381 
L 544 3500 
L 1119 3500 
L 1119 1403 
Q 1119 906 1312 657 
Q 1506 409 1894 409 
Q 2359 409 2629 706 
Q 2900 1003 2900 1516 
L 2900 3500 
L 3475 3500 
L 3475 0 
L 2900 0 
L 2900 538 
Q 2691 219 2414 64 
Q 2138 -91 1772 -91 
Q 1169 -91 856 284 
Q 544 659 544 1381 
z
M 1991 3584 
L 1991 3584 
z
" transform="scale(0.015625)"/>
      </defs>
      <use xlink:href="#DejaVuSans-64"/>
      <use xlink:href="#DejaVuSans-72" transform="translate(63.476562 0)"/>
      <use xlink:href="#DejaVuSans-69" transform="translate(104.589844 0)"/>
      <use xlink:href="#DejaVuSans-66" transform="translate(132.373047 0)"/>
      <use xlink:href="#DejaVuSans-74" transform="translate(165.828125 0)"/>
      <use xlink:href="#DejaVuSans-45" transform="translate(205.037109 0)"/>
      <use xlink:href="#DejaVuSans-78" transform="translate(268.220703 0)"/>
      <use xlink:href="#DejaVuSans-70" transform="translate(327.400391 0)"/>
      <use xlink:href="#DejaVuSans-6f" transform="translate(390.876953 0)"/>
      <use xlink:href="#DejaVuSans-73" transform="translate(452.058594 0)"/>
      <use xlink:href="#DejaVuSans-75" transform="translate(504.158203 0)"/>
      <use xlink:href="#DejaVuSans-72" transform="translate(567.537109 0)"/>
      <use xlink:href="#DejaVuSans-65" transform="translate(606.400391 0)"/>
     </g>
    </g>
   </g>
   <g id="line2d_16">
    <path d="M 82.003693 51.164617 
L 83.780915 45.095107 
L 85.558137 40.226445 
L 86.446748 38.222854 
L 87.335359 36.552107 
L 88.22397 35.207678 
L 89.112582 34.189566 
L 90.001193 33.471667 
L 90.889804 33.008296 
L 91.778415 32.864716 
L 92.667026 33.047454 
L 93.555637 33.563036 
L 94.444248 34.404936 
L 95.332859 35.481785 
L 96.22147 36.83274 
L 97.110081 38.503487 
L 97.998692 40.500552 
L 98.887303 42.823935 
L 100.664525 48.208178 
L 102.441747 54.571375 
L 104.218969 62.213738 
L 106.884802 75.194659 
L 108.662024 85.251774 
L 111.327858 101.965771 
L 113.10508 114.307109 
L 116.659524 141.31317 
L 123.768412 199.94595 
L 124.657023 207.875472 
L 127.322856 224.028202 
L 129.100078 236.082382 
L 129.988689 240.520303 
L 130.8773 241.407888 
L 132.654523 243.796534 
L 133.543134 243.639902 
L 135.320356 242.112734 
L 137.097578 231.057088 
L 139.763411 215.576572 
L 142.429244 190.985263 
L 145.095077 167.385961 
L 147.76091 142.735915 
L 150.426743 120.298304 
L 152.203965 106.423272 
L 153.981187 93.762142 
L 156.647021 76.839301 
L 158.424243 67.06282 
L 160.201465 58.532873 
L 161.978687 51.164617 
L 163.755909 45.095107 
L 165.533131 40.226445 
L 166.421742 38.222854 
L 167.310353 36.552107 
L 168.198964 35.207678 
L 169.087575 34.189566 
L 169.976186 33.471667 
L 170.864797 33.008296 
L 171.753408 32.864716 
L 172.642019 33.047454 
L 173.53063 33.563036 
L 174.419241 34.404936 
L 175.307852 35.481785 
L 176.196464 36.83274 
L 177.085075 38.503487 
L 177.973686 40.500552 
L 178.862297 42.823935 
L 180.639519 48.208178 
L 182.416741 54.571375 
L 184.193963 62.213738 
L 186.859796 75.194659 
L 188.637018 85.251774 
L 191.302851 101.965771 
L 193.080073 114.307109 
L 196.634517 141.31317 
L 203.743406 199.94595 
L 204.632017 207.875472 
L 207.29785 224.028202 
L 209.075072 236.082382 
L 209.963683 240.520303 
L 210.852294 241.407888 
L 212.629516 243.796534 
L 213.518127 243.639902 
L 215.295349 242.112734 
L 217.072571 231.057088 
L 219.738405 215.576572 
L 222.404238 190.985263 
L 225.070071 167.385961 
L 227.735904 142.735915 
L 230.401737 120.298304 
L 232.178959 106.423272 
L 233.956181 93.762142 
L 236.622014 76.839301 
L 238.399236 67.06282 
L 240.176458 58.532873 
L 241.953681 51.164617 
L 243.730903 45.095107 
L 245.508125 40.226445 
L 246.396736 38.222854 
L 247.285347 36.552107 
L 248.173958 35.207678 
L 249.062569 34.189566 
L 249.95118 33.471667 
L 250.839791 33.008296 
L 251.728402 32.864716 
L 252.617013 33.047454 
L 253.505624 33.563036 
L 254.394235 34.404936 
L 255.282846 35.481785 
L 256.171457 36.83274 
L 257.060068 38.503487 
L 257.948679 40.500552 
L 258.83729 42.823935 
L 260.614512 48.208178 
L 262.391734 54.571375 
L 264.168957 62.213738 
L 266.83479 75.194659 
L 268.612012 85.251774 
L 271.277845 101.965771 
L 273.055067 114.307109 
L 276.609511 141.31317 
L 283.718399 199.94595 
L 284.60701 207.875472 
L 287.272844 224.028202 
L 289.050066 236.082382 
L 289.938677 240.520303 
L 290.827288 241.407888 
L 292.60451 243.796534 
L 293.493121 243.639902 
L 295.270343 242.112734 
L 297.047565 231.057088 
L 299.713398 215.576572 
L 302.379231 190.985263 
L 305.045064 167.385961 
L 307.710898 142.735915 
L 310.376731 120.298304 
L 312.153953 106.423272 
L 313.931175 93.762142 
L 316.597008 76.839301 
L 318.37423 67.06282 
L 320.151452 58.532873 
L 321.928674 51.164617 
L 323.705896 45.095107 
L 325.483118 40.226445 
L 326.371729 38.222854 
L 327.26034 36.552107 
L 328.148951 35.207678 
L 329.037563 34.189566 
L 329.926174 33.471667 
L 330.814785 33.008296 
L 331.703396 32.864716 
L 332.592007 33.047454 
L 333.480618 33.563036 
L 334.369229 34.404936 
L 335.25784 35.481785 
L 336.146451 36.83274 
L 337.035062 38.503487 
L 337.923673 40.500552 
L 338.812284 42.823935 
L 340.589506 48.208178 
L 342.366728 54.571375 
L 344.14395 62.213738 
L 346.809783 75.194659 
L 348.587005 85.251774 
L 351.252839 101.965771 
L 353.030061 114.307109 
L 356.584505 141.31317 
L 363.693393 199.94595 
L 364.582004 207.875472 
L 367.247837 224.028202 
L 369.025059 236.082382 
L 369.91367 240.520303 
L 370.802281 241.407888 
L 372.579504 243.796534 
L 373.468115 243.639902 
L 375.245337 242.112734 
L 377.022559 231.057088 
L 379.688392 215.576572 
L 382.354225 190.985263 
L 385.020058 167.385961 
L 387.685891 142.735915 
L 390.351724 120.291778 
L 392.128946 106.416745 
L 393.906168 93.755615 
L 396.572002 76.839301 
L 398.349224 67.06282 
L 400.126446 58.532873 
L 401.015057 54.68885 
L 401.015057 54.68885 
" clip-path="url(#p2b6fe6e978)" style="fill: none; stroke: #1f77b4; stroke-width: 1.5; stroke-linecap: square"/>
   </g>
   <g id="patch_3">
    <path d="M 66.053125 254.343125 
L 66.053125 22.318125 
" style="fill: none; stroke: #000000; stroke-width: 0.8; stroke-linejoin: miter; stroke-linecap: square"/>
   </g>
   <g id="patch_4">
    <path d="M 416.965625 254.343125 
L 416.965625 22.318125 
" style="fill: none; stroke: #000000; stroke-width: 0.8; stroke-linejoin: miter; stroke-linecap: square"/>
   </g>
   <g id="patch_5">
    <path d="M 66.053125 254.343125 
L 416.965625 254.343125 
" style="fill: none; stroke: #000000; stroke-width: 0.8; stroke-linejoin: miter; stroke-linecap: square"/>
   </g>
   <g id="patch_6">
    <path d="M 66.053125 22.318125 
L 416.965625 22.318125 
" style="fill: none; stroke: #000000; stroke-width: 0.8; stroke-linejoin: miter; stroke-linecap: square"/>
   </g>
   <g id="text_10">
    <!-- driftExposure -->
    <g transform="translate(201.433125 16.318125) scale(0.12 -0.12)">
     <use xlink:href="#DejaVuSans-64"/>
     <use xlink:href="#DejaVuSans-72" transform="translate(63.476562 0)"/>
     <use xlink:href="#DejaVuSans-69" transform="translate(104.589844 0)"/>
     <use xlink:href="#DejaVuSans-66" transform="translate(132.373047 0)"/>
     <use xlink:href="#DejaVuSans-74" transform="translate(165.828125 0)"/>
     <use xlink:href="#DejaVuSans-45" transform="translate(205.037109 0)"/>
     <use xlink:href="#DejaVuSans-78" transform="translate(268.220703 0)"/>
     <use xlink:href="#DejaVuSans-70" transform="translate(327.400391 0)"/>
     <use xlink:href="#DejaVuSans-6f" transform="translate(390.876953 0)"/>
     <use xlink:href="#DejaVuSans-73" transform="translate(452.058594 0)"/>
     <use xlink:href="#DejaVuSans-75" transform="translate(504.158203 0)"/>
     <use xlink:href="#DejaVuSans-72" transform="translate(567.537109 0)"/>
     <use xlink:href="#DejaVuSans-65" transform="translate(606.400391 0)"/>
    </g>
   </g>
  </g>
  <g id="axes_2">
   <g id="patch_7">
    <path d="M 66.053125 530.018125 
L 416.965625 530.018125 
L 416.965625 297.993125 
L 66.053125 297.993125 
z
" style="fill: #ffffff"/>
   </g>
   <g id="matplotlib.axis_3">
    <g id="xtick_9">
     <g id="line2d_17">
      <g>
       <use xlink:href="#m197762fbba" x="82.003693" y="530.018125" style="stroke: #000000; stroke-width: 0.8"/>
      </g>
     </g>
     <g id="text_11">
      <!-- 0 -->
      <g transform="translate(78.822443 544.616562) scale(0.1 -0.1)">
       <use xlink:href="#DejaVuSans-30"/>
      </g>
     </g>
    </g>
    <g id="xtick_10">
     <g id="line2d_18">
      <g>
       <use xlink:href="#m197762fbba" x="126.434245" y="530.018125" style="stroke: #000000; stroke-width: 0.8"/>
      </g>
     </g>
     <g id="text_12">
      <!-- 50 -->
      <g transform="translate(120.071745 544.616562) scale(0.1 -0.1)">
       <use xlink:href="#DejaVuSans-35"/>
       <use xlink:href="#DejaVuSans-30" transform="translate(63.623047 0)"/>
      </g>
     </g>
    </g>
    <g id="xtick_11">
     <g id="line2d_19">
      <g>
       <use xlink:href="#m197762fbba" x="170.864797" y="530.018125" style="stroke: #000000; stroke-width: 0.8"/>
      </g>
     </g>
     <g id="text_13">
      <!-- 100 -->
      <g transform="translate(161.321047 544.616562) scale(0.1 -0.1)">
       <use xlink:href="#DejaVuSans-31"/>
       <use xlink:href="#DejaVuSans-30" transform="translate(63.623047 0)"/>
       <use xlink:href="#DejaVuSans-30" transform="translate(127.246094 0)"/>
      </g>
     </g>
    </g>
    <g id="xtick_12">
     <g id="line2d_20">
      <g>
       <use xlink:href="#m197762fbba" x="215.295349" y="530.018125" style="stroke: #000000; stroke-width: 0.8"/>
      </g>
     </g>
     <g id="text_14">
      <!-- 150 -->
      <g transform="translate(205.751599 544.616562) scale(0.1 -0.1)">
       <use xlink:href="#DejaVuSans-31"/>
       <use xlink:href="#DejaVuSans-35" transform="translate(63.623047 0)"/>
       <use xlink:href="#DejaVuSans-30" transform="translate(127.246094 0)"/>
      </g>
     </g>
    </g>
    <g id="xtick_13">
     <g id="line2d_21">
      <g>
       <use xlink:href="#m197762fbba" x="259.725901" y="530.018125" style="stroke: #000000; stroke-width: 0.8"/>
      </g>
     </g>
     <g id="text_15">
      <!-- 200 -->
      <g transform="translate(250.182151 544.616562) scale(0.1 -0.1)">
       <defs>
        <path id="DejaVuSans-32" d="M 1228 531 
L 3431 531 
L 3431 0 
L 469 0 
L 469 531 
Q 828 903 1448 1529 
Q 2069 2156 2228 2338 
Q 2531 2678 2651 2914 
Q 2772 3150 2772 3378 
Q 2772 3750 2511 3984 
Q 2250 4219 1831 4219 
Q 1534 4219 1204 4116 
Q 875 4013 500 3803 
L 500 4441 
Q 881 4594 1212 4672 
Q 1544 4750 1819 4750 
Q 2544 4750 2975 4387 
Q 3406 4025 3406 3419 
Q 3406 3131 3298 2873 
Q 3191 2616 2906 2266 
Q 2828 2175 2409 1742 
Q 1991 1309 1228 531 
z
" transform="scale(0.015625)"/>
       </defs>
       <use xlink:href="#DejaVuSans-32"/>
       <use xlink:href="#DejaVuSans-30" transform="translate(63.623047 0)"/>
       <use xlink:href="#DejaVuSans-30" transform="translate(127.246094 0)"/>
      </g>
     </g>
    </g>
    <g id="xtick_14">
     <g id="line2d_22">
      <g>
       <use xlink:href="#m197762fbba" x="304.156453" y="530.018125" style="stroke: #000000; stroke-width: 0.8"/>
      </g>
     </g>
     <g id="text_16">
      <!-- 250 -->
      <g transform="translate(294.612703 544.616562) scale(0.1 -0.1)">
       <use xlink:href="#DejaVuSans-32"/>
       <use xlink:href="#DejaVuSans-35" transform="translate(63.623047 0)"/>
       <use xlink:href="#DejaVuSans-30" transform="translate(127.246094 0)"/>
      </g>
     </g>
    </g>
    <g id="xtick_15">
     <g id="line2d_23">
      <g>
       <use xlink:href="#m197762fbba" x="348.587005" y="530.018125" style="stroke: #000000; stroke-width: 0.8"/>
      </g>
     </g>
     <g id="text_17">
      <!-- 300 -->
      <g transform="translate(339.043255 544.616562) scale(0.1 -0.1)">
       <use xlink:href="#DejaVuSans-33"/>
       <use xlink:href="#DejaVuSans-30" transform="translate(63.623047 0)"/>
       <use xlink:href="#DejaVuSans-30" transform="translate(127.246094 0)"/>
      </g>
     </g>
    </g>
    <g id="xtick_16">
     <g id="line2d_24">
      <g>
       <use xlink:href="#m197762fbba" x="393.017557" y="530.018125" style="stroke: #000000; stroke-width: 0.8"/>
      </g>
     </g>
     <g id="text_18">
      <!-- 350 -->
      <g transform="translate(383.473807 544.616562) scale(0.1 -0.1)">
       <use xlink:href="#DejaVuSans-33"/>
       <use xlink:href="#DejaVuSans-35" transform="translate(63.623047 0)"/>
       <use xlink:href="#DejaVuSans-30" transform="translate(127.246094 0)"/>
      </g>
     </g>
    </g>
    <g id="text_19">
     <!-- orientation -->
     <g transform="translate(214.158594 558.294687) scale(0.1 -0.1)">
      <use xlink:href="#DejaVuSans-6f"/>
      <use xlink:href="#DejaVuSans-72" transform="translate(61.181641 0)"/>
      <use xlink:href="#DejaVuSans-69" transform="translate(102.294922 0)"/>
      <use xlink:href="#DejaVuSans-65" transform="translate(130.078125 0)"/>
      <use xlink:href="#DejaVuSans-6e" transform="translate(191.601562 0)"/>
      <use xlink:href="#DejaVuSans-74" transform="translate(254.980469 0)"/>
      <use xlink:href="#DejaVuSans-61" transform="translate(294.189453 0)"/>
      <use xlink:href="#DejaVuSans-74" transform="translate(355.46875 0)"/>
      <use xlink:href="#DejaVuSans-69" transform="translate(394.677734 0)"/>
      <use xlink:href="#DejaVuSans-6f" transform="translate(422.460938 0)"/>
      <use xlink:href="#DejaVuSans-6e" transform="translate(483.642578 0)"/>
     </g>
    </g>
   </g>
   <g id="matplotlib.axis_4">
    <g id="ytick_8">
     <g id="line2d_25">
      <g>
       <use xlink:href="#mae718a0f07" x="66.053125" y="525.398911" style="stroke: #000000; stroke-width: 0.8"/>
      </g>
     </g>
     <g id="text_20">
      <!-- 24000 -->
      <g transform="translate(27.240625 529.19813) scale(0.1 -0.1)">
       <use xlink:href="#DejaVuSans-32"/>
       <use xlink:href="#DejaVuSans-34" transform="translate(63.623047 0)"/>
       <use xlink:href="#DejaVuSans-30" transform="translate(127.246094 0)"/>
       <use xlink:href="#DejaVuSans-30" transform="translate(190.869141 0)"/>
       <use xlink:href="#DejaVuSans-30" transform="translate(254.492188 0)"/>
      </g>
     </g>
    </g>
    <g id="ytick_9">
     <g id="line2d_26">
      <g>
       <use xlink:href="#mae718a0f07" x="66.053125" y="494.955269" style="stroke: #000000; stroke-width: 0.8"/>
      </g>
     </g>
     <g id="text_21">
      <!-- 25000 -->
      <g transform="translate(27.240625 498.754488) scale(0.1 -0.1)">
       <use xlink:href="#DejaVuSans-32"/>
       <use xlink:href="#DejaVuSans-35" transform="translate(63.623047 0)"/>
       <use xlink:href="#DejaVuSans-30" transform="translate(127.246094 0)"/>
       <use xlink:href="#DejaVuSans-30" transform="translate(190.869141 0)"/>
       <use xlink:href="#DejaVuSans-30" transform="translate(254.492188 0)"/>
      </g>
     </g>
    </g>
    <g id="ytick_10">
     <g id="line2d_27">
      <g>
       <use xlink:href="#mae718a0f07" x="66.053125" y="464.511627" style="stroke: #000000; stroke-width: 0.8"/>
      </g>
     </g>
     <g id="text_22">
      <!-- 26000 -->
      <g transform="translate(27.240625 468.310846) scale(0.1 -0.1)">
       <use xlink:href="#DejaVuSans-32"/>
       <use xlink:href="#DejaVuSans-36" transform="translate(63.623047 0)"/>
       <use xlink:href="#DejaVuSans-30" transform="translate(127.246094 0)"/>
       <use xlink:href="#DejaVuSans-30" transform="translate(190.869141 0)"/>
       <use xlink:href="#DejaVuSans-30" transform="translate(254.492188 0)"/>
      </g>
     </g>
    </g>
    <g id="ytick_11">
     <g id="line2d_28">
      <g>
       <use xlink:href="#mae718a0f07" x="66.053125" y="434.067985" style="stroke: #000000; stroke-width: 0.8"/>
      </g>
     </g>
     <g id="text_23">
      <!-- 27000 -->
      <g transform="translate(27.240625 437.867204) scale(0.1 -0.1)">
       <defs>
        <path id="DejaVuSans-37" d="M 525 4666 
L 3525 4666 
L 3525 4397 
L 1831 0 
L 1172 0 
L 2766 4134 
L 525 4134 
L 525 4666 
z
" transform="scale(0.015625)"/>
       </defs>
       <use xlink:href="#DejaVuSans-32"/>
       <use xlink:href="#DejaVuSans-37" transform="translate(63.623047 0)"/>
       <use xlink:href="#DejaVuSans-30" transform="translate(127.246094 0)"/>
       <use xlink:href="#DejaVuSans-30" transform="translate(190.869141 0)"/>
       <use xlink:href="#DejaVuSans-30" transform="translate(254.492188 0)"/>
      </g>
     </g>
    </g>
    <g id="ytick_12">
     <g id="line2d_29">
      <g>
       <use xlink:href="#mae718a0f07" x="66.053125" y="403.624343" style="stroke: #000000; stroke-width: 0.8"/>
      </g>
     </g>
     <g id="text_24">
      <!-- 28000 -->
      <g transform="translate(27.240625 407.423562) scale(0.1 -0.1)">
       <defs>
        <path id="DejaVuSans-38" d="M 2034 2216 
Q 1584 2216 1326 1975 
Q 1069 1734 1069 1313 
Q 1069 891 1326 650 
Q 1584 409 2034 409 
Q 2484 409 2743 651 
Q 3003 894 3003 1313 
Q 3003 1734 2745 1975 
Q 2488 2216 2034 2216 
z
M 1403 2484 
Q 997 2584 770 2862 
Q 544 3141 544 3541 
Q 544 4100 942 4425 
Q 1341 4750 2034 4750 
Q 2731 4750 3128 4425 
Q 3525 4100 3525 3541 
Q 3525 3141 3298 2862 
Q 3072 2584 2669 2484 
Q 3125 2378 3379 2068 
Q 3634 1759 3634 1313 
Q 3634 634 3220 271 
Q 2806 -91 2034 -91 
Q 1263 -91 848 271 
Q 434 634 434 1313 
Q 434 1759 690 2068 
Q 947 2378 1403 2484 
z
M 1172 3481 
Q 1172 3119 1398 2916 
Q 1625 2713 2034 2713 
Q 2441 2713 2670 2916 
Q 2900 3119 2900 3481 
Q 2900 3844 2670 4047 
Q 2441 4250 2034 4250 
Q 1625 4250 1398 4047 
Q 1172 3844 1172 3481 
z
" transform="scale(0.015625)"/>
       </defs>
       <use xlink:href="#DejaVuSans-32"/>
       <use xlink:href="#DejaVuSans-38" transform="translate(63.623047 0)"/>
       <use xlink:href="#DejaVuSans-30" transform="translate(127.246094 0)"/>
       <use xlink:href="#DejaVuSans-30" transform="translate(190.869141 0)"/>
       <use xlink:href="#DejaVuSans-30" transform="translate(254.492188 0)"/>
      </g>
     </g>
    </g>
    <g id="ytick_13">
     <g id="line2d_30">
      <g>
       <use xlink:href="#mae718a0f07" x="66.053125" y="373.180701" style="stroke: #000000; stroke-width: 0.8"/>
      </g>
     </g>
     <g id="text_25">
      <!-- 29000 -->
      <g transform="translate(27.240625 376.97992) scale(0.1 -0.1)">
       <defs>
        <path id="DejaVuSans-39" d="M 703 97 
L 703 672 
Q 941 559 1184 500 
Q 1428 441 1663 441 
Q 2288 441 2617 861 
Q 2947 1281 2994 2138 
Q 2813 1869 2534 1725 
Q 2256 1581 1919 1581 
Q 1219 1581 811 2004 
Q 403 2428 403 3163 
Q 403 3881 828 4315 
Q 1253 4750 1959 4750 
Q 2769 4750 3195 4129 
Q 3622 3509 3622 2328 
Q 3622 1225 3098 567 
Q 2575 -91 1691 -91 
Q 1453 -91 1209 -44 
Q 966 3 703 97 
z
M 1959 2075 
Q 2384 2075 2632 2365 
Q 2881 2656 2881 3163 
Q 2881 3666 2632 3958 
Q 2384 4250 1959 4250 
Q 1534 4250 1286 3958 
Q 1038 3666 1038 3163 
Q 1038 2656 1286 2365 
Q 1534 2075 1959 2075 
z
" transform="scale(0.015625)"/>
       </defs>
       <use xlink:href="#DejaVuSans-32"/>
       <use xlink:href="#DejaVuSans-39" transform="translate(63.623047 0)"/>
       <use xlink:href="#DejaVuSans-30" transform="translate(127.246094 0)"/>
       <use xlink:href="#DejaVuSans-30" transform="translate(190.869141 0)"/>
       <use xlink:href="#DejaVuSans-30" transform="translate(254.492188 0)"/>
      </g>
     </g>
    </g>
    <g id="ytick_14">
     <g id="line2d_31">
      <g>
       <use xlink:href="#mae718a0f07" x="66.053125" y="342.737059" style="stroke: #000000; stroke-width: 0.8"/>
      </g>
     </g>
     <g id="text_26">
      <!-- 30000 -->
      <g transform="translate(27.240625 346.536278) scale(0.1 -0.1)">
       <use xlink:href="#DejaVuSans-33"/>
       <use xlink:href="#DejaVuSans-30" transform="translate(63.623047 0)"/>
       <use xlink:href="#DejaVuSans-30" transform="translate(127.246094 0)"/>
       <use xlink:href="#DejaVuSans-30" transform="translate(190.869141 0)"/>
       <use xlink:href="#DejaVuSans-30" transform="translate(254.492188 0)"/>
      </g>
     </g>
    </g>
    <g id="ytick_15">
     <g id="line2d_32">
      <g>
       <use xlink:href="#mae718a0f07" x="66.053125" y="312.293417" style="stroke: #000000; stroke-width: 0.8"/>
      </g>
     </g>
     <g id="text_27">
      <!-- 31000 -->
      <g transform="translate(27.240625 316.092636) scale(0.1 -0.1)">
       <use xlink:href="#DejaVuSans-33"/>
       <use xlink:href="#DejaVuSans-31" transform="translate(63.623047 0)"/>
       <use xlink:href="#DejaVuSans-30" transform="translate(127.246094 0)"/>
       <use xlink:href="#DejaVuSans-30" transform="translate(190.869141 0)"/>
       <use xlink:href="#DejaVuSans-30" transform="translate(254.492188 0)"/>
      </g>
     </g>
    </g>
    <g id="text_28">
     <!-- ramExposure -->
     <g transform="translate(21.160938 447.140781) rotate(-90) scale(0.1 -0.1)">
      <defs>
       <path id="DejaVuSans-6d" d="M 3328 2828 
Q 3544 3216 3844 3400 
Q 4144 3584 4550 3584 
Q 5097 3584 5394 3201 
Q 5691 2819 5691 2113 
L 5691 0 
L 5113 0 
L 5113 2094 
Q 5113 2597 4934 2840 
Q 4756 3084 4391 3084 
Q 3944 3084 3684 2787 
Q 3425 2491 3425 1978 
L 3425 0 
L 2847 0 
L 2847 2094 
Q 2847 2600 2669 2842 
Q 2491 3084 2119 3084 
Q 1678 3084 1418 2786 
Q 1159 2488 1159 1978 
L 1159 0 
L 581 0 
L 581 3500 
L 1159 3500 
L 1159 2956 
Q 1356 3278 1631 3431 
Q 1906 3584 2284 3584 
Q 2666 3584 2933 3390 
Q 3200 3197 3328 2828 
z
" transform="scale(0.015625)"/>
      </defs>
      <use xlink:href="#DejaVuSans-72"/>
      <use xlink:href="#DejaVuSans-61" transform="translate(41.113281 0)"/>
      <use xlink:href="#DejaVuSans-6d" transform="translate(102.392578 0)"/>
      <use xlink:href="#DejaVuSans-45" transform="translate(199.804688 0)"/>
      <use xlink:href="#DejaVuSans-78" transform="translate(262.988281 0)"/>
      <use xlink:href="#DejaVuSans-70" transform="translate(322.167969 0)"/>
      <use xlink:href="#DejaVuSans-6f" transform="translate(385.644531 0)"/>
      <use xlink:href="#DejaVuSans-73" transform="translate(446.826172 0)"/>
      <use xlink:href="#DejaVuSans-75" transform="translate(498.925781 0)"/>
      <use xlink:href="#DejaVuSans-72" transform="translate(562.304688 0)"/>
      <use xlink:href="#DejaVuSans-65" transform="translate(601.167969 0)"/>
     </g>
    </g>
   </g>
   <g id="line2d_33">
    <path d="M 82.003693 375.670991 
L 83.780915 364.068919 
L 85.558137 353.526286 
L 87.335359 344.052224 
L 89.112582 335.665001 
L 90.889804 328.376793 
L 92.667026 322.199778 
L 94.444248 317.173533 
L 96.22147 313.319368 
L 97.110081 311.815452 
L 97.998692 310.594662 
L 98.887303 309.653953 
L 99.775914 308.999415 
L 100.664525 308.628002 
L 101.553136 308.539716 
L 102.441747 308.734555 
L 103.330358 309.118145 
L 104.218969 309.723974 
L 105.10758 310.619017 
L 105.996191 311.794141 
L 106.884802 313.252392 
L 107.773413 314.996812 
L 108.662024 317.021315 
L 110.439246 321.916652 
L 112.216469 327.932316 
L 113.993691 335.062217 
L 115.770913 343.297222 
L 117.548135 352.625154 
L 119.325357 363.03688 
L 121.102579 374.511088 
L 123.768412 393.687538 
L 126.434245 414.791071 
L 129.988689 444.954631 
L 134.431745 482.826522 
L 136.208967 496.203458 
L 137.097578 502.158235 
L 137.986189 507.236234 
L 138.8748 511.623163 
L 139.763411 515.2764 
L 140.652022 517.809311 
L 141.540633 519.157965 
L 142.429244 519.471534 
L 143.317855 518.789597 
L 144.206466 516.591566 
L 145.095077 513.203188 
L 145.983688 508.813215 
L 146.872299 503.589086 
L 148.649521 490.242593 
L 150.426743 474.835066 
L 157.535632 409.4817 
L 160.201465 388.311191 
L 162.867298 369.740569 
L 164.64452 358.665173 
L 166.421742 348.655303 
L 168.198964 339.723138 
L 169.976186 331.883901 
L 171.753408 325.149767 
L 173.53063 319.529871 
L 175.307852 315.106409 
L 176.196464 313.319368 
L 177.085075 311.815452 
L 177.973686 310.594662 
L 178.862297 309.653953 
L 179.750908 308.999415 
L 180.639519 308.628002 
L 181.52813 308.539716 
L 182.416741 308.734555 
L 183.305352 309.118145 
L 184.193963 309.723974 
L 185.082574 310.619017 
L 185.971185 311.794141 
L 186.859796 313.252392 
L 187.748407 314.996812 
L 188.637018 317.021315 
L 190.41424 321.916652 
L 192.191462 327.932316 
L 193.968684 335.062217 
L 195.745906 343.297222 
L 197.523128 352.625154 
L 199.300351 363.03688 
L 201.077573 374.511088 
L 203.743406 393.687538 
L 206.409239 414.791071 
L 209.963683 444.954631 
L 214.406738 482.826522 
L 216.18396 496.203458 
L 217.072571 502.158235 
L 217.961182 507.236234 
L 218.849793 511.623163 
L 219.738405 515.2764 
L 220.627016 517.809311 
L 221.515627 519.157965 
L 222.404238 519.471534 
L 223.292849 518.789597 
L 224.18146 516.591566 
L 225.070071 513.203188 
L 225.958682 508.813215 
L 226.847293 503.589086 
L 228.624515 490.242593 
L 230.401737 474.835066 
L 237.510625 409.4817 
L 240.176458 388.311191 
L 242.842292 369.740569 
L 244.619514 358.665173 
L 246.396736 348.655303 
L 248.173958 339.723138 
L 249.95118 331.883901 
L 251.728402 325.149767 
L 253.505624 319.529871 
L 255.282846 315.106409 
L 256.171457 313.319368 
L 257.060068 311.815452 
L 257.948679 310.594662 
L 258.83729 309.653953 
L 259.725901 308.999415 
L 260.614512 308.628002 
L 261.503123 308.539716 
L 262.391734 308.734555 
L 263.280345 309.118145 
L 264.168957 309.723974 
L 265.057568 310.619017 
L 265.946179 311.794141 
L 266.83479 313.252392 
L 267.723401 314.996812 
L 268.612012 317.021315 
L 270.389234 321.916652 
L 272.166456 327.932316 
L 273.943678 335.062217 
L 275.7209 343.297222 
L 277.498122 352.625154 
L 279.275344 363.03688 
L 281.052566 374.511088 
L 283.718399 393.687538 
L 286.384233 414.791071 
L 289.938677 444.954631 
L 294.381732 482.826522 
L 296.158954 496.203458 
L 297.047565 502.158235 
L 297.936176 507.236234 
L 298.824787 511.623163 
L 299.713398 515.2764 
L 300.602009 517.809311 
L 301.49062 519.157965 
L 302.379231 519.471534 
L 303.267842 518.789597 
L 304.156453 516.591566 
L 305.045064 513.203188 
L 305.933675 508.813215 
L 306.822286 503.589086 
L 308.599509 490.242593 
L 310.376731 474.835066 
L 317.485619 409.4817 
L 320.151452 388.311191 
L 322.817285 369.740569 
L 324.594507 358.665173 
L 326.371729 348.655303 
L 328.148951 339.723138 
L 329.926174 331.883901 
L 331.703396 325.149767 
L 333.480618 319.529871 
L 335.25784 315.106409 
L 336.146451 313.319368 
L 337.035062 311.815452 
L 337.923673 310.594662 
L 338.812284 309.653953 
L 339.700895 308.999415 
L 340.589506 308.628002 
L 341.478117 308.539716 
L 342.366728 308.734555 
L 343.255339 309.118145 
L 344.14395 309.723974 
L 345.032561 310.619017 
L 345.921172 311.794141 
L 346.809783 313.252392 
L 347.698394 314.996812 
L 348.587005 317.021315 
L 350.364227 321.916652 
L 352.14145 327.932316 
L 353.918672 335.062217 
L 355.695894 343.297222 
L 357.473116 352.625154 
L 359.250338 363.03688 
L 361.02756 374.511088 
L 363.693393 393.687538 
L 366.359226 414.791071 
L 369.91367 444.954631 
L 374.356726 482.826522 
L 376.133948 496.203458 
L 377.022559 502.158235 
L 377.91117 507.236234 
L 378.799781 511.623163 
L 379.688392 515.2764 
L 380.577003 517.809311 
L 381.465614 519.157965 
L 382.354225 519.471534 
L 383.242836 518.789597 
L 384.131447 516.591566 
L 385.020058 513.203188 
L 385.908669 508.813215 
L 386.79728 503.589086 
L 388.574502 490.242593 
L 390.351724 474.804623 
L 397.460613 409.4817 
L 400.126446 388.311191 
L 401.015057 381.863228 
L 401.015057 381.863228 
" clip-path="url(#p27ff397477)" style="fill: none; stroke: #1f77b4; stroke-width: 1.5; stroke-linecap: square"/>
   </g>
   <g id="patch_8">
    <path d="M 66.053125 530.018125 
L 66.053125 297.993125 
" style="fill: none; stroke: #000000; stroke-width: 0.8; stroke-linejoin: miter; stroke-linecap: square"/>
   </g>
   <g id="patch_9">
    <path d="M 416.965625 530.018125 
L 416.965625 297.993125 
" style="fill: none; stroke: #000000; stroke-width: 0.8; stroke-linejoin: miter; stroke-linecap: square"/>
   </g>
   <g id="patch_10">
    <path d="M 66.053125 530.018125 
L 416.965625 530.018125 
" style="fill: none; stroke: #000000; stroke-width: 0.8; stroke-linejoin: miter; stroke-linecap: square"/>
   </g>
   <g id="patch_11">
    <path d="M 66.053125 297.993125 
L 416.965625 297.993125 
" style="fill: none; stroke: #000000; stroke-width: 0.8; stroke-linejoin: miter; stroke-linecap: square"/>
   </g>
   <g id="text_29">
    <!-- ramExposure -->
    <g transform="translate(201.747187 291.993125) scale(0.12 -0.12)">
     <use xlink:href="#DejaVuSans-72"/>
     <use xlink:href="#DejaVuSans-61" transform="translate(41.113281 0)"/>
     <use xlink:href="#DejaVuSans-6d" transform="translate(102.392578 0)"/>
     <use xlink:href="#DejaVuSans-45" transform="translate(199.804688 0)"/>
     <use xlink:href="#DejaVuSans-78" transform="translate(262.988281 0)"/>
     <use xlink:href="#DejaVuSans-70" transform="translate(322.167969 0)"/>
     <use xlink:href="#DejaVuSans-6f" transform="translate(385.644531 0)"/>
     <use xlink:href="#DejaVuSans-73" transform="translate(446.826172 0)"/>
     <use xlink:href="#DejaVuSans-75" transform="translate(498.925781 0)"/>
     <use xlink:href="#DejaVuSans-72" transform="translate(562.304688 0)"/>
     <use xlink:href="#DejaVuSans-65" transform="translate(601.167969 0)"/>
    </g>
   </g>
  </g>
 </g>
 <defs>
  <clipPath id="p2b6fe6e978">
   <rect x="66.053125" y="22.318125" width="350.9125" height="232.025"/>
  </clipPath>
  <clipPath id="p27ff397477">
   <rect x="66.053125" y="297.993125" width="350.9125" height="232.025"/>
  </clipPath>
 </defs>
</svg>
