<?xml version="1.0" encoding="utf-8" standalone="no"?>
<!DOCTYPE svg PUBLIC "-//W3C//DTD SVG 1.1//EN"
  "http://www.w3.org/Graphics/SVG/1.1/DTD/svg11.dtd">
<svg xmlns:xlink="http://www.w3.org/1999/xlink" width="387.203125pt" height="277.136562pt" viewBox="0 0 387.203125 277.136562" xmlns="http://www.w3.org/2000/svg" version="1.1">
 <metadata>
  <rdf:RDF xmlns:dc="http://purl.org/dc/elements/1.1/" xmlns:cc="http://creativecommons.org/ns#" xmlns:rdf="http://www.w3.org/1999/02/22-rdf-syntax-ns#">
   <cc:Work>
    <dc:type rdf:resource="http://purl.org/dc/dcmitype/StillImage"/>
    <dc:date>2026-06-29T09:23:32.892391</dc:date>
    <dc:format>image/svg+xml</dc:format>
    <dc:creator>
     <cc:Agent>
      <dc:title>Matplotlib v3.10.0, https://matplotlib.org/</dc:title>
     </cc:Agent>
    </dc:creator>
   </cc:Work>
  </rdf:RDF>
 </metadata>
 <defs>
  <style type="text/css">*{stroke-linejoin: round; stroke-linecap: butt}</style>
 </defs>
 <g id="figure_1">
  <g id="patch_1">
   <path d="M 0 277.136562 
L 387.203125 277.136562 
L 387.203125 0 
L 0 0 
z
" style="fill: #ffffff"/>
  </g>
  <g id="axes_1">
   <g id="patch_2">
    <path d="M 45.203125 239.558437 
L 380.003125 239.558437 
L 380.003125 17.798437 
L 45.203125 17.798437 
z
" style="fill: #ffffff"/>
   </g>
   <g id="matplotlib.axis_1">
    <g id="xtick_1">
     <g id="line2d_1">
      <defs>
       <path id="m8a9b04e2f2" d="M 0 0 
L 0 3.5 
" style="stroke: #000000; stroke-width: 0.8"/>
      </defs>
      <g>
       <use xlink:href="#m8a9b04e2f2" x="60.421307" y="239.558437" style="stroke: #000000; stroke-width: 0.8"/>
      </g>
     </g>
     <g id="text_1">
      <!-- 0 -->
      <g transform="translate(57.240057 254.156875) scale(0.1 -0.1)">
       <defs>
        <path id="DejaVuSans-30" d="M 2034 4250 
Q 1547 4250 1301 3770 
Q 1056 3291 1056 2328 
Q 1056 1369 1301 889 
Q 1547 409 2034 409 
Q 2525 409 2770 889 
Q 3016 1369 3016 2328 
Q 3016 3291 2770 3770 
Q 2525 4250 2034 4250 
z
M 2034 4750 
Q 2819 4750 3233 4129 
Q 3647 3509 3647 2328 
Q 3647 1150 3233 529 
Q 2819 -91 2034 -91 
Q 1250 -91 836 529 
Q 422 1150 422 2328 
Q 422 3509 836 4129 
Q 1250 4750 2034 4750 
z
" transform="scale(0.015625)"/>
       </defs>
       <use xlink:href="#DejaVuSans-30"/>
      </g>
     </g>
    </g>
    <g id="xtick_2">
     <g id="line2d_2">
      <g>
       <use xlink:href="#m8a9b04e2f2" x="102.694034" y="239.558437" style="stroke: #000000; stroke-width: 0.8"/>
      </g>
     </g>
     <g id="text_2">
      <!-- 50 -->
      <g transform="translate(96.331534 254.156875) scale(0.1 -0.1)">
       <defs>
        <path id="DejaVuSans-35" d="M 691 4666 
L 3169 4666 
L 3169 4134 
L 1269 4134 
L 1269 2991 
Q 1406 3038 1543 3061 
Q 1681 3084 1819 3084 
Q 2600 3084 3056 2656 
Q 3513 2228 3513 1497 
Q 3513 744 3044 326 
Q 2575 -91 1722 -91 
Q 1428 -91 1123 -41 
Q 819 9 494 109 
L 494 744 
Q 775 591 1075 516 
Q 1375 441 1709 441 
Q 2250 441 2565 725 
Q 2881 1009 2881 1497 
Q 2881 1984 2565 2268 
Q 2250 2553 1709 2553 
Q 1456 2553 1204 2497 
Q 953 2441 691 2322 
L 691 4666 
z
" transform="scale(0.015625)"/>
       </defs>
       <use xlink:href="#DejaVuSans-35"/>
       <use xlink:href="#DejaVuSans-30" transform="translate(63.623047 0)"/>
      </g>
     </g>
    </g>
    <g id="xtick_3">
     <g id="line2d_3">
      <g>
       <use xlink:href="#m8a9b04e2f2" x="144.966761" y="239.558437" style="stroke: #000000; stroke-width: 0.8"/>
      </g>
     </g>
     <g id="text_3">
      <!-- 100 -->
      <g transform="translate(135.423011 254.156875) scale(0.1 -0.1)">
       <defs>
        <path id="DejaVuSans-31" d="M 794 531 
L 1825 531 
L 1825 4091 
L 703 3866 
L 703 4441 
L 1819 4666 
L 2450 4666 
L 2450 531 
L 3481 531 
L 3481 0 
L 794 0 
L 794 531 
z
" transform="scale(0.015625)"/>
       </defs>
       <use xlink:href="#DejaVuSans-31"/>
       <use xlink:href="#DejaVuSans-30" transform="translate(63.623047 0)"/>
       <use xlink:href="#DejaVuSans-30" transform="translate(127.246094 0)"/>
      </g>
     </g>
    </g>
    <g id="xtick_4">
     <g id="line2d_4">
      <g>
       <use xlink:href="#m8a9b04e2f2" x="187.239489" y="239.558437" style="stroke: #000000; stroke-width: 0.8"/>
      </g>
     </g>
     <g id="text_4">
      <!-- 150 -->
      <g transform="translate(177.695739 254.156875) scale(0.1 -0.1)">
       <use xlink:href="#DejaVuSans-31"/>
       <use xlink:href="#DejaVuSans-35" transform="translate(63.623047 0)"/>
       <use xlink:href="#DejaVuSans-30" transform="translate(127.246094 0)"/>
      </g>
     </g>
    </g>
    <g id="xtick_5">
     <g id="line2d_5">
      <g>
       <use xlink:href="#m8a9b04e2f2" x="229.512216" y="239.558437" style="stroke: #000000; stroke-width: 0.8"/>
      </g>
     </g>
     <g id="text_5">
      <!-- 200 -->
      <g transform="translate(219.968466 254.156875) scale(0.1 -0.1)">
       <defs>
        <path id="DejaVuSans-32" d="M 1228 531 
L 3431 531 
L 3431 0 
L 469 0 
L 469 531 
Q 828 903 1448 1529 
Q 2069 2156 2228 2338 
Q 2531 2678 2651 2914 
Q 2772 3150 2772 3378 
Q 2772 3750 2511 3984 
Q 2250 4219 1831 4219 
Q 1534 4219 1204 4116 
Q 875 4013 500 3803 
L 500 4441 
Q 881 4594 1212 4672 
Q 1544 4750 1819 4750 
Q 2544 4750 2975 4387 
Q 3406 4025 3406 3419 
Q 3406 3131 3298 2873 
Q 3191 2616 2906 2266 
Q 2828 2175 2409 1742 
Q 1991 1309 1228 531 
z
" transform="scale(0.015625)"/>
       </defs>
       <use xlink:href="#DejaVuSans-32"/>
       <use xlink:href="#DejaVuSans-30" transform="translate(63.623047 0)"/>
       <use xlink:href="#DejaVuSans-30" transform="translate(127.246094 0)"/>
      </g>
     </g>
    </g>
    <g id="xtick_6">
     <g id="line2d_6">
      <g>
       <use xlink:href="#m8a9b04e2f2" x="271.784943" y="239.558437" style="stroke: #000000; stroke-width: 0.8"/>
      </g>
     </g>
     <g id="text_6">
      <!-- 250 -->
      <g transform="translate(262.241193 254.156875) scale(0.1 -0.1)">
       <use xlink:href="#DejaVuSans-32"/>
       <use xlink:href="#DejaVuSans-35" transform="translate(63.623047 0)"/>
       <use xlink:href="#DejaVuSans-30" transform="translate(127.246094 0)"/>
      </g>
     </g>
    </g>
    <g id="xtick_7">
     <g id="line2d_7">
      <g>
       <use xlink:href="#m8a9b04e2f2" x="314.05767" y="239.558437" style="stroke: #000000; stroke-width: 0.8"/>
      </g>
     </g>
     <g id="text_7">
      <!-- 300 -->
      <g transform="translate(304.51392 254.156875) scale(0.1 -0.1)">
       <defs>
        <path id="DejaVuSans-33" d="M 2597 2516 
Q 3050 2419 3304 2112 
Q 3559 1806 3559 1356 
Q 3559 666 3084 287 
Q 2609 -91 1734 -91 
Q 1441 -91 1130 -33 
Q 819 25 488 141 
L 488 750 
Q 750 597 1062 519 
Q 1375 441 1716 441 
Q 2309 441 2620 675 
Q 2931 909 2931 1356 
Q 2931 1769 2642 2001 
Q 2353 2234 1838 2234 
L 1294 2234 
L 1294 2753 
L 1863 2753 
Q 2328 2753 2575 2939 
Q 2822 3125 2822 3475 
Q 2822 3834 2567 4026 
Q 2313 4219 1838 4219 
Q 1578 4219 1281 4162 
Q 984 4106 628 3988 
L 628 4550 
Q 988 4650 1302 4700 
Q 1616 4750 1894 4750 
Q 2613 4750 3031 4423 
Q 3450 4097 3450 3541 
Q 3450 3153 3228 2886 
Q 3006 2619 2597 2516 
z
" transform="scale(0.015625)"/>
       </defs>
       <use xlink:href="#DejaVuSans-33"/>
       <use xlink:href="#DejaVuSans-30" transform="translate(63.623047 0)"/>
       <use xlink:href="#DejaVuSans-30" transform="translate(127.246094 0)"/>
      </g>
     </g>
    </g>
    <g id="xtick_8">
     <g id="line2d_8">
      <g>
       <use xlink:href="#m8a9b04e2f2" x="356.330398" y="239.558437" style="stroke: #000000; stroke-width: 0.8"/>
      </g>
     </g>
     <g id="text_8">
      <!-- 350 -->
      <g transform="translate(346.786648 254.156875) scale(0.1 -0.1)">
       <use xlink:href="#DejaVuSans-33"/>
       <use xlink:href="#DejaVuSans-35" transform="translate(63.623047 0)"/>
       <use xlink:href="#DejaVuSans-30" transform="translate(127.246094 0)"/>
      </g>
     </g>
    </g>
    <g id="text_9">
     <!-- Absolute link angle $[deg]$ -->
     <g transform="translate(149.903125 267.836562) scale(0.1 -0.1)">
      <defs>
       <path id="DejaVuSans-41" d="M 2188 4044 
L 1331 1722 
L 3047 1722 
L 2188 4044 
z
M 1831 4666 
L 2547 4666 
L 4325 0 
L 3669 0 
L 3244 1197 
L 1141 1197 
L 716 0 
L 50 0 
L 1831 4666 
z
" transform="scale(0.015625)"/>
       <path id="DejaVuSans-62" d="M 3116 1747 
Q 3116 2381 2855 2742 
Q 2594 3103 2138 3103 
Q 1681 3103 1420 2742 
Q 1159 2381 1159 1747 
Q 1159 1113 1420 752 
Q 1681 391 2138 391 
Q 2594 391 2855 752 
Q 3116 1113 3116 1747 
z
M 1159 2969 
Q 1341 3281 1617 3432 
Q 1894 3584 2278 3584 
Q 2916 3584 3314 3078 
Q 3713 2572 3713 1747 
Q 3713 922 3314 415 
Q 2916 -91 2278 -91 
Q 1894 -91 1617 61 
Q 1341 213 1159 525 
L 1159 0 
L 581 0 
L 581 4863 
L 1159 4863 
L 1159 2969 
z
" transform="scale(0.015625)"/>
       <path id="DejaVuSans-73" d="M 2834 3397 
L 2834 2853 
Q 2591 2978 2328 3040 
Q 2066 3103 1784 3103 
Q 1356 3103 1142 2972 
Q 928 2841 928 2578 
Q 928 2378 1081 2264 
Q 1234 2150 1697 2047 
L 1894 2003 
Q 2506 1872 2764 1633 
Q 3022 1394 3022 966 
Q 3022 478 2636 193 
Q 2250 -91 1575 -91 
Q 1294 -91 989 -36 
Q 684 19 347 128 
L 347 722 
Q 666 556 975 473 
Q 1284 391 1588 391 
Q 1994 391 2212 530 
Q 2431 669 2431 922 
Q 2431 1156 2273 1281 
Q 2116 1406 1581 1522 
L 1381 1569 
Q 847 1681 609 1914 
Q 372 2147 372 2553 
Q 372 3047 722 3315 
Q 1072 3584 1716 3584 
Q 2034 3584 2315 3537 
Q 2597 3491 2834 3397 
z
" transform="scale(0.015625)"/>
       <path id="DejaVuSans-6f" d="M 1959 3097 
Q 1497 3097 1228 2736 
Q 959 2375 959 1747 
Q 959 1119 1226 758 
Q 1494 397 1959 397 
Q 2419 397 2687 759 
Q 2956 1122 2956 1747 
Q 2956 2369 2687 2733 
Q 2419 3097 1959 3097 
z
M 1959 3584 
Q 2709 3584 3137 3096 
Q 3566 2609 3566 1747 
Q 3566 888 3137 398 
Q 2709 -91 1959 -91 
Q 1206 -91 779 398 
Q 353 888 353 1747 
Q 353 2609 779 3096 
Q 1206 3584 1959 3584 
z
" transform="scale(0.015625)"/>
       <path id="DejaVuSans-6c" d="M 603 4863 
L 1178 4863 
L 1178 0 
L 603 0 
L 603 4863 
z
" transform="scale(0.015625)"/>
       <path id="DejaVuSans-75" d="M 544 1381 
L 544 3500 
L 1119 3500 
L 1119 1403 
Q 1119 906 1312 657 
Q 1506 409 1894 409 
Q 2359 409 2629 706 
Q 2900 1003 2900 1516 
L 2900 3500 
L 3475 3500 
L 3475 0 
L 2900 0 
L 2900 538 
Q 2691 219 2414 64 
Q 2138 -91 1772 -91 
Q 1169 -91 856 284 
Q 544 659 544 1381 
z
M 1991 3584 
L 1991 3584 
z
" transform="scale(0.015625)"/>
       <path id="DejaVuSans-74" d="M 1172 4494 
L 1172 3500 
L 2356 3500 
L 2356 3053 
L 1172 3053 
L 1172 1153 
Q 1172 725 1289 603 
Q 1406 481 1766 481 
L 2356 481 
L 2356 0 
L 1766 0 
Q 1100 0 847 248 
Q 594 497 594 1153 
L 594 3053 
L 172 3053 
L 172 3500 
L 594 3500 
L 594 4494 
L 1172 4494 
z
" transform="scale(0.015625)"/>
       <path id="DejaVuSans-65" d="M 3597 1894 
L 3597 1613 
L 953 1613 
Q 991 1019 1311 708 
Q 1631 397 2203 397 
Q 2534 397 2845 478 
Q 3156 559 3463 722 
L 3463 178 
Q 3153 47 2828 -22 
Q 2503 -91 2169 -91 
Q 1331 -91 842 396 
Q 353 884 353 1716 
Q 353 2575 817 3079 
Q 1281 3584 2069 3584 
Q 2775 3584 3186 3129 
Q 3597 2675 3597 1894 
z
M 3022 2063 
Q 3016 2534 2758 2815 
Q 2500 3097 2075 3097 
Q 1594 3097 1305 2825 
Q 1016 2553 972 2059 
L 3022 2063 
z
" transform="scale(0.015625)"/>
       <path id="DejaVuSans-20" transform="scale(0.015625)"/>
       <path id="DejaVuSans-69" d="M 603 3500 
L 1178 3500 
L 1178 0 
L 603 0 
L 603 3500 
z
M 603 4863 
L 1178 4863 
L 1178 4134 
L 603 4134 
L 603 4863 
z
" transform="scale(0.015625)"/>
       <path id="DejaVuSans-6e" d="M 3513 2113 
L 3513 0 
L 2938 0 
L 2938 2094 
Q 2938 2591 2744 2837 
Q 2550 3084 2163 3084 
Q 1697 3084 1428 2787 
Q 1159 2491 1159 1978 
L 1159 0 
L 581 0 
L 581 3500 
L 1159 3500 
L 1159 2956 
Q 1366 3272 1645 3428 
Q 1925 3584 2291 3584 
Q 2894 3584 3203 3211 
Q 3513 2838 3513 2113 
z
" transform="scale(0.015625)"/>
       <path id="DejaVuSans-6b" d="M 581 4863 
L 1159 4863 
L 1159 1991 
L 2875 3500 
L 3609 3500 
L 1753 1863 
L 3688 0 
L 2938 0 
L 1159 1709 
L 1159 0 
L 581 0 
L 581 4863 
z
" transform="scale(0.015625)"/>
       <path id="DejaVuSans-61" d="M 2194 1759 
Q 1497 1759 1228 1600 
Q 959 1441 959 1056 
Q 959 750 1161 570 
Q 1363 391 1709 391 
Q 2188 391 2477 730 
Q 2766 1069 2766 1631 
L 2766 1759 
L 2194 1759 
z
M 3341 1997 
L 3341 0 
L 2766 0 
L 2766 531 
Q 2569 213 2275 61 
Q 1981 -91 1556 -91 
Q 1019 -91 701 211 
Q 384 513 384 1019 
Q 384 1609 779 1909 
Q 1175 2209 1959 2209 
L 2766 2209 
L 2766 2266 
Q 2766 2663 2505 2880 
Q 2244 3097 1772 3097 
Q 1472 3097 1187 3025 
Q 903 2953 641 2809 
L 641 3341 
Q 956 3463 1253 3523 
Q 1550 3584 1831 3584 
Q 2591 3584 2966 3190 
Q 3341 2797 3341 1997 
z
" transform="scale(0.015625)"/>
       <path id="DejaVuSans-67" d="M 2906 1791 
Q 2906 2416 2648 2759 
Q 2391 3103 1925 3103 
Q 1463 3103 1205 2759 
Q 947 2416 947 1791 
Q 947 1169 1205 825 
Q 1463 481 1925 481 
Q 2391 481 2648 825 
Q 2906 1169 2906 1791 
z
M 3481 434 
Q 3481 -459 3084 -895 
Q 2688 -1331 1869 -1331 
Q 1566 -1331 1297 -1286 
Q 1028 -1241 775 -1147 
L 775 -588 
Q 1028 -725 1275 -790 
Q 1522 -856 1778 -856 
Q 2344 -856 2625 -561 
Q 2906 -266 2906 331 
L 2906 616 
Q 2728 306 2450 153 
Q 2172 0 1784 0 
Q 1141 0 747 490 
Q 353 981 353 1791 
Q 353 2603 747 3093 
Q 1141 3584 1784 3584 
Q 2172 3584 2450 3431 
Q 2728 3278 2906 2969 
L 2906 3500 
L 3481 3500 
L 3481 434 
z
" transform="scale(0.015625)"/>
       <path id="DejaVuSans-5b" d="M 550 4863 
L 1875 4863 
L 1875 4416 
L 1125 4416 
L 1125 -397 
L 1875 -397 
L 1875 -844 
L 550 -844 
L 550 4863 
z
" transform="scale(0.015625)"/>
       <path id="DejaVuSans-Oblique-64" d="M 2675 525 
Q 2444 222 2128 65 
Q 1813 -91 1428 -91 
Q 903 -91 598 267 
Q 294 625 294 1247 
Q 294 1766 478 2236 
Q 663 2706 1013 3078 
Q 1244 3325 1534 3454 
Q 1825 3584 2144 3584 
Q 2481 3584 2739 3421 
Q 2997 3259 3138 2956 
L 3513 4863 
L 4091 4863 
L 3144 0 
L 2566 0 
L 2675 525 
z
M 891 1350 
Q 891 897 1095 644 
Q 1300 391 1663 391 
Q 1931 391 2161 520 
Q 2391 650 2566 903 
Q 2750 1166 2856 1509 
Q 2963 1853 2963 2188 
Q 2963 2622 2758 2865 
Q 2553 3109 2194 3109 
Q 1922 3109 1687 2981 
Q 1453 2853 1288 2613 
Q 1106 2353 998 2009 
Q 891 1666 891 1350 
z
" transform="scale(0.015625)"/>
       <path id="DejaVuSans-Oblique-65" d="M 3078 2063 
Q 3088 2113 3092 2166 
Q 3097 2219 3097 2272 
Q 3097 2653 2873 2875 
Q 2650 3097 2266 3097 
Q 1838 3097 1509 2826 
Q 1181 2556 1013 2059 
L 3078 2063 
z
M 3578 1613 
L 903 1613 
Q 884 1494 878 1425 
Q 872 1356 872 1306 
Q 872 872 1139 634 
Q 1406 397 1894 397 
Q 2269 397 2603 481 
Q 2938 566 3225 728 
L 3116 159 
Q 2806 34 2476 -28 
Q 2147 -91 1806 -91 
Q 1078 -91 686 257 
Q 294 606 294 1247 
Q 294 1794 489 2264 
Q 684 2734 1063 3103 
Q 1306 3334 1642 3459 
Q 1978 3584 2356 3584 
Q 2950 3584 3301 3228 
Q 3653 2872 3653 2272 
Q 3653 2128 3634 1964 
Q 3616 1800 3578 1613 
z
" transform="scale(0.015625)"/>
       <path id="DejaVuSans-Oblique-67" d="M 3816 3500 
L 3219 434 
Q 3047 -456 2561 -893 
Q 2075 -1331 1253 -1331 
Q 950 -1331 690 -1286 
Q 431 -1241 206 -1147 
L 313 -588 
Q 525 -725 762 -790 
Q 1000 -856 1269 -856 
Q 1816 -856 2167 -557 
Q 2519 -259 2631 300 
L 2681 563 
Q 2441 288 2122 144 
Q 1803 0 1434 0 
Q 903 0 598 351 
Q 294 703 294 1319 
Q 294 1803 478 2267 
Q 663 2731 997 3091 
Q 1219 3328 1514 3456 
Q 1809 3584 2131 3584 
Q 2484 3584 2746 3420 
Q 3009 3256 3138 2956 
L 3238 3500 
L 3816 3500 
z
M 2950 2216 
Q 2950 2641 2750 2872 
Q 2550 3103 2181 3103 
Q 1953 3103 1747 3012 
Q 1541 2922 1394 2759 
Q 1156 2491 1023 2127 
Q 891 1763 891 1375 
Q 891 944 1092 712 
Q 1294 481 1672 481 
Q 2219 481 2584 976 
Q 2950 1472 2950 2216 
z
" transform="scale(0.015625)"/>
       <path id="DejaVuSans-5d" d="M 1947 4863 
L 1947 -844 
L 622 -844 
L 622 -397 
L 1369 -397 
L 1369 4416 
L 622 4416 
L 622 4863 
L 1947 4863 
z
" transform="scale(0.015625)"/>
      </defs>
      <use xlink:href="#DejaVuSans-41" transform="translate(0 0.015625)"/>
      <use xlink:href="#DejaVuSans-62" transform="translate(68.408203 0.015625)"/>
      <use xlink:href="#DejaVuSans-73" transform="translate(131.884766 0.015625)"/>
      <use xlink:href="#DejaVuSans-6f" transform="translate(183.984375 0.015625)"/>
      <use xlink:href="#DejaVuSans-6c" transform="translate(245.166016 0.015625)"/>
      <use xlink:href="#DejaVuSans-75" transform="translate(272.949219 0.015625)"/>
      <use xlink:href="#DejaVuSans-74" transform="translate(336.328125 0.015625)"/>
      <use xlink:href="#DejaVuSans-65" transform="translate(375.537109 0.015625)"/>
      <use xlink:href="#DejaVuSans-20" transform="translate(437.060547 0.015625)"/>
      <use xlink:href="#DejaVuSans-6c" transform="translate(468.847656 0.015625)"/>
      <use xlink:href="#DejaVuSans-69" transform="translate(496.630859 0.015625)"/>
      <use xlink:href="#DejaVuSans-6e" transform="translate(524.414062 0.015625)"/>
      <use xlink:href="#DejaVuSans-6b" transform="translate(587.792969 0.015625)"/>
      <use xlink:href="#DejaVuSans-20" transform="translate(645.703125 0.015625)"/>
      <use xlink:href="#DejaVuSans-61" transform="translate(677.490234 0.015625)"/>
      <use xlink:href="#DejaVuSans-6e" transform="translate(738.769531 0.015625)"/>
      <use xlink:href="#DejaVuSans-67" transform="translate(802.148438 0.015625)"/>
      <use xlink:href="#DejaVuSans-6c" transform="translate(865.625 0.015625)"/>
      <use xlink:href="#DejaVuSans-65" transform="translate(893.408203 0.015625)"/>
      <use xlink:href="#DejaVuSans-20" transform="translate(954.931641 0.015625)"/>
      <use xlink:href="#DejaVuSans-5b" transform="translate(986.71875 0.015625)"/>
      <use xlink:href="#DejaVuSans-Oblique-64" transform="translate(1025.732422 0.015625)"/>
      <use xlink:href="#DejaVuSans-Oblique-65" transform="translate(1089.208984 0.015625)"/>
      <use xlink:href="#DejaVuSans-Oblique-67" transform="translate(1150.732422 0.015625)"/>
      <use xlink:href="#DejaVuSans-5d" transform="translate(1214.208984 0.015625)"/>
     </g>
    </g>
   </g>
   <g id="matplotlib.axis_2">
    <g id="ytick_1">
     <g id="line2d_9">
      <defs>
       <path id="m355fadd7d7" d="M 0 0 
L -3.5 0 
" style="stroke: #000000; stroke-width: 0.8"/>
      </defs>
      <g>
       <use xlink:href="#m355fadd7d7" x="45.203125" y="214.59639" style="stroke: #000000; stroke-width: 0.8"/>
      </g>
     </g>
     <g id="text_10">
      <!-- 0.2 -->
      <g transform="translate(22.3 218.395609) scale(0.1 -0.1)">
       <defs>
        <path id="DejaVuSans-2e" d="M 684 794 
L 1344 794 
L 1344 0 
L 684 0 
L 684 794 
z
" transform="scale(0.015625)"/>
       </defs>
       <use xlink:href="#DejaVuSans-30"/>
       <use xlink:href="#DejaVuSans-2e" transform="translate(63.623047 0)"/>
       <use xlink:href="#DejaVuSans-32" transform="translate(95.410156 0)"/>
      </g>
     </g>
    </g>
    <g id="ytick_2">
     <g id="line2d_10">
      <g>
       <use xlink:href="#m355fadd7d7" x="45.203125" y="180.205322" style="stroke: #000000; stroke-width: 0.8"/>
      </g>
     </g>
     <g id="text_11">
      <!-- 0.4 -->
      <g transform="translate(22.3 184.004541) scale(0.1 -0.1)">
       <defs>
        <path id="DejaVuSans-34" d="M 2419 4116 
L 825 1625 
L 2419 1625 
L 2419 4116 
z
M 2253 4666 
L 3047 4666 
L 3047 1625 
L 3713 1625 
L 3713 1100 
L 3047 1100 
L 3047 0 
L 2419 0 
L 2419 1100 
L 313 1100 
L 313 1709 
L 2253 4666 
z
" transform="scale(0.015625)"/>
       </defs>
       <use xlink:href="#DejaVuSans-30"/>
       <use xlink:href="#DejaVuSans-2e" transform="translate(63.623047 0)"/>
       <use xlink:href="#DejaVuSans-34" transform="translate(95.410156 0)"/>
      </g>
     </g>
    </g>
    <g id="ytick_3">
     <g id="line2d_11">
      <g>
       <use xlink:href="#m355fadd7d7" x="45.203125" y="145.814253" style="stroke: #000000; stroke-width: 0.8"/>
      </g>
     </g>
     <g id="text_12">
      <!-- 0.6 -->
      <g transform="translate(22.3 149.613472) scale(0.1 -0.1)">
       <defs>
        <path id="DejaVuSans-36" d="M 2113 2584 
Q 1688 2584 1439 2293 
Q 1191 2003 1191 1497 
Q 1191 994 1439 701 
Q 1688 409 2113 409 
Q 2538 409 2786 701 
Q 3034 994 3034 1497 
Q 3034 2003 2786 2293 
Q 2538 2584 2113 2584 
z
M 3366 4563 
L 3366 3988 
Q 3128 4100 2886 4159 
Q 2644 4219 2406 4219 
Q 1781 4219 1451 3797 
Q 1122 3375 1075 2522 
Q 1259 2794 1537 2939 
Q 1816 3084 2150 3084 
Q 2853 3084 3261 2657 
Q 3669 2231 3669 1497 
Q 3669 778 3244 343 
Q 2819 -91 2113 -91 
Q 1303 -91 875 529 
Q 447 1150 447 2328 
Q 447 3434 972 4092 
Q 1497 4750 2381 4750 
Q 2619 4750 2861 4703 
Q 3103 4656 3366 4563 
z
" transform="scale(0.015625)"/>
       </defs>
       <use xlink:href="#DejaVuSans-30"/>
       <use xlink:href="#DejaVuSans-2e" transform="translate(63.623047 0)"/>
       <use xlink:href="#DejaVuSans-36" transform="translate(95.410156 0)"/>
      </g>
     </g>
    </g>
    <g id="ytick_4">
     <g id="line2d_12">
      <g>
       <use xlink:href="#m355fadd7d7" x="45.203125" y="111.423185" style="stroke: #000000; stroke-width: 0.8"/>
      </g>
     </g>
     <g id="text_13">
      <!-- 0.8 -->
      <g transform="translate(22.3 115.222404) scale(0.1 -0.1)">
       <defs>
        <path id="DejaVuSans-38" d="M 2034 2216 
Q 1584 2216 1326 1975 
Q 1069 1734 1069 1313 
Q 1069 891 1326 650 
Q 1584 409 2034 409 
Q 2484 409 2743 651 
Q 3003 894 3003 1313 
Q 3003 1734 2745 1975 
Q 2488 2216 2034 2216 
z
M 1403 2484 
Q 997 2584 770 2862 
Q 544 3141 544 3541 
Q 544 4100 942 4425 
Q 1341 4750 2034 4750 
Q 2731 4750 3128 4425 
Q 3525 4100 3525 3541 
Q 3525 3141 3298 2862 
Q 3072 2584 2669 2484 
Q 3125 2378 3379 2068 
Q 3634 1759 3634 1313 
Q 3634 634 3220 271 
Q 2806 -91 2034 -91 
Q 1263 -91 848 271 
Q 434 634 434 1313 
Q 434 1759 690 2068 
Q 947 2378 1403 2484 
z
M 1172 3481 
Q 1172 3119 1398 2916 
Q 1625 2713 2034 2713 
Q 2441 2713 2670 2916 
Q 2900 3119 2900 3481 
Q 2900 3844 2670 4047 
Q 2441 4250 2034 4250 
Q 1625 4250 1398 4047 
Q 1172 3844 1172 3481 
z
" transform="scale(0.015625)"/>
       </defs>
       <use xlink:href="#DejaVuSans-30"/>
       <use xlink:href="#DejaVuSans-2e" transform="translate(63.623047 0)"/>
       <use xlink:href="#DejaVuSans-38" transform="translate(95.410156 0)"/>
      </g>
     </g>
    </g>
    <g id="ytick_5">
     <g id="line2d_13">
      <g>
       <use xlink:href="#m355fadd7d7" x="45.203125" y="77.032116" style="stroke: #000000; stroke-width: 0.8"/>
      </g>
     </g>
     <g id="text_14">
      <!-- 1.0 -->
      <g transform="translate(22.3 80.831335) scale(0.1 -0.1)">
       <use xlink:href="#DejaVuSans-31"/>
       <use xlink:href="#DejaVuSans-2e" transform="translate(63.623047 0)"/>
       <use xlink:href="#DejaVuSans-30" transform="translate(95.410156 0)"/>
      </g>
     </g>
    </g>
    <g id="ytick_6">
     <g id="line2d_14">
      <g>
       <use xlink:href="#m355fadd7d7" x="45.203125" y="42.641048" style="stroke: #000000; stroke-width: 0.8"/>
      </g>
     </g>
     <g id="text_15">
      <!-- 1.2 -->
      <g transform="translate(22.3 46.440267) scale(0.1 -0.1)">
       <use xlink:href="#DejaVuSans-31"/>
       <use xlink:href="#DejaVuSans-2e" transform="translate(63.623047 0)"/>
       <use xlink:href="#DejaVuSans-32" transform="translate(95.410156 0)"/>
      </g>
     </g>
    </g>
    <g id="text_16">
     <!-- Exposure frequency $[s^{-1}]$ -->
     <g transform="translate(16.2 192.378437) rotate(-90) scale(0.1 -0.1)">
      <defs>
       <path id="DejaVuSans-45" d="M 628 4666 
L 3578 4666 
L 3578 4134 
L 1259 4134 
L 1259 2753 
L 3481 2753 
L 3481 2222 
L 1259 2222 
L 1259 531 
L 3634 531 
L 3634 0 
L 628 0 
L 628 4666 
z
" transform="scale(0.015625)"/>
       <path id="DejaVuSans-78" d="M 3513 3500 
L 2247 1797 
L 3578 0 
L 2900 0 
L 1881 1375 
L 863 0 
L 184 0 
L 1544 1831 
L 300 3500 
L 978 3500 
L 1906 2253 
L 2834 3500 
L 3513 3500 
z
" transform="scale(0.015625)"/>
       <path id="DejaVuSans-70" d="M 1159 525 
L 1159 -1331 
L 581 -1331 
L 581 3500 
L 1159 3500 
L 1159 2969 
Q 1341 3281 1617 3432 
Q 1894 3584 2278 3584 
Q 2916 3584 3314 3078 
Q 3713 2572 3713 1747 
Q 3713 922 3314 415 
Q 2916 -91 2278 -91 
Q 1894 -91 1617 61 
Q 1341 213 1159 525 
z
M 3116 1747 
Q 3116 2381 2855 2742 
Q 2594 3103 2138 3103 
Q 1681 3103 1420 2742 
Q 1159 2381 1159 1747 
Q 1159 1113 1420 752 
Q 1681 391 2138 391 
Q 2594 391 2855 752 
Q 3116 1113 3116 1747 
z
" transform="scale(0.015625)"/>
       <path id="DejaVuSans-72" d="M 2631 2963 
Q 2534 3019 2420 3045 
Q 2306 3072 2169 3072 
Q 1681 3072 1420 2755 
Q 1159 2438 1159 1844 
L 1159 0 
L 581 0 
L 581 3500 
L 1159 3500 
L 1159 2956 
Q 1341 3275 1631 3429 
Q 1922 3584 2338 3584 
Q 2397 3584 2469 3576 
Q 2541 3569 2628 3553 
L 2631 2963 
z
" transform="scale(0.015625)"/>
       <path id="DejaVuSans-66" d="M 2375 4863 
L 2375 4384 
L 1825 4384 
Q 1516 4384 1395 4259 
Q 1275 4134 1275 3809 
L 1275 3500 
L 2222 3500 
L 2222 3053 
L 1275 3053 
L 1275 0 
L 697 0 
L 697 3053 
L 147 3053 
L 147 3500 
L 697 3500 
L 697 3744 
Q 697 4328 969 4595 
Q 1241 4863 1831 4863 
L 2375 4863 
z
" transform="scale(0.015625)"/>
       <path id="DejaVuSans-71" d="M 947 1747 
Q 947 1113 1208 752 
Q 1469 391 1925 391 
Q 2381 391 2643 752 
Q 2906 1113 2906 1747 
Q 2906 2381 2643 2742 
Q 2381 3103 1925 3103 
Q 1469 3103 1208 2742 
Q 947 2381 947 1747 
z
M 2906 525 
Q 2725 213 2448 61 
Q 2172 -91 1784 -91 
Q 1150 -91 751 415 
Q 353 922 353 1747 
Q 353 2572 751 3078 
Q 1150 3584 1784 3584 
Q 2172 3584 2448 3432 
Q 2725 3281 2906 2969 
L 2906 3500 
L 3481 3500 
L 3481 -1331 
L 2906 -1331 
L 2906 525 
z
" transform="scale(0.015625)"/>
       <path id="DejaVuSans-63" d="M 3122 3366 
L 3122 2828 
Q 2878 2963 2633 3030 
Q 2388 3097 2138 3097 
Q 1578 3097 1268 2742 
Q 959 2388 959 1747 
Q 959 1106 1268 751 
Q 1578 397 2138 397 
Q 2388 397 2633 464 
Q 2878 531 3122 666 
L 3122 134 
Q 2881 22 2623 -34 
Q 2366 -91 2075 -91 
Q 1284 -91 818 406 
Q 353 903 353 1747 
Q 353 2603 823 3093 
Q 1294 3584 2113 3584 
Q 2378 3584 2631 3529 
Q 2884 3475 3122 3366 
z
" transform="scale(0.015625)"/>
       <path id="DejaVuSans-79" d="M 2059 -325 
Q 1816 -950 1584 -1140 
Q 1353 -1331 966 -1331 
L 506 -1331 
L 506 -850 
L 844 -850 
Q 1081 -850 1212 -737 
Q 1344 -625 1503 -206 
L 1606 56 
L 191 3500 
L 800 3500 
L 1894 763 
L 2988 3500 
L 3597 3500 
L 2059 -325 
z
" transform="scale(0.015625)"/>
       <path id="DejaVuSans-Oblique-73" d="M 3200 3397 
L 3091 2853 
Q 2863 2978 2609 3040 
Q 2356 3103 2088 3103 
Q 1634 3103 1373 2948 
Q 1113 2794 1113 2528 
Q 1113 2219 1719 2053 
Q 1766 2041 1788 2034 
L 1972 1978 
Q 2547 1819 2739 1644 
Q 2931 1469 2931 1166 
Q 2931 609 2489 259 
Q 2047 -91 1331 -91 
Q 1053 -91 747 -37 
Q 441 16 72 128 
L 184 722 
Q 500 559 806 475 
Q 1113 391 1394 391 
Q 1816 391 2080 572 
Q 2344 753 2344 1031 
Q 2344 1331 1650 1516 
L 1591 1531 
L 1394 1581 
Q 956 1697 753 1886 
Q 550 2075 550 2369 
Q 550 2928 970 3256 
Q 1391 3584 2113 3584 
Q 2397 3584 2667 3537 
Q 2938 3491 3200 3397 
z
" transform="scale(0.015625)"/>
       <path id="DejaVuSans-2212" d="M 678 2272 
L 4684 2272 
L 4684 1741 
L 678 1741 
L 678 2272 
z
" transform="scale(0.015625)"/>
      </defs>
      <use xlink:href="#DejaVuSans-45" transform="translate(0 0.684375)"/>
      <use xlink:href="#DejaVuSans-78" transform="translate(63.183594 0.684375)"/>
      <use xlink:href="#DejaVuSans-70" transform="translate(122.363281 0.684375)"/>
      <use xlink:href="#DejaVuSans-6f" transform="translate(185.839844 0.684375)"/>
      <use xlink:href="#DejaVuSans-73" transform="translate(247.021484 0.684375)"/>
      <use xlink:href="#DejaVuSans-75" transform="translate(299.121094 0.684375)"/>
      <use xlink:href="#DejaVuSans-72" transform="translate(362.5 0.684375)"/>
      <use xlink:href="#DejaVuSans-65" transform="translate(403.613281 0.684375)"/>
      <use xlink:href="#DejaVuSans-20" transform="translate(465.136719 0.684375)"/>
      <use xlink:href="#DejaVuSans-66" transform="translate(496.923828 0.684375)"/>
      <use xlink:href="#DejaVuSans-72" transform="translate(532.128906 0.684375)"/>
      <use xlink:href="#DejaVuSans-65" transform="translate(573.242188 0.684375)"/>
      <use xlink:href="#DejaVuSans-71" transform="translate(634.765625 0.684375)"/>
      <use xlink:href="#DejaVuSans-75" transform="translate(698.242188 0.684375)"/>
      <use xlink:href="#DejaVuSans-65" transform="translate(761.621094 0.684375)"/>
      <use xlink:href="#DejaVuSans-6e" transform="translate(823.144531 0.684375)"/>
      <use xlink:href="#DejaVuSans-63" transform="translate(886.523438 0.684375)"/>
      <use xlink:href="#DejaVuSans-79" transform="translate(941.503906 0.684375)"/>
      <use xlink:href="#DejaVuSans-20" transform="translate(1000.683594 0.684375)"/>
      <use xlink:href="#DejaVuSans-5b" transform="translate(1032.470703 0.684375)"/>
      <use xlink:href="#DejaVuSans-Oblique-73" transform="translate(1071.484375 0.684375)"/>
      <use xlink:href="#DejaVuSans-2212" transform="translate(1128.23388 38.965625) scale(0.7)"/>
      <use xlink:href="#DejaVuSans-31" transform="translate(1186.886224 38.965625) scale(0.7)"/>
      <use xlink:href="#DejaVuSans-5d" transform="translate(1234.156732 0.684375)"/>
     </g>
    </g>
    <g id="text_17">
     <!-- 1e−7 -->
     <g transform="translate(45.203125 14.798437) scale(0.1 -0.1)">
      <defs>
       <path id="DejaVuSans-37" d="M 525 4666 
L 3525 4666 
L 3525 4397 
L 1831 0 
L 1172 0 
L 2766 4134 
L 525 4134 
L 525 4666 
z
" transform="scale(0.015625)"/>
      </defs>
      <use xlink:href="#DejaVuSans-31"/>
      <use xlink:href="#DejaVuSans-65" transform="translate(63.623047 0)"/>
      <use xlink:href="#DejaVuSans-2212" transform="translate(125.146484 0)"/>
      <use xlink:href="#DejaVuSans-37" transform="translate(208.935547 0)"/>
     </g>
    </g>
   </g>
   <g id="line2d_15">
    <path d="M 60.421307 229.478437 
L 68.875852 199.399493 
L 77.330398 170.529567 
L 85.784943 143.745803 
L 94.239489 119.862409 
L 102.694034 99.605382 
L 111.14858 77.326676 
L 119.603125 57.907243 
L 128.05767 43.027947 
L 136.512216 33.145674 
L 144.966761 28.556186 
L 153.421307 29.403926 
L 161.875852 35.657942 
L 170.330398 47.129082 
L 178.784943 63.466559 
L 187.239489 84.172046 
L 195.694034 108.61567 
L 204.14858 136.053036 
L 212.603125 165.649646 
L 221.05767 136.053036 
L 229.512216 108.61567 
L 237.966761 84.172046 
L 246.421307 63.466559 
L 254.875852 47.129082 
L 263.330398 35.657942 
L 271.784943 29.403926 
L 280.239489 28.556186 
L 288.694034 33.145674 
L 297.14858 43.027947 
L 305.603125 57.907243 
L 314.05767 77.326676 
L 322.512216 99.605382 
L 330.966761 119.862409 
L 339.421307 143.745803 
L 347.875852 170.529567 
L 356.330398 199.399493 
L 364.784943 229.478437 
" clip-path="url(#p33e3b630ff)" style="fill: none; stroke: #0000ff; stroke-opacity: 0.8; stroke-width: 1.5; stroke-linecap: square"/>
    <defs>
     <path id="mc95edc2651" d="M 0 3 
C 0.795609 3 1.55874 2.683901 2.12132 2.12132 
C 2.683901 1.55874 3 0.795609 3 0 
C 3 -0.795609 2.683901 -1.55874 2.12132 -2.12132 
C 1.55874 -2.683901 0.795609 -3 0 -3 
C -0.795609 -3 -1.55874 -2.683901 -2.12132 -2.12132 
C -2.683901 -1.55874 -3 -0.795609 -3 0 
C -3 0.795609 -2.683901 1.55874 -2.12132 2.12132 
C -1.55874 2.683901 -0.795609 3 0 3 
z
" style="stroke: #0000ff; stroke-opacity: 0.8"/>
    </defs>
    <g clip-path="url(#p33e3b630ff)">
     <use xlink:href="#mc95edc2651" x="60.421307" y="229.478437" style="fill-opacity: 0; stroke: #0000ff; stroke-opacity: 0.8"/>
     <use xlink:href="#mc95edc2651" x="68.875852" y="199.399493" style="fill-opacity: 0; stroke: #0000ff; stroke-opacity: 0.8"/>
     <use xlink:href="#mc95edc2651" x="77.330398" y="170.529567" style="fill-opacity: 0; stroke: #0000ff; stroke-opacity: 0.8"/>
     <use xlink:href="#mc95edc2651" x="85.784943" y="143.745803" style="fill-opacity: 0; stroke: #0000ff; stroke-opacity: 0.8"/>
     <use xlink:href="#mc95edc2651" x="94.239489" y="119.862409" style="fill-opacity: 0; stroke: #0000ff; stroke-opacity: 0.8"/>
     <use xlink:href="#mc95edc2651" x="102.694034" y="99.605382" style="fill-opacity: 0; stroke: #0000ff; stroke-opacity: 0.8"/>
     <use xlink:href="#mc95edc2651" x="111.14858" y="77.326676" style="fill-opacity: 0; stroke: #0000ff; stroke-opacity: 0.8"/>
     <use xlink:href="#mc95edc2651" x="119.603125" y="57.907243" style="fill-opacity: 0; stroke: #0000ff; stroke-opacity: 0.8"/>
     <use xlink:href="#mc95edc2651" x="128.05767" y="43.027947" style="fill-opacity: 0; stroke: #0000ff; stroke-opacity: 0.8"/>
     <use xlink:href="#mc95edc2651" x="136.512216" y="33.145674" style="fill-opacity: 0; stroke: #0000ff; stroke-opacity: 0.8"/>
     <use xlink:href="#mc95edc2651" x="144.966761" y="28.556186" style="fill-opacity: 0; stroke: #0000ff; stroke-opacity: 0.8"/>
     <use xlink:href="#mc95edc2651" x="153.421307" y="29.403926" style="fill-opacity: 0; stroke: #0000ff; stroke-opacity: 0.8"/>
     <use xlink:href="#mc95edc2651" x="161.875852" y="35.657942" style="fill-opacity: 0; stroke: #0000ff; stroke-opacity: 0.8"/>
     <use xlink:href="#mc95edc2651" x="170.330398" y="47.129082" style="fill-opacity: 0; stroke: #0000ff; stroke-opacity: 0.8"/>
     <use xlink:href="#mc95edc2651" x="178.784943" y="63.466559" style="fill-opacity: 0; stroke: #0000ff; stroke-opacity: 0.8"/>
     <use xlink:href="#mc95edc2651" x="187.239489" y="84.172046" style="fill-opacity: 0; stroke: #0000ff; stroke-opacity: 0.8"/>
     <use xlink:href="#mc95edc2651" x="195.694034" y="108.61567" style="fill-opacity: 0; stroke: #0000ff; stroke-opacity: 0.8"/>
     <use xlink:href="#mc95edc2651" x="204.14858" y="136.053036" style="fill-opacity: 0; stroke: #0000ff; stroke-opacity: 0.8"/>
     <use xlink:href="#mc95edc2651" x="212.603125" y="165.649646" style="fill-opacity: 0; stroke: #0000ff; stroke-opacity: 0.8"/>
     <use xlink:href="#mc95edc2651" x="221.05767" y="136.053036" style="fill-opacity: 0; stroke: #0000ff; stroke-opacity: 0.8"/>
     <use xlink:href="#mc95edc2651" x="229.512216" y="108.61567" style="fill-opacity: 0; stroke: #0000ff; stroke-opacity: 0.8"/>
     <use xlink:href="#mc95edc2651" x="237.966761" y="84.172046" style="fill-opacity: 0; stroke: #0000ff; stroke-opacity: 0.8"/>
     <use xlink:href="#mc95edc2651" x="246.421307" y="63.466559" style="fill-opacity: 0; stroke: #0000ff; stroke-opacity: 0.8"/>
     <use xlink:href="#mc95edc2651" x="254.875852" y="47.129082" style="fill-opacity: 0; stroke: #0000ff; stroke-opacity: 0.8"/>
     <use xlink:href="#mc95edc2651" x="263.330398" y="35.657942" style="fill-opacity: 0; stroke: #0000ff; stroke-opacity: 0.8"/>
     <use xlink:href="#mc95edc2651" x="271.784943" y="29.403926" style="fill-opacity: 0; stroke: #0000ff; stroke-opacity: 0.8"/>
     <use xlink:href="#mc95edc2651" x="280.239489" y="28.556186" style="fill-opacity: 0; stroke: #0000ff; stroke-opacity: 0.8"/>
     <use xlink:href="#mc95edc2651" x="288.694034" y="33.145674" style="fill-opacity: 0; stroke: #0000ff; stroke-opacity: 0.8"/>
     <use xlink:href="#mc95edc2651" x="297.14858" y="43.027947" style="fill-opacity: 0; stroke: #0000ff; stroke-opacity: 0.8"/>
     <use xlink:href="#mc95edc2651" x="305.603125" y="57.907243" style="fill-opacity: 0; stroke: #0000ff; stroke-opacity: 0.8"/>
     <use xlink:href="#mc95edc2651" x="314.05767" y="77.326676" style="fill-opacity: 0; stroke: #0000ff; stroke-opacity: 0.8"/>
     <use xlink:href="#mc95edc2651" x="322.512216" y="99.605382" style="fill-opacity: 0; stroke: #0000ff; stroke-opacity: 0.8"/>
     <use xlink:href="#mc95edc2651" x="330.966761" y="119.862409" style="fill-opacity: 0; stroke: #0000ff; stroke-opacity: 0.8"/>
     <use xlink:href="#mc95edc2651" x="339.421307" y="143.745803" style="fill-opacity: 0; stroke: #0000ff; stroke-opacity: 0.8"/>
     <use xlink:href="#mc95edc2651" x="347.875852" y="170.529567" style="fill-opacity: 0; stroke: #0000ff; stroke-opacity: 0.8"/>
     <use xlink:href="#mc95edc2651" x="356.330398" y="199.399493" style="fill-opacity: 0; stroke: #0000ff; stroke-opacity: 0.8"/>
     <use xlink:href="#mc95edc2651" x="364.784943" y="229.478437" style="fill-opacity: 0; stroke: #0000ff; stroke-opacity: 0.8"/>
    </g>
   </g>
   <g id="line2d_16">
    <path d="M 60.421307 229.370058 
L 68.875852 199.202703 
L 77.330398 170.25 
L 85.784943 143.391662 
L 94.239489 119.443767 
L 102.694034 99.133959 
L 111.14858 76.842189 
L 119.603125 57.361576 
L 128.05767 42.430296 
L 136.512216 32.502028 
L 144.966761 27.878438 
L 153.421307 28.70001 
L 161.875852 34.941783 
L 170.330398 46.414103 
L 178.784943 62.768389 
L 187.239489 83.507724 
L 195.694034 108.001955 
L 204.14858 135.506837 
L 212.603125 165.186647 
L 221.05767 135.506837 
L 229.512216 108.001955 
L 237.966761 83.507724 
L 246.421307 62.768389 
L 254.875852 46.414103 
L 263.330398 34.941783 
L 271.784943 28.70001 
L 280.239489 27.878438 
L 288.694034 32.502028 
L 297.14858 42.430296 
L 305.603125 57.361576 
L 314.05767 76.842189 
L 322.512216 99.133959 
L 330.966761 119.443767 
L 339.421307 143.391662 
L 347.875852 170.25 
L 356.330398 199.202703 
L 364.784943 229.370058 
" clip-path="url(#p33e3b630ff)" style="fill: none; stroke-dasharray: 5.55,2.4; stroke-dashoffset: 0; stroke: #ffa500; stroke-opacity: 0.8; stroke-width: 1.5"/>
    <defs>
     <path id="m76f2b5b5b5" d="M 0 5 
C 1.326016 5 2.597899 4.473168 3.535534 3.535534 
C 4.473168 2.597899 5 1.326016 5 0 
C 5 -1.326016 4.473168 -2.597899 3.535534 -3.535534 
C 2.597899 -4.473168 1.326016 -5 0 -5 
C -1.326016 -5 -2.597899 -4.473168 -3.535534 -3.535534 
C -4.473168 -2.597899 -5 -1.326016 -5 0 
C -5 1.326016 -4.473168 2.597899 -3.535534 3.535534 
C -2.597899 4.473168 -1.326016 5 0 5 
z
" style="stroke: #ffa500; stroke-opacity: 0.8"/>
    </defs>
    <g clip-path="url(#p33e3b630ff)">
     <use xlink:href="#m76f2b5b5b5" x="60.421307" y="229.370058" style="fill-opacity: 0; stroke: #ffa500; stroke-opacity: 0.8"/>
     <use xlink:href="#m76f2b5b5b5" x="68.875852" y="199.202703" style="fill-opacity: 0; stroke: #ffa500; stroke-opacity: 0.8"/>
     <use xlink:href="#m76f2b5b5b5" x="77.330398" y="170.25" style="fill-opacity: 0; stroke: #ffa500; stroke-opacity: 0.8"/>
     <use xlink:href="#m76f2b5b5b5" x="85.784943" y="143.391662" style="fill-opacity: 0; stroke: #ffa500; stroke-opacity: 0.8"/>
     <use xlink:href="#m76f2b5b5b5" x="94.239489" y="119.443767" style="fill-opacity: 0; stroke: #ffa500; stroke-opacity: 0.8"/>
     <use xlink:href="#m76f2b5b5b5" x="102.694034" y="99.133959" style="fill-opacity: 0; stroke: #ffa500; stroke-opacity: 0.8"/>
     <use xlink:href="#m76f2b5b5b5" x="111.14858" y="76.842189" style="fill-opacity: 0; stroke: #ffa500; stroke-opacity: 0.8"/>
     <use xlink:href="#m76f2b5b5b5" x="119.603125" y="57.361576" style="fill-opacity: 0; stroke: #ffa500; stroke-opacity: 0.8"/>
     <use xlink:href="#m76f2b5b5b5" x="128.05767" y="42.430296" style="fill-opacity: 0; stroke: #ffa500; stroke-opacity: 0.8"/>
     <use xlink:href="#m76f2b5b5b5" x="136.512216" y="32.502028" style="fill-opacity: 0; stroke: #ffa500; stroke-opacity: 0.8"/>
     <use xlink:href="#m76f2b5b5b5" x="144.966761" y="27.878438" style="fill-opacity: 0; stroke: #ffa500; stroke-opacity: 0.8"/>
     <use xlink:href="#m76f2b5b5b5" x="153.421307" y="28.70001" style="fill-opacity: 0; stroke: #ffa500; stroke-opacity: 0.8"/>
     <use xlink:href="#m76f2b5b5b5" x="161.875852" y="34.941783" style="fill-opacity: 0; stroke: #ffa500; stroke-opacity: 0.8"/>
     <use xlink:href="#m76f2b5b5b5" x="170.330398" y="46.414103" style="fill-opacity: 0; stroke: #ffa500; stroke-opacity: 0.8"/>
     <use xlink:href="#m76f2b5b5b5" x="178.784943" y="62.768389" style="fill-opacity: 0; stroke: #ffa500; stroke-opacity: 0.8"/>
     <use xlink:href="#m76f2b5b5b5" x="187.239489" y="83.507724" style="fill-opacity: 0; stroke: #ffa500; stroke-opacity: 0.8"/>
     <use xlink:href="#m76f2b5b5b5" x="195.694034" y="108.001955" style="fill-opacity: 0; stroke: #ffa500; stroke-opacity: 0.8"/>
     <use xlink:href="#m76f2b5b5b5" x="204.14858" y="135.506837" style="fill-opacity: 0; stroke: #ffa500; stroke-opacity: 0.8"/>
     <use xlink:href="#m76f2b5b5b5" x="212.603125" y="165.186647" style="fill-opacity: 0; stroke: #ffa500; stroke-opacity: 0.8"/>
     <use xlink:href="#m76f2b5b5b5" x="221.05767" y="135.506837" style="fill-opacity: 0; stroke: #ffa500; stroke-opacity: 0.8"/>
     <use xlink:href="#m76f2b5b5b5" x="229.512216" y="108.001955" style="fill-opacity: 0; stroke: #ffa500; stroke-opacity: 0.8"/>
     <use xlink:href="#m76f2b5b5b5" x="237.966761" y="83.507724" style="fill-opacity: 0; stroke: #ffa500; stroke-opacity: 0.8"/>
     <use xlink:href="#m76f2b5b5b5" x="246.421307" y="62.768389" style="fill-opacity: 0; stroke: #ffa500; stroke-opacity: 0.8"/>
     <use xlink:href="#m76f2b5b5b5" x="254.875852" y="46.414103" style="fill-opacity: 0; stroke: #ffa500; stroke-opacity: 0.8"/>
     <use xlink:href="#m76f2b5b5b5" x="263.330398" y="34.941783" style="fill-opacity: 0; stroke: #ffa500; stroke-opacity: 0.8"/>
     <use xlink:href="#m76f2b5b5b5" x="271.784943" y="28.70001" style="fill-opacity: 0; stroke: #ffa500; stroke-opacity: 0.8"/>
     <use xlink:href="#m76f2b5b5b5" x="280.239489" y="27.878438" style="fill-opacity: 0; stroke: #ffa500; stroke-opacity: 0.8"/>
     <use xlink:href="#m76f2b5b5b5" x="288.694034" y="32.502028" style="fill-opacity: 0; stroke: #ffa500; stroke-opacity: 0.8"/>
     <use xlink:href="#m76f2b5b5b5" x="297.14858" y="42.430296" style="fill-opacity: 0; stroke: #ffa500; stroke-opacity: 0.8"/>
     <use xlink:href="#m76f2b5b5b5" x="305.603125" y="57.361576" style="fill-opacity: 0; stroke: #ffa500; stroke-opacity: 0.8"/>
     <use xlink:href="#m76f2b5b5b5" x="314.05767" y="76.842189" style="fill-opacity: 0; stroke: #ffa500; stroke-opacity: 0.8"/>
     <use xlink:href="#m76f2b5b5b5" x="322.512216" y="99.133959" style="fill-opacity: 0; stroke: #ffa500; stroke-opacity: 0.8"/>
     <use xlink:href="#m76f2b5b5b5" x="330.966761" y="119.443767" style="fill-opacity: 0; stroke: #ffa500; stroke-opacity: 0.8"/>
     <use xlink:href="#m76f2b5b5b5" x="339.421307" y="143.391662" style="fill-opacity: 0; stroke: #ffa500; stroke-opacity: 0.8"/>
     <use xlink:href="#m76f2b5b5b5" x="347.875852" y="170.25" style="fill-opacity: 0; stroke: #ffa500; stroke-opacity: 0.8"/>
     <use xlink:href="#m76f2b5b5b5" x="356.330398" y="199.202703" style="fill-opacity: 0; stroke: #ffa500; stroke-opacity: 0.8"/>
     <use xlink:href="#m76f2b5b5b5" x="364.784943" y="229.370058" style="fill-opacity: 0; stroke: #ffa500; stroke-opacity: 0.8"/>
    </g>
   </g>
   <g id="patch_3">
    <path d="M 45.203125 239.558437 
L 45.203125 17.798437 
" style="fill: none; stroke: #000000; stroke-width: 0.8; stroke-linejoin: miter; stroke-linecap: square"/>
   </g>
   <g id="patch_4">
    <path d="M 380.003125 239.558437 
L 380.003125 17.798437 
" style="fill: none; stroke: #000000; stroke-width: 0.8; stroke-linejoin: miter; stroke-linecap: square"/>
   </g>
   <g id="patch_5">
    <path d="M 45.203125 239.558437 
L 380.003125 239.558437 
" style="fill: none; stroke: #000000; stroke-width: 0.8; stroke-linejoin: miter; stroke-linecap: square"/>
   </g>
   <g id="patch_6">
    <path d="M 45.203125 17.798437 
L 380.003125 17.798437 
" style="fill: none; stroke: #000000; stroke-width: 0.8; stroke-linejoin: miter; stroke-linecap: square"/>
   </g>
   <g id="legend_1">
    <g id="patch_7">
     <path d="M 169.478906 234.558437 
L 255.727344 234.558437 
Q 257.727344 234.558437 257.727344 232.558437 
L 257.727344 204.202187 
Q 257.727344 202.202187 255.727344 202.202187 
L 169.478906 202.202187 
Q 167.478906 202.202187 167.478906 204.202187 
L 167.478906 232.558437 
Q 167.478906 234.558437 169.478906 234.558437 
z
" style="fill: #ffffff; opacity: 0.8; stroke: #cccccc; stroke-linejoin: miter"/>
    </g>
    <g id="line2d_17">
     <path d="M 171.478906 210.300625 
L 181.478906 210.300625 
L 191.478906 210.300625 
" style="fill: none; stroke: #0000ff; stroke-opacity: 0.8; stroke-width: 1.5; stroke-linecap: square"/>
     <g>
      <use xlink:href="#mc95edc2651" x="181.478906" y="210.300625" style="fill-opacity: 0; stroke: #0000ff; stroke-opacity: 0.8"/>
     </g>
    </g>
    <g id="text_18">
     <!-- samsonCLI -->
     <g transform="translate(199.478906 213.800625) scale(0.1 -0.1)">
      <defs>
       <path id="DejaVuSans-6d" d="M 3328 2828 
Q 3544 3216 3844 3400 
Q 4144 3584 4550 3584 
Q 5097 3584 5394 3201 
Q 5691 2819 5691 2113 
L 5691 0 
L 5113 0 
L 5113 2094 
Q 5113 2597 4934 2840 
Q 4756 3084 4391 3084 
Q 3944 3084 3684 2787 
Q 3425 2491 3425 1978 
L 3425 0 
L 2847 0 
L 2847 2094 
Q 2847 2600 2669 2842 
Q 2491 3084 2119 3084 
Q 1678 3084 1418 2786 
Q 1159 2488 1159 1978 
L 1159 0 
L 581 0 
L 581 3500 
L 1159 3500 
L 1159 2956 
Q 1356 3278 1631 3431 
Q 1906 3584 2284 3584 
Q 2666 3584 2933 3390 
Q 3200 3197 3328 2828 
z
" transform="scale(0.015625)"/>
       <path id="DejaVuSans-43" d="M 4122 4306 
L 4122 3641 
Q 3803 3938 3442 4084 
Q 3081 4231 2675 4231 
Q 1875 4231 1450 3742 
Q 1025 3253 1025 2328 
Q 1025 1406 1450 917 
Q 1875 428 2675 428 
Q 3081 428 3442 575 
Q 3803 722 4122 1019 
L 4122 359 
Q 3791 134 3420 21 
Q 3050 -91 2638 -91 
Q 1578 -91 968 557 
Q 359 1206 359 2328 
Q 359 3453 968 4101 
Q 1578 4750 2638 4750 
Q 3056 4750 3426 4639 
Q 3797 4528 4122 4306 
z
" transform="scale(0.015625)"/>
       <path id="DejaVuSans-4c" d="M 628 4666 
L 1259 4666 
L 1259 531 
L 3531 531 
L 3531 0 
L 628 0 
L 628 4666 
z
" transform="scale(0.015625)"/>
       <path id="DejaVuSans-49" d="M 628 4666 
L 1259 4666 
L 1259 0 
L 628 0 
L 628 4666 
z
" transform="scale(0.015625)"/>
      </defs>
      <use xlink:href="#DejaVuSans-73"/>
      <use xlink:href="#DejaVuSans-61" transform="translate(52.099609 0)"/>
      <use xlink:href="#DejaVuSans-6d" transform="translate(113.378906 0)"/>
      <use xlink:href="#DejaVuSans-73" transform="translate(210.791016 0)"/>
      <use xlink:href="#DejaVuSans-6f" transform="translate(262.890625 0)"/>
      <use xlink:href="#DejaVuSans-6e" transform="translate(324.072266 0)"/>
      <use xlink:href="#DejaVuSans-43" transform="translate(387.451172 0)"/>
      <use xlink:href="#DejaVuSans-4c" transform="translate(457.275391 0)"/>
      <use xlink:href="#DejaVuSans-49" transform="translate(512.988281 0)"/>
     </g>
    </g>
    <g id="line2d_18">
     <path d="M 171.478906 224.97875 
L 181.478906 224.97875 
L 191.478906 224.97875 
" style="fill: none; stroke-dasharray: 5.55,2.4; stroke-dashoffset: 0; stroke: #ffa500; stroke-opacity: 0.8; stroke-width: 1.5"/>
     <g>
      <use xlink:href="#m76f2b5b5b5" x="181.478906" y="224.97875" style="fill-opacity: 0; stroke: #ffa500; stroke-opacity: 0.8"/>
     </g>
    </g>
    <g id="text_19">
     <!-- Test script -->
     <g transform="translate(199.478906 228.47875) scale(0.1 -0.1)">
      <defs>
       <path id="DejaVuSans-54" d="M -19 4666 
L 3928 4666 
L 3928 4134 
L 2272 4134 
L 2272 0 
L 1638 0 
L 1638 4134 
L -19 4134 
L -19 4666 
z
" transform="scale(0.015625)"/>
      </defs>
      <use xlink:href="#DejaVuSans-54"/>
      <use xlink:href="#DejaVuSans-65" transform="translate(44.083984 0)"/>
      <use xlink:href="#DejaVuSans-73" transform="translate(105.607422 0)"/>
      <use xlink:href="#DejaVuSans-74" transform="translate(157.707031 0)"/>
      <use xlink:href="#DejaVuSans-20" transform="translate(196.916016 0)"/>
      <use xlink:href="#DejaVuSans-73" transform="translate(228.703125 0)"/>
      <use xlink:href="#DejaVuSans-63" transform="translate(280.802734 0)"/>
      <use xlink:href="#DejaVuSans-72" transform="translate(335.783203 0)"/>
      <use xlink:href="#DejaVuSans-69" transform="translate(376.896484 0)"/>
      <use xlink:href="#DejaVuSans-70" transform="translate(404.679688 0)"/>
      <use xlink:href="#DejaVuSans-74" transform="translate(468.15625 0)"/>
     </g>
    </g>
   </g>
  </g>
 </g>
 <defs>
  <clipPath id="p33e3b630ff">
   <rect x="45.203125" y="17.798437" width="334.8" height="221.76"/>
  </clipPath>
 </defs>
</svg>
