<?xml version="1.0" encoding="utf-8" standalone="no"?>
<!DOCTYPE svg PUBLIC "-//W3C//DTD SVG 1.1//EN"
  "http://www.w3.org/Graphics/SVG/1.1/DTD/svg11.dtd">
<svg xmlns:xlink="http://www.w3.org/1999/xlink" width="362.878125pt" height="266.51625pt" viewBox="0 0 362.878125 266.51625" xmlns="http://www.w3.org/2000/svg" version="1.1">
 <metadata>
  <rdf:RDF xmlns:dc="http://purl.org/dc/elements/1.1/" xmlns:cc="http://creativecommons.org/ns#" xmlns:rdf="http://www.w3.org/1999/02/22-rdf-syntax-ns#">
   <cc:Work>
    <dc:type rdf:resource="http://purl.org/dc/dcmitype/StillImage"/>
    <dc:date>2026-06-29T09:22:29.061625</dc:date>
    <dc:format>image/svg+xml</dc:format>
    <dc:creator>
     <cc:Agent>
      <dc:title>Matplotlib v3.10.0, https://matplotlib.org/</dc:title>
     </cc:Agent>
    </dc:creator>
   </cc:Work>
  </rdf:RDF>
 </metadata>
 <defs>
  <style type="text/css">*{stroke-linejoin: round; stroke-linecap: butt}</style>
 </defs>
 <g id="figure_1">
  <g id="patch_1">
   <path d="M 0 266.51625 
L 362.878125 266.51625 
L 362.878125 0 
L 0 0 
z
" style="fill: #ffffff"/>
  </g>
  <g id="axes_1">
   <g id="patch_2">
    <path d="M 20.878125 108 
L 355.678125 108 
L 355.678125 7.2 
L 20.878125 7.2 
z
" style="fill: #ffffff"/>
   </g>
   <g id="matplotlib.axis_1">
    <g id="xtick_1">
     <g id="line2d_1">
      <defs>
       <path id="m6520e70f01" d="M 0 0 
L 0 3.5 
" style="stroke: #000000; stroke-width: 0.8"/>
      </defs>
      <g>
       <use xlink:href="#m6520e70f01" x="23.414489" y="108" style="stroke: #000000; stroke-width: 0.8"/>
      </g>
     </g>
     <g id="text_1">
      <!-- 3.3 -->
      <g transform="translate(15.462926 122.598437) scale(0.1 -0.1)">
       <defs>
        <path id="DejaVuSans-33" d="M 2597 2516 
Q 3050 2419 3304 2112 
Q 3559 1806 3559 1356 
Q 3559 666 3084 287 
Q 2609 -91 1734 -91 
Q 1441 -91 1130 -33 
Q 819 25 488 141 
L 488 750 
Q 750 597 1062 519 
Q 1375 441 1716 441 
Q 2309 441 2620 675 
Q 2931 909 2931 1356 
Q 2931 1769 2642 2001 
Q 2353 2234 1838 2234 
L 1294 2234 
L 1294 2753 
L 1863 2753 
Q 2328 2753 2575 2939 
Q 2822 3125 2822 3475 
Q 2822 3834 2567 4026 
Q 2313 4219 1838 4219 
Q 1578 4219 1281 4162 
Q 984 4106 628 3988 
L 628 4550 
Q 988 4650 1302 4700 
Q 1616 4750 1894 4750 
Q 2613 4750 3031 4423 
Q 3450 4097 3450 3541 
Q 3450 3153 3228 2886 
Q 3006 2619 2597 2516 
z
" transform="scale(0.015625)"/>
        <path id="DejaVuSans-2e" d="M 684 794 
L 1344 794 
L 1344 0 
L 684 0 
L 684 794 
z
" transform="scale(0.015625)"/>
       </defs>
       <use xlink:href="#DejaVuSans-33"/>
       <use xlink:href="#DejaVuSans-2e" transform="translate(63.623047 0)"/>
       <use xlink:href="#DejaVuSans-33" transform="translate(95.410156 0)"/>
      </g>
     </g>
    </g>
    <g id="xtick_2">
     <g id="line2d_2">
      <g>
       <use xlink:href="#m6520e70f01" x="86.82358" y="108" style="stroke: #000000; stroke-width: 0.8"/>
      </g>
     </g>
     <g id="text_2">
      <!-- 3.4 -->
      <g transform="translate(78.872017 122.598437) scale(0.1 -0.1)">
       <defs>
        <path id="DejaVuSans-34" d="M 2419 4116 
L 825 1625 
L 2419 1625 
L 2419 4116 
z
M 2253 4666 
L 3047 4666 
L 3047 1625 
L 3713 1625 
L 3713 1100 
L 3047 1100 
L 3047 0 
L 2419 0 
L 2419 1100 
L 313 1100 
L 313 1709 
L 2253 4666 
z
" transform="scale(0.015625)"/>
       </defs>
       <use xlink:href="#DejaVuSans-33"/>
       <use xlink:href="#DejaVuSans-2e" transform="translate(63.623047 0)"/>
       <use xlink:href="#DejaVuSans-34" transform="translate(95.410156 0)"/>
      </g>
     </g>
    </g>
    <g id="xtick_3">
     <g id="line2d_3">
      <g>
       <use xlink:href="#m6520e70f01" x="150.23267" y="108" style="stroke: #000000; stroke-width: 0.8"/>
      </g>
     </g>
     <g id="text_3">
      <!-- 3.5 -->
      <g transform="translate(142.281108 122.598437) scale(0.1 -0.1)">
       <defs>
        <path id="DejaVuSans-35" d="M 691 4666 
L 3169 4666 
L 3169 4134 
L 1269 4134 
L 1269 2991 
Q 1406 3038 1543 3061 
Q 1681 3084 1819 3084 
Q 2600 3084 3056 2656 
Q 3513 2228 3513 1497 
Q 3513 744 3044 326 
Q 2575 -91 1722 -91 
Q 1428 -91 1123 -41 
Q 819 9 494 109 
L 494 744 
Q 775 591 1075 516 
Q 1375 441 1709 441 
Q 2250 441 2565 725 
Q 2881 1009 2881 1497 
Q 2881 1984 2565 2268 
Q 2250 2553 1709 2553 
Q 1456 2553 1204 2497 
Q 953 2441 691 2322 
L 691 4666 
z
" transform="scale(0.015625)"/>
       </defs>
       <use xlink:href="#DejaVuSans-33"/>
       <use xlink:href="#DejaVuSans-2e" transform="translate(63.623047 0)"/>
       <use xlink:href="#DejaVuSans-35" transform="translate(95.410156 0)"/>
      </g>
     </g>
    </g>
    <g id="xtick_4">
     <g id="line2d_4">
      <g>
       <use xlink:href="#m6520e70f01" x="213.641761" y="108" style="stroke: #000000; stroke-width: 0.8"/>
      </g>
     </g>
     <g id="text_4">
      <!-- 3.6 -->
      <g transform="translate(205.690199 122.598437) scale(0.1 -0.1)">
       <defs>
        <path id="DejaVuSans-36" d="M 2113 2584 
Q 1688 2584 1439 2293 
Q 1191 2003 1191 1497 
Q 1191 994 1439 701 
Q 1688 409 2113 409 
Q 2538 409 2786 701 
Q 3034 994 3034 1497 
Q 3034 2003 2786 2293 
Q 2538 2584 2113 2584 
z
M 3366 4563 
L 3366 3988 
Q 3128 4100 2886 4159 
Q 2644 4219 2406 4219 
Q 1781 4219 1451 3797 
Q 1122 3375 1075 2522 
Q 1259 2794 1537 2939 
Q 1816 3084 2150 3084 
Q 2853 3084 3261 2657 
Q 3669 2231 3669 1497 
Q 3669 778 3244 343 
Q 2819 -91 2113 -91 
Q 1303 -91 875 529 
Q 447 1150 447 2328 
Q 447 3434 972 4092 
Q 1497 4750 2381 4750 
Q 2619 4750 2861 4703 
Q 3103 4656 3366 4563 
z
" transform="scale(0.015625)"/>
       </defs>
       <use xlink:href="#DejaVuSans-33"/>
       <use xlink:href="#DejaVuSans-2e" transform="translate(63.623047 0)"/>
       <use xlink:href="#DejaVuSans-36" transform="translate(95.410156 0)"/>
      </g>
     </g>
    </g>
    <g id="xtick_5">
     <g id="line2d_5">
      <g>
       <use xlink:href="#m6520e70f01" x="277.050852" y="108" style="stroke: #000000; stroke-width: 0.8"/>
      </g>
     </g>
     <g id="text_5">
      <!-- 3.7 -->
      <g transform="translate(269.09929 122.598437) scale(0.1 -0.1)">
       <defs>
        <path id="DejaVuSans-37" d="M 525 4666 
L 3525 4666 
L 3525 4397 
L 1831 0 
L 1172 0 
L 2766 4134 
L 525 4134 
L 525 4666 
z
" transform="scale(0.015625)"/>
       </defs>
       <use xlink:href="#DejaVuSans-33"/>
       <use xlink:href="#DejaVuSans-2e" transform="translate(63.623047 0)"/>
       <use xlink:href="#DejaVuSans-37" transform="translate(95.410156 0)"/>
      </g>
     </g>
    </g>
    <g id="xtick_6">
     <g id="line2d_6">
      <g>
       <use xlink:href="#m6520e70f01" x="340.459943" y="108" style="stroke: #000000; stroke-width: 0.8"/>
      </g>
     </g>
     <g id="text_6">
      <!-- 3.8 -->
      <g transform="translate(332.508381 122.598437) scale(0.1 -0.1)">
       <defs>
        <path id="DejaVuSans-38" d="M 2034 2216 
Q 1584 2216 1326 1975 
Q 1069 1734 1069 1313 
Q 1069 891 1326 650 
Q 1584 409 2034 409 
Q 2484 409 2743 651 
Q 3003 894 3003 1313 
Q 3003 1734 2745 1975 
Q 2488 2216 2034 2216 
z
M 1403 2484 
Q 997 2584 770 2862 
Q 544 3141 544 3541 
Q 544 4100 942 4425 
Q 1341 4750 2034 4750 
Q 2731 4750 3128 4425 
Q 3525 4100 3525 3541 
Q 3525 3141 3298 2862 
Q 3072 2584 2669 2484 
Q 3125 2378 3379 2068 
Q 3634 1759 3634 1313 
Q 3634 634 3220 271 
Q 2806 -91 2034 -91 
Q 1263 -91 848 271 
Q 434 634 434 1313 
Q 434 1759 690 2068 
Q 947 2378 1403 2484 
z
M 1172 3481 
Q 1172 3119 1398 2916 
Q 1625 2713 2034 2713 
Q 2441 2713 2670 2916 
Q 2900 3119 2900 3481 
Q 2900 3844 2670 4047 
Q 2441 4250 2034 4250 
Q 1625 4250 1398 4047 
Q 1172 3844 1172 3481 
z
" transform="scale(0.015625)"/>
       </defs>
       <use xlink:href="#DejaVuSans-33"/>
       <use xlink:href="#DejaVuSans-2e" transform="translate(63.623047 0)"/>
       <use xlink:href="#DejaVuSans-38" transform="translate(95.410156 0)"/>
      </g>
     </g>
    </g>
   </g>
   <g id="matplotlib.axis_2">
    <g id="text_7">
     <!-- Exposures [s⁻¹] -->
     <g transform="translate(14.798438 96.089062) rotate(-90) scale(0.1 -0.1)">
      <defs>
       <path id="DejaVuSans-45" d="M 628 4666 
L 3578 4666 
L 3578 4134 
L 1259 4134 
L 1259 2753 
L 3481 2753 
L 3481 2222 
L 1259 2222 
L 1259 531 
L 3634 531 
L 3634 0 
L 628 0 
L 628 4666 
z
" transform="scale(0.015625)"/>
       <path id="DejaVuSans-78" d="M 3513 3500 
L 2247 1797 
L 3578 0 
L 2900 0 
L 1881 1375 
L 863 0 
L 184 0 
L 1544 1831 
L 300 3500 
L 978 3500 
L 1906 2253 
L 2834 3500 
L 3513 3500 
z
" transform="scale(0.015625)"/>
       <path id="DejaVuSans-70" d="M 1159 525 
L 1159 -1331 
L 581 -1331 
L 581 3500 
L 1159 3500 
L 1159 2969 
Q 1341 3281 1617 3432 
Q 1894 3584 2278 3584 
Q 2916 3584 3314 3078 
Q 3713 2572 3713 1747 
Q 3713 922 3314 415 
Q 2916 -91 2278 -91 
Q 1894 -91 1617 61 
Q 1341 213 1159 525 
z
M 3116 1747 
Q 3116 2381 2855 2742 
Q 2594 3103 2138 3103 
Q 1681 3103 1420 2742 
Q 1159 2381 1159 1747 
Q 1159 1113 1420 752 
Q 1681 391 2138 391 
Q 2594 391 2855 752 
Q 3116 1113 3116 1747 
z
" transform="scale(0.015625)"/>
       <path id="DejaVuSans-6f" d="M 1959 3097 
Q 1497 3097 1228 2736 
Q 959 2375 959 1747 
Q 959 1119 1226 758 
Q 1494 397 1959 397 
Q 2419 397 2687 759 
Q 2956 1122 2956 1747 
Q 2956 2369 2687 2733 
Q 2419 3097 1959 3097 
z
M 1959 3584 
Q 2709 3584 3137 3096 
Q 3566 2609 3566 1747 
Q 3566 888 3137 398 
Q 2709 -91 1959 -91 
Q 1206 -91 779 398 
Q 353 888 353 1747 
Q 353 2609 779 3096 
Q 1206 3584 1959 3584 
z
" transform="scale(0.015625)"/>
       <path id="DejaVuSans-73" d="M 2834 3397 
L 2834 2853 
Q 2591 2978 2328 3040 
Q 2066 3103 1784 3103 
Q 1356 3103 1142 2972 
Q 928 2841 928 2578 
Q 928 2378 1081 2264 
Q 1234 2150 1697 2047 
L 1894 2003 
Q 2506 1872 2764 1633 
Q 3022 1394 3022 966 
Q 3022 478 2636 193 
Q 2250 -91 1575 -91 
Q 1294 -91 989 -36 
Q 684 19 347 128 
L 347 722 
Q 666 556 975 473 
Q 1284 391 1588 391 
Q 1994 391 2212 530 
Q 2431 669 2431 922 
Q 2431 1156 2273 1281 
Q 2116 1406 1581 1522 
L 1381 1569 
Q 847 1681 609 1914 
Q 372 2147 372 2553 
Q 372 3047 722 3315 
Q 1072 3584 1716 3584 
Q 2034 3584 2315 3537 
Q 2597 3491 2834 3397 
z
" transform="scale(0.015625)"/>
       <path id="DejaVuSans-75" d="M 544 1381 
L 544 3500 
L 1119 3500 
L 1119 1403 
Q 1119 906 1312 657 
Q 1506 409 1894 409 
Q 2359 409 2629 706 
Q 2900 1003 2900 1516 
L 2900 3500 
L 3475 3500 
L 3475 0 
L 2900 0 
L 2900 538 
Q 2691 219 2414 64 
Q 2138 -91 1772 -91 
Q 1169 -91 856 284 
Q 544 659 544 1381 
z
M 1991 3584 
L 1991 3584 
z
" transform="scale(0.015625)"/>
       <path id="DejaVuSans-72" d="M 2631 2963 
Q 2534 3019 2420 3045 
Q 2306 3072 2169 3072 
Q 1681 3072 1420 2755 
Q 1159 2438 1159 1844 
L 1159 0 
L 581 0 
L 581 3500 
L 1159 3500 
L 1159 2956 
Q 1341 3275 1631 3429 
Q 1922 3584 2338 3584 
Q 2397 3584 2469 3576 
Q 2541 3569 2628 3553 
L 2631 2963 
z
" transform="scale(0.015625)"/>
       <path id="DejaVuSans-65" d="M 3597 1894 
L 3597 1613 
L 953 1613 
Q 991 1019 1311 708 
Q 1631 397 2203 397 
Q 2534 397 2845 478 
Q 3156 559 3463 722 
L 3463 178 
Q 3153 47 2828 -22 
Q 2503 -91 2169 -91 
Q 1331 -91 842 396 
Q 353 884 353 1716 
Q 353 2575 817 3079 
Q 1281 3584 2069 3584 
Q 2775 3584 3186 3129 
Q 3597 2675 3597 1894 
z
M 3022 2063 
Q 3016 2534 2758 2815 
Q 2500 3097 2075 3097 
Q 1594 3097 1305 2825 
Q 1016 2553 972 2059 
L 3022 2063 
z
" transform="scale(0.015625)"/>
       <path id="DejaVuSans-20" transform="scale(0.015625)"/>
       <path id="DejaVuSans-5b" d="M 550 4863 
L 1875 4863 
L 1875 4416 
L 1125 4416 
L 1125 -397 
L 1875 -397 
L 1875 -844 
L 550 -844 
L 550 4863 
z
" transform="scale(0.015625)"/>
       <path id="DejaVuSans-207b" d="M 428 3359 
L 2950 3359 
L 2950 3063 
L 428 3063 
L 428 3359 
z
" transform="scale(0.015625)"/>
       <path id="DejaVuSans-b9" d="M 488 2431 
L 1125 2431 
L 1125 4341 
L 428 4213 
L 428 4575 
L 1147 4697 
L 1575 4697 
L 1575 2431 
L 2216 2431 
L 2216 2088 
L 488 2088 
L 488 2431 
z
" transform="scale(0.015625)"/>
       <path id="DejaVuSans-5d" d="M 1947 4863 
L 1947 -844 
L 622 -844 
L 622 -397 
L 1369 -397 
L 1369 4416 
L 622 4416 
L 622 4863 
L 1947 4863 
z
" transform="scale(0.015625)"/>
      </defs>
      <use xlink:href="#DejaVuSans-45"/>
      <use xlink:href="#DejaVuSans-78" transform="translate(63.183594 0)"/>
      <use xlink:href="#DejaVuSans-70" transform="translate(122.363281 0)"/>
      <use xlink:href="#DejaVuSans-6f" transform="translate(185.839844 0)"/>
      <use xlink:href="#DejaVuSans-73" transform="translate(247.021484 0)"/>
      <use xlink:href="#DejaVuSans-75" transform="translate(299.121094 0)"/>
      <use xlink:href="#DejaVuSans-72" transform="translate(362.5 0)"/>
      <use xlink:href="#DejaVuSans-65" transform="translate(401.363281 0)"/>
      <use xlink:href="#DejaVuSans-73" transform="translate(462.886719 0)"/>
      <use xlink:href="#DejaVuSans-20" transform="translate(514.986328 0)"/>
      <use xlink:href="#DejaVuSans-5b" transform="translate(546.773438 0)"/>
      <use xlink:href="#DejaVuSans-73" transform="translate(585.787109 0)"/>
      <use xlink:href="#DejaVuSans-207b" transform="translate(637.886719 0)"/>
      <use xlink:href="#DejaVuSans-b9" transform="translate(690.669922 0)"/>
      <use xlink:href="#DejaVuSans-5d" transform="translate(730.757812 0)"/>
     </g>
    </g>
   </g>
   <g id="line2d_7">
    <path d="M 36.096307 103.418182 
L 39.170687 103.418182 
L 42.245067 12.028989 
L 45.319447 12.028989 
L 48.393827 12.028989 
L 51.468208 12.028989 
L 54.542588 12.028989 
L 57.616968 12.028989 
L 60.691348 12.028989 
L 63.765728 12.028989 
L 66.840108 12.028989 
L 69.914489 12.028989 
L 72.988869 12.028989 
L 76.063249 12.028989 
L 79.137629 12.028989 
L 82.212009 12.028989 
L 85.286389 12.028989 
L 88.36077 12.028989 
L 91.43515 12.028989 
L 94.50953 12.028989 
L 97.58391 12.028989 
L 100.65829 12.028989 
L 103.73267 12.028989 
L 106.807051 12.028989 
L 109.881431 12.028989 
L 112.955811 12.028989 
L 116.030191 12.028989 
L 119.104571 12.028989 
L 122.178951 12.028989 
L 125.253332 12.028989 
L 128.327712 12.028989 
L 131.402092 12.028989 
L 134.476472 12.028989 
L 137.550852 12.028989 
L 140.625232 12.028989 
L 143.699613 12.028989 
L 146.773993 12.028989 
L 149.848373 12.028989 
L 152.922753 12.028989 
L 155.997133 12.028989 
L 159.071513 12.028989 
L 162.145894 12.028989 
L 165.220274 12.028989 
L 168.294654 12.028989 
L 171.369034 12.028989 
L 174.443414 12.028989 
L 177.517794 12.028989 
L 180.592175 12.028989 
L 183.666555 12.028989 
L 186.740935 12.028989 
L 189.815315 12.028989 
L 192.889695 12.028989 
L 195.964075 12.028989 
L 199.038456 12.028989 
L 202.112836 12.028989 
L 205.187216 12.028989 
L 208.261596 12.028989 
L 211.335976 12.028989 
L 214.410356 12.028989 
L 217.484737 12.028989 
L 220.559117 12.028989 
L 223.633497 12.028989 
L 226.707877 12.028989 
L 229.782257 12.028989 
L 232.856637 12.028989 
L 235.931018 12.028989 
L 239.005398 12.028989 
L 242.079778 12.028989 
L 245.154158 12.028989 
L 248.228538 12.028989 
L 251.302918 12.028989 
L 254.377299 12.028989 
L 257.451679 12.028989 
L 260.526059 12.028989 
L 263.600439 12.028989 
L 266.674819 12.028989 
L 269.749199 12.028989 
L 272.82358 12.028989 
L 275.89796 12.028989 
L 278.97234 12.028989 
L 282.04672 12.028989 
L 285.1211 12.028989 
L 288.19548 12.028989 
L 291.269861 12.028989 
L 294.344241 12.028989 
L 297.418621 12.028989 
L 300.493001 12.028989 
L 303.567381 12.028989 
L 306.641761 12.028989 
L 309.716142 12.028989 
L 312.790522 12.028989 
L 315.864902 12.028989 
L 318.939282 12.028989 
L 322.013662 12.028989 
L 325.088042 12.028989 
L 328.162423 12.028989 
L 331.236803 12.028989 
L 334.311183 12.028989 
L 337.385563 12.028989 
L 340.459943 12.028989 
" clip-path="url(#pc5f6cab5ef)" style="fill: none; stroke: #0000ff; stroke-opacity: 0.8; stroke-width: 1.5; stroke-linecap: square"/>
   </g>
   <g id="line2d_8">
    <path d="M 36.096307 103.418182 
L 39.170687 103.418182 
L 42.245067 11.781818 
L 45.319447 11.781818 
L 48.393827 11.781818 
L 51.468208 11.781818 
L 54.542588 11.781818 
L 57.616968 11.781818 
L 60.691348 11.781818 
L 63.765728 11.781818 
L 66.840108 11.781818 
L 69.914489 11.781818 
L 72.988869 11.781818 
L 76.063249 11.781818 
L 79.137629 11.781818 
L 82.212009 11.781818 
L 85.286389 11.781818 
L 88.36077 11.781818 
L 91.43515 11.781818 
L 94.50953 11.781818 
L 97.58391 11.781818 
L 100.65829 11.781818 
L 103.73267 11.781818 
L 106.807051 11.781818 
L 109.881431 11.781818 
L 112.955811 11.781818 
L 116.030191 11.781818 
L 119.104571 11.781818 
L 122.178951 11.781818 
L 125.253332 11.781818 
L 128.327712 11.781818 
L 131.402092 11.781818 
L 134.476472 11.781818 
L 137.550852 11.781818 
L 140.625232 11.781818 
L 143.699613 11.781818 
L 146.773993 11.781818 
L 149.848373 11.781818 
L 152.922753 11.781818 
L 155.997133 11.781818 
L 159.071513 11.781818 
L 162.145894 11.781818 
L 165.220274 11.781818 
L 168.294654 11.781818 
L 171.369034 11.781818 
L 174.443414 11.781818 
L 177.517794 11.781818 
L 180.592175 11.781818 
L 183.666555 11.781818 
L 186.740935 11.781818 
L 189.815315 11.781818 
L 192.889695 11.781818 
L 195.964075 11.781818 
L 199.038456 11.781818 
L 202.112836 11.781818 
L 205.187216 11.781818 
L 208.261596 11.781818 
L 211.335976 11.781818 
L 214.410356 11.781818 
L 217.484737 11.781818 
L 220.559117 11.781818 
L 223.633497 11.781818 
L 226.707877 11.781818 
L 229.782257 11.781818 
L 232.856637 11.781818 
L 235.931018 11.781818 
L 239.005398 11.781818 
L 242.079778 11.781818 
L 245.154158 11.781818 
L 248.228538 11.781818 
L 251.302918 11.781818 
L 254.377299 11.781818 
L 257.451679 11.781818 
L 260.526059 11.781818 
L 263.600439 11.781818 
L 266.674819 11.781818 
L 269.749199 11.781818 
L 272.82358 11.781818 
L 275.89796 11.781818 
L 278.97234 11.781818 
L 282.04672 11.781818 
L 285.1211 11.781818 
L 288.19548 11.781818 
L 291.269861 11.781818 
L 294.344241 11.781818 
L 297.418621 11.781818 
L 300.493001 11.781818 
L 303.567381 11.781818 
L 306.641761 11.781818 
L 309.716142 11.781818 
L 312.790522 11.781818 
L 315.864902 11.781818 
L 318.939282 11.781818 
L 322.013662 11.781818 
L 325.088042 11.781818 
L 328.162423 11.781818 
L 331.236803 11.781818 
L 334.311183 11.781818 
L 337.385563 11.781818 
L 340.459943 11.781818 
" clip-path="url(#pc5f6cab5ef)" style="fill: none; stroke-dasharray: 5.55,2.4; stroke-dashoffset: 0; stroke: #ffa500; stroke-opacity: 0.8; stroke-width: 1.5"/>
   </g>
   <g id="patch_3">
    <path d="M 20.878125 108 
L 20.878125 7.2 
" style="fill: none; stroke: #000000; stroke-width: 0.8; stroke-linejoin: miter; stroke-linecap: square"/>
   </g>
   <g id="patch_4">
    <path d="M 355.678125 108 
L 355.678125 7.2 
" style="fill: none; stroke: #000000; stroke-width: 0.8; stroke-linejoin: miter; stroke-linecap: square"/>
   </g>
   <g id="patch_5">
    <path d="M 20.878125 108 
L 355.678125 108 
" style="fill: none; stroke: #000000; stroke-width: 0.8; stroke-linejoin: miter; stroke-linecap: square"/>
   </g>
   <g id="patch_6">
    <path d="M 20.878125 7.2 
L 355.678125 7.2 
" style="fill: none; stroke: #000000; stroke-width: 0.8; stroke-linejoin: miter; stroke-linecap: square"/>
   </g>
   <g id="legend_1">
    <g id="patch_7">
     <path d="M 262.429688 44.55625 
L 348.678125 44.55625 
Q 350.678125 44.55625 350.678125 42.55625 
L 350.678125 14.2 
Q 350.678125 12.2 348.678125 12.2 
L 262.429688 12.2 
Q 260.429688 12.2 260.429688 14.2 
L 260.429688 42.55625 
Q 260.429688 44.55625 262.429688 44.55625 
z
" style="fill: #ffffff; opacity: 0.8; stroke: #cccccc; stroke-linejoin: miter"/>
    </g>
    <g id="line2d_9">
     <path d="M 264.429688 20.298437 
L 274.429688 20.298437 
L 284.429688 20.298437 
" style="fill: none; stroke: #0000ff; stroke-opacity: 0.8; stroke-width: 1.5; stroke-linecap: square"/>
    </g>
    <g id="text_8">
     <!-- samsonCLI -->
     <g transform="translate(292.429688 23.798437) scale(0.1 -0.1)">
      <defs>
       <path id="DejaVuSans-61" d="M 2194 1759 
Q 1497 1759 1228 1600 
Q 959 1441 959 1056 
Q 959 750 1161 570 
Q 1363 391 1709 391 
Q 2188 391 2477 730 
Q 2766 1069 2766 1631 
L 2766 1759 
L 2194 1759 
z
M 3341 1997 
L 3341 0 
L 2766 0 
L 2766 531 
Q 2569 213 2275 61 
Q 1981 -91 1556 -91 
Q 1019 -91 701 211 
Q 384 513 384 1019 
Q 384 1609 779 1909 
Q 1175 2209 1959 2209 
L 2766 2209 
L 2766 2266 
Q 2766 2663 2505 2880 
Q 2244 3097 1772 3097 
Q 1472 3097 1187 3025 
Q 903 2953 641 2809 
L 641 3341 
Q 956 3463 1253 3523 
Q 1550 3584 1831 3584 
Q 2591 3584 2966 3190 
Q 3341 2797 3341 1997 
z
" transform="scale(0.015625)"/>
       <path id="DejaVuSans-6d" d="M 3328 2828 
Q 3544 3216 3844 3400 
Q 4144 3584 4550 3584 
Q 5097 3584 5394 3201 
Q 5691 2819 5691 2113 
L 5691 0 
L 5113 0 
L 5113 2094 
Q 5113 2597 4934 2840 
Q 4756 3084 4391 3084 
Q 3944 3084 3684 2787 
Q 3425 2491 3425 1978 
L 3425 0 
L 2847 0 
L 2847 2094 
Q 2847 2600 2669 2842 
Q 2491 3084 2119 3084 
Q 1678 3084 1418 2786 
Q 1159 2488 1159 1978 
L 1159 0 
L 581 0 
L 581 3500 
L 1159 3500 
L 1159 2956 
Q 1356 3278 1631 3431 
Q 1906 3584 2284 3584 
Q 2666 3584 2933 3390 
Q 3200 3197 3328 2828 
z
" transform="scale(0.015625)"/>
       <path id="DejaVuSans-6e" d="M 3513 2113 
L 3513 0 
L 2938 0 
L 2938 2094 
Q 2938 2591 2744 2837 
Q 2550 3084 2163 3084 
Q 1697 3084 1428 2787 
Q 1159 2491 1159 1978 
L 1159 0 
L 581 0 
L 581 3500 
L 1159 3500 
L 1159 2956 
Q 1366 3272 1645 3428 
Q 1925 3584 2291 3584 
Q 2894 3584 3203 3211 
Q 3513 2838 3513 2113 
z
" transform="scale(0.015625)"/>
       <path id="DejaVuSans-43" d="M 4122 4306 
L 4122 3641 
Q 3803 3938 3442 4084 
Q 3081 4231 2675 4231 
Q 1875 4231 1450 3742 
Q 1025 3253 1025 2328 
Q 1025 1406 1450 917 
Q 1875 428 2675 428 
Q 3081 428 3442 575 
Q 3803 722 4122 1019 
L 4122 359 
Q 3791 134 3420 21 
Q 3050 -91 2638 -91 
Q 1578 -91 968 557 
Q 359 1206 359 2328 
Q 359 3453 968 4101 
Q 1578 4750 2638 4750 
Q 3056 4750 3426 4639 
Q 3797 4528 4122 4306 
z
" transform="scale(0.015625)"/>
       <path id="DejaVuSans-4c" d="M 628 4666 
L 1259 4666 
L 1259 531 
L 3531 531 
L 3531 0 
L 628 0 
L 628 4666 
z
" transform="scale(0.015625)"/>
       <path id="DejaVuSans-49" d="M 628 4666 
L 1259 4666 
L 1259 0 
L 628 0 
L 628 4666 
z
" transform="scale(0.015625)"/>
      </defs>
      <use xlink:href="#DejaVuSans-73"/>
      <use xlink:href="#DejaVuSans-61" transform="translate(52.099609 0)"/>
      <use xlink:href="#DejaVuSans-6d" transform="translate(113.378906 0)"/>
      <use xlink:href="#DejaVuSans-73" transform="translate(210.791016 0)"/>
      <use xlink:href="#DejaVuSans-6f" transform="translate(262.890625 0)"/>
      <use xlink:href="#DejaVuSans-6e" transform="translate(324.072266 0)"/>
      <use xlink:href="#DejaVuSans-43" transform="translate(387.451172 0)"/>
      <use xlink:href="#DejaVuSans-4c" transform="translate(457.275391 0)"/>
      <use xlink:href="#DejaVuSans-49" transform="translate(512.988281 0)"/>
     </g>
    </g>
    <g id="line2d_10">
     <path d="M 264.429688 34.976562 
L 274.429688 34.976562 
L 284.429688 34.976562 
" style="fill: none; stroke-dasharray: 5.55,2.4; stroke-dashoffset: 0; stroke: #ffa500; stroke-opacity: 0.8; stroke-width: 1.5"/>
    </g>
    <g id="text_9">
     <!-- Test script -->
     <g transform="translate(292.429688 38.476562) scale(0.1 -0.1)">
      <defs>
       <path id="DejaVuSans-54" d="M -19 4666 
L 3928 4666 
L 3928 4134 
L 2272 4134 
L 2272 0 
L 1638 0 
L 1638 4134 
L -19 4134 
L -19 4666 
z
" transform="scale(0.015625)"/>
       <path id="DejaVuSans-74" d="M 1172 4494 
L 1172 3500 
L 2356 3500 
L 2356 3053 
L 1172 3053 
L 1172 1153 
Q 1172 725 1289 603 
Q 1406 481 1766 481 
L 2356 481 
L 2356 0 
L 1766 0 
Q 1100 0 847 248 
Q 594 497 594 1153 
L 594 3053 
L 172 3053 
L 172 3500 
L 594 3500 
L 594 4494 
L 1172 4494 
z
" transform="scale(0.015625)"/>
       <path id="DejaVuSans-63" d="M 3122 3366 
L 3122 2828 
Q 2878 2963 2633 3030 
Q 2388 3097 2138 3097 
Q 1578 3097 1268 2742 
Q 959 2388 959 1747 
Q 959 1106 1268 751 
Q 1578 397 2138 397 
Q 2388 397 2633 464 
Q 2878 531 3122 666 
L 3122 134 
Q 2881 22 2623 -34 
Q 2366 -91 2075 -91 
Q 1284 -91 818 406 
Q 353 903 353 1747 
Q 353 2603 823 3093 
Q 1294 3584 2113 3584 
Q 2378 3584 2631 3529 
Q 2884 3475 3122 3366 
z
" transform="scale(0.015625)"/>
       <path id="DejaVuSans-69" d="M 603 3500 
L 1178 3500 
L 1178 0 
L 603 0 
L 603 3500 
z
M 603 4863 
L 1178 4863 
L 1178 4134 
L 603 4134 
L 603 4863 
z
" transform="scale(0.015625)"/>
      </defs>
      <use xlink:href="#DejaVuSans-54"/>
      <use xlink:href="#DejaVuSans-65" transform="translate(44.083984 0)"/>
      <use xlink:href="#DejaVuSans-73" transform="translate(105.607422 0)"/>
      <use xlink:href="#DejaVuSans-74" transform="translate(157.707031 0)"/>
      <use xlink:href="#DejaVuSans-20" transform="translate(196.916016 0)"/>
      <use xlink:href="#DejaVuSans-73" transform="translate(228.703125 0)"/>
      <use xlink:href="#DejaVuSans-63" transform="translate(280.802734 0)"/>
      <use xlink:href="#DejaVuSans-72" transform="translate(335.783203 0)"/>
      <use xlink:href="#DejaVuSans-69" transform="translate(376.896484 0)"/>
      <use xlink:href="#DejaVuSans-70" transform="translate(404.679688 0)"/>
      <use xlink:href="#DejaVuSans-74" transform="translate(468.15625 0)"/>
     </g>
    </g>
   </g>
  </g>
  <g id="axes_2">
   <g id="patch_8">
    <path d="M 20.878125 228.96 
L 355.678125 228.96 
L 355.678125 128.16 
L 20.878125 128.16 
z
" style="fill: #ffffff"/>
   </g>
   <g id="matplotlib.axis_3">
    <g id="xtick_7">
     <g id="line2d_11">
      <g>
       <use xlink:href="#m6520e70f01" x="23.414489" y="228.96" style="stroke: #000000; stroke-width: 0.8"/>
      </g>
     </g>
     <g id="text_10">
      <!-- 3.3 -->
      <g transform="translate(15.462926 243.558437) scale(0.1 -0.1)">
       <use xlink:href="#DejaVuSans-33"/>
       <use xlink:href="#DejaVuSans-2e" transform="translate(63.623047 0)"/>
       <use xlink:href="#DejaVuSans-33" transform="translate(95.410156 0)"/>
      </g>
     </g>
    </g>
    <g id="xtick_8">
     <g id="line2d_12">
      <g>
       <use xlink:href="#m6520e70f01" x="86.82358" y="228.96" style="stroke: #000000; stroke-width: 0.8"/>
      </g>
     </g>
     <g id="text_11">
      <!-- 3.4 -->
      <g transform="translate(78.872017 243.558437) scale(0.1 -0.1)">
       <use xlink:href="#DejaVuSans-33"/>
       <use xlink:href="#DejaVuSans-2e" transform="translate(63.623047 0)"/>
       <use xlink:href="#DejaVuSans-34" transform="translate(95.410156 0)"/>
      </g>
     </g>
    </g>
    <g id="xtick_9">
     <g id="line2d_13">
      <g>
       <use xlink:href="#m6520e70f01" x="150.23267" y="228.96" style="stroke: #000000; stroke-width: 0.8"/>
      </g>
     </g>
     <g id="text_12">
      <!-- 3.5 -->
      <g transform="translate(142.281108 243.558437) scale(0.1 -0.1)">
       <use xlink:href="#DejaVuSans-33"/>
       <use xlink:href="#DejaVuSans-2e" transform="translate(63.623047 0)"/>
       <use xlink:href="#DejaVuSans-35" transform="translate(95.410156 0)"/>
      </g>
     </g>
    </g>
    <g id="xtick_10">
     <g id="line2d_14">
      <g>
       <use xlink:href="#m6520e70f01" x="213.641761" y="228.96" style="stroke: #000000; stroke-width: 0.8"/>
      </g>
     </g>
     <g id="text_13">
      <!-- 3.6 -->
      <g transform="translate(205.690199 243.558437) scale(0.1 -0.1)">
       <use xlink:href="#DejaVuSans-33"/>
       <use xlink:href="#DejaVuSans-2e" transform="translate(63.623047 0)"/>
       <use xlink:href="#DejaVuSans-36" transform="translate(95.410156 0)"/>
      </g>
     </g>
    </g>
    <g id="xtick_11">
     <g id="line2d_15">
      <g>
       <use xlink:href="#m6520e70f01" x="277.050852" y="228.96" style="stroke: #000000; stroke-width: 0.8"/>
      </g>
     </g>
     <g id="text_14">
      <!-- 3.7 -->
      <g transform="translate(269.09929 243.558437) scale(0.1 -0.1)">
       <use xlink:href="#DejaVuSans-33"/>
       <use xlink:href="#DejaVuSans-2e" transform="translate(63.623047 0)"/>
       <use xlink:href="#DejaVuSans-37" transform="translate(95.410156 0)"/>
      </g>
     </g>
    </g>
    <g id="xtick_12">
     <g id="line2d_16">
      <g>
       <use xlink:href="#m6520e70f01" x="340.459943" y="228.96" style="stroke: #000000; stroke-width: 0.8"/>
      </g>
     </g>
     <g id="text_15">
      <!-- 3.8 -->
      <g transform="translate(332.508381 243.558437) scale(0.1 -0.1)">
       <use xlink:href="#DejaVuSans-33"/>
       <use xlink:href="#DejaVuSans-2e" transform="translate(63.623047 0)"/>
       <use xlink:href="#DejaVuSans-38" transform="translate(95.410156 0)"/>
      </g>
     </g>
    </g>
    <g id="text_16">
     <!-- Longitude value object [deg] -->
     <g transform="translate(116.248438 257.236562) scale(0.1 -0.1)">
      <defs>
       <path id="DejaVuSans-67" d="M 2906 1791 
Q 2906 2416 2648 2759 
Q 2391 3103 1925 3103 
Q 1463 3103 1205 2759 
Q 947 2416 947 1791 
Q 947 1169 1205 825 
Q 1463 481 1925 481 
Q 2391 481 2648 825 
Q 2906 1169 2906 1791 
z
M 3481 434 
Q 3481 -459 3084 -895 
Q 2688 -1331 1869 -1331 
Q 1566 -1331 1297 -1286 
Q 1028 -1241 775 -1147 
L 775 -588 
Q 1028 -725 1275 -790 
Q 1522 -856 1778 -856 
Q 2344 -856 2625 -561 
Q 2906 -266 2906 331 
L 2906 616 
Q 2728 306 2450 153 
Q 2172 0 1784 0 
Q 1141 0 747 490 
Q 353 981 353 1791 
Q 353 2603 747 3093 
Q 1141 3584 1784 3584 
Q 2172 3584 2450 3431 
Q 2728 3278 2906 2969 
L 2906 3500 
L 3481 3500 
L 3481 434 
z
" transform="scale(0.015625)"/>
       <path id="DejaVuSans-64" d="M 2906 2969 
L 2906 4863 
L 3481 4863 
L 3481 0 
L 2906 0 
L 2906 525 
Q 2725 213 2448 61 
Q 2172 -91 1784 -91 
Q 1150 -91 751 415 
Q 353 922 353 1747 
Q 353 2572 751 3078 
Q 1150 3584 1784 3584 
Q 2172 3584 2448 3432 
Q 2725 3281 2906 2969 
z
M 947 1747 
Q 947 1113 1208 752 
Q 1469 391 1925 391 
Q 2381 391 2643 752 
Q 2906 1113 2906 1747 
Q 2906 2381 2643 2742 
Q 2381 3103 1925 3103 
Q 1469 3103 1208 2742 
Q 947 2381 947 1747 
z
" transform="scale(0.015625)"/>
       <path id="DejaVuSans-76" d="M 191 3500 
L 800 3500 
L 1894 563 
L 2988 3500 
L 3597 3500 
L 2284 0 
L 1503 0 
L 191 3500 
z
" transform="scale(0.015625)"/>
       <path id="DejaVuSans-6c" d="M 603 4863 
L 1178 4863 
L 1178 0 
L 603 0 
L 603 4863 
z
" transform="scale(0.015625)"/>
       <path id="DejaVuSans-62" d="M 3116 1747 
Q 3116 2381 2855 2742 
Q 2594 3103 2138 3103 
Q 1681 3103 1420 2742 
Q 1159 2381 1159 1747 
Q 1159 1113 1420 752 
Q 1681 391 2138 391 
Q 2594 391 2855 752 
Q 3116 1113 3116 1747 
z
M 1159 2969 
Q 1341 3281 1617 3432 
Q 1894 3584 2278 3584 
Q 2916 3584 3314 3078 
Q 3713 2572 3713 1747 
Q 3713 922 3314 415 
Q 2916 -91 2278 -91 
Q 1894 -91 1617 61 
Q 1341 213 1159 525 
L 1159 0 
L 581 0 
L 581 4863 
L 1159 4863 
L 1159 2969 
z
" transform="scale(0.015625)"/>
       <path id="DejaVuSans-6a" d="M 603 3500 
L 1178 3500 
L 1178 -63 
Q 1178 -731 923 -1031 
Q 669 -1331 103 -1331 
L -116 -1331 
L -116 -844 
L 38 -844 
Q 366 -844 484 -692 
Q 603 -541 603 -63 
L 603 3500 
z
M 603 4863 
L 1178 4863 
L 1178 4134 
L 603 4134 
L 603 4863 
z
" transform="scale(0.015625)"/>
      </defs>
      <use xlink:href="#DejaVuSans-4c"/>
      <use xlink:href="#DejaVuSans-6f" transform="translate(53.962891 0)"/>
      <use xlink:href="#DejaVuSans-6e" transform="translate(115.144531 0)"/>
      <use xlink:href="#DejaVuSans-67" transform="translate(178.523438 0)"/>
      <use xlink:href="#DejaVuSans-69" transform="translate(242 0)"/>
      <use xlink:href="#DejaVuSans-74" transform="translate(269.783203 0)"/>
      <use xlink:href="#DejaVuSans-75" transform="translate(308.992188 0)"/>
      <use xlink:href="#DejaVuSans-64" transform="translate(372.371094 0)"/>
      <use xlink:href="#DejaVuSans-65" transform="translate(435.847656 0)"/>
      <use xlink:href="#DejaVuSans-20" transform="translate(497.371094 0)"/>
      <use xlink:href="#DejaVuSans-76" transform="translate(529.158203 0)"/>
      <use xlink:href="#DejaVuSans-61" transform="translate(588.337891 0)"/>
      <use xlink:href="#DejaVuSans-6c" transform="translate(649.617188 0)"/>
      <use xlink:href="#DejaVuSans-75" transform="translate(677.400391 0)"/>
      <use xlink:href="#DejaVuSans-65" transform="translate(740.779297 0)"/>
      <use xlink:href="#DejaVuSans-20" transform="translate(802.302734 0)"/>
      <use xlink:href="#DejaVuSans-6f" transform="translate(834.089844 0)"/>
      <use xlink:href="#DejaVuSans-62" transform="translate(895.271484 0)"/>
      <use xlink:href="#DejaVuSans-6a" transform="translate(958.748047 0)"/>
      <use xlink:href="#DejaVuSans-65" transform="translate(986.53125 0)"/>
      <use xlink:href="#DejaVuSans-63" transform="translate(1048.054688 0)"/>
      <use xlink:href="#DejaVuSans-74" transform="translate(1103.035156 0)"/>
      <use xlink:href="#DejaVuSans-20" transform="translate(1142.244141 0)"/>
      <use xlink:href="#DejaVuSans-5b" transform="translate(1174.03125 0)"/>
      <use xlink:href="#DejaVuSans-64" transform="translate(1213.044922 0)"/>
      <use xlink:href="#DejaVuSans-65" transform="translate(1276.521484 0)"/>
      <use xlink:href="#DejaVuSans-67" transform="translate(1338.044922 0)"/>
      <use xlink:href="#DejaVuSans-5d" transform="translate(1401.521484 0)"/>
     </g>
    </g>
   </g>
   <g id="matplotlib.axis_4">
    <g id="text_17">
     <!-- Collisions [s⁻¹] -->
     <g transform="translate(14.798438 214.843594) rotate(-90) scale(0.1 -0.1)">
      <use xlink:href="#DejaVuSans-43"/>
      <use xlink:href="#DejaVuSans-6f" transform="translate(69.824219 0)"/>
      <use xlink:href="#DejaVuSans-6c" transform="translate(131.005859 0)"/>
      <use xlink:href="#DejaVuSans-6c" transform="translate(158.789062 0)"/>
      <use xlink:href="#DejaVuSans-69" transform="translate(186.572266 0)"/>
      <use xlink:href="#DejaVuSans-73" transform="translate(214.355469 0)"/>
      <use xlink:href="#DejaVuSans-69" transform="translate(266.455078 0)"/>
      <use xlink:href="#DejaVuSans-6f" transform="translate(294.238281 0)"/>
      <use xlink:href="#DejaVuSans-6e" transform="translate(355.419922 0)"/>
      <use xlink:href="#DejaVuSans-73" transform="translate(418.798828 0)"/>
      <use xlink:href="#DejaVuSans-20" transform="translate(470.898438 0)"/>
      <use xlink:href="#DejaVuSans-5b" transform="translate(502.685547 0)"/>
      <use xlink:href="#DejaVuSans-73" transform="translate(541.699219 0)"/>
      <use xlink:href="#DejaVuSans-207b" transform="translate(593.798828 0)"/>
      <use xlink:href="#DejaVuSans-b9" transform="translate(646.582031 0)"/>
      <use xlink:href="#DejaVuSans-5d" transform="translate(686.669922 0)"/>
     </g>
    </g>
   </g>
   <g id="line2d_17">
    <path d="M 36.096307 224.378182 
L 39.170687 224.378182 
L 42.245067 133.236013 
L 45.319447 133.236013 
L 48.393827 133.236013 
L 51.468208 133.236013 
L 54.542588 133.236013 
L 57.616968 133.236013 
L 60.691348 133.236013 
L 63.765728 133.236013 
L 66.840108 133.236013 
L 69.914489 133.236013 
L 72.988869 133.236013 
L 76.063249 133.236013 
L 79.137629 133.236013 
L 82.212009 133.236013 
L 85.286389 133.236013 
L 88.36077 133.236013 
L 91.43515 133.236013 
L 94.50953 133.236013 
L 97.58391 133.236013 
L 100.65829 133.236013 
L 103.73267 133.236013 
L 106.807051 133.236013 
L 109.881431 133.236013 
L 112.955811 133.236013 
L 116.030191 133.236013 
L 119.104571 133.236013 
L 122.178951 133.236013 
L 125.253332 133.236013 
L 128.327712 133.236013 
L 131.402092 133.236013 
L 134.476472 133.236013 
L 137.550852 133.236013 
L 140.625232 133.236013 
L 143.699613 133.236013 
L 146.773993 133.236013 
L 149.848373 133.236013 
L 152.922753 133.236013 
L 155.997133 133.236013 
L 159.071513 133.236013 
L 162.145894 133.236013 
L 165.220274 133.236013 
L 168.294654 133.236013 
L 171.369034 133.236013 
L 174.443414 133.236013 
L 177.517794 133.236013 
L 180.592175 133.236013 
L 183.666555 133.236013 
L 186.740935 133.236013 
L 189.815315 133.236013 
L 192.889695 133.236013 
L 195.964075 133.236013 
L 199.038456 133.236013 
L 202.112836 133.236013 
L 205.187216 133.236013 
L 208.261596 133.236013 
L 211.335976 133.236013 
L 214.410356 133.236013 
L 217.484737 133.236013 
L 220.559117 133.236013 
L 223.633497 133.236013 
L 226.707877 133.236013 
L 229.782257 133.236013 
L 232.856637 133.236013 
L 235.931018 133.236013 
L 239.005398 133.236013 
L 242.079778 133.236013 
L 245.154158 133.236013 
L 248.228538 133.236013 
L 251.302918 133.236013 
L 254.377299 133.236013 
L 257.451679 133.236013 
L 260.526059 133.236013 
L 263.600439 133.236013 
L 266.674819 133.236013 
L 269.749199 133.236013 
L 272.82358 133.236013 
L 275.89796 133.236013 
L 278.97234 133.236013 
L 282.04672 133.236013 
L 285.1211 133.236013 
L 288.19548 133.236013 
L 291.269861 133.236013 
L 294.344241 133.236013 
L 297.418621 133.236013 
L 300.493001 133.236013 
L 303.567381 133.236013 
L 306.641761 133.236013 
L 309.716142 133.236013 
L 312.790522 133.236013 
L 315.864902 133.236013 
L 318.939282 133.236013 
L 322.013662 133.236013 
L 325.088042 133.236013 
L 328.162423 133.236013 
L 331.236803 133.236013 
L 334.311183 133.236013 
L 337.385563 133.236013 
L 340.459943 133.236013 
" clip-path="url(#pcc940bbd34)" style="fill: none; stroke: #0000ff; stroke-opacity: 0.8; stroke-width: 1.5; stroke-linecap: square"/>
   </g>
   <g id="line2d_18">
    <path d="M 36.096307 224.378182 
L 39.170687 224.378182 
L 42.245067 132.741818 
L 45.319447 132.741818 
L 48.393827 132.741818 
L 51.468208 132.741818 
L 54.542588 132.741818 
L 57.616968 132.741818 
L 60.691348 132.741818 
L 63.765728 132.741818 
L 66.840108 132.741818 
L 69.914489 132.741818 
L 72.988869 132.741818 
L 76.063249 132.741818 
L 79.137629 132.741818 
L 82.212009 132.741818 
L 85.286389 132.741818 
L 88.36077 132.741818 
L 91.43515 132.741818 
L 94.50953 132.741818 
L 97.58391 132.741818 
L 100.65829 132.741818 
L 103.73267 132.741818 
L 106.807051 132.741818 
L 109.881431 132.741818 
L 112.955811 132.741818 
L 116.030191 132.741818 
L 119.104571 132.741818 
L 122.178951 132.741818 
L 125.253332 132.741818 
L 128.327712 132.741818 
L 131.402092 132.741818 
L 134.476472 132.741818 
L 137.550852 132.741818 
L 140.625232 132.741818 
L 143.699613 132.741818 
L 146.773993 132.741818 
L 149.848373 132.741818 
L 152.922753 132.741818 
L 155.997133 132.741818 
L 159.071513 132.741818 
L 162.145894 132.741818 
L 165.220274 132.741818 
L 168.294654 132.741818 
L 171.369034 132.741818 
L 174.443414 132.741818 
L 177.517794 132.741818 
L 180.592175 132.741818 
L 183.666555 132.741818 
L 186.740935 132.741818 
L 189.815315 132.741818 
L 192.889695 132.741818 
L 195.964075 132.741818 
L 199.038456 132.741818 
L 202.112836 132.741818 
L 205.187216 132.741818 
L 208.261596 132.741818 
L 211.335976 132.741818 
L 214.410356 132.741818 
L 217.484737 132.741818 
L 220.559117 132.741818 
L 223.633497 132.741818 
L 226.707877 132.741818 
L 229.782257 132.741818 
L 232.856637 132.741818 
L 235.931018 132.741818 
L 239.005398 132.741818 
L 242.079778 132.741818 
L 245.154158 132.741818 
L 248.228538 132.741818 
L 251.302918 132.741818 
L 254.377299 132.741818 
L 257.451679 132.741818 
L 260.526059 132.741818 
L 263.600439 132.741818 
L 266.674819 132.741818 
L 269.749199 132.741818 
L 272.82358 132.741818 
L 275.89796 132.741818 
L 278.97234 132.741818 
L 282.04672 132.741818 
L 285.1211 132.741818 
L 288.19548 132.741818 
L 291.269861 132.741818 
L 294.344241 132.741818 
L 297.418621 132.741818 
L 300.493001 132.741818 
L 303.567381 132.741818 
L 306.641761 132.741818 
L 309.716142 132.741818 
L 312.790522 132.741818 
L 315.864902 132.741818 
L 318.939282 132.741818 
L 322.013662 132.741818 
L 325.088042 132.741818 
L 328.162423 132.741818 
L 331.236803 132.741818 
L 334.311183 132.741818 
L 337.385563 132.741818 
L 340.459943 132.741818 
" clip-path="url(#pcc940bbd34)" style="fill: none; stroke-dasharray: 5.55,2.4; stroke-dashoffset: 0; stroke: #ffa500; stroke-opacity: 0.8; stroke-width: 1.5"/>
   </g>
   <g id="patch_9">
    <path d="M 20.878125 228.96 
L 20.878125 128.16 
" style="fill: none; stroke: #000000; stroke-width: 0.8; stroke-linejoin: miter; stroke-linecap: square"/>
   </g>
   <g id="patch_10">
    <path d="M 355.678125 228.96 
L 355.678125 128.16 
" style="fill: none; stroke: #000000; stroke-width: 0.8; stroke-linejoin: miter; stroke-linecap: square"/>
   </g>
   <g id="patch_11">
    <path d="M 20.878125 228.96 
L 355.678125 228.96 
" style="fill: none; stroke: #000000; stroke-width: 0.8; stroke-linejoin: miter; stroke-linecap: square"/>
   </g>
   <g id="patch_12">
    <path d="M 20.878125 128.16 
L 355.678125 128.16 
" style="fill: none; stroke: #000000; stroke-width: 0.8; stroke-linejoin: miter; stroke-linecap: square"/>
   </g>
   <g id="legend_2">
    <g id="patch_13">
     <path d="M 262.429688 223.96 
L 348.678125 223.96 
Q 350.678125 223.96 350.678125 221.96 
L 350.678125 193.60375 
Q 350.678125 191.60375 348.678125 191.60375 
L 262.429688 191.60375 
Q 260.429688 191.60375 260.429688 193.60375 
L 260.429688 221.96 
Q 260.429688 223.96 262.429688 223.96 
z
" style="fill: #ffffff; opacity: 0.8; stroke: #cccccc; stroke-linejoin: miter"/>
    </g>
    <g id="line2d_19">
     <path d="M 264.429688 199.702187 
L 274.429688 199.702187 
L 284.429688 199.702187 
" style="fill: none; stroke: #0000ff; stroke-opacity: 0.8; stroke-width: 1.5; stroke-linecap: square"/>
    </g>
    <g id="text_18">
     <!-- samsonCLI -->
     <g transform="translate(292.429688 203.202187) scale(0.1 -0.1)">
      <use xlink:href="#DejaVuSans-73"/>
      <use xlink:href="#DejaVuSans-61" transform="translate(52.099609 0)"/>
      <use xlink:href="#DejaVuSans-6d" transform="translate(113.378906 0)"/>
      <use xlink:href="#DejaVuSans-73" transform="translate(210.791016 0)"/>
      <use xlink:href="#DejaVuSans-6f" transform="translate(262.890625 0)"/>
      <use xlink:href="#DejaVuSans-6e" transform="translate(324.072266 0)"/>
      <use xlink:href="#DejaVuSans-43" transform="translate(387.451172 0)"/>
      <use xlink:href="#DejaVuSans-4c" transform="translate(457.275391 0)"/>
      <use xlink:href="#DejaVuSans-49" transform="translate(512.988281 0)"/>
     </g>
    </g>
    <g id="line2d_20">
     <path d="M 264.429688 214.380312 
L 274.429688 214.380312 
L 284.429688 214.380312 
" style="fill: none; stroke-dasharray: 5.55,2.4; stroke-dashoffset: 0; stroke: #ffa500; stroke-opacity: 0.8; stroke-width: 1.5"/>
    </g>
    <g id="text_19">
     <!-- Test script -->
     <g transform="translate(292.429688 217.880312) scale(0.1 -0.1)">
      <use xlink:href="#DejaVuSans-54"/>
      <use xlink:href="#DejaVuSans-65" transform="translate(44.083984 0)"/>
      <use xlink:href="#DejaVuSans-73" transform="translate(105.607422 0)"/>
      <use xlink:href="#DejaVuSans-74" transform="translate(157.707031 0)"/>
      <use xlink:href="#DejaVuSans-20" transform="translate(196.916016 0)"/>
      <use xlink:href="#DejaVuSans-73" transform="translate(228.703125 0)"/>
      <use xlink:href="#DejaVuSans-63" transform="translate(280.802734 0)"/>
      <use xlink:href="#DejaVuSans-72" transform="translate(335.783203 0)"/>
      <use xlink:href="#DejaVuSans-69" transform="translate(376.896484 0)"/>
      <use xlink:href="#DejaVuSans-70" transform="translate(404.679688 0)"/>
      <use xlink:href="#DejaVuSans-74" transform="translate(468.15625 0)"/>
     </g>
    </g>
   </g>
  </g>
 </g>
 <defs>
  <clipPath id="pc5f6cab5ef">
   <rect x="20.878125" y="7.2" width="334.8" height="100.8"/>
  </clipPath>
  <clipPath id="pcc940bbd34">
   <rect x="20.878125" y="128.16" width="334.8" height="100.8"/>
  </clipPath>
 </defs>
</svg>
