<?xml version="1.0" encoding="utf-8" standalone="no"?>
<!DOCTYPE svg PUBLIC "-//W3C//DTD SVG 1.1//EN"
  "http://www.w3.org/Graphics/SVG/1.1/DTD/svg11.dtd">
<svg xmlns:xlink="http://www.w3.org/1999/xlink" width="1382.4pt" height="788.4pt" viewBox="0 0 1382.4 788.4" xmlns="http://www.w3.org/2000/svg" version="1.1">
 <metadata>
  <rdf:RDF xmlns:dc="http://purl.org/dc/elements/1.1/" xmlns:cc="http://creativecommons.org/ns#" xmlns:rdf="http://www.w3.org/1999/02/22-rdf-syntax-ns#">
   <cc:Work>
    <dc:type rdf:resource="http://purl.org/dc/dcmitype/StillImage"/>
    <dc:date>2025-10-06T17:07:09.210960</dc:date>
    <dc:format>image/svg+xml</dc:format>
    <dc:creator>
     <cc:Agent>
      <dc:title>Matplotlib v3.10.0, https://matplotlib.org/</dc:title>
     </cc:Agent>
    </dc:creator>
   </cc:Work>
  </rdf:RDF>
 </metadata>
 <defs>
  <style type="text/css">*{stroke-linejoin: round; stroke-linecap: butt}</style>
 </defs>
 <g id="figure_1">
  <g id="patch_1">
   <path d="M 0 788.4 
L 1382.4 788.4 
L 1382.4 0 
L 0 0 
z
" style="fill: #ffffff"/>
  </g>
  <g id="axes_1">
   <g id="patch_2">
    <path d="M 172.8 514.594174 
L 405.704348 514.594174 
L 405.704348 281.689826 
L 172.8 281.689826 
z
" style="fill: #ffffff"/>
   </g>
   <g id="patch_3">
    <path d="M 219.38087 390.463356 
L 383.975047 390.463356 
L 383.975047 345.308864 
L 219.38087 345.308864 
z
" clip-path="url(#pc0dbead0c1)" style="opacity: 0.1"/>
   </g>
   <g id="line2d_1">
    <path d="M 349.455477 345.308864 
L 383.975047 362.156651 
L 382.73083 390.463356 
L 352.629206 386.457409 
L 349.455477 345.308864 
" clip-path="url(#pc0dbead0c1)" style="fill: none; stroke: #0000ff; stroke-width: 1.5; stroke-linecap: square"/>
   </g>
   <g id="line2d_2">
    <path d="M 219.38087 374.851565 
L 292.287254 390.320542 
" clip-path="url(#pc0dbead0c1)" style="fill: none; stroke: #000000; stroke-width: 1.5; stroke-linecap: square"/>
   </g>
   <g id="patch_4">
    <path d="M 172.8 514.594174 
L 172.8 281.689826 
" style="fill: none; stroke: #000000; stroke-width: 0.8; stroke-linejoin: miter; stroke-linecap: square"/>
   </g>
   <g id="patch_5">
    <path d="M 405.704348 514.594174 
L 405.704348 281.689826 
" style="fill: none; stroke: #000000; stroke-width: 0.8; stroke-linejoin: miter; stroke-linecap: square"/>
   </g>
   <g id="patch_6">
    <path d="M 172.8 514.594174 
L 405.704348 514.594174 
" style="fill: none; stroke: #000000; stroke-width: 0.8; stroke-linejoin: miter; stroke-linecap: square"/>
   </g>
   <g id="patch_7">
    <path d="M 172.8 281.689826 
L 405.704348 281.689826 
" style="fill: none; stroke: #000000; stroke-width: 0.8; stroke-linejoin: miter; stroke-linecap: square"/>
   </g>
   <g id="text_1">
    <!-- Bin, k=0 -->
    <g transform="translate(263.532799 275.689826) scale(0.12 -0.12)">
     <defs>
      <path id="DejaVuSans-42" d="M 1259 2228 
L 1259 519 
L 2272 519 
Q 2781 519 3026 730 
Q 3272 941 3272 1375 
Q 3272 1813 3026 2020 
Q 2781 2228 2272 2228 
L 1259 2228 
z
M 1259 4147 
L 1259 2741 
L 2194 2741 
Q 2656 2741 2882 2914 
Q 3109 3088 3109 3444 
Q 3109 3797 2882 3972 
Q 2656 4147 2194 4147 
L 1259 4147 
z
M 628 4666 
L 2241 4666 
Q 2963 4666 3353 4366 
Q 3744 4066 3744 3513 
Q 3744 3084 3544 2831 
Q 3344 2578 2956 2516 
Q 3422 2416 3680 2098 
Q 3938 1781 3938 1306 
Q 3938 681 3513 340 
Q 3088 0 2303 0 
L 628 0 
L 628 4666 
z
" transform="scale(0.015625)"/>
      <path id="DejaVuSans-69" d="M 603 3500 
L 1178 3500 
L 1178 0 
L 603 0 
L 603 3500 
z
M 603 4863 
L 1178 4863 
L 1178 4134 
L 603 4134 
L 603 4863 
z
" transform="scale(0.015625)"/>
      <path id="DejaVuSans-6e" d="M 3513 2113 
L 3513 0 
L 2938 0 
L 2938 2094 
Q 2938 2591 2744 2837 
Q 2550 3084 2163 3084 
Q 1697 3084 1428 2787 
Q 1159 2491 1159 1978 
L 1159 0 
L 581 0 
L 581 3500 
L 1159 3500 
L 1159 2956 
Q 1366 3272 1645 3428 
Q 1925 3584 2291 3584 
Q 2894 3584 3203 3211 
Q 3513 2838 3513 2113 
z
" transform="scale(0.015625)"/>
      <path id="DejaVuSans-2c" d="M 750 794 
L 1409 794 
L 1409 256 
L 897 -744 
L 494 -744 
L 750 256 
L 750 794 
z
" transform="scale(0.015625)"/>
      <path id="DejaVuSans-20" transform="scale(0.015625)"/>
      <path id="DejaVuSans-6b" d="M 581 4863 
L 1159 4863 
L 1159 1991 
L 2875 3500 
L 3609 3500 
L 1753 1863 
L 3688 0 
L 2938 0 
L 1159 1709 
L 1159 0 
L 581 0 
L 581 4863 
z
" transform="scale(0.015625)"/>
      <path id="DejaVuSans-3d" d="M 678 2906 
L 4684 2906 
L 4684 2381 
L 678 2381 
L 678 2906 
z
M 678 1631 
L 4684 1631 
L 4684 1100 
L 678 1100 
L 678 1631 
z
" transform="scale(0.015625)"/>
      <path id="DejaVuSans-30" d="M 2034 4250 
Q 1547 4250 1301 3770 
Q 1056 3291 1056 2328 
Q 1056 1369 1301 889 
Q 1547 409 2034 409 
Q 2525 409 2770 889 
Q 3016 1369 3016 2328 
Q 3016 3291 2770 3770 
Q 2525 4250 2034 4250 
z
M 2034 4750 
Q 2819 4750 3233 4129 
Q 3647 3509 3647 2328 
Q 3647 1150 3233 529 
Q 2819 -91 2034 -91 
Q 1250 -91 836 529 
Q 422 1150 422 2328 
Q 422 3509 836 4129 
Q 1250 4750 2034 4750 
z
" transform="scale(0.015625)"/>
     </defs>
     <use xlink:href="#DejaVuSans-42"/>
     <use xlink:href="#DejaVuSans-69" transform="translate(68.603516 0)"/>
     <use xlink:href="#DejaVuSans-6e" transform="translate(96.386719 0)"/>
     <use xlink:href="#DejaVuSans-2c" transform="translate(159.765625 0)"/>
     <use xlink:href="#DejaVuSans-20" transform="translate(191.552734 0)"/>
     <use xlink:href="#DejaVuSans-6b" transform="translate(223.339844 0)"/>
     <use xlink:href="#DejaVuSans-3d" transform="translate(281.25 0)"/>
     <use xlink:href="#DejaVuSans-30" transform="translate(365.039062 0)"/>
    </g>
   </g>
  </g>
  <g id="axes_2">
   <g id="patch_8">
    <path d="M 452.285217 514.594174 
L 685.189565 514.594174 
L 685.189565 281.689826 
L 452.285217 281.689826 
z
" style="fill: #ffffff"/>
   </g>
   <g id="patch_9">
    <path d="M 498.866087 421.121699 
L 662.88524 421.121699 
L 662.88524 370.481778 
L 498.866087 370.481778 
z
" clip-path="url(#p34ed43d0ed)" style="opacity: 0.1"/>
   </g>
   <g id="line2d_3">
    <path d="M 632.181801 370.481778 
L 662.88524 393.563101 
L 656.301827 421.121699 
L 627.503917 411.486567 
L 632.181801 370.481778 
" clip-path="url(#p34ed43d0ed)" style="fill: none; stroke: #0000ff; stroke-width: 1.5; stroke-linecap: square"/>
   </g>
   <g id="line2d_4">
    <path d="M 498.866087 374.851565 
L 567.522595 403.850085 
" clip-path="url(#p34ed43d0ed)" style="fill: none; stroke: #000000; stroke-width: 1.5; stroke-linecap: square"/>
   </g>
   <g id="patch_10">
    <path d="M 452.285217 514.594174 
L 452.285217 281.689826 
" style="fill: none; stroke: #000000; stroke-width: 0.8; stroke-linejoin: miter; stroke-linecap: square"/>
   </g>
   <g id="patch_11">
    <path d="M 685.189565 514.594174 
L 685.189565 281.689826 
" style="fill: none; stroke: #000000; stroke-width: 0.8; stroke-linejoin: miter; stroke-linecap: square"/>
   </g>
   <g id="patch_12">
    <path d="M 452.285217 514.594174 
L 685.189565 514.594174 
" style="fill: none; stroke: #000000; stroke-width: 0.8; stroke-linejoin: miter; stroke-linecap: square"/>
   </g>
   <g id="patch_13">
    <path d="M 452.285217 281.689826 
L 685.189565 281.689826 
" style="fill: none; stroke: #000000; stroke-width: 0.8; stroke-linejoin: miter; stroke-linecap: square"/>
   </g>
   <g id="text_2">
    <!-- Bin, k=1 -->
    <g transform="translate(543.018016 275.689826) scale(0.12 -0.12)">
     <defs>
      <path id="DejaVuSans-31" d="M 794 531 
L 1825 531 
L 1825 4091 
L 703 3866 
L 703 4441 
L 1819 4666 
L 2450 4666 
L 2450 531 
L 3481 531 
L 3481 0 
L 794 0 
L 794 531 
z
" transform="scale(0.015625)"/>
     </defs>
     <use xlink:href="#DejaVuSans-42"/>
     <use xlink:href="#DejaVuSans-69" transform="translate(68.603516 0)"/>
     <use xlink:href="#DejaVuSans-6e" transform="translate(96.386719 0)"/>
     <use xlink:href="#DejaVuSans-2c" transform="translate(159.765625 0)"/>
     <use xlink:href="#DejaVuSans-20" transform="translate(191.552734 0)"/>
     <use xlink:href="#DejaVuSans-6b" transform="translate(223.339844 0)"/>
     <use xlink:href="#DejaVuSans-3d" transform="translate(281.25 0)"/>
     <use xlink:href="#DejaVuSans-31" transform="translate(365.039062 0)"/>
    </g>
   </g>
  </g>
  <g id="axes_3">
   <g id="patch_14">
    <path d="M 731.770435 514.594174 
L 964.674783 514.594174 
L 964.674783 281.689826 
L 731.770435 281.689826 
z
" style="fill: #ffffff"/>
   </g>
   <g id="patch_15">
    <path d="M 778.351304 450.104794 
L 935.856984 450.104794 
L 935.856984 395.812904 
L 778.351304 395.812904 
z
" clip-path="url(#pfbf91e29f4)" style="opacity: 0.1"/>
   </g>
   <g id="line2d_5">
    <path d="M 910.08132 395.812904 
L 935.856984 424.292086 
L 924.172733 450.104794 
L 897.72119 435.189324 
L 910.08132 395.812904 
" clip-path="url(#pfbf91e29f4)" style="fill: none; stroke: #0000ff; stroke-width: 1.5; stroke-linecap: square"/>
   </g>
   <g id="line2d_6">
    <path d="M 778.351304 374.851565 
L 840.272169 416.329712 
" clip-path="url(#pfbf91e29f4)" style="fill: none; stroke: #000000; stroke-width: 1.5; stroke-linecap: square"/>
   </g>
   <g id="patch_16">
    <path d="M 731.770435 514.594174 
L 731.770435 281.689826 
" style="fill: none; stroke: #000000; stroke-width: 0.8; stroke-linejoin: miter; stroke-linecap: square"/>
   </g>
   <g id="patch_17">
    <path d="M 964.674783 514.594174 
L 964.674783 281.689826 
" style="fill: none; stroke: #000000; stroke-width: 0.8; stroke-linejoin: miter; stroke-linecap: square"/>
   </g>
   <g id="patch_18">
    <path d="M 731.770435 514.594174 
L 964.674783 514.594174 
" style="fill: none; stroke: #000000; stroke-width: 0.8; stroke-linejoin: miter; stroke-linecap: square"/>
   </g>
   <g id="patch_19">
    <path d="M 731.770435 281.689826 
L 964.674783 281.689826 
" style="fill: none; stroke: #000000; stroke-width: 0.8; stroke-linejoin: miter; stroke-linecap: square"/>
   </g>
   <g id="text_3">
    <!-- Bin, k=2 -->
    <g transform="translate(822.503234 275.689826) scale(0.12 -0.12)">
     <defs>
      <path id="DejaVuSans-32" d="M 1228 531 
L 3431 531 
L 3431 0 
L 469 0 
L 469 531 
Q 828 903 1448 1529 
Q 2069 2156 2228 2338 
Q 2531 2678 2651 2914 
Q 2772 3150 2772 3378 
Q 2772 3750 2511 3984 
Q 2250 4219 1831 4219 
Q 1534 4219 1204 4116 
Q 875 4013 500 3803 
L 500 4441 
Q 881 4594 1212 4672 
Q 1544 4750 1819 4750 
Q 2544 4750 2975 4387 
Q 3406 4025 3406 3419 
Q 3406 3131 3298 2873 
Q 3191 2616 2906 2266 
Q 2828 2175 2409 1742 
Q 1991 1309 1228 531 
z
" transform="scale(0.015625)"/>
     </defs>
     <use xlink:href="#DejaVuSans-42"/>
     <use xlink:href="#DejaVuSans-69" transform="translate(68.603516 0)"/>
     <use xlink:href="#DejaVuSans-6e" transform="translate(96.386719 0)"/>
     <use xlink:href="#DejaVuSans-2c" transform="translate(159.765625 0)"/>
     <use xlink:href="#DejaVuSans-20" transform="translate(191.552734 0)"/>
     <use xlink:href="#DejaVuSans-6b" transform="translate(223.339844 0)"/>
     <use xlink:href="#DejaVuSans-3d" transform="translate(281.25 0)"/>
     <use xlink:href="#DejaVuSans-32" transform="translate(365.039062 0)"/>
    </g>
   </g>
  </g>
  <g id="axes_4">
   <g id="patch_20">
    <path d="M 1011.255652 514.594174 
L 1244.16 514.594174 
L 1244.16 281.689826 
L 1011.255652 281.689826 
z
" style="fill: #ffffff"/>
   </g>
   <g id="patch_21">
    <path d="M 1057.836522 476.363284 
L 1203.126105 476.363284 
L 1203.126105 420.385108 
L 1057.836522 420.385108 
z
" clip-path="url(#pff203ce423)" style="opacity: 0.1"/>
   </g>
   <g id="line2d_7">
    <path d="M 1183.211445 420.385108 
L 1203.126105 453.231035 
L 1186.764054 476.363284 
L 1163.616577 456.707504 
L 1183.211445 420.385108 
" clip-path="url(#pff203ce423)" style="fill: none; stroke: #0000ff; stroke-width: 1.5; stroke-linecap: square"/>
   </g>
   <g id="line2d_8">
    <path d="M 1057.836522 374.851565 
L 1110.779848 427.307588 
" clip-path="url(#pff203ce423)" style="fill: none; stroke: #000000; stroke-width: 1.5; stroke-linecap: square"/>
   </g>
   <g id="patch_22">
    <path d="M 1011.255652 514.594174 
L 1011.255652 281.689826 
" style="fill: none; stroke: #000000; stroke-width: 0.8; stroke-linejoin: miter; stroke-linecap: square"/>
   </g>
   <g id="patch_23">
    <path d="M 1244.16 514.594174 
L 1244.16 281.689826 
" style="fill: none; stroke: #000000; stroke-width: 0.8; stroke-linejoin: miter; stroke-linecap: square"/>
   </g>
   <g id="patch_24">
    <path d="M 1011.255652 514.594174 
L 1244.16 514.594174 
" style="fill: none; stroke: #000000; stroke-width: 0.8; stroke-linejoin: miter; stroke-linecap: square"/>
   </g>
   <g id="patch_25">
    <path d="M 1011.255652 281.689826 
L 1244.16 281.689826 
" style="fill: none; stroke: #000000; stroke-width: 0.8; stroke-linejoin: miter; stroke-linecap: square"/>
   </g>
   <g id="text_4">
    <!-- Bin, k=3 -->
    <g transform="translate(1101.988451 275.689826) scale(0.12 -0.12)">
     <defs>
      <path id="DejaVuSans-33" d="M 2597 2516 
Q 3050 2419 3304 2112 
Q 3559 1806 3559 1356 
Q 3559 666 3084 287 
Q 2609 -91 1734 -91 
Q 1441 -91 1130 -33 
Q 819 25 488 141 
L 488 750 
Q 750 597 1062 519 
Q 1375 441 1716 441 
Q 2309 441 2620 675 
Q 2931 909 2931 1356 
Q 2931 1769 2642 2001 
Q 2353 2234 1838 2234 
L 1294 2234 
L 1294 2753 
L 1863 2753 
Q 2328 2753 2575 2939 
Q 2822 3125 2822 3475 
Q 2822 3834 2567 4026 
Q 2313 4219 1838 4219 
Q 1578 4219 1281 4162 
Q 984 4106 628 3988 
L 628 4550 
Q 988 4650 1302 4700 
Q 1616 4750 1894 4750 
Q 2613 4750 3031 4423 
Q 3450 4097 3450 3541 
Q 3450 3153 3228 2886 
Q 3006 2619 2597 2516 
z
" transform="scale(0.015625)"/>
     </defs>
     <use xlink:href="#DejaVuSans-42"/>
     <use xlink:href="#DejaVuSans-69" transform="translate(68.603516 0)"/>
     <use xlink:href="#DejaVuSans-6e" transform="translate(96.386719 0)"/>
     <use xlink:href="#DejaVuSans-2c" transform="translate(159.765625 0)"/>
     <use xlink:href="#DejaVuSans-20" transform="translate(191.552734 0)"/>
     <use xlink:href="#DejaVuSans-6b" transform="translate(223.339844 0)"/>
     <use xlink:href="#DejaVuSans-3d" transform="translate(281.25 0)"/>
     <use xlink:href="#DejaVuSans-33" transform="translate(365.039062 0)"/>
    </g>
   </g>
  </g>
 </g>
 <defs>
  <clipPath id="pc0dbead0c1">
   <rect x="172.8" y="281.689826" width="232.904348" height="232.904348"/>
  </clipPath>
  <clipPath id="p34ed43d0ed">
   <rect x="452.285217" y="281.689826" width="232.904348" height="232.904348"/>
  </clipPath>
  <clipPath id="pfbf91e29f4">
   <rect x="731.770435" y="281.689826" width="232.904348" height="232.904348"/>
  </clipPath>
  <clipPath id="pff203ce423">
   <rect x="1011.255652" y="281.689826" width="232.904348" height="232.904348"/>
  </clipPath>
 </defs>
</svg>
