<?xml version="1.0" encoding="utf-8" standalone="no"?>
<!DOCTYPE svg PUBLIC "-//W3C//DTD SVG 1.1//EN"
  "http://www.w3.org/Graphics/SVG/1.1/DTD/svg11.dtd">
<svg xmlns:xlink="http://www.w3.org/1999/xlink" width="542.16pt" height="424.8pt" viewBox="0 0 542.16 424.8" xmlns="http://www.w3.org/2000/svg" version="1.1">
 <metadata>
  <rdf:RDF xmlns:dc="http://purl.org/dc/elements/1.1/" xmlns:cc="http://creativecommons.org/ns#" xmlns:rdf="http://www.w3.org/1999/02/22-rdf-syntax-ns#">
   <cc:Work>
    <dc:type rdf:resource="http://purl.org/dc/dcmitype/StillImage"/>
    <dc:date>2025-09-12T15:12:03.752853</dc:date>
    <dc:format>image/svg+xml</dc:format>
    <dc:creator>
     <cc:Agent>
      <dc:title>Matplotlib v3.10.0, https://matplotlib.org/</dc:title>
     </cc:Agent>
    </dc:creator>
   </cc:Work>
  </rdf:RDF>
 </metadata>
 <defs>
  <style type="text/css">*{stroke-linejoin: round; stroke-linecap: butt}</style>
 </defs>
 <g id="figure_1">
  <g id="patch_1">
   <path d="M 0 424.8 
L 542.16 424.8 
L 542.16 0 
L 0 0 
z
" style="fill: #ffffff"/>
  </g>
  <g id="axes_1">
   <g id="patch_2">
    <path d="M 67.77 378.072 
L 487.944 378.072 
L 487.944 50.976 
L 67.77 50.976 
z
" style="fill: #ffffff"/>
   </g>
   <g id="patch_3">
    <path d="M 277.937382 365.232511 
L 279.800142 350.557491 
L 283.668822 352.283906 
L 390.836072 110.175658 
L 390.83633 110.175773 
L 283.66908 352.284021 
L 287.53776 354.010437 
z
" clip-path="url(#pf404365378)" style="stroke: #000000; stroke-linejoin: miter"/>
   </g>
   <g id="patch_4">
    <path d="M 374.726992 156.535941 
L 438.886844 101.054982 
L 406.94541 63.815489 
L 342.785558 119.296449 
z
" clip-path="url(#pf404365378)" style="fill: #ff0000; opacity: 0.1"/>
   </g>
   <g id="patch_5">
    <path d="M 390.836201 134.748879 
C 397.326649 134.748879 403.552139 132.159695 408.141579 127.551566 
C 412.731019 122.943436 415.309701 116.692594 415.309701 110.175715 
C 415.309701 103.658836 412.731019 97.407994 408.141579 92.799865 
C 403.552139 88.191735 397.326649 85.602552 390.836201 85.602552 
C 384.345753 85.602552 378.120263 88.191735 373.530823 92.799865 
C 368.941383 97.407994 366.362701 103.658836 366.362701 110.175715 
C 366.362701 116.692594 368.941383 122.943436 373.530823 127.551566 
C 378.120263 132.159695 384.345753 134.748879 390.836201 134.748879 
z
" clip-path="url(#pf404365378)" style="fill: #ff0000; opacity: 0.2; stroke: #ff0000; stroke-linejoin: miter"/>
   </g>
   <g id="patch_6">
    <path d="M 401.582893 68.452619 
L 367.193478 146.143901 
L 380.089509 151.898811 
L 414.478924 74.207529 
z
" clip-path="url(#pf404365378)"/>
   </g>
   <g id="patch_7">
    <path d="M 404.162099 69.603601 
L 398.143952 76.221748 
L 374.071361 130.605645 
L 373.211626 139.525755 
L 373.641494 149.021356 
L 380.949244 142.978701 
L 386.967392 136.360555 
L 411.039982 81.976657 
L 411.899718 73.056547 
z
" clip-path="url(#pf404365378)" style="fill: #008000"/>
   </g>
   <g id="patch_8">
    <path d="M 361.032041 177.508159 
L 362.894801 162.83314 
L 366.763482 164.559555 
L 390.836072 110.175658 
L 390.83633 110.175773 
L 366.76374 164.55967 
L 370.63242 166.286085 
z
" clip-path="url(#pf404365378)" style="fill: #0000ff; stroke: #0000ff; stroke-width: 3; stroke-linejoin: miter"/>
   </g>
   <g id="patch_9">
    <path d="M 277.937382 365.232511 
L 264.96476 358.218807 
L 267.958342 355.213034 
L 136.813758 223.534391 
L 136.813958 223.534191 
L 267.958542 355.212833 
L 270.952124 352.20706 
z
" clip-path="url(#pf404365378)" style="stroke: #000000; stroke-linejoin: miter"/>
   </g>
   <g id="patch_10">
    <path d="M 135.413942 243.615986 
L 156.800559 225.122333 
L 138.213774 203.452596 
L 116.827156 221.946249 
z
" clip-path="url(#pf404365378)" style="fill: #ff0000; opacity: 0.1"/>
   </g>
   <g id="patch_11">
    <path d="M 136.813858 237.833465 
C 140.590663 237.833465 144.213288 236.326814 146.883893 233.645334 
C 149.554497 230.963854 151.055038 227.326476 151.055038 223.534291 
C 151.055038 219.742106 149.554497 216.104728 146.883893 213.423248 
C 144.213288 210.741768 140.590663 209.235117 136.813858 209.235117 
C 133.037053 209.235117 129.414427 210.741768 126.743823 213.423248 
C 124.073218 216.104728 122.572678 219.742106 122.572678 223.534291 
C 122.572678 227.326476 124.073218 230.963854 126.743823 233.645334 
C 129.414427 236.326814 133.037053 237.833465 136.813858 237.833465 
z
" clip-path="url(#pf404365378)" style="fill: #ff0000; opacity: 0.2; stroke: #ff0000; stroke-linejoin: miter"/>
   </g>
   <g id="patch_12">
    <path d="M 125.238287 215.117846 
L 145.196167 235.157001 
L 148.389428 231.950736 
L 128.431548 211.911581 
z
" clip-path="url(#pf404365378)"/>
   </g>
   <g id="patch_13">
    <path d="M 125.876939 214.476593 
L 127.234075 217.121762 
L 141.204591 231.14917 
L 143.839032 232.511832 
L 146.792798 233.553868 
L 145.754988 230.588073 
L 144.397852 227.942905 
L 130.427336 213.915497 
L 127.792896 212.552834 
z
" clip-path="url(#pf404365378)" style="fill: #008000"/>
   </g>
   <g id="patch_14">
    <path d="M 164.75489 251.589107 
L 151.782268 244.575403 
L 154.77585 241.56963 
L 136.813758 223.534391 
L 136.813958 223.534191 
L 154.77605 241.56943 
L 157.769632 238.563657 
z
" clip-path="url(#pf404365378)" style="fill: #0000ff; stroke: #0000ff; stroke-width: 3; stroke-linejoin: miter"/>
   </g>
   <g id="patch_15">
    <path d="M 189.541849 177.938806 
L 181.611337 190.406689 
L 178.848632 187.18574 
L 136.81395 223.534398 
L 136.813766 223.534184 
L 178.848448 187.185525 
L 176.085743 183.964576 
z
" clip-path="url(#pf404365378)" style="fill: #0000ff; stroke: #0000ff; stroke-width: 3; stroke-linejoin: miter"/>
   </g>
   <g id="patch_16">
    <path d="M 67.77 378.072 
L 67.77 50.976 
" style="fill: none; stroke: #000000; stroke-width: 0.8; stroke-linejoin: miter; stroke-linecap: square"/>
   </g>
   <g id="patch_17">
    <path d="M 487.944 378.072 
L 487.944 50.976 
" style="fill: none; stroke: #000000; stroke-width: 0.8; stroke-linejoin: miter; stroke-linecap: square"/>
   </g>
   <g id="patch_18">
    <path d="M 67.77 378.072 
L 487.944 378.072 
" style="fill: none; stroke: #000000; stroke-width: 0.8; stroke-linejoin: miter; stroke-linecap: square"/>
   </g>
   <g id="patch_19">
    <path d="M 67.77 50.976 
L 487.944 50.976 
" style="fill: none; stroke: #000000; stroke-width: 0.8; stroke-linejoin: miter; stroke-linecap: square"/>
   </g>
   <g id="text_1">
    <!-- $ship_i$ -->
    <g transform="translate(73.308272 216.44938) scale(0.16 -0.16)">
     <defs>
      <path id="DejaVuSans-Oblique-73" d="M 3200 3397 
L 3091 2853 
Q 2863 2978 2609 3040 
Q 2356 3103 2088 3103 
Q 1634 3103 1373 2948 
Q 1113 2794 1113 2528 
Q 1113 2219 1719 2053 
Q 1766 2041 1788 2034 
L 1972 1978 
Q 2547 1819 2739 1644 
Q 2931 1469 2931 1166 
Q 2931 609 2489 259 
Q 2047 -91 1331 -91 
Q 1053 -91 747 -37 
Q 441 16 72 128 
L 184 722 
Q 500 559 806 475 
Q 1113 391 1394 391 
Q 1816 391 2080 572 
Q 2344 753 2344 1031 
Q 2344 1331 1650 1516 
L 1591 1531 
L 1394 1581 
Q 956 1697 753 1886 
Q 550 2075 550 2369 
Q 550 2928 970 3256 
Q 1391 3584 2113 3584 
Q 2397 3584 2667 3537 
Q 2938 3491 3200 3397 
z
" transform="scale(0.015625)"/>
      <path id="DejaVuSans-Oblique-68" d="M 3566 2113 
L 3156 0 
L 2578 0 
L 2988 2091 
Q 3016 2238 3031 2350 
Q 3047 2463 3047 2528 
Q 3047 2791 2881 2937 
Q 2716 3084 2419 3084 
Q 1956 3084 1617 2771 
Q 1278 2459 1178 1941 
L 800 0 
L 225 0 
L 1172 4863 
L 1747 4863 
L 1375 2950 
Q 1594 3244 1934 3414 
Q 2275 3584 2650 3584 
Q 3113 3584 3367 3334 
Q 3622 3084 3622 2631 
Q 3622 2519 3608 2391 
Q 3594 2263 3566 2113 
z
" transform="scale(0.015625)"/>
      <path id="DejaVuSans-Oblique-69" d="M 1172 4863 
L 1747 4863 
L 1606 4134 
L 1031 4134 
L 1172 4863 
z
M 909 3500 
L 1484 3500 
L 800 0 
L 225 0 
L 909 3500 
z
" transform="scale(0.015625)"/>
      <path id="DejaVuSans-Oblique-70" d="M 3175 2156 
Q 3175 2616 2975 2859 
Q 2775 3103 2400 3103 
Q 2144 3103 1911 2972 
Q 1678 2841 1497 2591 
Q 1319 2344 1212 1994 
Q 1106 1644 1106 1300 
Q 1106 863 1306 627 
Q 1506 391 1875 391 
Q 2147 391 2380 519 
Q 2613 647 2778 891 
Q 2956 1147 3065 1494 
Q 3175 1841 3175 2156 
z
M 1394 2969 
Q 1625 3272 1939 3428 
Q 2253 3584 2638 3584 
Q 3175 3584 3472 3232 
Q 3769 2881 3769 2247 
Q 3769 1728 3584 1258 
Q 3400 788 3053 416 
Q 2822 169 2531 39 
Q 2241 -91 1919 -91 
Q 1547 -91 1294 64 
Q 1041 219 916 525 
L 556 -1331 
L -19 -1331 
L 922 3500 
L 1497 3500 
L 1394 2969 
z
" transform="scale(0.015625)"/>
     </defs>
     <use xlink:href="#DejaVuSans-Oblique-73" transform="translate(0 0.015625)"/>
     <use xlink:href="#DejaVuSans-Oblique-68" transform="translate(52.099609 0.015625)"/>
     <use xlink:href="#DejaVuSans-Oblique-69" transform="translate(115.478516 0.015625)"/>
     <use xlink:href="#DejaVuSans-Oblique-70" transform="translate(143.261719 0.015625)"/>
     <use xlink:href="#DejaVuSans-Oblique-69" transform="translate(206.738281 -16.390625) scale(0.7)"/>
    </g>
   </g>
   <g id="text_2">
    <!-- $D_j$ -->
    <g transform="translate(101.532977 244.789024) scale(0.16 -0.16)">
     <defs>
      <path id="DejaVuSans-Oblique-44" d="M 1081 4666 
L 2438 4666 
Q 3519 4666 4070 4208 
Q 4622 3750 4622 2847 
Q 4622 2250 4412 1698 
Q 4203 1147 3834 769 
Q 3463 381 2891 190 
Q 2319 0 1538 0 
L 172 0 
L 1081 4666 
z
M 1613 4147 
L 909 519 
L 1734 519 
Q 2794 519 3375 1128 
Q 3956 1738 3956 2847 
Q 3956 3519 3581 3833 
Q 3206 4147 2406 4147 
L 1613 4147 
z
" transform="scale(0.015625)"/>
      <path id="DejaVuSans-Oblique-6a" d="M 928 3500 
L 1503 3500 
L 813 -63 
L 809 -78 
Q 694 -675 544 -897 
Q 403 -1106 132 -1218 
Q -138 -1331 -506 -1331 
L -722 -1331 
L -628 -844 
L -481 -844 
Q -144 -844 -1 -703 
Q 141 -563 238 -63 
L 928 3500 
z
M 1197 4863 
L 1772 4863 
L 1631 4134 
L 1056 4134 
L 1197 4863 
z
" transform="scale(0.015625)"/>
     </defs>
     <use xlink:href="#DejaVuSans-Oblique-44" transform="translate(0 0.09375)"/>
     <use xlink:href="#DejaVuSans-Oblique-6a" transform="translate(77.001953 -16.3125) scale(0.7)"/>
    </g>
   </g>
   <g id="text_3">
    <!-- $ship_j$ -->
    <g transform="translate(426.117082 88.920982) scale(0.16 -0.16)">
     <use xlink:href="#DejaVuSans-Oblique-73" transform="translate(0 0.015625)"/>
     <use xlink:href="#DejaVuSans-Oblique-68" transform="translate(52.099609 0.015625)"/>
     <use xlink:href="#DejaVuSans-Oblique-69" transform="translate(115.478516 0.015625)"/>
     <use xlink:href="#DejaVuSans-Oblique-70" transform="translate(143.261719 0.015625)"/>
     <use xlink:href="#DejaVuSans-Oblique-6a" transform="translate(206.738281 -16.390625) scale(0.7)"/>
    </g>
   </g>
   <g id="text_4">
    <!-- $D_i$ -->
    <g transform="translate(426.117082 117.260626) scale(0.16 -0.16)">
     <use xlink:href="#DejaVuSans-Oblique-44" transform="translate(0 0.09375)"/>
     <use xlink:href="#DejaVuSans-Oblique-69" transform="translate(77.001953 -16.3125) scale(0.7)"/>
    </g>
   </g>
   <g id="text_5">
    <!-- Crossing Exposure Model -->
    <g transform="translate(202.53075 44.976) scale(0.12 -0.12)">
     <defs>
      <path id="DejaVuSans-43" d="M 4122 4306 
L 4122 3641 
Q 3803 3938 3442 4084 
Q 3081 4231 2675 4231 
Q 1875 4231 1450 3742 
Q 1025 3253 1025 2328 
Q 1025 1406 1450 917 
Q 1875 428 2675 428 
Q 3081 428 3442 575 
Q 3803 722 4122 1019 
L 4122 359 
Q 3791 134 3420 21 
Q 3050 -91 2638 -91 
Q 1578 -91 968 557 
Q 359 1206 359 2328 
Q 359 3453 968 4101 
Q 1578 4750 2638 4750 
Q 3056 4750 3426 4639 
Q 3797 4528 4122 4306 
z
" transform="scale(0.015625)"/>
      <path id="DejaVuSans-72" d="M 2631 2963 
Q 2534 3019 2420 3045 
Q 2306 3072 2169 3072 
Q 1681 3072 1420 2755 
Q 1159 2438 1159 1844 
L 1159 0 
L 581 0 
L 581 3500 
L 1159 3500 
L 1159 2956 
Q 1341 3275 1631 3429 
Q 1922 3584 2338 3584 
Q 2397 3584 2469 3576 
Q 2541 3569 2628 3553 
L 2631 2963 
z
" transform="scale(0.015625)"/>
      <path id="DejaVuSans-6f" d="M 1959 3097 
Q 1497 3097 1228 2736 
Q 959 2375 959 1747 
Q 959 1119 1226 758 
Q 1494 397 1959 397 
Q 2419 397 2687 759 
Q 2956 1122 2956 1747 
Q 2956 2369 2687 2733 
Q 2419 3097 1959 3097 
z
M 1959 3584 
Q 2709 3584 3137 3096 
Q 3566 2609 3566 1747 
Q 3566 888 3137 398 
Q 2709 -91 1959 -91 
Q 1206 -91 779 398 
Q 353 888 353 1747 
Q 353 2609 779 3096 
Q 1206 3584 1959 3584 
z
" transform="scale(0.015625)"/>
      <path id="DejaVuSans-73" d="M 2834 3397 
L 2834 2853 
Q 2591 2978 2328 3040 
Q 2066 3103 1784 3103 
Q 1356 3103 1142 2972 
Q 928 2841 928 2578 
Q 928 2378 1081 2264 
Q 1234 2150 1697 2047 
L 1894 2003 
Q 2506 1872 2764 1633 
Q 3022 1394 3022 966 
Q 3022 478 2636 193 
Q 2250 -91 1575 -91 
Q 1294 -91 989 -36 
Q 684 19 347 128 
L 347 722 
Q 666 556 975 473 
Q 1284 391 1588 391 
Q 1994 391 2212 530 
Q 2431 669 2431 922 
Q 2431 1156 2273 1281 
Q 2116 1406 1581 1522 
L 1381 1569 
Q 847 1681 609 1914 
Q 372 2147 372 2553 
Q 372 3047 722 3315 
Q 1072 3584 1716 3584 
Q 2034 3584 2315 3537 
Q 2597 3491 2834 3397 
z
" transform="scale(0.015625)"/>
      <path id="DejaVuSans-69" d="M 603 3500 
L 1178 3500 
L 1178 0 
L 603 0 
L 603 3500 
z
M 603 4863 
L 1178 4863 
L 1178 4134 
L 603 4134 
L 603 4863 
z
" transform="scale(0.015625)"/>
      <path id="DejaVuSans-6e" d="M 3513 2113 
L 3513 0 
L 2938 0 
L 2938 2094 
Q 2938 2591 2744 2837 
Q 2550 3084 2163 3084 
Q 1697 3084 1428 2787 
Q 1159 2491 1159 1978 
L 1159 0 
L 581 0 
L 581 3500 
L 1159 3500 
L 1159 2956 
Q 1366 3272 1645 3428 
Q 1925 3584 2291 3584 
Q 2894 3584 3203 3211 
Q 3513 2838 3513 2113 
z
" transform="scale(0.015625)"/>
      <path id="DejaVuSans-67" d="M 2906 1791 
Q 2906 2416 2648 2759 
Q 2391 3103 1925 3103 
Q 1463 3103 1205 2759 
Q 947 2416 947 1791 
Q 947 1169 1205 825 
Q 1463 481 1925 481 
Q 2391 481 2648 825 
Q 2906 1169 2906 1791 
z
M 3481 434 
Q 3481 -459 3084 -895 
Q 2688 -1331 1869 -1331 
Q 1566 -1331 1297 -1286 
Q 1028 -1241 775 -1147 
L 775 -588 
Q 1028 -725 1275 -790 
Q 1522 -856 1778 -856 
Q 2344 -856 2625 -561 
Q 2906 -266 2906 331 
L 2906 616 
Q 2728 306 2450 153 
Q 2172 0 1784 0 
Q 1141 0 747 490 
Q 353 981 353 1791 
Q 353 2603 747 3093 
Q 1141 3584 1784 3584 
Q 2172 3584 2450 3431 
Q 2728 3278 2906 2969 
L 2906 3500 
L 3481 3500 
L 3481 434 
z
" transform="scale(0.015625)"/>
      <path id="DejaVuSans-20" transform="scale(0.015625)"/>
      <path id="DejaVuSans-45" d="M 628 4666 
L 3578 4666 
L 3578 4134 
L 1259 4134 
L 1259 2753 
L 3481 2753 
L 3481 2222 
L 1259 2222 
L 1259 531 
L 3634 531 
L 3634 0 
L 628 0 
L 628 4666 
z
" transform="scale(0.015625)"/>
      <path id="DejaVuSans-78" d="M 3513 3500 
L 2247 1797 
L 3578 0 
L 2900 0 
L 1881 1375 
L 863 0 
L 184 0 
L 1544 1831 
L 300 3500 
L 978 3500 
L 1906 2253 
L 2834 3500 
L 3513 3500 
z
" transform="scale(0.015625)"/>
      <path id="DejaVuSans-70" d="M 1159 525 
L 1159 -1331 
L 581 -1331 
L 581 3500 
L 1159 3500 
L 1159 2969 
Q 1341 3281 1617 3432 
Q 1894 3584 2278 3584 
Q 2916 3584 3314 3078 
Q 3713 2572 3713 1747 
Q 3713 922 3314 415 
Q 2916 -91 2278 -91 
Q 1894 -91 1617 61 
Q 1341 213 1159 525 
z
M 3116 1747 
Q 3116 2381 2855 2742 
Q 2594 3103 2138 3103 
Q 1681 3103 1420 2742 
Q 1159 2381 1159 1747 
Q 1159 1113 1420 752 
Q 1681 391 2138 391 
Q 2594 391 2855 752 
Q 3116 1113 3116 1747 
z
" transform="scale(0.015625)"/>
      <path id="DejaVuSans-75" d="M 544 1381 
L 544 3500 
L 1119 3500 
L 1119 1403 
Q 1119 906 1312 657 
Q 1506 409 1894 409 
Q 2359 409 2629 706 
Q 2900 1003 2900 1516 
L 2900 3500 
L 3475 3500 
L 3475 0 
L 2900 0 
L 2900 538 
Q 2691 219 2414 64 
Q 2138 -91 1772 -91 
Q 1169 -91 856 284 
Q 544 659 544 1381 
z
M 1991 3584 
L 1991 3584 
z
" transform="scale(0.015625)"/>
      <path id="DejaVuSans-65" d="M 3597 1894 
L 3597 1613 
L 953 1613 
Q 991 1019 1311 708 
Q 1631 397 2203 397 
Q 2534 397 2845 478 
Q 3156 559 3463 722 
L 3463 178 
Q 3153 47 2828 -22 
Q 2503 -91 2169 -91 
Q 1331 -91 842 396 
Q 353 884 353 1716 
Q 353 2575 817 3079 
Q 1281 3584 2069 3584 
Q 2775 3584 3186 3129 
Q 3597 2675 3597 1894 
z
M 3022 2063 
Q 3016 2534 2758 2815 
Q 2500 3097 2075 3097 
Q 1594 3097 1305 2825 
Q 1016 2553 972 2059 
L 3022 2063 
z
" transform="scale(0.015625)"/>
      <path id="DejaVuSans-4d" d="M 628 4666 
L 1569 4666 
L 2759 1491 
L 3956 4666 
L 4897 4666 
L 4897 0 
L 4281 0 
L 4281 4097 
L 3078 897 
L 2444 897 
L 1241 4097 
L 1241 0 
L 628 0 
L 628 4666 
z
" transform="scale(0.015625)"/>
      <path id="DejaVuSans-64" d="M 2906 2969 
L 2906 4863 
L 3481 4863 
L 3481 0 
L 2906 0 
L 2906 525 
Q 2725 213 2448 61 
Q 2172 -91 1784 -91 
Q 1150 -91 751 415 
Q 353 922 353 1747 
Q 353 2572 751 3078 
Q 1150 3584 1784 3584 
Q 2172 3584 2448 3432 
Q 2725 3281 2906 2969 
z
M 947 1747 
Q 947 1113 1208 752 
Q 1469 391 1925 391 
Q 2381 391 2643 752 
Q 2906 1113 2906 1747 
Q 2906 2381 2643 2742 
Q 2381 3103 1925 3103 
Q 1469 3103 1208 2742 
Q 947 2381 947 1747 
z
" transform="scale(0.015625)"/>
      <path id="DejaVuSans-6c" d="M 603 4863 
L 1178 4863 
L 1178 0 
L 603 0 
L 603 4863 
z
" transform="scale(0.015625)"/>
     </defs>
     <use xlink:href="#DejaVuSans-43"/>
     <use xlink:href="#DejaVuSans-72" transform="translate(69.824219 0)"/>
     <use xlink:href="#DejaVuSans-6f" transform="translate(108.6875 0)"/>
     <use xlink:href="#DejaVuSans-73" transform="translate(169.869141 0)"/>
     <use xlink:href="#DejaVuSans-73" transform="translate(221.96875 0)"/>
     <use xlink:href="#DejaVuSans-69" transform="translate(274.068359 0)"/>
     <use xlink:href="#DejaVuSans-6e" transform="translate(301.851562 0)"/>
     <use xlink:href="#DejaVuSans-67" transform="translate(365.230469 0)"/>
     <use xlink:href="#DejaVuSans-20" transform="translate(428.707031 0)"/>
     <use xlink:href="#DejaVuSans-45" transform="translate(460.494141 0)"/>
     <use xlink:href="#DejaVuSans-78" transform="translate(523.677734 0)"/>
     <use xlink:href="#DejaVuSans-70" transform="translate(582.857422 0)"/>
     <use xlink:href="#DejaVuSans-6f" transform="translate(646.333984 0)"/>
     <use xlink:href="#DejaVuSans-73" transform="translate(707.515625 0)"/>
     <use xlink:href="#DejaVuSans-75" transform="translate(759.615234 0)"/>
     <use xlink:href="#DejaVuSans-72" transform="translate(822.994141 0)"/>
     <use xlink:href="#DejaVuSans-65" transform="translate(861.857422 0)"/>
     <use xlink:href="#DejaVuSans-20" transform="translate(923.380859 0)"/>
     <use xlink:href="#DejaVuSans-4d" transform="translate(955.167969 0)"/>
     <use xlink:href="#DejaVuSans-6f" transform="translate(1041.447266 0)"/>
     <use xlink:href="#DejaVuSans-64" transform="translate(1102.628906 0)"/>
     <use xlink:href="#DejaVuSans-65" transform="translate(1166.105469 0)"/>
     <use xlink:href="#DejaVuSans-6c" transform="translate(1227.628906 0)"/>
    </g>
   </g>
   <g id="legend_1">
    <g id="patch_20">
     <path d="M 74.77 88.33225 
L 146.00125 88.33225 
Q 148.00125 88.33225 148.00125 86.33225 
L 148.00125 57.976 
Q 148.00125 55.976 146.00125 55.976 
L 74.77 55.976 
Q 72.77 55.976 72.77 57.976 
L 72.77 86.33225 
Q 72.77 88.33225 74.77 88.33225 
z
" style="fill: #ffffff; opacity: 0.8; stroke: #cccccc; stroke-linejoin: miter"/>
    </g>
    <g id="patch_21">
     <path d="M 76.77 67.574437 
L 96.77 67.574437 
L 96.77 60.574437 
L 76.77 60.574437 
z
" style="stroke: #000000; stroke-linejoin: miter"/>
    </g>
    <g id="text_6">
     <!-- Link -->
     <g transform="translate(104.77 67.574437) scale(0.1 -0.1)">
      <defs>
       <path id="DejaVuSans-4c" d="M 628 4666 
L 1259 4666 
L 1259 531 
L 3531 531 
L 3531 0 
L 628 0 
L 628 4666 
z
" transform="scale(0.015625)"/>
       <path id="DejaVuSans-6b" d="M 581 4863 
L 1159 4863 
L 1159 1991 
L 2875 3500 
L 3609 3500 
L 1753 1863 
L 3688 0 
L 2938 0 
L 1159 1709 
L 1159 0 
L 581 0 
L 581 4863 
z
" transform="scale(0.015625)"/>
      </defs>
      <use xlink:href="#DejaVuSans-4c"/>
      <use xlink:href="#DejaVuSans-69" transform="translate(55.712891 0)"/>
      <use xlink:href="#DejaVuSans-6e" transform="translate(83.496094 0)"/>
      <use xlink:href="#DejaVuSans-6b" transform="translate(146.875 0)"/>
     </g>
    </g>
    <g id="patch_22">
     <path d="M 76.77 82.252563 
L 96.77 82.252563 
L 96.77 75.252563 
L 76.77 75.252563 
z
" style="fill: #0000ff; stroke: #0000ff; stroke-width: 3; stroke-linejoin: miter"/>
    </g>
    <g id="text_7">
     <!-- Velocity -->
     <g transform="translate(104.77 82.252563) scale(0.1 -0.1)">
      <defs>
       <path id="DejaVuSans-56" d="M 1831 0 
L 50 4666 
L 709 4666 
L 2188 738 
L 3669 4666 
L 4325 4666 
L 2547 0 
L 1831 0 
z
" transform="scale(0.015625)"/>
       <path id="DejaVuSans-63" d="M 3122 3366 
L 3122 2828 
Q 2878 2963 2633 3030 
Q 2388 3097 2138 3097 
Q 1578 3097 1268 2742 
Q 959 2388 959 1747 
Q 959 1106 1268 751 
Q 1578 397 2138 397 
Q 2388 397 2633 464 
Q 2878 531 3122 666 
L 3122 134 
Q 2881 22 2623 -34 
Q 2366 -91 2075 -91 
Q 1284 -91 818 406 
Q 353 903 353 1747 
Q 353 2603 823 3093 
Q 1294 3584 2113 3584 
Q 2378 3584 2631 3529 
Q 2884 3475 3122 3366 
z
" transform="scale(0.015625)"/>
       <path id="DejaVuSans-74" d="M 1172 4494 
L 1172 3500 
L 2356 3500 
L 2356 3053 
L 1172 3053 
L 1172 1153 
Q 1172 725 1289 603 
Q 1406 481 1766 481 
L 2356 481 
L 2356 0 
L 1766 0 
Q 1100 0 847 248 
Q 594 497 594 1153 
L 594 3053 
L 172 3053 
L 172 3500 
L 594 3500 
L 594 4494 
L 1172 4494 
z
" transform="scale(0.015625)"/>
       <path id="DejaVuSans-79" d="M 2059 -325 
Q 1816 -950 1584 -1140 
Q 1353 -1331 966 -1331 
L 506 -1331 
L 506 -850 
L 844 -850 
Q 1081 -850 1212 -737 
Q 1344 -625 1503 -206 
L 1606 56 
L 191 3500 
L 800 3500 
L 1894 763 
L 2988 3500 
L 3597 3500 
L 2059 -325 
z
" transform="scale(0.015625)"/>
      </defs>
      <use xlink:href="#DejaVuSans-56"/>
      <use xlink:href="#DejaVuSans-65" transform="translate(60.658203 0)"/>
      <use xlink:href="#DejaVuSans-6c" transform="translate(122.181641 0)"/>
      <use xlink:href="#DejaVuSans-6f" transform="translate(149.964844 0)"/>
      <use xlink:href="#DejaVuSans-63" transform="translate(211.146484 0)"/>
      <use xlink:href="#DejaVuSans-69" transform="translate(266.126953 0)"/>
      <use xlink:href="#DejaVuSans-74" transform="translate(293.910156 0)"/>
      <use xlink:href="#DejaVuSans-79" transform="translate(333.119141 0)"/>
     </g>
    </g>
   </g>
  </g>
 </g>
 <defs>
  <clipPath id="pf404365378">
   <rect x="67.77" y="50.976" width="420.174" height="327.096"/>
  </clipPath>
 </defs>
</svg>
