<?xml version="1.0" encoding="utf-8" standalone="no"?>
<!DOCTYPE svg PUBLIC "-//W3C//DTD SVG 1.1//EN"
  "http://www.w3.org/Graphics/SVG/1.1/DTD/svg11.dtd">
<svg xmlns:xlink="http://www.w3.org/1999/xlink" width="575.28pt" height="417.6pt" viewBox="0 0 575.28 417.6" xmlns="http://www.w3.org/2000/svg" version="1.1">
 <metadata>
  <rdf:RDF xmlns:dc="http://purl.org/dc/elements/1.1/" xmlns:cc="http://creativecommons.org/ns#" xmlns:rdf="http://www.w3.org/1999/02/22-rdf-syntax-ns#">
   <cc:Work>
    <dc:type rdf:resource="http://purl.org/dc/dcmitype/StillImage"/>
    <dc:date>2025-09-12T13:33:51.078843</dc:date>
    <dc:format>image/svg+xml</dc:format>
    <dc:creator>
     <cc:Agent>
      <dc:title>Matplotlib v3.10.0, https://matplotlib.org/</dc:title>
     </cc:Agent>
    </dc:creator>
   </cc:Work>
  </rdf:RDF>
 </metadata>
 <defs>
  <style type="text/css">*{stroke-linejoin: round; stroke-linecap: butt}</style>
 </defs>
 <g id="figure_1">
  <g id="patch_1">
   <path d="M 0 417.6 
L 575.28 417.6 
L 575.28 0 
L 0 0 
z
" style="fill: #ffffff"/>
  </g>
  <g id="axes_1">
   <g id="patch_2">
    <path d="M 71.91 371.664 
L 517.752 371.664 
L 517.752 50.112 
L 71.91 50.112 
z
" style="fill: #ffffff"/>
   </g>
   <g id="matplotlib.axis_1">
    <g id="xtick_1">
     <g id="line2d_1">
      <defs>
       <path id="m460502be85" d="M 0 0 
L 0 3.5 
" style="stroke: #000000; stroke-width: 0.8"/>
      </defs>
      <g>
       <use xlink:href="#m460502be85" x="71.91" y="371.664" style="stroke: #000000; stroke-width: 0.8"/>
      </g>
     </g>
     <g id="text_1">
      <!-- 0.0 -->
      <g transform="translate(63.958437 386.262437) scale(0.1 -0.1)">
       <defs>
        <path id="DejaVuSans-30" d="M 2034 4250 
Q 1547 4250 1301 3770 
Q 1056 3291 1056 2328 
Q 1056 1369 1301 889 
Q 1547 409 2034 409 
Q 2525 409 2770 889 
Q 3016 1369 3016 2328 
Q 3016 3291 2770 3770 
Q 2525 4250 2034 4250 
z
M 2034 4750 
Q 2819 4750 3233 4129 
Q 3647 3509 3647 2328 
Q 3647 1150 3233 529 
Q 2819 -91 2034 -91 
Q 1250 -91 836 529 
Q 422 1150 422 2328 
Q 422 3509 836 4129 
Q 1250 4750 2034 4750 
z
" transform="scale(0.015625)"/>
        <path id="DejaVuSans-2e" d="M 684 794 
L 1344 794 
L 1344 0 
L 684 0 
L 684 794 
z
" transform="scale(0.015625)"/>
       </defs>
       <use xlink:href="#DejaVuSans-30"/>
       <use xlink:href="#DejaVuSans-2e" transform="translate(63.623047 0)"/>
       <use xlink:href="#DejaVuSans-30" transform="translate(95.410156 0)"/>
      </g>
     </g>
    </g>
    <g id="xtick_2">
     <g id="line2d_2">
      <g>
       <use xlink:href="#m460502be85" x="142.867958" y="371.664" style="stroke: #000000; stroke-width: 0.8"/>
      </g>
     </g>
     <g id="text_2">
      <!-- 0.5 -->
      <g transform="translate(134.916396 386.262437) scale(0.1 -0.1)">
       <defs>
        <path id="DejaVuSans-35" d="M 691 4666 
L 3169 4666 
L 3169 4134 
L 1269 4134 
L 1269 2991 
Q 1406 3038 1543 3061 
Q 1681 3084 1819 3084 
Q 2600 3084 3056 2656 
Q 3513 2228 3513 1497 
Q 3513 744 3044 326 
Q 2575 -91 1722 -91 
Q 1428 -91 1123 -41 
Q 819 9 494 109 
L 494 744 
Q 775 591 1075 516 
Q 1375 441 1709 441 
Q 2250 441 2565 725 
Q 2881 1009 2881 1497 
Q 2881 1984 2565 2268 
Q 2250 2553 1709 2553 
Q 1456 2553 1204 2497 
Q 953 2441 691 2322 
L 691 4666 
z
" transform="scale(0.015625)"/>
       </defs>
       <use xlink:href="#DejaVuSans-30"/>
       <use xlink:href="#DejaVuSans-2e" transform="translate(63.623047 0)"/>
       <use xlink:href="#DejaVuSans-35" transform="translate(95.410156 0)"/>
      </g>
     </g>
    </g>
    <g id="xtick_3">
     <g id="line2d_3">
      <g>
       <use xlink:href="#m460502be85" x="213.825916" y="371.664" style="stroke: #000000; stroke-width: 0.8"/>
      </g>
     </g>
     <g id="text_3">
      <!-- 1.0 -->
      <g transform="translate(205.874354 386.262437) scale(0.1 -0.1)">
       <defs>
        <path id="DejaVuSans-31" d="M 794 531 
L 1825 531 
L 1825 4091 
L 703 3866 
L 703 4441 
L 1819 4666 
L 2450 4666 
L 2450 531 
L 3481 531 
L 3481 0 
L 794 0 
L 794 531 
z
" transform="scale(0.015625)"/>
       </defs>
       <use xlink:href="#DejaVuSans-31"/>
       <use xlink:href="#DejaVuSans-2e" transform="translate(63.623047 0)"/>
       <use xlink:href="#DejaVuSans-30" transform="translate(95.410156 0)"/>
      </g>
     </g>
    </g>
    <g id="xtick_4">
     <g id="line2d_4">
      <g>
       <use xlink:href="#m460502be85" x="284.783874" y="371.664" style="stroke: #000000; stroke-width: 0.8"/>
      </g>
     </g>
     <g id="text_4">
      <!-- 1.5 -->
      <g transform="translate(276.832312 386.262437) scale(0.1 -0.1)">
       <use xlink:href="#DejaVuSans-31"/>
       <use xlink:href="#DejaVuSans-2e" transform="translate(63.623047 0)"/>
       <use xlink:href="#DejaVuSans-35" transform="translate(95.410156 0)"/>
      </g>
     </g>
    </g>
    <g id="xtick_5">
     <g id="line2d_5">
      <g>
       <use xlink:href="#m460502be85" x="355.741833" y="371.664" style="stroke: #000000; stroke-width: 0.8"/>
      </g>
     </g>
     <g id="text_5">
      <!-- 2.0 -->
      <g transform="translate(347.79027 386.262437) scale(0.1 -0.1)">
       <defs>
        <path id="DejaVuSans-32" d="M 1228 531 
L 3431 531 
L 3431 0 
L 469 0 
L 469 531 
Q 828 903 1448 1529 
Q 2069 2156 2228 2338 
Q 2531 2678 2651 2914 
Q 2772 3150 2772 3378 
Q 2772 3750 2511 3984 
Q 2250 4219 1831 4219 
Q 1534 4219 1204 4116 
Q 875 4013 500 3803 
L 500 4441 
Q 881 4594 1212 4672 
Q 1544 4750 1819 4750 
Q 2544 4750 2975 4387 
Q 3406 4025 3406 3419 
Q 3406 3131 3298 2873 
Q 3191 2616 2906 2266 
Q 2828 2175 2409 1742 
Q 1991 1309 1228 531 
z
" transform="scale(0.015625)"/>
       </defs>
       <use xlink:href="#DejaVuSans-32"/>
       <use xlink:href="#DejaVuSans-2e" transform="translate(63.623047 0)"/>
       <use xlink:href="#DejaVuSans-30" transform="translate(95.410156 0)"/>
      </g>
     </g>
    </g>
    <g id="xtick_6">
     <g id="line2d_6">
      <g>
       <use xlink:href="#m460502be85" x="426.699791" y="371.664" style="stroke: #000000; stroke-width: 0.8"/>
      </g>
     </g>
     <g id="text_6">
      <!-- 2.5 -->
      <g transform="translate(418.748228 386.262437) scale(0.1 -0.1)">
       <use xlink:href="#DejaVuSans-32"/>
       <use xlink:href="#DejaVuSans-2e" transform="translate(63.623047 0)"/>
       <use xlink:href="#DejaVuSans-35" transform="translate(95.410156 0)"/>
      </g>
     </g>
    </g>
    <g id="xtick_7">
     <g id="line2d_7">
      <g>
       <use xlink:href="#m460502be85" x="497.657749" y="371.664" style="stroke: #000000; stroke-width: 0.8"/>
      </g>
     </g>
     <g id="text_7">
      <!-- 3.0 -->
      <g transform="translate(489.706186 386.262437) scale(0.1 -0.1)">
       <defs>
        <path id="DejaVuSans-33" d="M 2597 2516 
Q 3050 2419 3304 2112 
Q 3559 1806 3559 1356 
Q 3559 666 3084 287 
Q 2609 -91 1734 -91 
Q 1441 -91 1130 -33 
Q 819 25 488 141 
L 488 750 
Q 750 597 1062 519 
Q 1375 441 1716 441 
Q 2309 441 2620 675 
Q 2931 909 2931 1356 
Q 2931 1769 2642 2001 
Q 2353 2234 1838 2234 
L 1294 2234 
L 1294 2753 
L 1863 2753 
Q 2328 2753 2575 2939 
Q 2822 3125 2822 3475 
Q 2822 3834 2567 4026 
Q 2313 4219 1838 4219 
Q 1578 4219 1281 4162 
Q 984 4106 628 3988 
L 628 4550 
Q 988 4650 1302 4700 
Q 1616 4750 1894 4750 
Q 2613 4750 3031 4423 
Q 3450 4097 3450 3541 
Q 3450 3153 3228 2886 
Q 3006 2619 2597 2516 
z
" transform="scale(0.015625)"/>
       </defs>
       <use xlink:href="#DejaVuSans-33"/>
       <use xlink:href="#DejaVuSans-2e" transform="translate(63.623047 0)"/>
       <use xlink:href="#DejaVuSans-30" transform="translate(95.410156 0)"/>
      </g>
     </g>
    </g>
    <g id="text_8">
     <!-- $\theta$ [rad] -->
     <g transform="translate(277.981 399.940562) scale(0.1 -0.1)">
      <defs>
       <path id="DejaVuSans-Oblique-3b8" d="M 2913 2219 
L 925 2219 
Q 791 1284 928 888 
Q 1100 400 1566 400 
Q 2034 400 2391 891 
Q 2703 1322 2913 2219 
z
M 3009 2750 
Q 3094 3638 2984 3950 
Q 2813 4444 2353 4444 
Q 1875 4444 1525 3956 
Q 1250 3563 1034 2750 
L 3009 2750 
z
M 2444 4913 
Q 3194 4913 3494 4250 
Q 3794 3591 3566 2422 
Q 3341 1256 2781 594 
Q 2225 -72 1475 -72 
Q 722 -72 425 594 
Q 128 1256 353 2422 
Q 581 3591 1134 4250 
Q 1691 4913 2444 4913 
z
" transform="scale(0.015625)"/>
       <path id="DejaVuSans-20" transform="scale(0.015625)"/>
       <path id="DejaVuSans-5b" d="M 550 4863 
L 1875 4863 
L 1875 4416 
L 1125 4416 
L 1125 -397 
L 1875 -397 
L 1875 -844 
L 550 -844 
L 550 4863 
z
" transform="scale(0.015625)"/>
       <path id="DejaVuSans-72" d="M 2631 2963 
Q 2534 3019 2420 3045 
Q 2306 3072 2169 3072 
Q 1681 3072 1420 2755 
Q 1159 2438 1159 1844 
L 1159 0 
L 581 0 
L 581 3500 
L 1159 3500 
L 1159 2956 
Q 1341 3275 1631 3429 
Q 1922 3584 2338 3584 
Q 2397 3584 2469 3576 
Q 2541 3569 2628 3553 
L 2631 2963 
z
" transform="scale(0.015625)"/>
       <path id="DejaVuSans-61" d="M 2194 1759 
Q 1497 1759 1228 1600 
Q 959 1441 959 1056 
Q 959 750 1161 570 
Q 1363 391 1709 391 
Q 2188 391 2477 730 
Q 2766 1069 2766 1631 
L 2766 1759 
L 2194 1759 
z
M 3341 1997 
L 3341 0 
L 2766 0 
L 2766 531 
Q 2569 213 2275 61 
Q 1981 -91 1556 -91 
Q 1019 -91 701 211 
Q 384 513 384 1019 
Q 384 1609 779 1909 
Q 1175 2209 1959 2209 
L 2766 2209 
L 2766 2266 
Q 2766 2663 2505 2880 
Q 2244 3097 1772 3097 
Q 1472 3097 1187 3025 
Q 903 2953 641 2809 
L 641 3341 
Q 956 3463 1253 3523 
Q 1550 3584 1831 3584 
Q 2591 3584 2966 3190 
Q 3341 2797 3341 1997 
z
" transform="scale(0.015625)"/>
       <path id="DejaVuSans-64" d="M 2906 2969 
L 2906 4863 
L 3481 4863 
L 3481 0 
L 2906 0 
L 2906 525 
Q 2725 213 2448 61 
Q 2172 -91 1784 -91 
Q 1150 -91 751 415 
Q 353 922 353 1747 
Q 353 2572 751 3078 
Q 1150 3584 1784 3584 
Q 2172 3584 2448 3432 
Q 2725 3281 2906 2969 
z
M 947 1747 
Q 947 1113 1208 752 
Q 1469 391 1925 391 
Q 2381 391 2643 752 
Q 2906 1113 2906 1747 
Q 2906 2381 2643 2742 
Q 2381 3103 1925 3103 
Q 1469 3103 1208 2742 
Q 947 2381 947 1747 
z
" transform="scale(0.015625)"/>
       <path id="DejaVuSans-5d" d="M 1947 4863 
L 1947 -844 
L 622 -844 
L 622 -397 
L 1369 -397 
L 1369 4416 
L 622 4416 
L 622 4863 
L 1947 4863 
z
" transform="scale(0.015625)"/>
      </defs>
      <use xlink:href="#DejaVuSans-Oblique-3b8" transform="translate(0 0.234375)"/>
      <use xlink:href="#DejaVuSans-20" transform="translate(61.181641 0.234375)"/>
      <use xlink:href="#DejaVuSans-5b" transform="translate(92.96875 0.234375)"/>
      <use xlink:href="#DejaVuSans-72" transform="translate(131.982422 0.234375)"/>
      <use xlink:href="#DejaVuSans-61" transform="translate(173.095703 0.234375)"/>
      <use xlink:href="#DejaVuSans-64" transform="translate(234.375 0.234375)"/>
      <use xlink:href="#DejaVuSans-5d" transform="translate(297.851562 0.234375)"/>
     </g>
    </g>
   </g>
   <g id="matplotlib.axis_2">
    <g id="text_9">
     <!-- Exposures [-] -->
     <g transform="translate(65.830312 243.932531) rotate(-90) scale(0.1 -0.1)">
      <defs>
       <path id="DejaVuSans-45" d="M 628 4666 
L 3578 4666 
L 3578 4134 
L 1259 4134 
L 1259 2753 
L 3481 2753 
L 3481 2222 
L 1259 2222 
L 1259 531 
L 3634 531 
L 3634 0 
L 628 0 
L 628 4666 
z
" transform="scale(0.015625)"/>
       <path id="DejaVuSans-78" d="M 3513 3500 
L 2247 1797 
L 3578 0 
L 2900 0 
L 1881 1375 
L 863 0 
L 184 0 
L 1544 1831 
L 300 3500 
L 978 3500 
L 1906 2253 
L 2834 3500 
L 3513 3500 
z
" transform="scale(0.015625)"/>
       <path id="DejaVuSans-70" d="M 1159 525 
L 1159 -1331 
L 581 -1331 
L 581 3500 
L 1159 3500 
L 1159 2969 
Q 1341 3281 1617 3432 
Q 1894 3584 2278 3584 
Q 2916 3584 3314 3078 
Q 3713 2572 3713 1747 
Q 3713 922 3314 415 
Q 2916 -91 2278 -91 
Q 1894 -91 1617 61 
Q 1341 213 1159 525 
z
M 3116 1747 
Q 3116 2381 2855 2742 
Q 2594 3103 2138 3103 
Q 1681 3103 1420 2742 
Q 1159 2381 1159 1747 
Q 1159 1113 1420 752 
Q 1681 391 2138 391 
Q 2594 391 2855 752 
Q 3116 1113 3116 1747 
z
" transform="scale(0.015625)"/>
       <path id="DejaVuSans-6f" d="M 1959 3097 
Q 1497 3097 1228 2736 
Q 959 2375 959 1747 
Q 959 1119 1226 758 
Q 1494 397 1959 397 
Q 2419 397 2687 759 
Q 2956 1122 2956 1747 
Q 2956 2369 2687 2733 
Q 2419 3097 1959 3097 
z
M 1959 3584 
Q 2709 3584 3137 3096 
Q 3566 2609 3566 1747 
Q 3566 888 3137 398 
Q 2709 -91 1959 -91 
Q 1206 -91 779 398 
Q 353 888 353 1747 
Q 353 2609 779 3096 
Q 1206 3584 1959 3584 
z
" transform="scale(0.015625)"/>
       <path id="DejaVuSans-73" d="M 2834 3397 
L 2834 2853 
Q 2591 2978 2328 3040 
Q 2066 3103 1784 3103 
Q 1356 3103 1142 2972 
Q 928 2841 928 2578 
Q 928 2378 1081 2264 
Q 1234 2150 1697 2047 
L 1894 2003 
Q 2506 1872 2764 1633 
Q 3022 1394 3022 966 
Q 3022 478 2636 193 
Q 2250 -91 1575 -91 
Q 1294 -91 989 -36 
Q 684 19 347 128 
L 347 722 
Q 666 556 975 473 
Q 1284 391 1588 391 
Q 1994 391 2212 530 
Q 2431 669 2431 922 
Q 2431 1156 2273 1281 
Q 2116 1406 1581 1522 
L 1381 1569 
Q 847 1681 609 1914 
Q 372 2147 372 2553 
Q 372 3047 722 3315 
Q 1072 3584 1716 3584 
Q 2034 3584 2315 3537 
Q 2597 3491 2834 3397 
z
" transform="scale(0.015625)"/>
       <path id="DejaVuSans-75" d="M 544 1381 
L 544 3500 
L 1119 3500 
L 1119 1403 
Q 1119 906 1312 657 
Q 1506 409 1894 409 
Q 2359 409 2629 706 
Q 2900 1003 2900 1516 
L 2900 3500 
L 3475 3500 
L 3475 0 
L 2900 0 
L 2900 538 
Q 2691 219 2414 64 
Q 2138 -91 1772 -91 
Q 1169 -91 856 284 
Q 544 659 544 1381 
z
M 1991 3584 
L 1991 3584 
z
" transform="scale(0.015625)"/>
       <path id="DejaVuSans-65" d="M 3597 1894 
L 3597 1613 
L 953 1613 
Q 991 1019 1311 708 
Q 1631 397 2203 397 
Q 2534 397 2845 478 
Q 3156 559 3463 722 
L 3463 178 
Q 3153 47 2828 -22 
Q 2503 -91 2169 -91 
Q 1331 -91 842 396 
Q 353 884 353 1716 
Q 353 2575 817 3079 
Q 1281 3584 2069 3584 
Q 2775 3584 3186 3129 
Q 3597 2675 3597 1894 
z
M 3022 2063 
Q 3016 2534 2758 2815 
Q 2500 3097 2075 3097 
Q 1594 3097 1305 2825 
Q 1016 2553 972 2059 
L 3022 2063 
z
" transform="scale(0.015625)"/>
       <path id="DejaVuSans-2d" d="M 313 2009 
L 1997 2009 
L 1997 1497 
L 313 1497 
L 313 2009 
z
" transform="scale(0.015625)"/>
      </defs>
      <use xlink:href="#DejaVuSans-45"/>
      <use xlink:href="#DejaVuSans-78" transform="translate(63.183594 0)"/>
      <use xlink:href="#DejaVuSans-70" transform="translate(122.363281 0)"/>
      <use xlink:href="#DejaVuSans-6f" transform="translate(185.839844 0)"/>
      <use xlink:href="#DejaVuSans-73" transform="translate(247.021484 0)"/>
      <use xlink:href="#DejaVuSans-75" transform="translate(299.121094 0)"/>
      <use xlink:href="#DejaVuSans-72" transform="translate(362.5 0)"/>
      <use xlink:href="#DejaVuSans-65" transform="translate(401.363281 0)"/>
      <use xlink:href="#DejaVuSans-73" transform="translate(462.886719 0)"/>
      <use xlink:href="#DejaVuSans-20" transform="translate(514.986328 0)"/>
      <use xlink:href="#DejaVuSans-5b" transform="translate(546.773438 0)"/>
      <use xlink:href="#DejaVuSans-2d" transform="translate(585.787109 0)"/>
      <use xlink:href="#DejaVuSans-5d" transform="translate(621.871094 0)"/>
     </g>
    </g>
   </g>
   <g id="line2d_8">
    <path d="M 71.954589 371.586134 
L 73.158482 369.2494 
L 74.496142 366.136637 
L 75.967568 362.117233 
L 77.617348 356.926275 
L 79.490072 350.257978 
L 81.674916 341.619509 
L 84.52859 329.361443 
L 92.331606 295.323175 
L 94.51645 287.040867 
L 96.344585 280.931558 
L 97.949777 276.306093 
L 99.376614 272.846478 
L 100.625096 270.364061 
L 101.739813 268.601116 
L 102.765352 267.371249 
L 103.701714 266.584664 
L 104.548898 266.154 
L 105.351494 265.994418 
L 106.109501 266.066371 
L 106.912097 266.378024 
L 107.937636 267.064655 
L 110.702133 268.852122 
L 113.734162 270.545854 
L 117.078311 272.15586 
L 120.77917 273.68714 
L 124.881327 275.141727 
L 129.518547 276.545152 
L 134.73542 277.886414 
L 140.665712 279.175855 
L 147.443188 280.415961 
L 155.246203 281.611468 
L 164.297701 282.767011 
L 174.909802 283.890676 
L 187.439215 284.987145 
L 191.898081 285.236861 
L 231.849519 282.106577 
L 257.844707 279.848586 
L 279.247264 277.772196 
L 297.66238 275.767769 
L 313.848063 273.786818 
L 328.205611 271.809531 
L 341.047145 269.820131 
L 352.595608 267.80944 
L 363.029354 265.770617 
L 372.482149 263.70114 
L 381.132349 261.582903 
L 389.024542 259.424928 
L 396.292493 257.209853 
L 402.980792 254.941497 
L 409.134027 252.62374 
L 414.841375 250.240369 
L 420.147426 247.787372 
L 425.096767 245.257669 
L 429.733987 242.64001 
L 434.059087 239.946814 
L 438.161244 237.131051 
L 441.995869 234.231516 
L 445.652139 231.187469 
L 449.085465 228.041223 
L 452.340437 224.760273 
L 455.461644 221.298663 
L 458.449084 217.650411 
L 461.302758 213.810935 
L 464.022666 209.777561 
L 466.653397 205.473529 
L 469.150362 200.962682 
L 471.558149 196.156266 
L 473.87676 191.034327 
L 476.150781 185.461383 
L 478.335626 179.506267 
L 480.431293 173.143911 
L 482.571548 165.904955 
L 483.686265 162.540954 
L 484.667215 160.232614 
L 485.558988 158.678867 
L 486.316995 157.774092 
L 486.985825 157.297352 
L 487.565478 157.130122 
L 488.145131 157.192498 
L 488.724783 157.485183 
L 489.349024 158.05823 
L 490.062443 159.040199 
L 490.865039 160.560218 
L 491.756812 162.760698 
L 492.737762 165.79487 
L 493.852479 170.007133 
L 495.100961 175.661175 
L 496.48321 183.025405 
L 497.999224 192.357095 
L 499.693593 204.212118 
L 501.655494 219.600979 
L 503.929516 239.293505 
L 506.78319 266.073904 
L 512.178418 319.379258 
L 516.013042 356.095622 
L 517.707411 371.275921 
L 517.707411 371.275921 
" clip-path="url(#p7a0f9e74c8)" style="fill: none; stroke: #0000ff; stroke-width: 1.5; stroke-linecap: square"/>
   </g>
   <g id="line2d_9">
    <path d="M 74.945564 -1 
L 75.56627 48.635055 
L 76.279689 88.265025 
L 77.037696 118.291545 
L 77.840292 141.720247 
L 78.732065 161.289258 
L 79.668427 176.997625 
L 80.649377 189.846166 
L 81.674916 200.52105 
L 82.789633 209.844136 
L 83.948938 217.711209 
L 85.152832 224.425464 
L 86.445903 230.400838 
L 87.783563 235.560379 
L 89.2104 240.187106 
L 90.681825 244.22439 
L 92.242428 247.870522 
L 93.892209 251.16488 
L 95.631167 254.144142 
L 97.459302 256.841879 
L 99.421203 259.341325 
L 101.516869 261.648649 
L 103.746302 263.773333 
L 106.15409 265.761091 
L 108.784821 267.640387 
L 111.638495 269.402191 
L 114.759701 271.065642 
L 118.193028 272.642113 
L 122.027653 274.154187 
L 126.308164 275.598007 
L 131.123739 276.981812 
L 136.563555 278.307681 
L 142.71679 279.574462 
L 149.806387 280.801173 
L 157.966112 281.981582 
L 167.463496 283.124942 
L 178.610661 284.236921 
L 191.318428 285.280652 
L 231.626576 282.124979 
L 257.666353 279.864955 
L 279.113498 277.785941 
L 297.573203 275.778063 
L 313.758886 273.798398 
L 328.116434 271.82256 
L 340.957968 269.834781 
L 352.50643 267.825892 
L 362.940176 265.789065 
L 372.437561 263.711467 
L 381.087761 261.594445 
L 388.979953 259.437802 
L 396.247905 257.224192 
L 402.936203 254.957438 
L 409.134027 252.62374 
L 414.841375 250.240369 
L 420.147426 247.787372 
L 425.096767 245.257669 
L 429.733987 242.64001 
L 434.059087 239.946814 
L 438.161244 237.131051 
L 441.995869 234.231516 
L 445.652139 231.187469 
L 449.085465 228.041223 
L 452.340437 224.760273 
L 455.461644 221.298663 
L 458.449084 217.650411 
L 461.302758 213.810935 
L 464.022666 209.777561 
L 466.653397 205.473529 
L 469.150362 200.962682 
L 471.558149 196.156266 
L 473.87676 191.034327 
L 476.150781 185.461383 
L 478.335626 179.506267 
L 480.431293 173.143911 
L 482.482371 166.189652 
L 484.444272 158.741067 
L 486.361584 150.566953 
L 488.189719 141.790211 
L 489.973266 132.118899 
L 491.712223 121.418513 
L 493.362004 109.860986 
L 494.967195 97.013961 
L 496.527798 82.665425 
L 497.999224 67.064692 
L 499.426061 49.548715 
L 500.80831 29.771473 
L 502.145969 7.301161 
L 502.58827 -1 
L 502.58827 -1 
" clip-path="url(#p7a0f9e74c8)" style="fill: none; stroke-dasharray: 1.5,2.475; stroke-dashoffset: 0; stroke: #0000ff; stroke-width: 1.5"/>
   </g>
   <g id="patch_3">
    <path d="M 71.91 371.664 
L 71.91 50.112 
" style="fill: none; stroke: #000000; stroke-width: 0.8; stroke-linejoin: miter; stroke-linecap: square"/>
   </g>
   <g id="patch_4">
    <path d="M 517.752 371.664 
L 517.752 50.112 
" style="fill: none; stroke: #000000; stroke-width: 0.8; stroke-linejoin: miter; stroke-linecap: square"/>
   </g>
   <g id="patch_5">
    <path d="M 71.91 371.664 
L 517.752 371.664 
" style="fill: none; stroke: #000000; stroke-width: 0.8; stroke-linejoin: miter; stroke-linecap: square"/>
   </g>
   <g id="patch_6">
    <path d="M 71.91 50.112 
L 517.752 50.112 
" style="fill: none; stroke: #000000; stroke-width: 0.8; stroke-linejoin: miter; stroke-linecap: square"/>
   </g>
   <g id="text_10">
    <!-- Exposures -->
    <g transform="translate(263.931 44.112) scale(0.12 -0.12)">
     <use xlink:href="#DejaVuSans-45"/>
     <use xlink:href="#DejaVuSans-78" transform="translate(63.183594 0)"/>
     <use xlink:href="#DejaVuSans-70" transform="translate(122.363281 0)"/>
     <use xlink:href="#DejaVuSans-6f" transform="translate(185.839844 0)"/>
     <use xlink:href="#DejaVuSans-73" transform="translate(247.021484 0)"/>
     <use xlink:href="#DejaVuSans-75" transform="translate(299.121094 0)"/>
     <use xlink:href="#DejaVuSans-72" transform="translate(362.5 0)"/>
     <use xlink:href="#DejaVuSans-65" transform="translate(401.363281 0)"/>
     <use xlink:href="#DejaVuSans-73" transform="translate(462.886719 0)"/>
    </g>
   </g>
   <g id="legend_1">
    <g id="patch_7">
     <path d="M 78.91 87.46825 
L 259.677188 87.46825 
Q 261.677188 87.46825 261.677188 85.46825 
L 261.677188 57.112 
Q 261.677188 55.112 259.677188 55.112 
L 78.91 55.112 
Q 76.91 55.112 76.91 57.112 
L 76.91 85.46825 
Q 76.91 87.46825 78.91 87.46825 
z
" style="fill: #ffffff; opacity: 0.8; stroke: #cccccc; stroke-linejoin: miter"/>
    </g>
    <g id="line2d_10">
     <path d="M 80.91 63.210437 
L 90.91 63.210437 
L 100.91 63.210437 
" style="fill: none; stroke: #0000ff; stroke-width: 1.5; stroke-linecap: square"/>
    </g>
    <g id="text_11">
     <!-- Exposures * Transfer Function -->
     <g transform="translate(108.91 66.710437) scale(0.1 -0.1)">
      <defs>
       <path id="DejaVuSans-2a" d="M 3009 3897 
L 1888 3291 
L 3009 2681 
L 2828 2375 
L 1778 3009 
L 1778 1831 
L 1422 1831 
L 1422 3009 
L 372 2375 
L 191 2681 
L 1313 3291 
L 191 3897 
L 372 4206 
L 1422 3572 
L 1422 4750 
L 1778 4750 
L 1778 3572 
L 2828 4206 
L 3009 3897 
z
" transform="scale(0.015625)"/>
       <path id="DejaVuSans-54" d="M -19 4666 
L 3928 4666 
L 3928 4134 
L 2272 4134 
L 2272 0 
L 1638 0 
L 1638 4134 
L -19 4134 
L -19 4666 
z
" transform="scale(0.015625)"/>
       <path id="DejaVuSans-6e" d="M 3513 2113 
L 3513 0 
L 2938 0 
L 2938 2094 
Q 2938 2591 2744 2837 
Q 2550 3084 2163 3084 
Q 1697 3084 1428 2787 
Q 1159 2491 1159 1978 
L 1159 0 
L 581 0 
L 581 3500 
L 1159 3500 
L 1159 2956 
Q 1366 3272 1645 3428 
Q 1925 3584 2291 3584 
Q 2894 3584 3203 3211 
Q 3513 2838 3513 2113 
z
" transform="scale(0.015625)"/>
       <path id="DejaVuSans-66" d="M 2375 4863 
L 2375 4384 
L 1825 4384 
Q 1516 4384 1395 4259 
Q 1275 4134 1275 3809 
L 1275 3500 
L 2222 3500 
L 2222 3053 
L 1275 3053 
L 1275 0 
L 697 0 
L 697 3053 
L 147 3053 
L 147 3500 
L 697 3500 
L 697 3744 
Q 697 4328 969 4595 
Q 1241 4863 1831 4863 
L 2375 4863 
z
" transform="scale(0.015625)"/>
       <path id="DejaVuSans-46" d="M 628 4666 
L 3309 4666 
L 3309 4134 
L 1259 4134 
L 1259 2759 
L 3109 2759 
L 3109 2228 
L 1259 2228 
L 1259 0 
L 628 0 
L 628 4666 
z
" transform="scale(0.015625)"/>
       <path id="DejaVuSans-63" d="M 3122 3366 
L 3122 2828 
Q 2878 2963 2633 3030 
Q 2388 3097 2138 3097 
Q 1578 3097 1268 2742 
Q 959 2388 959 1747 
Q 959 1106 1268 751 
Q 1578 397 2138 397 
Q 2388 397 2633 464 
Q 2878 531 3122 666 
L 3122 134 
Q 2881 22 2623 -34 
Q 2366 -91 2075 -91 
Q 1284 -91 818 406 
Q 353 903 353 1747 
Q 353 2603 823 3093 
Q 1294 3584 2113 3584 
Q 2378 3584 2631 3529 
Q 2884 3475 3122 3366 
z
" transform="scale(0.015625)"/>
       <path id="DejaVuSans-74" d="M 1172 4494 
L 1172 3500 
L 2356 3500 
L 2356 3053 
L 1172 3053 
L 1172 1153 
Q 1172 725 1289 603 
Q 1406 481 1766 481 
L 2356 481 
L 2356 0 
L 1766 0 
Q 1100 0 847 248 
Q 594 497 594 1153 
L 594 3053 
L 172 3053 
L 172 3500 
L 594 3500 
L 594 4494 
L 1172 4494 
z
" transform="scale(0.015625)"/>
       <path id="DejaVuSans-69" d="M 603 3500 
L 1178 3500 
L 1178 0 
L 603 0 
L 603 3500 
z
M 603 4863 
L 1178 4863 
L 1178 4134 
L 603 4134 
L 603 4863 
z
" transform="scale(0.015625)"/>
      </defs>
      <use xlink:href="#DejaVuSans-45"/>
      <use xlink:href="#DejaVuSans-78" transform="translate(63.183594 0)"/>
      <use xlink:href="#DejaVuSans-70" transform="translate(122.363281 0)"/>
      <use xlink:href="#DejaVuSans-6f" transform="translate(185.839844 0)"/>
      <use xlink:href="#DejaVuSans-73" transform="translate(247.021484 0)"/>
      <use xlink:href="#DejaVuSans-75" transform="translate(299.121094 0)"/>
      <use xlink:href="#DejaVuSans-72" transform="translate(362.5 0)"/>
      <use xlink:href="#DejaVuSans-65" transform="translate(401.363281 0)"/>
      <use xlink:href="#DejaVuSans-73" transform="translate(462.886719 0)"/>
      <use xlink:href="#DejaVuSans-20" transform="translate(514.986328 0)"/>
      <use xlink:href="#DejaVuSans-2a" transform="translate(546.773438 0)"/>
      <use xlink:href="#DejaVuSans-20" transform="translate(596.773438 0)"/>
      <use xlink:href="#DejaVuSans-54" transform="translate(628.560547 0)"/>
      <use xlink:href="#DejaVuSans-72" transform="translate(674.894531 0)"/>
      <use xlink:href="#DejaVuSans-61" transform="translate(716.007812 0)"/>
      <use xlink:href="#DejaVuSans-6e" transform="translate(777.287109 0)"/>
      <use xlink:href="#DejaVuSans-73" transform="translate(840.666016 0)"/>
      <use xlink:href="#DejaVuSans-66" transform="translate(892.765625 0)"/>
      <use xlink:href="#DejaVuSans-65" transform="translate(927.970703 0)"/>
      <use xlink:href="#DejaVuSans-72" transform="translate(989.494141 0)"/>
      <use xlink:href="#DejaVuSans-20" transform="translate(1030.607422 0)"/>
      <use xlink:href="#DejaVuSans-46" transform="translate(1062.394531 0)"/>
      <use xlink:href="#DejaVuSans-75" transform="translate(1114.414062 0)"/>
      <use xlink:href="#DejaVuSans-6e" transform="translate(1177.792969 0)"/>
      <use xlink:href="#DejaVuSans-63" transform="translate(1241.171875 0)"/>
      <use xlink:href="#DejaVuSans-74" transform="translate(1296.152344 0)"/>
      <use xlink:href="#DejaVuSans-69" transform="translate(1335.361328 0)"/>
      <use xlink:href="#DejaVuSans-6f" transform="translate(1363.144531 0)"/>
      <use xlink:href="#DejaVuSans-6e" transform="translate(1424.326172 0)"/>
     </g>
    </g>
    <g id="line2d_11">
     <path d="M 80.91 77.888562 
L 90.91 77.888562 
L 100.91 77.888562 
" style="fill: none; stroke-dasharray: 1.5,2.475; stroke-dashoffset: 0; stroke: #0000ff; stroke-width: 1.5"/>
    </g>
    <g id="text_12">
     <!-- Exposures -->
     <g transform="translate(108.91 81.388562) scale(0.1 -0.1)">
      <use xlink:href="#DejaVuSans-45"/>
      <use xlink:href="#DejaVuSans-78" transform="translate(63.183594 0)"/>
      <use xlink:href="#DejaVuSans-70" transform="translate(122.363281 0)"/>
      <use xlink:href="#DejaVuSans-6f" transform="translate(185.839844 0)"/>
      <use xlink:href="#DejaVuSans-73" transform="translate(247.021484 0)"/>
      <use xlink:href="#DejaVuSans-75" transform="translate(299.121094 0)"/>
      <use xlink:href="#DejaVuSans-72" transform="translate(362.5 0)"/>
      <use xlink:href="#DejaVuSans-65" transform="translate(401.363281 0)"/>
      <use xlink:href="#DejaVuSans-73" transform="translate(462.886719 0)"/>
     </g>
    </g>
   </g>
  </g>
  <g id="axes_2">
   <g id="matplotlib.axis_3">
    <g id="ytick_1">
     <g id="line2d_12">
      <defs>
       <path id="mffe2c2228c" d="M 0 0 
L 3.5 0 
" style="stroke: #000000; stroke-width: 0.8"/>
      </defs>
      <g>
       <use xlink:href="#mffe2c2228c" x="517.752" y="371.664" style="stroke: #000000; stroke-width: 0.8"/>
      </g>
     </g>
     <g id="text_13">
      <!-- 0.0 -->
      <g transform="translate(524.752 375.463219) scale(0.1 -0.1)">
       <use xlink:href="#DejaVuSans-30"/>
       <use xlink:href="#DejaVuSans-2e" transform="translate(63.623047 0)"/>
       <use xlink:href="#DejaVuSans-30" transform="translate(95.410156 0)"/>
      </g>
     </g>
    </g>
    <g id="ytick_2">
     <g id="line2d_13">
      <g>
       <use xlink:href="#mffe2c2228c" x="517.752" y="325.728" style="stroke: #000000; stroke-width: 0.8"/>
      </g>
     </g>
     <g id="text_14">
      <!-- 0.2 -->
      <g transform="translate(524.752 329.527219) scale(0.1 -0.1)">
       <use xlink:href="#DejaVuSans-30"/>
       <use xlink:href="#DejaVuSans-2e" transform="translate(63.623047 0)"/>
       <use xlink:href="#DejaVuSans-32" transform="translate(95.410156 0)"/>
      </g>
     </g>
    </g>
    <g id="ytick_3">
     <g id="line2d_14">
      <g>
       <use xlink:href="#mffe2c2228c" x="517.752" y="279.792" style="stroke: #000000; stroke-width: 0.8"/>
      </g>
     </g>
     <g id="text_15">
      <!-- 0.4 -->
      <g transform="translate(524.752 283.591219) scale(0.1 -0.1)">
       <defs>
        <path id="DejaVuSans-34" d="M 2419 4116 
L 825 1625 
L 2419 1625 
L 2419 4116 
z
M 2253 4666 
L 3047 4666 
L 3047 1625 
L 3713 1625 
L 3713 1100 
L 3047 1100 
L 3047 0 
L 2419 0 
L 2419 1100 
L 313 1100 
L 313 1709 
L 2253 4666 
z
" transform="scale(0.015625)"/>
       </defs>
       <use xlink:href="#DejaVuSans-30"/>
       <use xlink:href="#DejaVuSans-2e" transform="translate(63.623047 0)"/>
       <use xlink:href="#DejaVuSans-34" transform="translate(95.410156 0)"/>
      </g>
     </g>
    </g>
    <g id="ytick_4">
     <g id="line2d_15">
      <g>
       <use xlink:href="#mffe2c2228c" x="517.752" y="233.856" style="stroke: #000000; stroke-width: 0.8"/>
      </g>
     </g>
     <g id="text_16">
      <!-- 0.6 -->
      <g transform="translate(524.752 237.655219) scale(0.1 -0.1)">
       <defs>
        <path id="DejaVuSans-36" d="M 2113 2584 
Q 1688 2584 1439 2293 
Q 1191 2003 1191 1497 
Q 1191 994 1439 701 
Q 1688 409 2113 409 
Q 2538 409 2786 701 
Q 3034 994 3034 1497 
Q 3034 2003 2786 2293 
Q 2538 2584 2113 2584 
z
M 3366 4563 
L 3366 3988 
Q 3128 4100 2886 4159 
Q 2644 4219 2406 4219 
Q 1781 4219 1451 3797 
Q 1122 3375 1075 2522 
Q 1259 2794 1537 2939 
Q 1816 3084 2150 3084 
Q 2853 3084 3261 2657 
Q 3669 2231 3669 1497 
Q 3669 778 3244 343 
Q 2819 -91 2113 -91 
Q 1303 -91 875 529 
Q 447 1150 447 2328 
Q 447 3434 972 4092 
Q 1497 4750 2381 4750 
Q 2619 4750 2861 4703 
Q 3103 4656 3366 4563 
z
" transform="scale(0.015625)"/>
       </defs>
       <use xlink:href="#DejaVuSans-30"/>
       <use xlink:href="#DejaVuSans-2e" transform="translate(63.623047 0)"/>
       <use xlink:href="#DejaVuSans-36" transform="translate(95.410156 0)"/>
      </g>
     </g>
    </g>
    <g id="ytick_5">
     <g id="line2d_16">
      <g>
       <use xlink:href="#mffe2c2228c" x="517.752" y="187.92" style="stroke: #000000; stroke-width: 0.8"/>
      </g>
     </g>
     <g id="text_17">
      <!-- 0.8 -->
      <g transform="translate(524.752 191.719219) scale(0.1 -0.1)">
       <defs>
        <path id="DejaVuSans-38" d="M 2034 2216 
Q 1584 2216 1326 1975 
Q 1069 1734 1069 1313 
Q 1069 891 1326 650 
Q 1584 409 2034 409 
Q 2484 409 2743 651 
Q 3003 894 3003 1313 
Q 3003 1734 2745 1975 
Q 2488 2216 2034 2216 
z
M 1403 2484 
Q 997 2584 770 2862 
Q 544 3141 544 3541 
Q 544 4100 942 4425 
Q 1341 4750 2034 4750 
Q 2731 4750 3128 4425 
Q 3525 4100 3525 3541 
Q 3525 3141 3298 2862 
Q 3072 2584 2669 2484 
Q 3125 2378 3379 2068 
Q 3634 1759 3634 1313 
Q 3634 634 3220 271 
Q 2806 -91 2034 -91 
Q 1263 -91 848 271 
Q 434 634 434 1313 
Q 434 1759 690 2068 
Q 947 2378 1403 2484 
z
M 1172 3481 
Q 1172 3119 1398 2916 
Q 1625 2713 2034 2713 
Q 2441 2713 2670 2916 
Q 2900 3119 2900 3481 
Q 2900 3844 2670 4047 
Q 2441 4250 2034 4250 
Q 1625 4250 1398 4047 
Q 1172 3844 1172 3481 
z
" transform="scale(0.015625)"/>
       </defs>
       <use xlink:href="#DejaVuSans-30"/>
       <use xlink:href="#DejaVuSans-2e" transform="translate(63.623047 0)"/>
       <use xlink:href="#DejaVuSans-38" transform="translate(95.410156 0)"/>
      </g>
     </g>
    </g>
    <g id="ytick_6">
     <g id="line2d_17">
      <g>
       <use xlink:href="#mffe2c2228c" x="517.752" y="141.984" style="stroke: #000000; stroke-width: 0.8"/>
      </g>
     </g>
     <g id="text_18">
      <!-- 1.0 -->
      <g transform="translate(524.752 145.783219) scale(0.1 -0.1)">
       <use xlink:href="#DejaVuSans-31"/>
       <use xlink:href="#DejaVuSans-2e" transform="translate(63.623047 0)"/>
       <use xlink:href="#DejaVuSans-30" transform="translate(95.410156 0)"/>
      </g>
     </g>
    </g>
    <g id="ytick_7">
     <g id="line2d_18">
      <g>
       <use xlink:href="#mffe2c2228c" x="517.752" y="96.048" style="stroke: #000000; stroke-width: 0.8"/>
      </g>
     </g>
     <g id="text_19">
      <!-- 1.2 -->
      <g transform="translate(524.752 99.847219) scale(0.1 -0.1)">
       <use xlink:href="#DejaVuSans-31"/>
       <use xlink:href="#DejaVuSans-2e" transform="translate(63.623047 0)"/>
       <use xlink:href="#DejaVuSans-32" transform="translate(95.410156 0)"/>
      </g>
     </g>
    </g>
    <g id="ytick_8">
     <g id="line2d_19">
      <g>
       <use xlink:href="#mffe2c2228c" x="517.752" y="50.112" style="stroke: #000000; stroke-width: 0.8"/>
      </g>
     </g>
     <g id="text_20">
      <!-- 1.4 -->
      <g transform="translate(524.752 53.911219) scale(0.1 -0.1)">
       <use xlink:href="#DejaVuSans-31"/>
       <use xlink:href="#DejaVuSans-2e" transform="translate(63.623047 0)"/>
       <use xlink:href="#DejaVuSans-34" transform="translate(95.410156 0)"/>
      </g>
     </g>
    </g>
    <g id="text_21">
     <!-- Transfer [-] -->
     <g transform="translate(552.253563 238.284094) rotate(-90) scale(0.1 -0.1)">
      <use xlink:href="#DejaVuSans-54"/>
      <use xlink:href="#DejaVuSans-72" transform="translate(46.333984 0)"/>
      <use xlink:href="#DejaVuSans-61" transform="translate(87.447266 0)"/>
      <use xlink:href="#DejaVuSans-6e" transform="translate(148.726562 0)"/>
      <use xlink:href="#DejaVuSans-73" transform="translate(212.105469 0)"/>
      <use xlink:href="#DejaVuSans-66" transform="translate(264.205078 0)"/>
      <use xlink:href="#DejaVuSans-65" transform="translate(299.410156 0)"/>
      <use xlink:href="#DejaVuSans-72" transform="translate(360.933594 0)"/>
      <use xlink:href="#DejaVuSans-20" transform="translate(402.046875 0)"/>
      <use xlink:href="#DejaVuSans-5b" transform="translate(433.833984 0)"/>
      <use xlink:href="#DejaVuSans-2d" transform="translate(472.847656 0)"/>
      <use xlink:href="#DejaVuSans-5d" transform="translate(508.931641 0)"/>
     </g>
    </g>
   </g>
   <g id="line2d_20">
    <path d="M 71.954589 371.663105 
L 72.445064 371.53513 
L 72.980128 371.14881 
L 73.55978 370.440792 
L 74.22861 369.252151 
L 74.986617 367.42874 
L 75.878391 364.646601 
L 76.859341 360.810915 
L 77.974058 355.502291 
L 79.22254 348.418978 
L 80.649377 338.960115 
L 82.254569 326.762127 
L 84.127293 310.767245 
L 86.490491 288.530106 
L 90.369705 249.505201 
L 94.159741 212.16945 
L 96.433762 191.910926 
L 98.261897 177.49115 
L 99.867089 166.528813 
L 101.249338 158.541076 
L 102.49782 152.587396 
L 103.567948 148.494808 
L 104.50431 145.710063 
L 105.351494 143.847937 
L 106.064913 142.772393 
L 106.689154 142.204425 
L 107.224218 141.996221 
L 108.16058 141.984 
L 482.749903 142.086371 
L 483.284967 142.444728 
L 483.864619 143.122594 
L 484.533449 144.276724 
L 485.291456 146.061534 
L 486.138641 148.646152 
L 487.119591 152.397915 
L 488.234308 157.615226 
L 489.48279 164.60244 
L 490.865039 173.647626 
L 492.47023 185.70332 
L 494.342954 201.562512 
L 496.661564 223.246539 
L 500.273246 259.475143 
L 504.419991 300.513896 
L 506.694013 320.872306 
L 508.566736 335.72802 
L 510.171928 346.752423 
L 511.554176 354.799583 
L 512.802659 360.810915 
L 513.872787 364.955373 
L 514.853737 367.902931 
L 515.700922 369.775178 
L 516.41434 370.859355 
L 517.038581 371.434932 
L 517.573645 371.649679 
L 517.707411 371.663105 
L 517.707411 371.663105 
" clip-path="url(#p7a0f9e74c8)" style="fill: none; stroke: #ffa500; stroke-width: 1.5; stroke-linecap: square"/>
   </g>
   <g id="line2d_21">
    <path d="M 107.388979 371.664 
L 107.388979 -1 
" clip-path="url(#p7a0f9e74c8)" style="fill: none; stroke-dasharray: 1.5,2.475; stroke-dashoffset: 0; stroke: #000000; stroke-width: 1.5"/>
   </g>
   <g id="line2d_22">
    <path d="M 482.273021 371.664 
L 482.273021 -1 
" clip-path="url(#p7a0f9e74c8)" style="fill: none; stroke-dasharray: 1.5,2.475; stroke-dashoffset: 0; stroke: #000000; stroke-width: 1.5"/>
   </g>
   <g id="patch_8">
    <path d="M 71.91 371.664 
L 71.91 50.112 
" style="fill: none; stroke: #000000; stroke-width: 0.8; stroke-linejoin: miter; stroke-linecap: square"/>
   </g>
   <g id="patch_9">
    <path d="M 517.752 371.664 
L 517.752 50.112 
" style="fill: none; stroke: #000000; stroke-width: 0.8; stroke-linejoin: miter; stroke-linecap: square"/>
   </g>
   <g id="patch_10">
    <path d="M 71.91 371.664 
L 517.752 371.664 
" style="fill: none; stroke: #000000; stroke-width: 0.8; stroke-linejoin: miter; stroke-linecap: square"/>
   </g>
   <g id="patch_11">
    <path d="M 71.91 50.112 
L 517.752 50.112 
" style="fill: none; stroke: #000000; stroke-width: 0.8; stroke-linejoin: miter; stroke-linecap: square"/>
   </g>
   <g id="legend_2">
    <g id="patch_12">
     <path d="M 392.841063 72.790125 
L 510.752 72.790125 
Q 512.752 72.790125 512.752 70.790125 
L 512.752 57.112 
Q 512.752 55.112 510.752 55.112 
L 392.841063 55.112 
Q 390.841063 55.112 390.841063 57.112 
L 390.841063 70.790125 
Q 390.841063 72.790125 392.841063 72.790125 
z
" style="fill: #ffffff; opacity: 0.8; stroke: #cccccc; stroke-linejoin: miter"/>
    </g>
    <g id="line2d_23">
     <path d="M 394.841063 63.210438 
L 404.841063 63.210438 
L 414.841063 63.210438 
" style="fill: none; stroke: #ffa500; stroke-width: 1.5; stroke-linecap: square"/>
    </g>
    <g id="text_22">
     <!-- Transfer Function -->
     <g transform="translate(422.841063 66.710438) scale(0.1 -0.1)">
      <use xlink:href="#DejaVuSans-54"/>
      <use xlink:href="#DejaVuSans-72" transform="translate(46.333984 0)"/>
      <use xlink:href="#DejaVuSans-61" transform="translate(87.447266 0)"/>
      <use xlink:href="#DejaVuSans-6e" transform="translate(148.726562 0)"/>
      <use xlink:href="#DejaVuSans-73" transform="translate(212.105469 0)"/>
      <use xlink:href="#DejaVuSans-66" transform="translate(264.205078 0)"/>
      <use xlink:href="#DejaVuSans-65" transform="translate(299.410156 0)"/>
      <use xlink:href="#DejaVuSans-72" transform="translate(360.933594 0)"/>
      <use xlink:href="#DejaVuSans-20" transform="translate(402.046875 0)"/>
      <use xlink:href="#DejaVuSans-46" transform="translate(433.833984 0)"/>
      <use xlink:href="#DejaVuSans-75" transform="translate(485.853516 0)"/>
      <use xlink:href="#DejaVuSans-6e" transform="translate(549.232422 0)"/>
      <use xlink:href="#DejaVuSans-63" transform="translate(612.611328 0)"/>
      <use xlink:href="#DejaVuSans-74" transform="translate(667.591797 0)"/>
      <use xlink:href="#DejaVuSans-69" transform="translate(706.800781 0)"/>
      <use xlink:href="#DejaVuSans-6f" transform="translate(734.583984 0)"/>
      <use xlink:href="#DejaVuSans-6e" transform="translate(795.765625 0)"/>
     </g>
    </g>
   </g>
  </g>
 </g>
 <defs>
  <clipPath id="p7a0f9e74c8">
   <rect x="71.91" y="50.112" width="445.842" height="321.552"/>
  </clipPath>
 </defs>
</svg>
