<?xml version="1.0" encoding="utf-8" standalone="no"?>
<!DOCTYPE svg PUBLIC "-//W3C//DTD SVG 1.1//EN"
  "http://www.w3.org/Graphics/SVG/1.1/DTD/svg11.dtd">
<svg xmlns:xlink="http://www.w3.org/1999/xlink" width="1080pt" height="432pt" viewBox="0 0 1080 432" xmlns="http://www.w3.org/2000/svg" version="1.1">
 <metadata>
  <rdf:RDF xmlns:dc="http://purl.org/dc/elements/1.1/" xmlns:cc="http://creativecommons.org/ns#" xmlns:rdf="http://www.w3.org/1999/02/22-rdf-syntax-ns#">
   <cc:Work>
    <dc:type rdf:resource="http://purl.org/dc/dcmitype/StillImage"/>
    <dc:date>2026-06-29T09:22:59.105189</dc:date>
    <dc:format>image/svg+xml</dc:format>
    <dc:creator>
     <cc:Agent>
      <dc:title>Matplotlib v3.10.0, https://matplotlib.org/</dc:title>
     </cc:Agent>
    </dc:creator>
   </cc:Work>
  </rdf:RDF>
 </metadata>
 <defs>
  <style type="text/css">*{stroke-linejoin: round; stroke-linecap: butt}</style>
 </defs>
 <g id="figure_1">
  <g id="patch_1">
   <path d="M 0 432 
L 1080 432 
L 1080 0 
L 0 0 
z
" style="fill: #ffffff"/>
  </g>
  <g id="axes_1">
   <g id="patch_2">
    <path d="M 54.2 389.93875 
L 554.55 389.93875 
L 554.55 25.44 
L 54.2 25.44 
z
" style="fill: #ffffff"/>
   </g>
   <g id="FillBetweenPolyCollection_1"/>
   <g id="FillBetweenPolyCollection_2"/>
   <g id="FillBetweenPolyCollection_3"/>
   <g id="FillBetweenPolyCollection_4"/>
   <g id="matplotlib.axis_1">
    <g id="xtick_1">
     <g id="line2d_1">
      <defs>
       <path id="m9a1788bbbe" d="M 0 0 
L 0 3.5 
" style="stroke: #000000; stroke-width: 0.8"/>
      </defs>
      <g>
       <use xlink:href="#m9a1788bbbe" x="127.483586" y="389.93875" style="stroke: #000000; stroke-width: 0.8"/>
      </g>
     </g>
     <g id="text_1">
      <!-- 1000 -->
      <g transform="translate(114.758586 404.537187) scale(0.1 -0.1)">
       <defs>
        <path id="DejaVuSans-31" d="M 794 531 
L 1825 531 
L 1825 4091 
L 703 3866 
L 703 4441 
L 1819 4666 
L 2450 4666 
L 2450 531 
L 3481 531 
L 3481 0 
L 794 0 
L 794 531 
z
" transform="scale(0.015625)"/>
        <path id="DejaVuSans-30" d="M 2034 4250 
Q 1547 4250 1301 3770 
Q 1056 3291 1056 2328 
Q 1056 1369 1301 889 
Q 1547 409 2034 409 
Q 2525 409 2770 889 
Q 3016 1369 3016 2328 
Q 3016 3291 2770 3770 
Q 2525 4250 2034 4250 
z
M 2034 4750 
Q 2819 4750 3233 4129 
Q 3647 3509 3647 2328 
Q 3647 1150 3233 529 
Q 2819 -91 2034 -91 
Q 1250 -91 836 529 
Q 422 1150 422 2328 
Q 422 3509 836 4129 
Q 1250 4750 2034 4750 
z
" transform="scale(0.015625)"/>
       </defs>
       <use xlink:href="#DejaVuSans-31"/>
       <use xlink:href="#DejaVuSans-30" transform="translate(63.623047 0)"/>
       <use xlink:href="#DejaVuSans-30" transform="translate(127.246094 0)"/>
       <use xlink:href="#DejaVuSans-30" transform="translate(190.869141 0)"/>
      </g>
     </g>
    </g>
    <g id="xtick_2">
     <g id="line2d_2">
      <g>
       <use xlink:href="#m9a1788bbbe" x="228.564394" y="389.93875" style="stroke: #000000; stroke-width: 0.8"/>
      </g>
     </g>
     <g id="text_2">
      <!-- 2000 -->
      <g transform="translate(215.839394 404.537187) scale(0.1 -0.1)">
       <defs>
        <path id="DejaVuSans-32" d="M 1228 531 
L 3431 531 
L 3431 0 
L 469 0 
L 469 531 
Q 828 903 1448 1529 
Q 2069 2156 2228 2338 
Q 2531 2678 2651 2914 
Q 2772 3150 2772 3378 
Q 2772 3750 2511 3984 
Q 2250 4219 1831 4219 
Q 1534 4219 1204 4116 
Q 875 4013 500 3803 
L 500 4441 
Q 881 4594 1212 4672 
Q 1544 4750 1819 4750 
Q 2544 4750 2975 4387 
Q 3406 4025 3406 3419 
Q 3406 3131 3298 2873 
Q 3191 2616 2906 2266 
Q 2828 2175 2409 1742 
Q 1991 1309 1228 531 
z
" transform="scale(0.015625)"/>
       </defs>
       <use xlink:href="#DejaVuSans-32"/>
       <use xlink:href="#DejaVuSans-30" transform="translate(63.623047 0)"/>
       <use xlink:href="#DejaVuSans-30" transform="translate(127.246094 0)"/>
       <use xlink:href="#DejaVuSans-30" transform="translate(190.869141 0)"/>
      </g>
     </g>
    </g>
    <g id="xtick_3">
     <g id="line2d_3">
      <g>
       <use xlink:href="#m9a1788bbbe" x="329.645202" y="389.93875" style="stroke: #000000; stroke-width: 0.8"/>
      </g>
     </g>
     <g id="text_3">
      <!-- 3000 -->
      <g transform="translate(316.920202 404.537187) scale(0.1 -0.1)">
       <defs>
        <path id="DejaVuSans-33" d="M 2597 2516 
Q 3050 2419 3304 2112 
Q 3559 1806 3559 1356 
Q 3559 666 3084 287 
Q 2609 -91 1734 -91 
Q 1441 -91 1130 -33 
Q 819 25 488 141 
L 488 750 
Q 750 597 1062 519 
Q 1375 441 1716 441 
Q 2309 441 2620 675 
Q 2931 909 2931 1356 
Q 2931 1769 2642 2001 
Q 2353 2234 1838 2234 
L 1294 2234 
L 1294 2753 
L 1863 2753 
Q 2328 2753 2575 2939 
Q 2822 3125 2822 3475 
Q 2822 3834 2567 4026 
Q 2313 4219 1838 4219 
Q 1578 4219 1281 4162 
Q 984 4106 628 3988 
L 628 4550 
Q 988 4650 1302 4700 
Q 1616 4750 1894 4750 
Q 2613 4750 3031 4423 
Q 3450 4097 3450 3541 
Q 3450 3153 3228 2886 
Q 3006 2619 2597 2516 
z
" transform="scale(0.015625)"/>
       </defs>
       <use xlink:href="#DejaVuSans-33"/>
       <use xlink:href="#DejaVuSans-30" transform="translate(63.623047 0)"/>
       <use xlink:href="#DejaVuSans-30" transform="translate(127.246094 0)"/>
       <use xlink:href="#DejaVuSans-30" transform="translate(190.869141 0)"/>
      </g>
     </g>
    </g>
    <g id="xtick_4">
     <g id="line2d_4">
      <g>
       <use xlink:href="#m9a1788bbbe" x="430.72601" y="389.93875" style="stroke: #000000; stroke-width: 0.8"/>
      </g>
     </g>
     <g id="text_4">
      <!-- 4000 -->
      <g transform="translate(418.00101 404.537187) scale(0.1 -0.1)">
       <defs>
        <path id="DejaVuSans-34" d="M 2419 4116 
L 825 1625 
L 2419 1625 
L 2419 4116 
z
M 2253 4666 
L 3047 4666 
L 3047 1625 
L 3713 1625 
L 3713 1100 
L 3047 1100 
L 3047 0 
L 2419 0 
L 2419 1100 
L 313 1100 
L 313 1709 
L 2253 4666 
z
" transform="scale(0.015625)"/>
       </defs>
       <use xlink:href="#DejaVuSans-34"/>
       <use xlink:href="#DejaVuSans-30" transform="translate(63.623047 0)"/>
       <use xlink:href="#DejaVuSans-30" transform="translate(127.246094 0)"/>
       <use xlink:href="#DejaVuSans-30" transform="translate(190.869141 0)"/>
      </g>
     </g>
    </g>
    <g id="xtick_5">
     <g id="line2d_5">
      <g>
       <use xlink:href="#m9a1788bbbe" x="531.806818" y="389.93875" style="stroke: #000000; stroke-width: 0.8"/>
      </g>
     </g>
     <g id="text_5">
      <!-- 5000 -->
      <g transform="translate(519.081818 404.537187) scale(0.1 -0.1)">
       <defs>
        <path id="DejaVuSans-35" d="M 691 4666 
L 3169 4666 
L 3169 4134 
L 1269 4134 
L 1269 2991 
Q 1406 3038 1543 3061 
Q 1681 3084 1819 3084 
Q 2600 3084 3056 2656 
Q 3513 2228 3513 1497 
Q 3513 744 3044 326 
Q 2575 -91 1722 -91 
Q 1428 -91 1123 -41 
Q 819 9 494 109 
L 494 744 
Q 775 591 1075 516 
Q 1375 441 1709 441 
Q 2250 441 2565 725 
Q 2881 1009 2881 1497 
Q 2881 1984 2565 2268 
Q 2250 2553 1709 2553 
Q 1456 2553 1204 2497 
Q 953 2441 691 2322 
L 691 4666 
z
" transform="scale(0.015625)"/>
       </defs>
       <use xlink:href="#DejaVuSans-35"/>
       <use xlink:href="#DejaVuSans-30" transform="translate(63.623047 0)"/>
       <use xlink:href="#DejaVuSans-30" transform="translate(127.246094 0)"/>
       <use xlink:href="#DejaVuSans-30" transform="translate(190.869141 0)"/>
      </g>
     </g>
    </g>
    <g id="text_6">
     <!-- x_distance -->
     <g transform="translate(277.728906 418.215312) scale(0.1 -0.1)">
      <defs>
       <path id="DejaVuSans-78" d="M 3513 3500 
L 2247 1797 
L 3578 0 
L 2900 0 
L 1881 1375 
L 863 0 
L 184 0 
L 1544 1831 
L 300 3500 
L 978 3500 
L 1906 2253 
L 2834 3500 
L 3513 3500 
z
" transform="scale(0.015625)"/>
       <path id="DejaVuSans-5f" d="M 3263 -1063 
L 3263 -1509 
L -63 -1509 
L -63 -1063 
L 3263 -1063 
z
" transform="scale(0.015625)"/>
       <path id="DejaVuSans-64" d="M 2906 2969 
L 2906 4863 
L 3481 4863 
L 3481 0 
L 2906 0 
L 2906 525 
Q 2725 213 2448 61 
Q 2172 -91 1784 -91 
Q 1150 -91 751 415 
Q 353 922 353 1747 
Q 353 2572 751 3078 
Q 1150 3584 1784 3584 
Q 2172 3584 2448 3432 
Q 2725 3281 2906 2969 
z
M 947 1747 
Q 947 1113 1208 752 
Q 1469 391 1925 391 
Q 2381 391 2643 752 
Q 2906 1113 2906 1747 
Q 2906 2381 2643 2742 
Q 2381 3103 1925 3103 
Q 1469 3103 1208 2742 
Q 947 2381 947 1747 
z
" transform="scale(0.015625)"/>
       <path id="DejaVuSans-69" d="M 603 3500 
L 1178 3500 
L 1178 0 
L 603 0 
L 603 3500 
z
M 603 4863 
L 1178 4863 
L 1178 4134 
L 603 4134 
L 603 4863 
z
" transform="scale(0.015625)"/>
       <path id="DejaVuSans-73" d="M 2834 3397 
L 2834 2853 
Q 2591 2978 2328 3040 
Q 2066 3103 1784 3103 
Q 1356 3103 1142 2972 
Q 928 2841 928 2578 
Q 928 2378 1081 2264 
Q 1234 2150 1697 2047 
L 1894 2003 
Q 2506 1872 2764 1633 
Q 3022 1394 3022 966 
Q 3022 478 2636 193 
Q 2250 -91 1575 -91 
Q 1294 -91 989 -36 
Q 684 19 347 128 
L 347 722 
Q 666 556 975 473 
Q 1284 391 1588 391 
Q 1994 391 2212 530 
Q 2431 669 2431 922 
Q 2431 1156 2273 1281 
Q 2116 1406 1581 1522 
L 1381 1569 
Q 847 1681 609 1914 
Q 372 2147 372 2553 
Q 372 3047 722 3315 
Q 1072 3584 1716 3584 
Q 2034 3584 2315 3537 
Q 2597 3491 2834 3397 
z
" transform="scale(0.015625)"/>
       <path id="DejaVuSans-74" d="M 1172 4494 
L 1172 3500 
L 2356 3500 
L 2356 3053 
L 1172 3053 
L 1172 1153 
Q 1172 725 1289 603 
Q 1406 481 1766 481 
L 2356 481 
L 2356 0 
L 1766 0 
Q 1100 0 847 248 
Q 594 497 594 1153 
L 594 3053 
L 172 3053 
L 172 3500 
L 594 3500 
L 594 4494 
L 1172 4494 
z
" transform="scale(0.015625)"/>
       <path id="DejaVuSans-61" d="M 2194 1759 
Q 1497 1759 1228 1600 
Q 959 1441 959 1056 
Q 959 750 1161 570 
Q 1363 391 1709 391 
Q 2188 391 2477 730 
Q 2766 1069 2766 1631 
L 2766 1759 
L 2194 1759 
z
M 3341 1997 
L 3341 0 
L 2766 0 
L 2766 531 
Q 2569 213 2275 61 
Q 1981 -91 1556 -91 
Q 1019 -91 701 211 
Q 384 513 384 1019 
Q 384 1609 779 1909 
Q 1175 2209 1959 2209 
L 2766 2209 
L 2766 2266 
Q 2766 2663 2505 2880 
Q 2244 3097 1772 3097 
Q 1472 3097 1187 3025 
Q 903 2953 641 2809 
L 641 3341 
Q 956 3463 1253 3523 
Q 1550 3584 1831 3584 
Q 2591 3584 2966 3190 
Q 3341 2797 3341 1997 
z
" transform="scale(0.015625)"/>
       <path id="DejaVuSans-6e" d="M 3513 2113 
L 3513 0 
L 2938 0 
L 2938 2094 
Q 2938 2591 2744 2837 
Q 2550 3084 2163 3084 
Q 1697 3084 1428 2787 
Q 1159 2491 1159 1978 
L 1159 0 
L 581 0 
L 581 3500 
L 1159 3500 
L 1159 2956 
Q 1366 3272 1645 3428 
Q 1925 3584 2291 3584 
Q 2894 3584 3203 3211 
Q 3513 2838 3513 2113 
z
" transform="scale(0.015625)"/>
       <path id="DejaVuSans-63" d="M 3122 3366 
L 3122 2828 
Q 2878 2963 2633 3030 
Q 2388 3097 2138 3097 
Q 1578 3097 1268 2742 
Q 959 2388 959 1747 
Q 959 1106 1268 751 
Q 1578 397 2138 397 
Q 2388 397 2633 464 
Q 2878 531 3122 666 
L 3122 134 
Q 2881 22 2623 -34 
Q 2366 -91 2075 -91 
Q 1284 -91 818 406 
Q 353 903 353 1747 
Q 353 2603 823 3093 
Q 1294 3584 2113 3584 
Q 2378 3584 2631 3529 
Q 2884 3475 3122 3366 
z
" transform="scale(0.015625)"/>
       <path id="DejaVuSans-65" d="M 3597 1894 
L 3597 1613 
L 953 1613 
Q 991 1019 1311 708 
Q 1631 397 2203 397 
Q 2534 397 2845 478 
Q 3156 559 3463 722 
L 3463 178 
Q 3153 47 2828 -22 
Q 2503 -91 2169 -91 
Q 1331 -91 842 396 
Q 353 884 353 1716 
Q 353 2575 817 3079 
Q 1281 3584 2069 3584 
Q 2775 3584 3186 3129 
Q 3597 2675 3597 1894 
z
M 3022 2063 
Q 3016 2534 2758 2815 
Q 2500 3097 2075 3097 
Q 1594 3097 1305 2825 
Q 1016 2553 972 2059 
L 3022 2063 
z
" transform="scale(0.015625)"/>
      </defs>
      <use xlink:href="#DejaVuSans-78"/>
      <use xlink:href="#DejaVuSans-5f" transform="translate(59.179688 0)"/>
      <use xlink:href="#DejaVuSans-64" transform="translate(109.179688 0)"/>
      <use xlink:href="#DejaVuSans-69" transform="translate(172.65625 0)"/>
      <use xlink:href="#DejaVuSans-73" transform="translate(200.439453 0)"/>
      <use xlink:href="#DejaVuSans-74" transform="translate(252.539062 0)"/>
      <use xlink:href="#DejaVuSans-61" transform="translate(291.748047 0)"/>
      <use xlink:href="#DejaVuSans-6e" transform="translate(353.027344 0)"/>
      <use xlink:href="#DejaVuSans-63" transform="translate(416.40625 0)"/>
      <use xlink:href="#DejaVuSans-65" transform="translate(471.386719 0)"/>
     </g>
    </g>
   </g>
   <g id="matplotlib.axis_2">
    <g id="ytick_1">
     <g id="line2d_6">
      <defs>
       <path id="mae5eaf7785" d="M 0 0 
L -3.5 0 
" style="stroke: #000000; stroke-width: 0.8"/>
      </defs>
      <g>
       <use xlink:href="#mae5eaf7785" x="54.2" y="356.192709" style="stroke: #000000; stroke-width: 0.8"/>
      </g>
     </g>
     <g id="text_7">
      <!-- 0.93 -->
      <g transform="translate(24.934375 359.991928) scale(0.1 -0.1)">
       <defs>
        <path id="DejaVuSans-2e" d="M 684 794 
L 1344 794 
L 1344 0 
L 684 0 
L 684 794 
z
" transform="scale(0.015625)"/>
        <path id="DejaVuSans-39" d="M 703 97 
L 703 672 
Q 941 559 1184 500 
Q 1428 441 1663 441 
Q 2288 441 2617 861 
Q 2947 1281 2994 2138 
Q 2813 1869 2534 1725 
Q 2256 1581 1919 1581 
Q 1219 1581 811 2004 
Q 403 2428 403 3163 
Q 403 3881 828 4315 
Q 1253 4750 1959 4750 
Q 2769 4750 3195 4129 
Q 3622 3509 3622 2328 
Q 3622 1225 3098 567 
Q 2575 -91 1691 -91 
Q 1453 -91 1209 -44 
Q 966 3 703 97 
z
M 1959 2075 
Q 2384 2075 2632 2365 
Q 2881 2656 2881 3163 
Q 2881 3666 2632 3958 
Q 2384 4250 1959 4250 
Q 1534 4250 1286 3958 
Q 1038 3666 1038 3163 
Q 1038 2656 1286 2365 
Q 1534 2075 1959 2075 
z
" transform="scale(0.015625)"/>
       </defs>
       <use xlink:href="#DejaVuSans-30"/>
       <use xlink:href="#DejaVuSans-2e" transform="translate(63.623047 0)"/>
       <use xlink:href="#DejaVuSans-39" transform="translate(95.410156 0)"/>
       <use xlink:href="#DejaVuSans-33" transform="translate(159.033203 0)"/>
      </g>
     </g>
    </g>
    <g id="ytick_2">
     <g id="line2d_7">
      <g>
       <use xlink:href="#mae5eaf7785" x="54.2" y="311.309197" style="stroke: #000000; stroke-width: 0.8"/>
      </g>
     </g>
     <g id="text_8">
      <!-- 0.94 -->
      <g transform="translate(24.934375 315.108416) scale(0.1 -0.1)">
       <use xlink:href="#DejaVuSans-30"/>
       <use xlink:href="#DejaVuSans-2e" transform="translate(63.623047 0)"/>
       <use xlink:href="#DejaVuSans-39" transform="translate(95.410156 0)"/>
       <use xlink:href="#DejaVuSans-34" transform="translate(159.033203 0)"/>
      </g>
     </g>
    </g>
    <g id="ytick_3">
     <g id="line2d_8">
      <g>
       <use xlink:href="#mae5eaf7785" x="54.2" y="266.425685" style="stroke: #000000; stroke-width: 0.8"/>
      </g>
     </g>
     <g id="text_9">
      <!-- 0.95 -->
      <g transform="translate(24.934375 270.224904) scale(0.1 -0.1)">
       <use xlink:href="#DejaVuSans-30"/>
       <use xlink:href="#DejaVuSans-2e" transform="translate(63.623047 0)"/>
       <use xlink:href="#DejaVuSans-39" transform="translate(95.410156 0)"/>
       <use xlink:href="#DejaVuSans-35" transform="translate(159.033203 0)"/>
      </g>
     </g>
    </g>
    <g id="ytick_4">
     <g id="line2d_9">
      <g>
       <use xlink:href="#mae5eaf7785" x="54.2" y="221.542173" style="stroke: #000000; stroke-width: 0.8"/>
      </g>
     </g>
     <g id="text_10">
      <!-- 0.96 -->
      <g transform="translate(24.934375 225.341392) scale(0.1 -0.1)">
       <defs>
        <path id="DejaVuSans-36" d="M 2113 2584 
Q 1688 2584 1439 2293 
Q 1191 2003 1191 1497 
Q 1191 994 1439 701 
Q 1688 409 2113 409 
Q 2538 409 2786 701 
Q 3034 994 3034 1497 
Q 3034 2003 2786 2293 
Q 2538 2584 2113 2584 
z
M 3366 4563 
L 3366 3988 
Q 3128 4100 2886 4159 
Q 2644 4219 2406 4219 
Q 1781 4219 1451 3797 
Q 1122 3375 1075 2522 
Q 1259 2794 1537 2939 
Q 1816 3084 2150 3084 
Q 2853 3084 3261 2657 
Q 3669 2231 3669 1497 
Q 3669 778 3244 343 
Q 2819 -91 2113 -91 
Q 1303 -91 875 529 
Q 447 1150 447 2328 
Q 447 3434 972 4092 
Q 1497 4750 2381 4750 
Q 2619 4750 2861 4703 
Q 3103 4656 3366 4563 
z
" transform="scale(0.015625)"/>
       </defs>
       <use xlink:href="#DejaVuSans-30"/>
       <use xlink:href="#DejaVuSans-2e" transform="translate(63.623047 0)"/>
       <use xlink:href="#DejaVuSans-39" transform="translate(95.410156 0)"/>
       <use xlink:href="#DejaVuSans-36" transform="translate(159.033203 0)"/>
      </g>
     </g>
    </g>
    <g id="ytick_5">
     <g id="line2d_10">
      <g>
       <use xlink:href="#mae5eaf7785" x="54.2" y="176.658661" style="stroke: #000000; stroke-width: 0.8"/>
      </g>
     </g>
     <g id="text_11">
      <!-- 0.97 -->
      <g transform="translate(24.934375 180.45788) scale(0.1 -0.1)">
       <defs>
        <path id="DejaVuSans-37" d="M 525 4666 
L 3525 4666 
L 3525 4397 
L 1831 0 
L 1172 0 
L 2766 4134 
L 525 4134 
L 525 4666 
z
" transform="scale(0.015625)"/>
       </defs>
       <use xlink:href="#DejaVuSans-30"/>
       <use xlink:href="#DejaVuSans-2e" transform="translate(63.623047 0)"/>
       <use xlink:href="#DejaVuSans-39" transform="translate(95.410156 0)"/>
       <use xlink:href="#DejaVuSans-37" transform="translate(159.033203 0)"/>
      </g>
     </g>
    </g>
    <g id="ytick_6">
     <g id="line2d_11">
      <g>
       <use xlink:href="#mae5eaf7785" x="54.2" y="131.775149" style="stroke: #000000; stroke-width: 0.8"/>
      </g>
     </g>
     <g id="text_12">
      <!-- 0.98 -->
      <g transform="translate(24.934375 135.574368) scale(0.1 -0.1)">
       <defs>
        <path id="DejaVuSans-38" d="M 2034 2216 
Q 1584 2216 1326 1975 
Q 1069 1734 1069 1313 
Q 1069 891 1326 650 
Q 1584 409 2034 409 
Q 2484 409 2743 651 
Q 3003 894 3003 1313 
Q 3003 1734 2745 1975 
Q 2488 2216 2034 2216 
z
M 1403 2484 
Q 997 2584 770 2862 
Q 544 3141 544 3541 
Q 544 4100 942 4425 
Q 1341 4750 2034 4750 
Q 2731 4750 3128 4425 
Q 3525 4100 3525 3541 
Q 3525 3141 3298 2862 
Q 3072 2584 2669 2484 
Q 3125 2378 3379 2068 
Q 3634 1759 3634 1313 
Q 3634 634 3220 271 
Q 2806 -91 2034 -91 
Q 1263 -91 848 271 
Q 434 634 434 1313 
Q 434 1759 690 2068 
Q 947 2378 1403 2484 
z
M 1172 3481 
Q 1172 3119 1398 2916 
Q 1625 2713 2034 2713 
Q 2441 2713 2670 2916 
Q 2900 3119 2900 3481 
Q 2900 3844 2670 4047 
Q 2441 4250 2034 4250 
Q 1625 4250 1398 4047 
Q 1172 3844 1172 3481 
z
" transform="scale(0.015625)"/>
       </defs>
       <use xlink:href="#DejaVuSans-30"/>
       <use xlink:href="#DejaVuSans-2e" transform="translate(63.623047 0)"/>
       <use xlink:href="#DejaVuSans-39" transform="translate(95.410156 0)"/>
       <use xlink:href="#DejaVuSans-38" transform="translate(159.033203 0)"/>
      </g>
     </g>
    </g>
    <g id="ytick_7">
     <g id="line2d_12">
      <g>
       <use xlink:href="#mae5eaf7785" x="54.2" y="86.891637" style="stroke: #000000; stroke-width: 0.8"/>
      </g>
     </g>
     <g id="text_13">
      <!-- 0.99 -->
      <g transform="translate(24.934375 90.690856) scale(0.1 -0.1)">
       <use xlink:href="#DejaVuSans-30"/>
       <use xlink:href="#DejaVuSans-2e" transform="translate(63.623047 0)"/>
       <use xlink:href="#DejaVuSans-39" transform="translate(95.410156 0)"/>
       <use xlink:href="#DejaVuSans-39" transform="translate(159.033203 0)"/>
      </g>
     </g>
    </g>
    <g id="ytick_8">
     <g id="line2d_13">
      <g>
       <use xlink:href="#mae5eaf7785" x="54.2" y="42.008125" style="stroke: #000000; stroke-width: 0.8"/>
      </g>
     </g>
     <g id="text_14">
      <!-- 1.00 -->
      <g transform="translate(24.934375 45.807344) scale(0.1 -0.1)">
       <use xlink:href="#DejaVuSans-31"/>
       <use xlink:href="#DejaVuSans-2e" transform="translate(63.623047 0)"/>
       <use xlink:href="#DejaVuSans-30" transform="translate(95.410156 0)"/>
       <use xlink:href="#DejaVuSans-30" transform="translate(159.033203 0)"/>
      </g>
     </g>
    </g>
    <g id="text_15">
     <!-- ratio -->
     <g transform="translate(18.854688 219.2175) rotate(-90) scale(0.1 -0.1)">
      <defs>
       <path id="DejaVuSans-72" d="M 2631 2963 
Q 2534 3019 2420 3045 
Q 2306 3072 2169 3072 
Q 1681 3072 1420 2755 
Q 1159 2438 1159 1844 
L 1159 0 
L 581 0 
L 581 3500 
L 1159 3500 
L 1159 2956 
Q 1341 3275 1631 3429 
Q 1922 3584 2338 3584 
Q 2397 3584 2469 3576 
Q 2541 3569 2628 3553 
L 2631 2963 
z
" transform="scale(0.015625)"/>
       <path id="DejaVuSans-6f" d="M 1959 3097 
Q 1497 3097 1228 2736 
Q 959 2375 959 1747 
Q 959 1119 1226 758 
Q 1494 397 1959 397 
Q 2419 397 2687 759 
Q 2956 1122 2956 1747 
Q 2956 2369 2687 2733 
Q 2419 3097 1959 3097 
z
M 1959 3584 
Q 2709 3584 3137 3096 
Q 3566 2609 3566 1747 
Q 3566 888 3137 398 
Q 2709 -91 1959 -91 
Q 1206 -91 779 398 
Q 353 888 353 1747 
Q 353 2609 779 3096 
Q 1206 3584 1959 3584 
z
" transform="scale(0.015625)"/>
      </defs>
      <use xlink:href="#DejaVuSans-72"/>
      <use xlink:href="#DejaVuSans-61" transform="translate(41.113281 0)"/>
      <use xlink:href="#DejaVuSans-74" transform="translate(102.392578 0)"/>
      <use xlink:href="#DejaVuSans-69" transform="translate(141.601562 0)"/>
      <use xlink:href="#DejaVuSans-6f" transform="translate(169.384766 0)"/>
     </g>
    </g>
   </g>
   <g id="line2d_14">
    <path d="M 76.943182 42.008125 
L 127.483586 42.008125 
L 178.02399 42.008125 
L 228.564394 42.032528 
L 279.104798 42.062418 
L 329.645202 42.155222 
L 380.185606 42.281542 
L 430.72601 42.209071 
L 481.266414 42.05228 
L 531.806818 42.420801 
" clip-path="url(#pcdc8607603)" style="fill: none; stroke: #edd1cb; stroke-width: 1.5; stroke-linecap: square"/>
   </g>
   <g id="line2d_15">
    <path d="M 76.943182 42.094414 
L 127.483586 42.183832 
L 178.02399 42.29452 
L 228.564394 42.136983 
L 279.104798 42.053455 
L 329.645202 42.225965 
L 380.185606 42.219555 
L 430.72601 42.008125 
L 481.266414 42.429603 
L 531.806818 42.332444 
" clip-path="url(#pcdc8607603)" style="fill: none; stroke: #d8a0aa; stroke-width: 1.5; stroke-linecap: square"/>
   </g>
   <g id="line2d_16">
    <path d="M 76.943182 42.52388 
L 127.483586 42.256375 
L 178.02399 42.244466 
L 228.564394 42.272195 
L 279.104798 42.174262 
L 329.645202 42.30182 
L 380.185606 42.133673 
L 430.72601 42.359904 
L 481.266414 42.246444 
L 531.806818 42.415237 
" clip-path="url(#pcdc8607603)" style="fill: none; stroke: #9b5c89; stroke-width: 1.5; stroke-linecap: square"/>
   </g>
   <g id="line2d_17">
    <path d="M 76.943182 42.730021 
L 127.483586 42.636876 
L 178.02399 42.412894 
L 228.564394 42.214081 
L 279.104798 42.301124 
L 329.645202 42.404862 
L 380.185606 42.947641 
L 430.72601 42.396099 
L 481.266414 42.502772 
L 531.806818 42.543648 
" clip-path="url(#pcdc8607603)" style="fill: none; stroke: #2d1e3e; stroke-width: 1.5; stroke-linecap: square"/>
   </g>
   <g id="line2d_18"/>
   <g id="line2d_19"/>
   <g id="line2d_20"/>
   <g id="line2d_21"/>
   <g id="patch_3">
    <path d="M 54.2 389.93875 
L 54.2 25.44 
" style="fill: none; stroke: #000000; stroke-width: 0.8; stroke-linejoin: miter; stroke-linecap: square"/>
   </g>
   <g id="patch_4">
    <path d="M 554.55 389.93875 
L 554.55 25.44 
" style="fill: none; stroke: #000000; stroke-width: 0.8; stroke-linejoin: miter; stroke-linecap: square"/>
   </g>
   <g id="patch_5">
    <path d="M 54.2 389.93875 
L 554.55 389.93875 
" style="fill: none; stroke: #000000; stroke-width: 0.8; stroke-linejoin: miter; stroke-linecap: square"/>
   </g>
   <g id="patch_6">
    <path d="M 54.2 25.44 
L 554.55 25.44 
" style="fill: none; stroke: #000000; stroke-width: 0.8; stroke-linejoin: miter; stroke-linecap: square"/>
   </g>
   <g id="text_16">
    <!-- Link ratio -->
    <g transform="translate(276.3475 19.44) scale(0.12 -0.12)">
     <defs>
      <path id="DejaVuSans-4c" d="M 628 4666 
L 1259 4666 
L 1259 531 
L 3531 531 
L 3531 0 
L 628 0 
L 628 4666 
z
" transform="scale(0.015625)"/>
      <path id="DejaVuSans-6b" d="M 581 4863 
L 1159 4863 
L 1159 1991 
L 2875 3500 
L 3609 3500 
L 1753 1863 
L 3688 0 
L 2938 0 
L 1159 1709 
L 1159 0 
L 581 0 
L 581 4863 
z
" transform="scale(0.015625)"/>
      <path id="DejaVuSans-20" transform="scale(0.015625)"/>
     </defs>
     <use xlink:href="#DejaVuSans-4c"/>
     <use xlink:href="#DejaVuSans-69" transform="translate(55.712891 0)"/>
     <use xlink:href="#DejaVuSans-6e" transform="translate(83.496094 0)"/>
     <use xlink:href="#DejaVuSans-6b" transform="translate(146.875 0)"/>
     <use xlink:href="#DejaVuSans-20" transform="translate(204.785156 0)"/>
     <use xlink:href="#DejaVuSans-72" transform="translate(236.572266 0)"/>
     <use xlink:href="#DejaVuSans-61" transform="translate(277.685547 0)"/>
     <use xlink:href="#DejaVuSans-74" transform="translate(338.964844 0)"/>
     <use xlink:href="#DejaVuSans-69" transform="translate(378.173828 0)"/>
     <use xlink:href="#DejaVuSans-6f" transform="translate(405.957031 0)"/>
    </g>
   </g>
   <g id="legend_1">
    <g id="patch_7">
     <path d="M 61.2 384.93875 
L 118.65 384.93875 
Q 120.65 384.93875 120.65 382.93875 
L 120.65 310.27 
Q 120.65 308.27 118.65 308.27 
L 61.2 308.27 
Q 59.2 308.27 59.2 310.27 
L 59.2 382.93875 
Q 59.2 384.93875 61.2 384.93875 
z
" style="fill: #ffffff; opacity: 0.8; stroke: #cccccc; stroke-linejoin: miter"/>
    </g>
    <g id="text_17">
     <!-- y_off -->
     <g transform="translate(77.885938 319.868437) scale(0.1 -0.1)">
      <defs>
       <path id="DejaVuSans-79" d="M 2059 -325 
Q 1816 -950 1584 -1140 
Q 1353 -1331 966 -1331 
L 506 -1331 
L 506 -850 
L 844 -850 
Q 1081 -850 1212 -737 
Q 1344 -625 1503 -206 
L 1606 56 
L 191 3500 
L 800 3500 
L 1894 763 
L 2988 3500 
L 3597 3500 
L 2059 -325 
z
" transform="scale(0.015625)"/>
       <path id="DejaVuSans-66" d="M 2375 4863 
L 2375 4384 
L 1825 4384 
Q 1516 4384 1395 4259 
Q 1275 4134 1275 3809 
L 1275 3500 
L 2222 3500 
L 2222 3053 
L 1275 3053 
L 1275 0 
L 697 0 
L 697 3053 
L 147 3053 
L 147 3500 
L 697 3500 
L 697 3744 
Q 697 4328 969 4595 
Q 1241 4863 1831 4863 
L 2375 4863 
z
" transform="scale(0.015625)"/>
      </defs>
      <use xlink:href="#DejaVuSans-79"/>
      <use xlink:href="#DejaVuSans-5f" transform="translate(59.179688 0)"/>
      <use xlink:href="#DejaVuSans-6f" transform="translate(109.179688 0)"/>
      <use xlink:href="#DejaVuSans-66" transform="translate(170.361328 0)"/>
      <use xlink:href="#DejaVuSans-66" transform="translate(205.566406 0)"/>
     </g>
    </g>
    <g id="line2d_22">
     <path d="M 63.2 331.324687 
L 73.2 331.324687 
L 83.2 331.324687 
" style="fill: none; stroke: #edd1cb; stroke-width: 1.5; stroke-linecap: square"/>
    </g>
    <g id="text_18">
     <!-- 500 -->
     <g transform="translate(91.2 334.824687) scale(0.1 -0.1)">
      <use xlink:href="#DejaVuSans-35"/>
      <use xlink:href="#DejaVuSans-30" transform="translate(63.623047 0)"/>
      <use xlink:href="#DejaVuSans-30" transform="translate(127.246094 0)"/>
     </g>
    </g>
    <g id="line2d_23">
     <path d="M 63.2 346.002813 
L 73.2 346.002813 
L 83.2 346.002813 
" style="fill: none; stroke: #d8a0aa; stroke-width: 1.5; stroke-linecap: square"/>
    </g>
    <g id="text_19">
     <!-- 1500 -->
     <g transform="translate(91.2 349.502813) scale(0.1 -0.1)">
      <use xlink:href="#DejaVuSans-31"/>
      <use xlink:href="#DejaVuSans-35" transform="translate(63.623047 0)"/>
      <use xlink:href="#DejaVuSans-30" transform="translate(127.246094 0)"/>
      <use xlink:href="#DejaVuSans-30" transform="translate(190.869141 0)"/>
     </g>
    </g>
    <g id="line2d_24">
     <path d="M 63.2 360.680937 
L 73.2 360.680937 
L 83.2 360.680937 
" style="fill: none; stroke: #9b5c89; stroke-width: 1.5; stroke-linecap: square"/>
    </g>
    <g id="text_20">
     <!-- 3100 -->
     <g transform="translate(91.2 364.180937) scale(0.1 -0.1)">
      <use xlink:href="#DejaVuSans-33"/>
      <use xlink:href="#DejaVuSans-31" transform="translate(63.623047 0)"/>
      <use xlink:href="#DejaVuSans-30" transform="translate(127.246094 0)"/>
      <use xlink:href="#DejaVuSans-30" transform="translate(190.869141 0)"/>
     </g>
    </g>
    <g id="line2d_25">
     <path d="M 63.2 375.359062 
L 73.2 375.359062 
L 83.2 375.359062 
" style="fill: none; stroke: #2d1e3e; stroke-width: 1.5; stroke-linecap: square"/>
    </g>
    <g id="text_21">
     <!-- 5100 -->
     <g transform="translate(91.2 378.859062) scale(0.1 -0.1)">
      <use xlink:href="#DejaVuSans-35"/>
      <use xlink:href="#DejaVuSans-31" transform="translate(63.623047 0)"/>
      <use xlink:href="#DejaVuSans-30" transform="translate(127.246094 0)"/>
      <use xlink:href="#DejaVuSans-30" transform="translate(190.869141 0)"/>
     </g>
    </g>
   </g>
  </g>
  <g id="axes_2">
   <g id="patch_8">
    <path d="M 568.85 389.93875 
L 1069.2 389.93875 
L 1069.2 25.44 
L 568.85 25.44 
z
" style="fill: #ffffff"/>
   </g>
   <g id="FillBetweenPolyCollection_5"/>
   <g id="FillBetweenPolyCollection_6"/>
   <g id="FillBetweenPolyCollection_7"/>
   <g id="FillBetweenPolyCollection_8"/>
   <g id="matplotlib.axis_3">
    <g id="xtick_6">
     <g id="line2d_26">
      <g>
       <use xlink:href="#m9a1788bbbe" x="642.133586" y="389.93875" style="stroke: #000000; stroke-width: 0.8"/>
      </g>
     </g>
     <g id="text_22">
      <!-- 1000 -->
      <g transform="translate(629.408586 404.537187) scale(0.1 -0.1)">
       <use xlink:href="#DejaVuSans-31"/>
       <use xlink:href="#DejaVuSans-30" transform="translate(63.623047 0)"/>
       <use xlink:href="#DejaVuSans-30" transform="translate(127.246094 0)"/>
       <use xlink:href="#DejaVuSans-30" transform="translate(190.869141 0)"/>
      </g>
     </g>
    </g>
    <g id="xtick_7">
     <g id="line2d_27">
      <g>
       <use xlink:href="#m9a1788bbbe" x="743.214394" y="389.93875" style="stroke: #000000; stroke-width: 0.8"/>
      </g>
     </g>
     <g id="text_23">
      <!-- 2000 -->
      <g transform="translate(730.489394 404.537187) scale(0.1 -0.1)">
       <use xlink:href="#DejaVuSans-32"/>
       <use xlink:href="#DejaVuSans-30" transform="translate(63.623047 0)"/>
       <use xlink:href="#DejaVuSans-30" transform="translate(127.246094 0)"/>
       <use xlink:href="#DejaVuSans-30" transform="translate(190.869141 0)"/>
      </g>
     </g>
    </g>
    <g id="xtick_8">
     <g id="line2d_28">
      <g>
       <use xlink:href="#m9a1788bbbe" x="844.295202" y="389.93875" style="stroke: #000000; stroke-width: 0.8"/>
      </g>
     </g>
     <g id="text_24">
      <!-- 3000 -->
      <g transform="translate(831.570202 404.537187) scale(0.1 -0.1)">
       <use xlink:href="#DejaVuSans-33"/>
       <use xlink:href="#DejaVuSans-30" transform="translate(63.623047 0)"/>
       <use xlink:href="#DejaVuSans-30" transform="translate(127.246094 0)"/>
       <use xlink:href="#DejaVuSans-30" transform="translate(190.869141 0)"/>
      </g>
     </g>
    </g>
    <g id="xtick_9">
     <g id="line2d_29">
      <g>
       <use xlink:href="#m9a1788bbbe" x="945.37601" y="389.93875" style="stroke: #000000; stroke-width: 0.8"/>
      </g>
     </g>
     <g id="text_25">
      <!-- 4000 -->
      <g transform="translate(932.65101 404.537187) scale(0.1 -0.1)">
       <use xlink:href="#DejaVuSans-34"/>
       <use xlink:href="#DejaVuSans-30" transform="translate(63.623047 0)"/>
       <use xlink:href="#DejaVuSans-30" transform="translate(127.246094 0)"/>
       <use xlink:href="#DejaVuSans-30" transform="translate(190.869141 0)"/>
      </g>
     </g>
    </g>
    <g id="xtick_10">
     <g id="line2d_30">
      <g>
       <use xlink:href="#m9a1788bbbe" x="1046.456818" y="389.93875" style="stroke: #000000; stroke-width: 0.8"/>
      </g>
     </g>
     <g id="text_26">
      <!-- 5000 -->
      <g transform="translate(1033.731818 404.537187) scale(0.1 -0.1)">
       <use xlink:href="#DejaVuSans-35"/>
       <use xlink:href="#DejaVuSans-30" transform="translate(63.623047 0)"/>
       <use xlink:href="#DejaVuSans-30" transform="translate(127.246094 0)"/>
       <use xlink:href="#DejaVuSans-30" transform="translate(190.869141 0)"/>
      </g>
     </g>
    </g>
    <g id="text_27">
     <!-- x_distance -->
     <g transform="translate(792.378906 418.215312) scale(0.1 -0.1)">
      <use xlink:href="#DejaVuSans-78"/>
      <use xlink:href="#DejaVuSans-5f" transform="translate(59.179688 0)"/>
      <use xlink:href="#DejaVuSans-64" transform="translate(109.179688 0)"/>
      <use xlink:href="#DejaVuSans-69" transform="translate(172.65625 0)"/>
      <use xlink:href="#DejaVuSans-73" transform="translate(200.439453 0)"/>
      <use xlink:href="#DejaVuSans-74" transform="translate(252.539062 0)"/>
      <use xlink:href="#DejaVuSans-61" transform="translate(291.748047 0)"/>
      <use xlink:href="#DejaVuSans-6e" transform="translate(353.027344 0)"/>
      <use xlink:href="#DejaVuSans-63" transform="translate(416.40625 0)"/>
      <use xlink:href="#DejaVuSans-65" transform="translate(471.386719 0)"/>
     </g>
    </g>
   </g>
   <g id="matplotlib.axis_4">
    <g id="ytick_9">
     <g id="line2d_31">
      <g>
       <use xlink:href="#mae5eaf7785" x="568.85" y="356.192709" style="stroke: #000000; stroke-width: 0.8"/>
      </g>
     </g>
    </g>
    <g id="ytick_10">
     <g id="line2d_32">
      <g>
       <use xlink:href="#mae5eaf7785" x="568.85" y="311.309197" style="stroke: #000000; stroke-width: 0.8"/>
      </g>
     </g>
    </g>
    <g id="ytick_11">
     <g id="line2d_33">
      <g>
       <use xlink:href="#mae5eaf7785" x="568.85" y="266.425685" style="stroke: #000000; stroke-width: 0.8"/>
      </g>
     </g>
    </g>
    <g id="ytick_12">
     <g id="line2d_34">
      <g>
       <use xlink:href="#mae5eaf7785" x="568.85" y="221.542173" style="stroke: #000000; stroke-width: 0.8"/>
      </g>
     </g>
    </g>
    <g id="ytick_13">
     <g id="line2d_35">
      <g>
       <use xlink:href="#mae5eaf7785" x="568.85" y="176.658661" style="stroke: #000000; stroke-width: 0.8"/>
      </g>
     </g>
    </g>
    <g id="ytick_14">
     <g id="line2d_36">
      <g>
       <use xlink:href="#mae5eaf7785" x="568.85" y="131.775149" style="stroke: #000000; stroke-width: 0.8"/>
      </g>
     </g>
    </g>
    <g id="ytick_15">
     <g id="line2d_37">
      <g>
       <use xlink:href="#mae5eaf7785" x="568.85" y="86.891637" style="stroke: #000000; stroke-width: 0.8"/>
      </g>
     </g>
    </g>
    <g id="ytick_16">
     <g id="line2d_38">
      <g>
       <use xlink:href="#mae5eaf7785" x="568.85" y="42.008125" style="stroke: #000000; stroke-width: 0.8"/>
      </g>
     </g>
    </g>
   </g>
   <g id="line2d_39">
    <path d="M 591.593182 138.206179 
L 642.133586 170.1223 
L 692.67399 200.768288 
L 743.214394 227.599355 
L 793.754798 250.083652 
L 844.295202 275.009856 
L 894.835606 302.401879 
L 945.37601 325.865824 
L 995.916414 349.329813 
L 1046.456818 373.370625 
" clip-path="url(#p6f8ae22fda)" style="fill: none; stroke: #edd1cb; stroke-width: 1.5; stroke-linecap: square"/>
   </g>
   <g id="line2d_40">
    <path d="M 591.593182 119.42022 
L 642.133586 163.580981 
L 692.67399 193.448968 
L 743.214394 218.361214 
L 793.754798 239.297959 
L 844.295202 262.642768 
L 894.835606 287.43492 
L 945.37601 309.063015 
L 995.916414 330.566949 
L 1046.456818 352.170715 
" clip-path="url(#p6f8ae22fda)" style="fill: none; stroke: #d8a0aa; stroke-width: 1.5; stroke-linecap: square"/>
   </g>
   <g id="line2d_41">
    <path d="M 591.593182 94.240422 
L 642.133586 138.963579 
L 692.67399 174.051715 
L 743.214394 201.719554 
L 793.754798 225.158932 
L 844.295202 248.085769 
L 894.835606 268.123883 
L 945.37601 287.449445 
L 995.916414 306.595266 
L 1046.456818 325.546991 
" clip-path="url(#p6f8ae22fda)" style="fill: none; stroke: #9b5c89; stroke-width: 1.5; stroke-linecap: square"/>
   </g>
   <g id="line2d_42">
    <path d="M 591.593182 79.462582 
L 642.133586 114.966902 
L 692.67399 147.344259 
L 743.214394 176.089538 
L 793.754798 201.459465 
L 844.295202 223.983953 
L 894.835606 244.367139 
L 945.37601 263.228743 
L 995.916414 281.000822 
L 1046.456818 300.27291 
" clip-path="url(#p6f8ae22fda)" style="fill: none; stroke: #2d1e3e; stroke-width: 1.5; stroke-linecap: square"/>
   </g>
   <g id="line2d_43"/>
   <g id="line2d_44"/>
   <g id="line2d_45"/>
   <g id="line2d_46"/>
   <g id="patch_9">
    <path d="M 568.85 389.93875 
L 568.85 25.44 
" style="fill: none; stroke: #000000; stroke-width: 0.8; stroke-linejoin: miter; stroke-linecap: square"/>
   </g>
   <g id="patch_10">
    <path d="M 1069.2 389.93875 
L 1069.2 25.44 
" style="fill: none; stroke: #000000; stroke-width: 0.8; stroke-linejoin: miter; stroke-linecap: square"/>
   </g>
   <g id="patch_11">
    <path d="M 568.85 389.93875 
L 1069.2 389.93875 
" style="fill: none; stroke: #000000; stroke-width: 0.8; stroke-linejoin: miter; stroke-linecap: square"/>
   </g>
   <g id="patch_12">
    <path d="M 568.85 25.44 
L 1069.2 25.44 
" style="fill: none; stroke: #000000; stroke-width: 0.8; stroke-linejoin: miter; stroke-linecap: square"/>
   </g>
   <g id="text_28">
    <!-- Cell ratio -->
    <g transform="translate(792.069062 19.44) scale(0.12 -0.12)">
     <defs>
      <path id="DejaVuSans-43" d="M 4122 4306 
L 4122 3641 
Q 3803 3938 3442 4084 
Q 3081 4231 2675 4231 
Q 1875 4231 1450 3742 
Q 1025 3253 1025 2328 
Q 1025 1406 1450 917 
Q 1875 428 2675 428 
Q 3081 428 3442 575 
Q 3803 722 4122 1019 
L 4122 359 
Q 3791 134 3420 21 
Q 3050 -91 2638 -91 
Q 1578 -91 968 557 
Q 359 1206 359 2328 
Q 359 3453 968 4101 
Q 1578 4750 2638 4750 
Q 3056 4750 3426 4639 
Q 3797 4528 4122 4306 
z
" transform="scale(0.015625)"/>
      <path id="DejaVuSans-6c" d="M 603 4863 
L 1178 4863 
L 1178 0 
L 603 0 
L 603 4863 
z
" transform="scale(0.015625)"/>
     </defs>
     <use xlink:href="#DejaVuSans-43"/>
     <use xlink:href="#DejaVuSans-65" transform="translate(69.824219 0)"/>
     <use xlink:href="#DejaVuSans-6c" transform="translate(131.347656 0)"/>
     <use xlink:href="#DejaVuSans-6c" transform="translate(159.130859 0)"/>
     <use xlink:href="#DejaVuSans-20" transform="translate(186.914062 0)"/>
     <use xlink:href="#DejaVuSans-72" transform="translate(218.701172 0)"/>
     <use xlink:href="#DejaVuSans-61" transform="translate(259.814453 0)"/>
     <use xlink:href="#DejaVuSans-74" transform="translate(321.09375 0)"/>
     <use xlink:href="#DejaVuSans-69" transform="translate(360.302734 0)"/>
     <use xlink:href="#DejaVuSans-6f" transform="translate(388.085938 0)"/>
    </g>
   </g>
   <g id="legend_2">
    <g id="patch_13">
     <path d="M 1004.75 107.10875 
L 1062.2 107.10875 
Q 1064.2 107.10875 1064.2 105.10875 
L 1064.2 32.44 
Q 1064.2 30.44 1062.2 30.44 
L 1004.75 30.44 
Q 1002.75 30.44 1002.75 32.44 
L 1002.75 105.10875 
Q 1002.75 107.10875 1004.75 107.10875 
z
" style="fill: #ffffff; opacity: 0.8; stroke: #cccccc; stroke-linejoin: miter"/>
    </g>
    <g id="text_29">
     <!-- y_off -->
     <g transform="translate(1021.435937 42.038437) scale(0.1 -0.1)">
      <use xlink:href="#DejaVuSans-79"/>
      <use xlink:href="#DejaVuSans-5f" transform="translate(59.179688 0)"/>
      <use xlink:href="#DejaVuSans-6f" transform="translate(109.179688 0)"/>
      <use xlink:href="#DejaVuSans-66" transform="translate(170.361328 0)"/>
      <use xlink:href="#DejaVuSans-66" transform="translate(205.566406 0)"/>
     </g>
    </g>
    <g id="line2d_47">
     <path d="M 1006.75 53.494687 
L 1016.75 53.494687 
L 1026.75 53.494687 
" style="fill: none; stroke: #edd1cb; stroke-width: 1.5; stroke-linecap: square"/>
    </g>
    <g id="text_30">
     <!-- 500 -->
     <g transform="translate(1034.75 56.994687) scale(0.1 -0.1)">
      <use xlink:href="#DejaVuSans-35"/>
      <use xlink:href="#DejaVuSans-30" transform="translate(63.623047 0)"/>
      <use xlink:href="#DejaVuSans-30" transform="translate(127.246094 0)"/>
     </g>
    </g>
    <g id="line2d_48">
     <path d="M 1006.75 68.172813 
L 1016.75 68.172813 
L 1026.75 68.172813 
" style="fill: none; stroke: #d8a0aa; stroke-width: 1.5; stroke-linecap: square"/>
    </g>
    <g id="text_31">
     <!-- 1500 -->
     <g transform="translate(1034.75 71.672813) scale(0.1 -0.1)">
      <use xlink:href="#DejaVuSans-31"/>
      <use xlink:href="#DejaVuSans-35" transform="translate(63.623047 0)"/>
      <use xlink:href="#DejaVuSans-30" transform="translate(127.246094 0)"/>
      <use xlink:href="#DejaVuSans-30" transform="translate(190.869141 0)"/>
     </g>
    </g>
    <g id="line2d_49">
     <path d="M 1006.75 82.850937 
L 1016.75 82.850937 
L 1026.75 82.850937 
" style="fill: none; stroke: #9b5c89; stroke-width: 1.5; stroke-linecap: square"/>
    </g>
    <g id="text_32">
     <!-- 3100 -->
     <g transform="translate(1034.75 86.350937) scale(0.1 -0.1)">
      <use xlink:href="#DejaVuSans-33"/>
      <use xlink:href="#DejaVuSans-31" transform="translate(63.623047 0)"/>
      <use xlink:href="#DejaVuSans-30" transform="translate(127.246094 0)"/>
      <use xlink:href="#DejaVuSans-30" transform="translate(190.869141 0)"/>
     </g>
    </g>
    <g id="line2d_50">
     <path d="M 1006.75 97.529063 
L 1016.75 97.529063 
L 1026.75 97.529063 
" style="fill: none; stroke: #2d1e3e; stroke-width: 1.5; stroke-linecap: square"/>
    </g>
    <g id="text_33">
     <!-- 5100 -->
     <g transform="translate(1034.75 101.029063) scale(0.1 -0.1)">
      <use xlink:href="#DejaVuSans-35"/>
      <use xlink:href="#DejaVuSans-31" transform="translate(63.623047 0)"/>
      <use xlink:href="#DejaVuSans-30" transform="translate(127.246094 0)"/>
      <use xlink:href="#DejaVuSans-30" transform="translate(190.869141 0)"/>
     </g>
    </g>
   </g>
  </g>
 </g>
 <defs>
  <clipPath id="pcdc8607603">
   <rect x="54.2" y="25.44" width="500.35" height="364.49875"/>
  </clipPath>
  <clipPath id="p6f8ae22fda">
   <rect x="568.85" y="25.44" width="500.35" height="364.49875"/>
  </clipPath>
 </defs>
</svg>
