<?xml version="1.0" encoding="utf-8" standalone="no"?>
<!DOCTYPE svg PUBLIC "-//W3C//DTD SVG 1.1//EN"
  "http://www.w3.org/Graphics/SVG/1.1/DTD/svg11.dtd">
<svg xmlns:xlink="http://www.w3.org/1999/xlink" width="833.76pt" height="637.2pt" viewBox="0 0 833.76 637.2" xmlns="http://www.w3.org/2000/svg" version="1.1">
 <metadata>
  <rdf:RDF xmlns:dc="http://purl.org/dc/elements/1.1/" xmlns:cc="http://creativecommons.org/ns#" xmlns:rdf="http://www.w3.org/1999/02/22-rdf-syntax-ns#">
   <cc:Work>
    <dc:type rdf:resource="http://purl.org/dc/dcmitype/StillImage"/>
    <dc:date>2025-10-03T16:25:34.951782</dc:date>
    <dc:format>image/svg+xml</dc:format>
    <dc:creator>
     <cc:Agent>
      <dc:title>Matplotlib v3.10.0, https://matplotlib.org/</dc:title>
     </cc:Agent>
    </dc:creator>
   </cc:Work>
  </rdf:RDF>
 </metadata>
 <defs>
  <style type="text/css">*{stroke-linejoin: round; stroke-linecap: butt}</style>
 </defs>
 <g id="figure_1">
  <g id="patch_1">
   <path d="M 0 637.2 
L 833.76 637.2 
L 833.76 0 
L 0 0 
z
" style="fill: #ffffff"/>
  </g>
  <g id="axes_1">
   <g id="patch_2">
    <path d="M 120.618297 567.108 
L 733.985703 567.108 
L 733.985703 76.464 
L 120.618297 76.464 
z
" style="fill: #ffffff"/>
   </g>
   <g id="patch_3">
    <path d="M 500.170581 303.221802 
L 496.312452 306.908612 
L 495.616297 305.542331 
L 427.302002 340.350203 
L 427.301998 340.350194 
L 495.616293 305.542322 
L 494.920138 304.176041 
z
" clip-path="url(#pa02f2866d6)" style="stroke: #000000; stroke-width: 3; stroke-linejoin: miter"/>
   </g>
   <g id="line2d_1">
    <path d="M 517.867147 225.365118 
L 558.942487 215.909492 
L 577.419922 240.914685 
L 548.977324 258.27524 
L 517.867147 225.365118 
" clip-path="url(#pa02f2866d6)" style="fill: none; stroke: #0000ff; stroke-width: 1.5; stroke-linecap: square"/>
   </g>
   <g id="line2d_2">
    <path d="M 631.757802 340.350198 
L 630.773291 320.310025 
L 627.829241 300.46285 
L 622.954004 280.999812 
L 616.19453 262.10835 
L 607.615919 243.970401 
L 597.300786 226.760641 
L 585.348472 210.644811 
L 571.874084 195.778114 
L 557.007387 182.303726 
L 540.891557 170.351412 
L 523.681798 160.036279 
L 505.543848 151.457668 
L 486.652386 144.698195 
L 467.189348 139.822958 
L 447.342173 136.878907 
L 427.302 135.894397 
L 407.261827 136.878907 
L 387.414652 139.822958 
L 367.951614 144.698195 
L 349.060152 151.457668 
L 330.922202 160.036279 
L 313.712443 170.351412 
L 297.596613 182.303726 
L 282.729916 195.778114 
L 269.255528 210.644811 
L 257.303214 226.760641 
L 246.988081 243.970401 
L 238.40947 262.10835 
L 231.649996 280.999812 
L 226.774759 300.46285 
L 223.830709 320.310025 
L 222.846198 340.350198 
L 223.830709 360.390371 
L 226.774759 380.237547 
L 231.649996 399.700585 
L 238.40947 418.592046 
L 246.988081 436.729996 
L 257.303214 453.939756 
L 269.255528 470.055586 
L 282.729916 484.922282 
L 297.596613 498.39667 
L 313.712443 510.348984 
L 330.922202 520.664117 
L 349.060152 529.242729 
L 367.951614 536.002202 
L 387.414652 540.877439 
L 407.261827 543.821489 
L 427.302 544.806 
L 447.342173 543.821489 
L 467.189348 540.877439 
L 486.652386 536.002202 
L 505.543848 529.242729 
L 523.681798 520.664117 
L 540.891557 510.348984 
L 557.007387 498.39667 
L 571.874084 484.922282 
L 585.348472 470.055586 
L 597.300786 453.939756 
L 607.615919 436.729996 
L 616.19453 418.592046 
L 622.954004 399.700585 
L 627.829241 380.237547 
L 630.773291 360.390371 
L 631.757802 340.350198 
" clip-path="url(#pa02f2866d6)" style="fill: none; stroke-dasharray: 1.5,2.475; stroke-dashoffset: 0; stroke: #000000; stroke-width: 1.5"/>
   </g>
   <g id="line2d_3">
    <path d="M 704.626383 303.221802 
L 703.641872 283.181629 
L 700.697822 263.334453 
L 695.822585 243.871415 
L 689.063112 224.979954 
L 680.4845 206.842004 
L 670.169367 189.632244 
L 658.217053 173.516414 
L 644.742665 158.649718 
L 629.875969 145.17533 
L 613.760139 133.223016 
L 596.550379 122.907883 
L 578.412429 114.329271 
L 559.520968 107.569798 
L 540.057929 102.694561 
L 520.210754 99.750511 
L 500.170581 98.766 
L 480.130408 99.750511 
L 460.283233 102.694561 
L 440.820195 107.569798 
L 421.928733 114.329271 
L 403.790784 122.907883 
L 386.581024 133.223016 
L 370.465194 145.17533 
L 355.598497 158.649718 
L 342.124109 173.516414 
L 330.171795 189.632244 
L 319.856662 206.842004 
L 311.278051 224.979954 
L 304.518578 243.871415 
L 299.64334 263.334453 
L 296.69929 283.181629 
L 295.71478 303.221802 
L 296.69929 323.261975 
L 299.64334 343.10915 
L 304.518578 362.572188 
L 311.278051 381.46365 
L 319.856662 399.601599 
L 330.171795 416.811359 
L 342.124109 432.927189 
L 355.598497 447.793886 
L 370.465194 461.268274 
L 386.581024 473.220588 
L 403.790784 483.535721 
L 421.928733 492.114332 
L 440.820195 498.873805 
L 460.283233 503.749042 
L 480.130408 506.693093 
L 500.170581 507.677603 
L 520.210754 506.693093 
L 540.057929 503.749042 
L 559.520968 498.873805 
L 578.412429 492.114332 
L 596.550379 483.535721 
L 613.760139 473.220588 
L 629.875969 461.268274 
L 644.742665 447.793886 
L 658.217053 432.927189 
L 670.169367 416.811359 
L 680.4845 399.601599 
L 689.063112 381.46365 
L 695.822585 362.572188 
L 700.697822 343.10915 
L 703.641872 323.261975 
L 704.626383 303.221802 
" clip-path="url(#pa02f2866d6)" style="fill: none; stroke-dasharray: 1.5,2.475; stroke-dashoffset: 0; stroke: #000000; stroke-width: 1.5"/>
   </g>
   <g id="line2d_4">
    <path d="M 222.846198 544.806 
L 222.846198 98.766 
L 704.626383 98.766 
L 704.626383 544.806 
L 222.846198 544.806 
" clip-path="url(#pa02f2866d6)" style="fill: none; stroke: #ff0000; stroke-width: 1.5; stroke-linecap: square"/>
   </g>
   <g id="patch_4">
    <path d="M 120.618297 567.108 
L 120.618297 76.464 
" style="fill: none; stroke: #000000; stroke-width: 0.8; stroke-linejoin: miter; stroke-linecap: square"/>
   </g>
   <g id="patch_5">
    <path d="M 733.985703 567.108 
L 733.985703 76.464 
" style="fill: none; stroke: #000000; stroke-width: 0.8; stroke-linejoin: miter; stroke-linecap: square"/>
   </g>
   <g id="patch_6">
    <path d="M 120.618297 567.108 
L 733.985703 567.108 
" style="fill: none; stroke: #000000; stroke-width: 0.8; stroke-linejoin: miter; stroke-linecap: square"/>
   </g>
   <g id="patch_7">
    <path d="M 120.618297 76.464 
L 733.985703 76.464 
" style="fill: none; stroke: #000000; stroke-width: 0.8; stroke-linejoin: miter; stroke-linecap: square"/>
   </g>
   <g id="legend_1">
    <g id="patch_8">
     <path d="M 127.618297 143.1765 
L 193.143297 143.1765 
Q 195.143297 143.1765 195.143297 141.1765 
L 195.143297 83.464 
Q 195.143297 81.464 193.143297 81.464 
L 127.618297 81.464 
Q 125.618297 81.464 125.618297 83.464 
L 125.618297 141.1765 
Q 125.618297 143.1765 127.618297 143.1765 
z
" style="fill: #ffffff; opacity: 0.8; stroke: #cccccc; stroke-linejoin: miter"/>
    </g>
    <g id="patch_9">
     <path d="M 129.618297 93.062437 
L 149.618297 93.062437 
L 149.618297 86.062437 
L 129.618297 86.062437 
z
" style="stroke: #000000; stroke-width: 3; stroke-linejoin: miter"/>
    </g>
    <g id="text_1">
     <!-- Link -->
     <g transform="translate(157.618297 93.062437) scale(0.1 -0.1)">
      <defs>
       <path id="DejaVuSans-4c" d="M 628 4666 
L 1259 4666 
L 1259 531 
L 3531 531 
L 3531 0 
L 628 0 
L 628 4666 
z
" transform="scale(0.015625)"/>
       <path id="DejaVuSans-69" d="M 603 3500 
L 1178 3500 
L 1178 0 
L 603 0 
L 603 3500 
z
M 603 4863 
L 1178 4863 
L 1178 4134 
L 603 4134 
L 603 4863 
z
" transform="scale(0.015625)"/>
       <path id="DejaVuSans-6e" d="M 3513 2113 
L 3513 0 
L 2938 0 
L 2938 2094 
Q 2938 2591 2744 2837 
Q 2550 3084 2163 3084 
Q 1697 3084 1428 2787 
Q 1159 2491 1159 1978 
L 1159 0 
L 581 0 
L 581 3500 
L 1159 3500 
L 1159 2956 
Q 1366 3272 1645 3428 
Q 1925 3584 2291 3584 
Q 2894 3584 3203 3211 
Q 3513 2838 3513 2113 
z
" transform="scale(0.015625)"/>
       <path id="DejaVuSans-6b" d="M 581 4863 
L 1159 4863 
L 1159 1991 
L 2875 3500 
L 3609 3500 
L 1753 1863 
L 3688 0 
L 2938 0 
L 1159 1709 
L 1159 0 
L 581 0 
L 581 4863 
z
" transform="scale(0.015625)"/>
      </defs>
      <use xlink:href="#DejaVuSans-4c"/>
      <use xlink:href="#DejaVuSans-69" transform="translate(55.712891 0)"/>
      <use xlink:href="#DejaVuSans-6e" transform="translate(83.496094 0)"/>
      <use xlink:href="#DejaVuSans-6b" transform="translate(146.875 0)"/>
     </g>
    </g>
    <g id="line2d_5">
     <path d="M 129.618297 104.240562 
L 139.618297 104.240562 
L 149.618297 104.240562 
" style="fill: none; stroke: #0000ff; stroke-width: 1.5; stroke-linecap: square"/>
    </g>
    <g id="text_2">
     <!-- Object -->
     <g transform="translate(157.618297 107.740562) scale(0.1 -0.1)">
      <defs>
       <path id="DejaVuSans-4f" d="M 2522 4238 
Q 1834 4238 1429 3725 
Q 1025 3213 1025 2328 
Q 1025 1447 1429 934 
Q 1834 422 2522 422 
Q 3209 422 3611 934 
Q 4013 1447 4013 2328 
Q 4013 3213 3611 3725 
Q 3209 4238 2522 4238 
z
M 2522 4750 
Q 3503 4750 4090 4092 
Q 4678 3434 4678 2328 
Q 4678 1225 4090 567 
Q 3503 -91 2522 -91 
Q 1538 -91 948 565 
Q 359 1222 359 2328 
Q 359 3434 948 4092 
Q 1538 4750 2522 4750 
z
" transform="scale(0.015625)"/>
       <path id="DejaVuSans-62" d="M 3116 1747 
Q 3116 2381 2855 2742 
Q 2594 3103 2138 3103 
Q 1681 3103 1420 2742 
Q 1159 2381 1159 1747 
Q 1159 1113 1420 752 
Q 1681 391 2138 391 
Q 2594 391 2855 752 
Q 3116 1113 3116 1747 
z
M 1159 2969 
Q 1341 3281 1617 3432 
Q 1894 3584 2278 3584 
Q 2916 3584 3314 3078 
Q 3713 2572 3713 1747 
Q 3713 922 3314 415 
Q 2916 -91 2278 -91 
Q 1894 -91 1617 61 
Q 1341 213 1159 525 
L 1159 0 
L 581 0 
L 581 4863 
L 1159 4863 
L 1159 2969 
z
" transform="scale(0.015625)"/>
       <path id="DejaVuSans-6a" d="M 603 3500 
L 1178 3500 
L 1178 -63 
Q 1178 -731 923 -1031 
Q 669 -1331 103 -1331 
L -116 -1331 
L -116 -844 
L 38 -844 
Q 366 -844 484 -692 
Q 603 -541 603 -63 
L 603 3500 
z
M 603 4863 
L 1178 4863 
L 1178 4134 
L 603 4134 
L 603 4863 
z
" transform="scale(0.015625)"/>
       <path id="DejaVuSans-65" d="M 3597 1894 
L 3597 1613 
L 953 1613 
Q 991 1019 1311 708 
Q 1631 397 2203 397 
Q 2534 397 2845 478 
Q 3156 559 3463 722 
L 3463 178 
Q 3153 47 2828 -22 
Q 2503 -91 2169 -91 
Q 1331 -91 842 396 
Q 353 884 353 1716 
Q 353 2575 817 3079 
Q 1281 3584 2069 3584 
Q 2775 3584 3186 3129 
Q 3597 2675 3597 1894 
z
M 3022 2063 
Q 3016 2534 2758 2815 
Q 2500 3097 2075 3097 
Q 1594 3097 1305 2825 
Q 1016 2553 972 2059 
L 3022 2063 
z
" transform="scale(0.015625)"/>
       <path id="DejaVuSans-63" d="M 3122 3366 
L 3122 2828 
Q 2878 2963 2633 3030 
Q 2388 3097 2138 3097 
Q 1578 3097 1268 2742 
Q 959 2388 959 1747 
Q 959 1106 1268 751 
Q 1578 397 2138 397 
Q 2388 397 2633 464 
Q 2878 531 3122 666 
L 3122 134 
Q 2881 22 2623 -34 
Q 2366 -91 2075 -91 
Q 1284 -91 818 406 
Q 353 903 353 1747 
Q 353 2603 823 3093 
Q 1294 3584 2113 3584 
Q 2378 3584 2631 3529 
Q 2884 3475 3122 3366 
z
" transform="scale(0.015625)"/>
       <path id="DejaVuSans-74" d="M 1172 4494 
L 1172 3500 
L 2356 3500 
L 2356 3053 
L 1172 3053 
L 1172 1153 
Q 1172 725 1289 603 
Q 1406 481 1766 481 
L 2356 481 
L 2356 0 
L 1766 0 
Q 1100 0 847 248 
Q 594 497 594 1153 
L 594 3053 
L 172 3053 
L 172 3500 
L 594 3500 
L 594 4494 
L 1172 4494 
z
" transform="scale(0.015625)"/>
      </defs>
      <use xlink:href="#DejaVuSans-4f"/>
      <use xlink:href="#DejaVuSans-62" transform="translate(78.710938 0)"/>
      <use xlink:href="#DejaVuSans-6a" transform="translate(142.1875 0)"/>
      <use xlink:href="#DejaVuSans-65" transform="translate(169.970703 0)"/>
      <use xlink:href="#DejaVuSans-63" transform="translate(231.494141 0)"/>
      <use xlink:href="#DejaVuSans-74" transform="translate(286.474609 0)"/>
     </g>
    </g>
    <g id="line2d_6">
     <path d="M 129.618297 118.918687 
L 139.618297 118.918687 
L 149.618297 118.918687 
" style="fill: none; stroke-dasharray: 1.5,2.475; stroke-dashoffset: 0; stroke: #000000; stroke-width: 1.5"/>
    </g>
    <g id="text_3">
     <!-- Radius -->
     <g transform="translate(157.618297 122.418687) scale(0.1 -0.1)">
      <defs>
       <path id="DejaVuSans-52" d="M 2841 2188 
Q 3044 2119 3236 1894 
Q 3428 1669 3622 1275 
L 4263 0 
L 3584 0 
L 2988 1197 
Q 2756 1666 2539 1819 
Q 2322 1972 1947 1972 
L 1259 1972 
L 1259 0 
L 628 0 
L 628 4666 
L 2053 4666 
Q 2853 4666 3247 4331 
Q 3641 3997 3641 3322 
Q 3641 2881 3436 2590 
Q 3231 2300 2841 2188 
z
M 1259 4147 
L 1259 2491 
L 2053 2491 
Q 2509 2491 2742 2702 
Q 2975 2913 2975 3322 
Q 2975 3731 2742 3939 
Q 2509 4147 2053 4147 
L 1259 4147 
z
" transform="scale(0.015625)"/>
       <path id="DejaVuSans-61" d="M 2194 1759 
Q 1497 1759 1228 1600 
Q 959 1441 959 1056 
Q 959 750 1161 570 
Q 1363 391 1709 391 
Q 2188 391 2477 730 
Q 2766 1069 2766 1631 
L 2766 1759 
L 2194 1759 
z
M 3341 1997 
L 3341 0 
L 2766 0 
L 2766 531 
Q 2569 213 2275 61 
Q 1981 -91 1556 -91 
Q 1019 -91 701 211 
Q 384 513 384 1019 
Q 384 1609 779 1909 
Q 1175 2209 1959 2209 
L 2766 2209 
L 2766 2266 
Q 2766 2663 2505 2880 
Q 2244 3097 1772 3097 
Q 1472 3097 1187 3025 
Q 903 2953 641 2809 
L 641 3341 
Q 956 3463 1253 3523 
Q 1550 3584 1831 3584 
Q 2591 3584 2966 3190 
Q 3341 2797 3341 1997 
z
" transform="scale(0.015625)"/>
       <path id="DejaVuSans-64" d="M 2906 2969 
L 2906 4863 
L 3481 4863 
L 3481 0 
L 2906 0 
L 2906 525 
Q 2725 213 2448 61 
Q 2172 -91 1784 -91 
Q 1150 -91 751 415 
Q 353 922 353 1747 
Q 353 2572 751 3078 
Q 1150 3584 1784 3584 
Q 2172 3584 2448 3432 
Q 2725 3281 2906 2969 
z
M 947 1747 
Q 947 1113 1208 752 
Q 1469 391 1925 391 
Q 2381 391 2643 752 
Q 2906 1113 2906 1747 
Q 2906 2381 2643 2742 
Q 2381 3103 1925 3103 
Q 1469 3103 1208 2742 
Q 947 2381 947 1747 
z
" transform="scale(0.015625)"/>
       <path id="DejaVuSans-75" d="M 544 1381 
L 544 3500 
L 1119 3500 
L 1119 1403 
Q 1119 906 1312 657 
Q 1506 409 1894 409 
Q 2359 409 2629 706 
Q 2900 1003 2900 1516 
L 2900 3500 
L 3475 3500 
L 3475 0 
L 2900 0 
L 2900 538 
Q 2691 219 2414 64 
Q 2138 -91 1772 -91 
Q 1169 -91 856 284 
Q 544 659 544 1381 
z
M 1991 3584 
L 1991 3584 
z
" transform="scale(0.015625)"/>
       <path id="DejaVuSans-73" d="M 2834 3397 
L 2834 2853 
Q 2591 2978 2328 3040 
Q 2066 3103 1784 3103 
Q 1356 3103 1142 2972 
Q 928 2841 928 2578 
Q 928 2378 1081 2264 
Q 1234 2150 1697 2047 
L 1894 2003 
Q 2506 1872 2764 1633 
Q 3022 1394 3022 966 
Q 3022 478 2636 193 
Q 2250 -91 1575 -91 
Q 1294 -91 989 -36 
Q 684 19 347 128 
L 347 722 
Q 666 556 975 473 
Q 1284 391 1588 391 
Q 1994 391 2212 530 
Q 2431 669 2431 922 
Q 2431 1156 2273 1281 
Q 2116 1406 1581 1522 
L 1381 1569 
Q 847 1681 609 1914 
Q 372 2147 372 2553 
Q 372 3047 722 3315 
Q 1072 3584 1716 3584 
Q 2034 3584 2315 3537 
Q 2597 3491 2834 3397 
z
" transform="scale(0.015625)"/>
      </defs>
      <use xlink:href="#DejaVuSans-52"/>
      <use xlink:href="#DejaVuSans-61" transform="translate(67.232422 0)"/>
      <use xlink:href="#DejaVuSans-64" transform="translate(128.511719 0)"/>
      <use xlink:href="#DejaVuSans-69" transform="translate(191.988281 0)"/>
      <use xlink:href="#DejaVuSans-75" transform="translate(219.771484 0)"/>
      <use xlink:href="#DejaVuSans-73" transform="translate(283.150391 0)"/>
     </g>
    </g>
    <g id="line2d_7">
     <path d="M 129.618297 133.596812 
L 139.618297 133.596812 
L 149.618297 133.596812 
" style="fill: none; stroke: #ff0000; stroke-width: 1.5; stroke-linecap: square"/>
    </g>
    <g id="text_4">
     <!-- AABB -->
     <g transform="translate(157.618297 137.096812) scale(0.1 -0.1)">
      <defs>
       <path id="DejaVuSans-41" d="M 2188 4044 
L 1331 1722 
L 3047 1722 
L 2188 4044 
z
M 1831 4666 
L 2547 4666 
L 4325 0 
L 3669 0 
L 3244 1197 
L 1141 1197 
L 716 0 
L 50 0 
L 1831 4666 
z
" transform="scale(0.015625)"/>
       <path id="DejaVuSans-42" d="M 1259 2228 
L 1259 519 
L 2272 519 
Q 2781 519 3026 730 
Q 3272 941 3272 1375 
Q 3272 1813 3026 2020 
Q 2781 2228 2272 2228 
L 1259 2228 
z
M 1259 4147 
L 1259 2741 
L 2194 2741 
Q 2656 2741 2882 2914 
Q 3109 3088 3109 3444 
Q 3109 3797 2882 3972 
Q 2656 4147 2194 4147 
L 1259 4147 
z
M 628 4666 
L 2241 4666 
Q 2963 4666 3353 4366 
Q 3744 4066 3744 3513 
Q 3744 3084 3544 2831 
Q 3344 2578 2956 2516 
Q 3422 2416 3680 2098 
Q 3938 1781 3938 1306 
Q 3938 681 3513 340 
Q 3088 0 2303 0 
L 628 0 
L 628 4666 
z
" transform="scale(0.015625)"/>
      </defs>
      <use xlink:href="#DejaVuSans-41"/>
      <use xlink:href="#DejaVuSans-41" transform="translate(71.158203 0)"/>
      <use xlink:href="#DejaVuSans-42" transform="translate(139.566406 0)"/>
      <use xlink:href="#DejaVuSans-42" transform="translate(208.169922 0)"/>
     </g>
    </g>
   </g>
  </g>
 </g>
 <defs>
  <clipPath id="pa02f2866d6">
   <rect x="120.618297" y="76.464" width="613.367405" height="490.644"/>
  </clipPath>
 </defs>
</svg>
