<?xml version="1.0" encoding="utf-8" standalone="no"?>
<!DOCTYPE svg PUBLIC "-//W3C//DTD SVG 1.1//EN"
  "http://www.w3.org/Graphics/SVG/1.1/DTD/svg11.dtd">
<svg xmlns:xlink="http://www.w3.org/1999/xlink" width="532.08pt" height="396pt" viewBox="0 0 532.08 396" xmlns="http://www.w3.org/2000/svg" version="1.1">
 <metadata>
  <rdf:RDF xmlns:dc="http://purl.org/dc/elements/1.1/" xmlns:cc="http://creativecommons.org/ns#" xmlns:rdf="http://www.w3.org/1999/02/22-rdf-syntax-ns#">
   <cc:Work>
    <dc:type rdf:resource="http://purl.org/dc/dcmitype/StillImage"/>
    <dc:date>2025-07-17T16:57:28.113091</dc:date>
    <dc:format>image/svg+xml</dc:format>
    <dc:creator>
     <cc:Agent>
      <dc:title>Matplotlib v3.10.0, https://matplotlib.org/</dc:title>
     </cc:Agent>
    </dc:creator>
   </cc:Work>
  </rdf:RDF>
 </metadata>
 <defs>
  <style type="text/css">*{stroke-linejoin: round; stroke-linecap: butt}</style>
 </defs>
 <g id="figure_1">
  <g id="patch_1">
   <path d="M 0 396 
L 532.08 396 
L 532.08 0 
L 0 0 
z
" style="fill: #ffffff"/>
  </g>
  <g id="axes_1">
   <g id="patch_2">
    <path d="M 66.51 352.44 
L 478.872 352.44 
L 478.872 47.52 
L 66.51 47.52 
z
" style="fill: #ffffff"/>
   </g>
   <g id="patch_3">
    <path d="M 310.795711 138.802262 
L 309.770802 138.515772 
L 308.732421 138.282792 
L 307.68336 138.103948 
L 306.626439 137.979721 
L 305.564499 137.910446 
L 304.500396 137.896308 
L 303.436991 137.937345 
L 302.377143 138.033447 
L 301.3237 138.184356 
L 300.279496 138.389666 
L 299.247337 138.648825 
L 298.229999 138.961136 
L 297.230217 139.32576 
L 296.250679 139.741716 
L 295.294018 140.207886 
L 294.362806 140.723016 
L 293.459548 141.285722 
L 292.58667 141.894491 
L 291.746521 142.547686 
L 290.941359 143.243552 
L 290.173348 143.980216 
L 289.444554 144.755699 
L 288.756935 145.567915 
L 288.112341 146.414682 
L 287.512505 147.293721 
L 286.959039 148.202671 
L 286.453431 149.139088 
L 285.997041 150.100453 
L 285.591095 151.084182 
L 285.236686 152.08763 
L 284.934765 153.1081 
L 248.842888 287.842261 
L 248.664072 288.582616 
L 248.522097 289.330911 
L 248.41731 290.085312 
L 248.349967 290.843973 
L 248.320234 291.605036 
L 248.328182 292.366639 
L 248.373794 293.126915 
L 248.456956 293.884006 
L 248.577465 294.636056 
L 248.735027 295.381224 
L 248.929255 296.117686 
L 249.159674 296.84364 
L 249.42572 297.557307 
L 249.726742 298.256941 
L 250.062002 298.940828 
L 250.430681 299.607295 
L 250.831874 300.254709 
L 251.2646 300.881486 
L 251.7278 301.486091 
L 252.220339 302.067044 
L 252.741012 302.622923 
L 253.288544 303.152367 
L 253.861594 303.654078 
L 254.45876 304.12683 
L 255.07858 304.569465 
L 255.719535 304.980899 
L 256.380057 305.360125 
L 257.058529 305.706214 
L 257.753289 306.018319 
L 258.462637 306.295676 
L 259.184836 306.537605 
L 259.918118 306.743516 
L 260.660687 306.912903 
L 261.410727 307.045351 
L 262.166399 307.140538 
L 262.925855 307.198228 
L 263.687235 307.218282 
L 264.448675 307.20065 
L 265.20831 307.145376 
L 265.964282 307.052594 
L 266.714739 306.922531 
L 267.457843 306.755507 
L 268.191776 306.55193 
L 268.914741 306.312299 
L 269.624968 306.0372 
L 270.320717 305.727306 
L 271.000287 305.383377 
L 271.662012 305.006254 
L 272.304272 304.596861 
L 272.925496 304.1562 
L 273.524163 303.68535 
L 274.098806 303.185464 
L 274.648019 302.657765 
L 275.170458 302.103545 
L 275.664843 301.524161 
L 276.129963 300.921033 
L 276.564681 300.295635 
L 276.967932 299.6495 
L 277.338728 298.984209 
L 277.676162 298.301392 
L 277.979407 297.602719 
L 278.247722 296.889902 
L 324.141211 165.171621 
L 324.465184 164.157937 
L 324.736178 163.128822 
L 324.953466 162.087045 
L 325.116462 161.035405 
L 325.224728 159.976729 
L 325.277974 158.913866 
L 325.276056 157.849671 
L 325.21898 156.787006 
L 325.106898 155.728728 
L 324.940113 154.677682 
L 324.719072 153.636694 
L 324.44437 152.608563 
L 324.116745 151.596053 
L 323.737079 150.601886 
L 323.306392 149.628735 
L 322.825841 148.679216 
L 322.29672 147.755882 
L 321.72045 146.861216 
L 321.098581 145.997623 
L 320.432784 145.167424 
L 319.724851 144.372852 
L 318.976683 143.616043 
L 318.190293 142.899032 
L 317.367795 142.223746 
L 316.511399 141.592001 
L 315.62341 141.005495 
L 314.706213 140.465806 
L 313.762275 139.974384 
L 312.794134 139.53255 
L 311.804392 139.141492 
z
" clip-path="url(#p57ff1a0dd3)" style="fill: #0000ff; opacity: 0.2; stroke: #000000; stroke-width: 2; stroke-linejoin: miter"/>
   </g>
   <g id="patch_4">
    <path d="M 193.670568 190.965991 
L 192.165245 192.076208 
L 190.725575 193.270332 
L 189.356229 194.544487 
L 188.06165 195.894541 
L 186.846037 197.316112 
L 185.713334 198.80459 
L 184.667217 200.355144 
L 183.711078 201.962745 
L 182.848021 203.622176 
L 182.080845 205.328055 
L 181.41204 207.074846 
L 180.843774 208.856882 
L 180.377892 210.668383 
L 180.015905 212.50347 
L 179.758988 214.356191 
L 179.607974 216.220534 
L 179.563352 218.090451 
L 179.625269 219.959875 
L 179.793522 221.822742 
L 180.067567 223.673007 
L 180.446513 225.504667 
L 180.929132 227.311781 
L 181.513858 229.088484 
L 182.198793 230.829014 
L 182.981716 232.527723 
L 183.860086 234.1791 
L 184.831054 235.777788 
L 185.89147 237.318599 
L 187.037893 238.796535 
L 188.266604 240.206801 
L 189.573616 241.544821 
L 253.011135 302.890676 
L 253.512536 303.354465 
L 254.034017 303.795556 
L 254.574552 304.213079 
L 255.133077 304.606213 
L 255.708491 304.974184 
L 256.299662 305.316266 
L 256.905426 305.631787 
L 257.524591 305.920126 
L 258.155937 306.180715 
L 258.798221 306.41304 
L 259.450179 306.616644 
L 260.110527 306.791127 
L 260.777965 306.936145 
L 261.451179 307.051412 
L 262.128844 307.136702 
L 262.809625 307.191846 
L 263.492183 307.216736 
L 264.175172 307.211323 
L 264.857249 307.175618 
L 265.537071 307.109691 
L 266.213299 307.013671 
L 266.884601 306.887748 
L 267.549657 306.73217 
L 268.207157 306.547243 
L 268.855806 306.33333 
L 269.494327 306.090854 
L 270.121463 305.820292 
L 270.73598 305.522176 
L 271.336667 305.197093 
L 271.922342 304.845684 
L 272.491852 304.468639 
L 273.044075 304.066702 
L 273.577925 303.640664 
L 274.09235 303.191364 
L 274.586337 302.719685 
L 275.058914 302.226558 
L 275.509151 301.712952 
L 275.93616 301.179879 
L 276.339102 300.628389 
L 276.717183 300.059566 
L 277.069658 299.474532 
L 277.395835 298.874438 
L 277.695069 298.260465 
L 277.966773 297.633823 
L 278.210411 296.995744 
L 278.425504 296.347486 
L 278.611629 295.690324 
L 278.768418 295.025552 
L 278.895563 294.35448 
L 278.992814 293.678428 
L 279.059979 292.998728 
L 279.096926 292.316717 
L 279.103583 291.633738 
L 279.079936 290.951137 
L 279.026031 290.270256 
L 278.941976 289.592437 
L 278.827935 288.919014 
L 278.684132 288.251313 
L 278.510852 287.590649 
L 278.308435 286.938321 
L 278.07728 286.295615 
L 277.817842 285.663796 
L 242.494592 204.794144 
L 241.697387 203.102091 
L 240.805136 201.458172 
L 239.820735 199.867721 
L 238.747376 198.335897 
L 237.588544 196.867672 
L 236.347996 195.467807 
L 235.029758 194.140844 
L 233.638107 192.891089 
L 232.177557 191.722597 
L 230.652847 190.639157 
L 229.068925 189.644286 
L 227.430927 188.741211 
L 225.74417 187.932861 
L 224.014124 187.22186 
L 222.246403 186.610514 
L 220.446743 186.100806 
L 218.620981 185.69439 
L 216.775041 185.392585 
L 214.914912 185.19637 
L 213.046628 185.106381 
L 211.176252 185.122911 
L 209.309851 185.245905 
L 207.453481 185.474965 
L 205.613163 185.809348 
L 203.794869 186.247968 
L 202.004498 186.789403 
L 200.247858 187.431896 
L 198.530649 188.173362 
L 196.858441 189.011397 
L 195.236661 189.943281 
z
" clip-path="url(#p57ff1a0dd3)" style="fill: #0000ff; opacity: 0.2; stroke: #000000; stroke-width: 2; stroke-linejoin: miter"/>
   </g>
   <g id="patch_5">
    <path d="M 322.011815 147.300824 
L 321.469843 146.501759 
L 320.890891 145.729067 
L 320.276239 144.984458 
L 319.627248 144.269581 
L 318.945354 143.586017 
L 318.232066 142.93528 
L 317.488963 142.318808 
L 316.717689 141.737968 
L 315.919951 141.194044 
L 315.097516 140.688239 
L 314.252202 140.221674 
L 313.38588 139.79538 
L 312.500468 139.410302 
L 311.597926 139.067292 
L 310.680251 138.767108 
L 309.749473 138.510414 
L 308.807652 138.29778 
L 307.856874 138.129676 
L 306.899241 138.006473 
L 305.936874 137.928444 
L 304.971902 137.895763 
L 304.006461 137.9085 
L 303.042687 137.966629 
L 302.082714 138.07002 
L 301.128665 138.218445 
L 300.182652 138.411575 
L 299.24677 138.648983 
L 298.323088 138.930143 
L 297.413651 139.254434 
L 296.520473 139.621136 
L 295.645529 140.02944 
L 197.818578 188.51568 
L 196.24337 189.350411 
L 194.715782 190.269394 
L 193.240316 191.269921 
L 191.82132 192.349043 
L 190.462975 193.503579 
L 189.169285 194.730128 
L 187.944063 196.025074 
L 186.79092 197.384601 
L 185.713253 198.804703 
L 184.714239 200.281194 
L 183.796822 201.809723 
L 182.963706 203.385785 
L 182.217346 205.004736 
L 181.559942 206.661804 
L 180.993431 208.352105 
L 180.519482 210.070659 
L 180.139493 211.8124 
L 179.854583 213.572196 
L 179.665592 215.34486 
L 179.573077 217.125168 
L 179.57731 218.907873 
L 179.678279 220.687721 
L 179.875687 222.459467 
L 180.168952 224.21789 
L 180.557209 225.957807 
L 181.039315 227.67409 
L 181.613847 229.361682 
L 182.279114 231.015609 
L 183.033155 232.630997 
L 183.873747 234.203084 
L 184.798413 235.727239 
L 185.804428 237.198969 
L 186.888827 238.613936 
L 188.048415 239.967971 
L 189.279773 241.257084 
L 190.579273 242.477474 
L 191.943086 243.625547 
L 193.367192 244.697917 
L 194.847393 245.691425 
L 196.379329 246.603142 
L 197.958483 247.430382 
L 199.580202 248.170707 
L 201.239707 248.821935 
L 202.932107 249.382147 
L 204.652414 249.849692 
L 206.395558 250.223192 
L 208.156403 250.501545 
L 209.929758 250.683933 
L 211.710398 250.769817 
L 213.493075 250.758944 
L 215.272535 250.651346 
L 217.043534 250.447341 
L 218.800852 250.147529 
L 220.539311 249.752794 
L 222.253787 249.2643 
L 223.939227 248.683486 
L 225.590665 248.012063 
L 227.203233 247.252011 
L 228.772179 246.40557 
L 230.292879 245.475234 
L 231.760852 244.463745 
L 233.171771 243.374083 
L 317.741274 174.315942 
L 318.474563 173.687828 
L 319.1775 173.025923 
L 319.84853 172.331691 
L 320.486167 171.606668 
L 321.089 170.852459 
L 321.655695 170.070733 
L 322.184998 169.26322 
L 322.675737 168.431707 
L 323.126828 167.578035 
L 323.53727 166.704092 
L 323.906156 165.811813 
L 324.23267 164.903172 
L 324.516088 163.980181 
L 324.755784 163.044882 
L 324.951228 162.099345 
L 325.101985 161.145662 
L 325.207724 160.185944 
L 325.26821 159.222315 
L 325.283309 158.256908 
L 325.252988 157.291859 
L 325.177313 156.329304 
L 325.056453 155.371373 
L 324.890674 154.420186 
L 324.680344 153.477848 
L 324.425928 152.546445 
L 324.127989 151.628038 
L 323.787187 150.72466 
L 323.404276 149.838309 
L 322.980103 148.970948 
L 322.515606 148.124495 
z
" clip-path="url(#p57ff1a0dd3)" style="fill: #0000ff; opacity: 0.2; stroke: #000000; stroke-width: 2; stroke-linejoin: miter"/>
   </g>
   <g id="patch_6">
    <path d="M 79.235821 238.518721 
L 79.406257 239.47197 
L 79.621467 240.416119 
L 79.880972 241.349065 
L 80.184194 242.268732 
L 80.530458 243.173073 
L 80.918993 244.060075 
L 81.348935 244.927763 
L 81.819326 245.774205 
L 82.329119 246.597517 
L 82.877179 247.395866 
L 83.462286 248.167476 
L 84.083138 248.910627 
L 84.738352 249.623667 
L 85.426471 250.305008 
L 86.145961 250.953132 
L 86.895222 251.566597 
L 87.672585 252.144038 
L 88.476321 252.684169 
L 89.304638 253.185788 
L 90.155695 253.647777 
L 91.027596 254.069109 
L 91.9184 254.448845 
L 92.826124 254.786141 
L 93.748748 255.080244 
L 94.684218 255.330502 
L 95.63045 255.536356 
L 96.585339 255.697348 
L 97.546759 255.81312 
L 98.51257 255.883414 
L 99.480621 255.908073 
L 100.448758 255.887044 
L 213.888975 250.743385 
L 215.662484 250.614778 
L 217.426432 250.390361 
L 219.175646 250.070792 
L 220.904998 249.657009 
L 222.609417 249.150224 
L 224.283905 248.551924 
L 225.923553 247.863863 
L 227.523553 247.088058 
L 229.079214 246.226785 
L 230.585975 245.282567 
L 232.039417 244.258175 
L 233.435279 243.156611 
L 234.769469 241.981106 
L 236.038073 240.735105 
L 237.237373 239.422263 
L 238.363852 238.046429 
L 239.414207 236.611637 
L 240.385359 235.122094 
L 241.274459 233.582167 
L 242.078901 231.996372 
L 242.796327 230.369358 
L 243.424632 228.705896 
L 243.961975 227.010863 
L 244.406779 225.289229 
L 244.757742 223.546043 
L 245.013833 221.786414 
L 245.174301 220.015504 
L 245.238677 218.238504 
L 245.206772 216.460624 
L 245.078678 214.687078 
L 244.854773 212.923065 
L 244.535711 211.173759 
L 244.122429 209.444287 
L 243.616138 207.739721 
L 243.018324 206.06506 
L 242.330738 204.425212 
L 241.555397 202.824987 
L 240.694574 201.269076 
L 239.750793 199.762042 
L 238.726822 198.308303 
L 237.625663 196.912122 
L 236.450544 195.577592 
L 235.204912 194.308626 
L 233.892418 193.108946 
L 232.51691 191.982068 
L 231.082423 190.931297 
L 229.593161 189.959714 
L 228.053492 189.070168 
L 226.46793 188.265266 
L 224.841124 187.547369 
L 223.177844 186.918581 
L 221.482967 186.380747 
L 219.761462 185.935444 
L 218.018377 185.583976 
L 216.258823 185.327375 
L 214.487959 185.166393 
L 212.710978 185.101502 
L 210.933089 185.132893 
L 209.159506 185.260472 
L 207.395428 185.483867 
L 205.646029 185.802421 
L 203.916438 186.215202 
L 94.215922 215.556929 
L 93.286605 215.829143 
L 92.371161 216.144888 
L 91.47163 216.503462 
L 90.590014 216.904067 
L 89.728275 217.345811 
L 88.888332 217.82771 
L 88.072054 218.348692 
L 87.281259 218.907597 
L 86.517707 219.50318 
L 85.783097 220.134117 
L 85.079066 220.799002 
L 84.407181 221.496355 
L 83.768936 222.224624 
L 83.165754 222.982188 
L 82.598976 223.767359 
L 82.069865 224.578391 
L 81.579598 225.413478 
L 81.129267 226.270761 
L 80.719874 227.148331 
L 80.352331 228.044235 
L 80.027455 228.956478 
L 79.745971 229.88303 
L 79.508504 230.821827 
L 79.315583 231.770781 
L 79.167638 232.727778 
L 79.064999 233.690689 
L 79.007892 234.657369 
L 78.996447 235.625667 
L 79.030688 236.593427 
L 79.110538 237.558494 
z
" clip-path="url(#p57ff1a0dd3)" style="fill: #0000ff; opacity: 0.2; stroke: #000000; stroke-width: 2; stroke-linejoin: miter"/>
   </g>
   <g id="patch_7">
    <path d="M 286.004732 150.083127 
L 285.594554 151.075148 
L 285.236807 152.087258 
L 284.932466 153.116689 
L 284.682367 154.160624 
L 284.487192 155.216207 
L 284.347475 156.280552 
L 284.263599 157.350746 
L 284.235794 158.423862 
L 284.264135 159.496963 
L 284.348544 160.567115 
L 284.488791 161.63139 
L 284.684493 162.686877 
L 284.935113 163.730687 
L 285.239966 164.759966 
L 285.598219 165.771897 
L 286.008891 166.763713 
L 286.470858 167.7327 
L 286.982858 168.676208 
L 287.543489 169.591655 
L 288.151217 170.476537 
L 288.804381 171.328434 
L 289.501193 172.145014 
L 290.239747 172.924045 
L 291.018022 173.663394 
L 291.83389 174.36104 
L 292.685119 175.015073 
L 293.56938 175.623705 
L 294.484254 176.18527 
L 295.427239 176.698233 
L 296.395754 177.16119 
L 297.38715 177.572875 
L 391.588676 213.832496 
L 392.29942 214.086249 
L 393.021748 214.304862 
L 393.753922 214.487808 
L 394.494183 214.634649 
L 395.240751 214.745031 
L 395.991832 214.818689 
L 396.745621 214.855446 
L 397.500305 214.855213 
L 398.254071 214.817991 
L 399.005107 214.74387 
L 399.751607 214.633027 
L 400.491777 214.48573 
L 401.223838 214.302332 
L 401.946031 214.083273 
L 402.656619 213.829082 
L 403.353894 213.540368 
L 404.03618 213.217825 
L 404.701838 212.86223 
L 405.349267 212.474435 
L 405.976911 212.055375 
L 406.583261 211.606056 
L 407.16686 211.127558 
L 407.726305 210.621031 
L 408.260252 210.087692 
L 408.767416 209.528825 
L 409.246579 208.945772 
L 409.696589 208.339934 
L 410.116364 207.712768 
L 410.504896 207.065781 
L 410.86125 206.400529 
L 411.18457 205.718611 
L 411.474079 205.021665 
L 411.72908 204.311368 
L 411.948961 203.589425 
L 412.133193 202.857574 
L 412.281334 202.117572 
L 412.393028 201.371198 
L 412.468005 200.620248 
L 412.506085 199.866525 
L 412.507178 199.111841 
L 412.471281 198.358011 
L 412.398479 197.606847 
L 412.288948 196.860153 
L 412.142951 196.119725 
L 411.960839 195.387343 
L 411.74305 194.664767 
L 411.490107 193.953733 
L 411.202618 193.255952 
L 410.881274 192.5731 
L 410.526849 191.906819 
L 410.140192 191.25871 
L 409.722235 190.630331 
L 409.273982 190.023192 
L 408.79651 189.438753 
L 408.290966 188.878419 
L 407.758567 188.343537 
L 407.200591 187.835392 
L 406.61838 187.355205 
L 406.013334 186.904132 
L 405.386906 186.483255 
L 404.740603 186.093587 
L 404.075978 185.736065 
L 314.036886 140.110967 
L 313.066969 139.650957 
L 312.074325 139.242288 
L 311.061673 138.886079 
L 310.031781 138.583304 
L 308.987467 138.334792 
L 307.931587 138.141221 
L 306.867032 138.003123 
L 305.796711 137.920874 
L 304.723555 137.8947 
L 303.650497 137.924671 
L 302.580475 138.010707 
L 301.516414 138.152572 
L 300.461227 138.349878 
L 299.417799 138.602085 
L 298.388985 138.908502 
L 297.377599 139.268293 
L 296.386408 139.680472 
L 295.418124 140.143911 
L 294.475396 140.657345 
L 293.560802 141.219366 
L 292.676845 141.828439 
L 291.825942 142.482897 
L 291.010422 143.180949 
L 290.232515 143.920687 
L 289.494349 144.700085 
L 288.797945 145.517013 
L 288.145206 146.369235 
L 287.537919 147.25442 
L 286.977745 148.170147 
L 286.466216 149.11391 
z
" clip-path="url(#p57ff1a0dd3)" style="fill: #0000ff; opacity: 0.2; stroke: #000000; stroke-width: 2; stroke-linejoin: miter"/>
   </g>
   <g id="patch_8">
    <path d="M 462.451693 147.200116 
L 461.85046 146.487329 
L 461.213038 145.806711 
L 460.541147 145.160098 
L 459.836597 144.549232 
L 459.101289 143.975761 
L 458.337205 143.441232 
L 457.546405 142.947084 
L 456.731021 142.49465 
L 455.893251 142.085151 
L 455.035355 141.719691 
L 454.159646 141.399254 
L 453.268484 141.124705 
L 452.364272 140.896783 
L 451.449449 140.716105 
L 450.52648 140.583155 
L 449.597854 140.498294 
L 448.666076 140.46175 
L 447.733656 140.473621 
L 446.80311 140.533875 
L 445.876946 140.642351 
L 444.957661 140.798754 
L 444.047734 141.002665 
L 443.149617 141.253532 
L 442.265734 141.55068 
L 441.398466 141.893308 
L 440.550152 142.280491 
L 439.72308 142.711186 
L 438.919479 143.184231 
L 438.141515 143.698351 
L 437.391287 144.252161 
L 436.670817 144.844166 
L 387.040281 187.831545 
L 386.477899 188.343505 
L 385.941491 188.882616 
L 385.432364 189.447563 
L 384.951761 190.036967 
L 384.500857 190.649389 
L 384.080751 191.283334 
L 383.692469 191.937255 
L 383.336958 192.609555 
L 383.015087 193.298594 
L 382.727641 194.002689 
L 382.475322 194.720122 
L 382.258746 195.449142 
L 382.07844 196.187969 
L 381.934847 196.9348 
L 381.828315 197.687812 
L 381.759105 198.445166 
L 381.727386 199.205014 
L 381.733236 199.965502 
L 381.776639 200.724772 
L 381.857491 201.480972 
L 381.975593 202.232256 
L 382.130658 202.976789 
L 382.322307 203.712755 
L 382.550072 204.438358 
L 382.813398 205.151825 
L 383.11164 205.851415 
L 383.444072 206.535421 
L 383.809883 207.202173 
L 384.208178 207.850044 
L 384.637986 208.477452 
L 385.098257 209.082865 
L 385.587869 209.664806 
L 386.105626 210.221855 
L 386.650265 210.752651 
L 387.220455 211.255899 
L 387.814805 211.730371 
L 388.431864 212.174908 
L 389.070126 212.588425 
L 389.728034 212.969914 
L 390.40398 213.318442 
L 391.096316 213.633159 
L 391.803351 213.913297 
L 392.523359 214.158171 
L 393.254583 214.367185 
L 393.995238 214.539828 
L 394.743516 214.675679 
L 395.49759 214.774406 
L 396.255621 214.835768 
L 397.015757 214.859615 
L 397.776143 214.845889 
L 398.534923 214.794623 
L 399.290245 214.705944 
L 400.040265 214.580066 
L 400.783153 214.417298 
L 401.517095 214.218037 
L 402.240299 213.982769 
L 402.951 213.712068 
L 403.647464 213.406595 
L 404.32799 213.067096 
L 404.990918 212.6944 
L 405.634628 212.289415 
L 406.25755 211.853132 
L 459.090965 172.869351 
L 459.826683 172.296405 
L 460.531669 171.686043 
L 461.204022 171.03991 
L 461.84193 170.359748 
L 462.443673 169.647391 
L 463.007627 168.904759 
L 463.532274 168.133855 
L 464.016198 167.336758 
L 464.458094 166.515615 
L 464.856771 165.672642 
L 465.211154 164.810111 
L 465.520288 163.930348 
L 465.783339 163.035725 
L 465.999598 162.128653 
L 466.168482 161.211579 
L 466.289535 160.286975 
L 466.362432 159.357333 
L 466.386974 158.425161 
L 466.363098 157.492972 
L 466.290866 156.563279 
L 466.170473 155.638588 
L 466.002245 154.721393 
L 465.786634 153.814167 
L 465.524223 152.919356 
L 465.215718 152.039372 
L 464.861951 151.176588 
L 464.463876 150.333331 
L 464.022567 149.511873 
L 463.539213 148.71443 
L 463.015117 147.943151 
z
" clip-path="url(#p57ff1a0dd3)" style="fill: #0000ff; opacity: 0.2; stroke: #000000; stroke-width: 2; stroke-linejoin: miter"/>
   </g>
   <g id="patch_9">
    <path d="M 186.952654 93.239102 
L 185.79836 93.50373 
L 184.658121 93.823538 
L 183.534573 94.197788 
L 182.430314 94.625613 
L 181.347897 95.106024 
L 180.289824 95.637912 
L 179.258542 96.220045 
L 178.256435 96.851079 
L 177.28582 97.529554 
L 176.34894 98.253901 
L 175.447963 99.022447 
L 174.584971 99.833413 
L 173.761959 100.684926 
L 172.98083 101.575016 
L 172.24339 102.501625 
L 171.551344 103.462612 
L 170.906293 104.455753 
L 170.309727 105.478754 
L 169.763025 106.52925 
L 169.267453 107.60481 
L 168.824154 108.702949 
L 168.434155 109.821127 
L 168.098357 110.95676 
L 167.817537 112.107222 
L 167.592343 113.269852 
L 167.423297 114.441964 
L 167.310788 115.620846 
L 167.255078 116.803774 
L 167.256295 117.988013 
L 167.314437 119.170824 
L 167.429368 120.349473 
L 179.804085 221.91041 
L 180.061712 223.639895 
L 180.411032 225.353214 
L 180.851054 227.045511 
L 181.380531 228.711987 
L 181.997961 230.347917 
L 182.701595 231.948663 
L 183.489436 233.509687 
L 184.359252 235.026561 
L 185.308575 236.494987 
L 186.334715 237.910799 
L 187.434762 239.269985 
L 188.605597 240.568689 
L 189.8439 241.803231 
L 191.146161 242.97011 
L 192.508686 244.066016 
L 193.927614 245.087844 
L 195.398921 246.032696 
L 196.918435 246.897893 
L 198.481848 247.680981 
L 200.084727 248.379742 
L 201.722528 248.992192 
L 203.390607 249.516597 
L 205.084235 249.951469 
L 206.798609 250.295575 
L 208.528869 250.547939 
L 210.27011 250.707847 
L 212.017393 250.774844 
L 213.765766 250.74874 
L 215.51027 250.62961 
L 217.245961 250.417792 
L 218.967916 250.113885 
L 220.671253 249.718753 
L 222.351143 249.233514 
L 224.002823 248.659545 
L 225.621611 247.998473 
L 227.202915 247.252172 
L 228.742253 246.422759 
L 230.235261 245.512585 
L 231.677704 244.52423 
L 233.065494 243.460498 
L 234.394696 242.324403 
L 235.661541 241.119168 
L 236.862436 239.848208 
L 237.993978 238.515129 
L 239.052958 237.123709 
L 240.036374 235.677893 
L 240.941436 234.181782 
L 241.76558 232.639616 
L 242.506468 231.055768 
L 243.161999 229.43473 
L 243.730316 227.781096 
L 244.209807 226.099556 
L 244.599112 224.394877 
L 244.897127 222.671893 
L 245.103008 220.935488 
L 245.216171 219.190587 
L 245.236295 217.442135 
L 245.163322 215.695091 
L 244.99746 213.954408 
L 244.73918 212.225021 
L 244.389213 210.511833 
L 243.948551 208.819703 
L 215.537717 110.531442 
L 215.181612 109.402013 
L 214.771627 108.291006 
L 214.308711 107.200992 
L 213.793934 106.13449 
L 213.228485 105.093966 
L 212.613673 104.081826 
L 211.950919 103.100409 
L 211.241754 102.151985 
L 210.487819 101.238747 
L 209.690857 100.362805 
L 208.85271 99.526186 
L 207.975316 98.730823 
L 207.060704 97.978555 
L 206.110988 97.271122 
L 205.128364 96.610159 
L 204.115104 95.997194 
L 203.07355 95.433644 
L 202.006111 94.920813 
L 200.915254 94.459886 
L 199.803502 94.051929 
L 198.673425 93.697884 
L 197.527635 93.398571 
L 196.368782 93.154682 
L 195.199545 92.966779 
L 194.022628 92.835299 
L 192.84075 92.760544 
L 191.656646 92.742688 
L 190.473052 92.781772 
L 189.292705 92.877705 
L 188.118334 93.030266 
z
" clip-path="url(#p57ff1a0dd3)" style="fill: #0000ff; opacity: 0.2; stroke: #000000; stroke-width: 2; stroke-linejoin: miter"/>
   </g>
   <g id="patch_10">
    <path d="M 304.75987 178.942821 
C 310.202919 178.942821 315.423767 176.780275 319.272584 172.931458 
C 323.121401 169.082642 325.283947 163.861793 325.283947 158.418744 
C 325.283947 152.975696 323.121401 147.754847 319.272584 143.90603 
C 315.423767 140.057214 310.202919 137.894667 304.75987 137.894667 
C 299.316821 137.894667 294.095973 140.057214 290.247156 143.90603 
C 286.398339 147.754847 284.235793 152.975696 284.235793 158.418744 
C 284.235793 163.861793 286.398339 169.082642 290.247156 172.931458 
C 294.095973 176.780275 299.316821 178.942821 304.75987 178.942821 
z
" clip-path="url(#p57ff1a0dd3)" style="fill: #008000; opacity: 0.2; stroke: #008000; stroke-linejoin: miter"/>
   </g>
   <g id="patch_11">
    <path d="M 212.401524 250.77709 
C 221.110402 250.77709 229.46376 247.317016 235.621866 241.15891 
C 241.779973 235.000803 245.240047 226.647445 245.240047 217.938567 
C 245.240047 209.229689 241.779973 200.876332 235.621866 194.718225 
C 229.46376 188.560118 221.110402 185.100044 212.401524 185.100044 
C 203.692646 185.100044 195.339289 188.560118 189.181182 194.718225 
C 183.023075 200.876332 179.563001 209.229689 179.563001 217.938567 
C 179.563001 226.647445 183.023075 235.000803 189.181182 241.15891 
C 195.339289 247.317016 203.692646 250.77709 212.401524 250.77709 
z
" clip-path="url(#p57ff1a0dd3)" style="fill: #008000; opacity: 0.2; stroke: #008000; stroke-linejoin: miter"/>
   </g>
   <g id="patch_12">
    <path d="M 263.711716 307.218302 
C 267.794003 307.218302 271.709639 305.596392 274.596252 302.709779 
C 277.482864 299.823167 279.104774 295.907531 279.104774 291.825244 
C 279.104774 287.742957 277.482864 283.827321 274.596252 280.940709 
C 271.709639 278.054096 267.794003 276.432186 263.711716 276.432186 
C 259.62943 276.432186 255.713793 278.054096 252.827181 280.940709 
C 249.940568 283.827321 248.318659 287.742957 248.318659 291.825244 
C 248.318659 295.907531 249.940568 299.823167 252.827181 302.709779 
C 255.713793 305.596392 259.62943 307.218302 263.711716 307.218302 
z
" clip-path="url(#p57ff1a0dd3)" style="fill: #008000; opacity: 0.2; stroke: #008000; stroke-linejoin: miter"/>
   </g>
   <g id="patch_13">
    <path d="M 99.519101 255.90811 
C 104.96215 255.90811 110.182999 253.745563 114.031815 249.896747 
C 117.880632 246.04793 120.043178 240.827081 120.043178 235.384033 
C 120.043178 229.940984 117.880632 224.720135 114.031815 220.871319 
C 110.182999 217.022502 104.96215 214.859956 99.519101 214.859956 
C 94.076053 214.859956 88.855204 217.022502 85.006387 220.871319 
C 81.157571 224.720135 78.995024 229.940984 78.995024 235.384033 
C 78.995024 240.827081 81.157571 246.04793 85.006387 249.896747 
C 88.855204 253.745563 94.076053 255.90811 99.519101 255.90811 
z
" clip-path="url(#p57ff1a0dd3)" style="fill: #008000; opacity: 0.2; stroke: #008000; stroke-linejoin: miter"/>
   </g>
   <g id="patch_14">
    <path d="M 397.118216 214.859956 
C 401.200503 214.859956 405.116139 213.238046 408.002752 210.351434 
C 410.889364 207.464821 412.511274 203.549185 412.511274 199.466898 
C 412.511274 195.384611 410.889364 191.468975 408.002752 188.582363 
C 405.116139 185.69575 401.200503 184.07384 397.118216 184.07384 
C 393.035929 184.07384 389.120293 185.69575 386.233681 188.582363 
C 383.347068 191.468975 381.725158 195.384611 381.725158 199.466898 
C 381.725158 203.549185 383.347068 207.464821 386.233681 210.351434 
C 389.120293 213.238046 393.035929 214.859956 397.118216 214.859956 
z
" clip-path="url(#p57ff1a0dd3)" style="fill: #008000; opacity: 0.2; stroke: #008000; stroke-linejoin: miter"/>
   </g>
   <g id="patch_15">
    <path d="M 448.428408 176.377312 
C 453.191076 176.377312 457.759318 174.485084 461.127033 171.117369 
C 464.494748 167.749654 466.386976 163.181412 466.386976 158.418744 
C 466.386976 153.656077 464.494748 149.087834 461.127033 145.72012 
C 457.759318 142.352405 453.191076 140.460177 448.428408 140.460177 
C 443.665741 140.460177 439.097498 142.352405 435.729784 145.72012 
C 432.362069 149.087834 430.469841 153.656077 430.469841 158.418744 
C 430.469841 163.181412 432.362069 167.749654 435.729784 171.117369 
C 439.097498 174.485084 443.665741 176.377312 448.428408 176.377312 
z
" clip-path="url(#p57ff1a0dd3)" style="fill: #008000; opacity: 0.2; stroke: #008000; stroke-linejoin: miter"/>
   </g>
   <g id="patch_16">
    <path d="M 191.877447 141.999483 
C 198.409106 141.999483 204.674124 139.404427 209.292704 134.785847 
C 213.911284 130.167267 216.50634 123.902249 216.50634 117.370591 
C 216.50634 110.838932 213.911284 104.573914 209.292704 99.955334 
C 204.674124 95.336754 198.409106 92.741698 191.877447 92.741698 
C 185.345789 92.741698 179.080771 95.336754 174.462191 99.955334 
C 169.84361 104.573914 167.248555 110.838932 167.248555 117.370591 
C 167.248555 123.902249 169.84361 130.167267 174.462191 134.785847 
C 179.080771 139.404427 185.345789 141.999483 191.877447 141.999483 
z
" clip-path="url(#p57ff1a0dd3)" style="fill: #008000; opacity: 0.2; stroke: #008000; stroke-linejoin: miter"/>
   </g>
   <g id="patch_17">
    <path d="M 263.711716 291.825244 
L 264.051232 285.487611 
L 265.522419 285.940284 
L 304.759821 158.418729 
L 304.759919 158.418759 
L 265.522518 285.940315 
L 266.993705 286.392988 
z
" clip-path="url(#p57ff1a0dd3)" style="stroke: #000000; stroke-linejoin: miter"/>
   </g>
   <g id="patch_18">
    <path d="M 263.711716 291.825244 
L 258.935323 287.6459 
L 260.19962 286.767915 
L 212.401482 217.938597 
L 212.401566 217.938538 
L 260.199704 286.767857 
L 261.464002 285.889872 
z
" clip-path="url(#p57ff1a0dd3)" style="stroke: #000000; stroke-linejoin: miter"/>
   </g>
   <g id="patch_19">
    <path d="M 212.401524 217.938567 
L 216.743264 213.309295 
L 217.57708 214.603148 
L 304.759842 158.418701 
L 304.759898 158.418787 
L 217.577135 214.603234 
L 218.410952 215.897087 
z
" clip-path="url(#p57ff1a0dd3)" style="stroke: #000000; stroke-linejoin: miter"/>
   </g>
   <g id="patch_20">
    <path d="M 212.401524 217.938567 
L 206.551642 220.40022 
L 206.316548 218.879025 
L 99.519109 235.384083 
L 99.519093 235.383982 
L 206.316532 218.878923 
L 206.081438 217.357728 
z
" clip-path="url(#p57ff1a0dd3)" style="stroke: #000000; stroke-linejoin: miter"/>
   </g>
   <g id="patch_21">
    <path d="M 397.118216 199.466898 
L 390.866503 198.372848 
L 391.491654 196.96626 
L 304.759849 158.418791 
L 304.759891 158.418697 
L 391.491695 196.966166 
L 392.116846 195.559578 
z
" clip-path="url(#p57ff1a0dd3)" style="stroke: #000000; stroke-linejoin: miter"/>
   </g>
   <g id="patch_22">
    <path d="M 397.118216 199.466898 
L 400.964603 194.418515 
L 401.926167 195.620471 
L 448.428376 158.418704 
L 448.42844 158.418784 
L 401.926232 195.620551 
L 402.887796 196.822507 
z
" clip-path="url(#p57ff1a0dd3)" style="stroke: #000000; stroke-linejoin: miter"/>
   </g>
   <g id="patch_23">
    <path d="M 212.401524 217.938567 
L 209.662108 212.213495 
L 211.170275 211.905705 
L 191.877397 117.370601 
L 191.877498 117.37058 
L 211.170376 211.905685 
L 212.678544 211.597896 
z
" clip-path="url(#p57ff1a0dd3)" style="stroke: #000000; stroke-linejoin: miter"/>
   </g>
   <g id="matplotlib.axis_1">
    <g id="xtick_1">
     <g id="line2d_1">
      <defs>
       <path id="m4219b61464" d="M 0 0 
L 0 3.5 
" style="stroke: #000000; stroke-width: 0.8"/>
      </defs>
      <g>
       <use xlink:href="#m4219b61464" x="89.257063" y="352.44" style="stroke: #000000; stroke-width: 0.8"/>
      </g>
     </g>
     <g id="text_1">
      <!-- −1500 -->
      <g transform="translate(72.342219 367.038437) scale(0.1 -0.1)">
       <defs>
        <path id="DejaVuSans-2212" d="M 678 2272 
L 4684 2272 
L 4684 1741 
L 678 1741 
L 678 2272 
z
" transform="scale(0.015625)"/>
        <path id="DejaVuSans-31" d="M 794 531 
L 1825 531 
L 1825 4091 
L 703 3866 
L 703 4441 
L 1819 4666 
L 2450 4666 
L 2450 531 
L 3481 531 
L 3481 0 
L 794 0 
L 794 531 
z
" transform="scale(0.015625)"/>
        <path id="DejaVuSans-35" d="M 691 4666 
L 3169 4666 
L 3169 4134 
L 1269 4134 
L 1269 2991 
Q 1406 3038 1543 3061 
Q 1681 3084 1819 3084 
Q 2600 3084 3056 2656 
Q 3513 2228 3513 1497 
Q 3513 744 3044 326 
Q 2575 -91 1722 -91 
Q 1428 -91 1123 -41 
Q 819 9 494 109 
L 494 744 
Q 775 591 1075 516 
Q 1375 441 1709 441 
Q 2250 441 2565 725 
Q 2881 1009 2881 1497 
Q 2881 1984 2565 2268 
Q 2250 2553 1709 2553 
Q 1456 2553 1204 2497 
Q 953 2441 691 2322 
L 691 4666 
z
" transform="scale(0.015625)"/>
        <path id="DejaVuSans-30" d="M 2034 4250 
Q 1547 4250 1301 3770 
Q 1056 3291 1056 2328 
Q 1056 1369 1301 889 
Q 1547 409 2034 409 
Q 2525 409 2770 889 
Q 3016 1369 3016 2328 
Q 3016 3291 2770 3770 
Q 2525 4250 2034 4250 
z
M 2034 4750 
Q 2819 4750 3233 4129 
Q 3647 3509 3647 2328 
Q 3647 1150 3233 529 
Q 2819 -91 2034 -91 
Q 1250 -91 836 529 
Q 422 1150 422 2328 
Q 422 3509 836 4129 
Q 1250 4750 2034 4750 
z
" transform="scale(0.015625)"/>
       </defs>
       <use xlink:href="#DejaVuSans-2212"/>
       <use xlink:href="#DejaVuSans-31" transform="translate(83.789062 0)"/>
       <use xlink:href="#DejaVuSans-35" transform="translate(147.412109 0)"/>
       <use xlink:href="#DejaVuSans-30" transform="translate(211.035156 0)"/>
       <use xlink:href="#DejaVuSans-30" transform="translate(274.658203 0)"/>
      </g>
     </g>
    </g>
    <g id="xtick_2">
     <g id="line2d_2">
      <g>
       <use xlink:href="#m4219b61464" x="140.567255" y="352.44" style="stroke: #000000; stroke-width: 0.8"/>
      </g>
     </g>
     <g id="text_2">
      <!-- −1000 -->
      <g transform="translate(123.652411 367.038437) scale(0.1 -0.1)">
       <use xlink:href="#DejaVuSans-2212"/>
       <use xlink:href="#DejaVuSans-31" transform="translate(83.789062 0)"/>
       <use xlink:href="#DejaVuSans-30" transform="translate(147.412109 0)"/>
       <use xlink:href="#DejaVuSans-30" transform="translate(211.035156 0)"/>
       <use xlink:href="#DejaVuSans-30" transform="translate(274.658203 0)"/>
      </g>
     </g>
    </g>
    <g id="xtick_3">
     <g id="line2d_3">
      <g>
       <use xlink:href="#m4219b61464" x="191.877447" y="352.44" style="stroke: #000000; stroke-width: 0.8"/>
      </g>
     </g>
     <g id="text_3">
      <!-- −500 -->
      <g transform="translate(178.143854 367.038437) scale(0.1 -0.1)">
       <use xlink:href="#DejaVuSans-2212"/>
       <use xlink:href="#DejaVuSans-35" transform="translate(83.789062 0)"/>
       <use xlink:href="#DejaVuSans-30" transform="translate(147.412109 0)"/>
       <use xlink:href="#DejaVuSans-30" transform="translate(211.035156 0)"/>
      </g>
     </g>
    </g>
    <g id="xtick_4">
     <g id="line2d_4">
      <g>
       <use xlink:href="#m4219b61464" x="243.187639" y="352.44" style="stroke: #000000; stroke-width: 0.8"/>
      </g>
     </g>
     <g id="text_4">
      <!-- 0 -->
      <g transform="translate(240.006389 367.038437) scale(0.1 -0.1)">
       <use xlink:href="#DejaVuSans-30"/>
      </g>
     </g>
    </g>
    <g id="xtick_5">
     <g id="line2d_5">
      <g>
       <use xlink:href="#m4219b61464" x="294.497832" y="352.44" style="stroke: #000000; stroke-width: 0.8"/>
      </g>
     </g>
     <g id="text_5">
      <!-- 500 -->
      <g transform="translate(284.954082 367.038437) scale(0.1 -0.1)">
       <use xlink:href="#DejaVuSans-35"/>
       <use xlink:href="#DejaVuSans-30" transform="translate(63.623047 0)"/>
       <use xlink:href="#DejaVuSans-30" transform="translate(127.246094 0)"/>
      </g>
     </g>
    </g>
    <g id="xtick_6">
     <g id="line2d_6">
      <g>
       <use xlink:href="#m4219b61464" x="345.808024" y="352.44" style="stroke: #000000; stroke-width: 0.8"/>
      </g>
     </g>
     <g id="text_6">
      <!-- 1000 -->
      <g transform="translate(333.083024 367.038437) scale(0.1 -0.1)">
       <use xlink:href="#DejaVuSans-31"/>
       <use xlink:href="#DejaVuSans-30" transform="translate(63.623047 0)"/>
       <use xlink:href="#DejaVuSans-30" transform="translate(127.246094 0)"/>
       <use xlink:href="#DejaVuSans-30" transform="translate(190.869141 0)"/>
      </g>
     </g>
    </g>
    <g id="xtick_7">
     <g id="line2d_7">
      <g>
       <use xlink:href="#m4219b61464" x="397.118216" y="352.44" style="stroke: #000000; stroke-width: 0.8"/>
      </g>
     </g>
     <g id="text_7">
      <!-- 1500 -->
      <g transform="translate(384.393216 367.038437) scale(0.1 -0.1)">
       <use xlink:href="#DejaVuSans-31"/>
       <use xlink:href="#DejaVuSans-35" transform="translate(63.623047 0)"/>
       <use xlink:href="#DejaVuSans-30" transform="translate(127.246094 0)"/>
       <use xlink:href="#DejaVuSans-30" transform="translate(190.869141 0)"/>
      </g>
     </g>
    </g>
    <g id="xtick_8">
     <g id="line2d_8">
      <g>
       <use xlink:href="#m4219b61464" x="448.428408" y="352.44" style="stroke: #000000; stroke-width: 0.8"/>
      </g>
     </g>
     <g id="text_8">
      <!-- 2000 -->
      <g transform="translate(435.703408 367.038437) scale(0.1 -0.1)">
       <defs>
        <path id="DejaVuSans-32" d="M 1228 531 
L 3431 531 
L 3431 0 
L 469 0 
L 469 531 
Q 828 903 1448 1529 
Q 2069 2156 2228 2338 
Q 2531 2678 2651 2914 
Q 2772 3150 2772 3378 
Q 2772 3750 2511 3984 
Q 2250 4219 1831 4219 
Q 1534 4219 1204 4116 
Q 875 4013 500 3803 
L 500 4441 
Q 881 4594 1212 4672 
Q 1544 4750 1819 4750 
Q 2544 4750 2975 4387 
Q 3406 4025 3406 3419 
Q 3406 3131 3298 2873 
Q 3191 2616 2906 2266 
Q 2828 2175 2409 1742 
Q 1991 1309 1228 531 
z
" transform="scale(0.015625)"/>
       </defs>
       <use xlink:href="#DejaVuSans-32"/>
       <use xlink:href="#DejaVuSans-30" transform="translate(63.623047 0)"/>
       <use xlink:href="#DejaVuSans-30" transform="translate(127.246094 0)"/>
       <use xlink:href="#DejaVuSans-30" transform="translate(190.869141 0)"/>
      </g>
     </g>
    </g>
   </g>
   <g id="matplotlib.axis_2">
    <g id="ytick_1">
     <g id="line2d_9">
      <defs>
       <path id="m86a5e32c3e" d="M 0 0 
L -3.5 0 
" style="stroke: #000000; stroke-width: 0.8"/>
      </defs>
      <g>
       <use xlink:href="#m86a5e32c3e" x="66.51" y="322.611359" style="stroke: #000000; stroke-width: 0.8"/>
      </g>
     </g>
     <g id="text_9">
      <!-- −1000 -->
      <g transform="translate(25.680312 326.410578) scale(0.1 -0.1)">
       <use xlink:href="#DejaVuSans-2212"/>
       <use xlink:href="#DejaVuSans-31" transform="translate(83.789062 0)"/>
       <use xlink:href="#DejaVuSans-30" transform="translate(147.412109 0)"/>
       <use xlink:href="#DejaVuSans-30" transform="translate(211.035156 0)"/>
       <use xlink:href="#DejaVuSans-30" transform="translate(274.658203 0)"/>
      </g>
     </g>
    </g>
    <g id="ytick_2">
     <g id="line2d_10">
      <g>
       <use xlink:href="#m86a5e32c3e" x="66.51" y="271.301167" style="stroke: #000000; stroke-width: 0.8"/>
      </g>
     </g>
     <g id="text_10">
      <!-- −500 -->
      <g transform="translate(32.042812 275.100386) scale(0.1 -0.1)">
       <use xlink:href="#DejaVuSans-2212"/>
       <use xlink:href="#DejaVuSans-35" transform="translate(83.789062 0)"/>
       <use xlink:href="#DejaVuSans-30" transform="translate(147.412109 0)"/>
       <use xlink:href="#DejaVuSans-30" transform="translate(211.035156 0)"/>
      </g>
     </g>
    </g>
    <g id="ytick_3">
     <g id="line2d_11">
      <g>
       <use xlink:href="#m86a5e32c3e" x="66.51" y="219.990975" style="stroke: #000000; stroke-width: 0.8"/>
      </g>
     </g>
     <g id="text_11">
      <!-- 0 -->
      <g transform="translate(53.1475 223.790194) scale(0.1 -0.1)">
       <use xlink:href="#DejaVuSans-30"/>
      </g>
     </g>
    </g>
    <g id="ytick_4">
     <g id="line2d_12">
      <g>
       <use xlink:href="#m86a5e32c3e" x="66.51" y="168.680783" style="stroke: #000000; stroke-width: 0.8"/>
      </g>
     </g>
     <g id="text_12">
      <!-- 500 -->
      <g transform="translate(40.4225 172.480002) scale(0.1 -0.1)">
       <use xlink:href="#DejaVuSans-35"/>
       <use xlink:href="#DejaVuSans-30" transform="translate(63.623047 0)"/>
       <use xlink:href="#DejaVuSans-30" transform="translate(127.246094 0)"/>
      </g>
     </g>
    </g>
    <g id="ytick_5">
     <g id="line2d_13">
      <g>
       <use xlink:href="#m86a5e32c3e" x="66.51" y="117.370591" style="stroke: #000000; stroke-width: 0.8"/>
      </g>
     </g>
     <g id="text_13">
      <!-- 1000 -->
      <g transform="translate(34.06 121.169809) scale(0.1 -0.1)">
       <use xlink:href="#DejaVuSans-31"/>
       <use xlink:href="#DejaVuSans-30" transform="translate(63.623047 0)"/>
       <use xlink:href="#DejaVuSans-30" transform="translate(127.246094 0)"/>
       <use xlink:href="#DejaVuSans-30" transform="translate(190.869141 0)"/>
      </g>
     </g>
    </g>
    <g id="ytick_6">
     <g id="line2d_14">
      <g>
       <use xlink:href="#m86a5e32c3e" x="66.51" y="66.060398" style="stroke: #000000; stroke-width: 0.8"/>
      </g>
     </g>
     <g id="text_14">
      <!-- 1500 -->
      <g transform="translate(34.06 69.859617) scale(0.1 -0.1)">
       <use xlink:href="#DejaVuSans-31"/>
       <use xlink:href="#DejaVuSans-35" transform="translate(63.623047 0)"/>
       <use xlink:href="#DejaVuSans-30" transform="translate(127.246094 0)"/>
       <use xlink:href="#DejaVuSans-30" transform="translate(190.869141 0)"/>
      </g>
     </g>
    </g>
   </g>
   <g id="patch_24">
    <path d="M 66.51 352.44 
L 66.51 47.52 
" style="fill: none; stroke: #000000; stroke-width: 0.8; stroke-linejoin: miter; stroke-linecap: square"/>
   </g>
   <g id="patch_25">
    <path d="M 478.872 352.44 
L 478.872 47.52 
" style="fill: none; stroke: #000000; stroke-width: 0.8; stroke-linejoin: miter; stroke-linecap: square"/>
   </g>
   <g id="patch_26">
    <path d="M 66.51 352.44 
L 478.872 352.44 
" style="fill: none; stroke: #000000; stroke-width: 0.8; stroke-linejoin: miter; stroke-linecap: square"/>
   </g>
   <g id="patch_27">
    <path d="M 66.51 47.52 
L 478.872 47.52 
" style="fill: none; stroke: #000000; stroke-width: 0.8; stroke-linejoin: miter; stroke-linecap: square"/>
   </g>
  </g>
 </g>
 <defs>
  <clipPath id="p57ff1a0dd3">
   <rect x="66.51" y="47.52" width="412.362" height="304.92"/>
  </clipPath>
 </defs>
</svg>
