<?xml version="1.0" encoding="utf-8" standalone="no"?>
<!DOCTYPE svg PUBLIC "-//W3C//DTD SVG 1.1//EN"
  "http://www.w3.org/Graphics/SVG/1.1/DTD/svg11.dtd">
<svg xmlns:xlink="http://www.w3.org/1999/xlink" width="572.4pt" height="382.32pt" viewBox="0 0 572.4 382.32" xmlns="http://www.w3.org/2000/svg" version="1.1">
 <metadata>
  <rdf:RDF xmlns:dc="http://purl.org/dc/elements/1.1/" xmlns:cc="http://creativecommons.org/ns#" xmlns:rdf="http://www.w3.org/1999/02/22-rdf-syntax-ns#">
   <cc:Work>
    <dc:type rdf:resource="http://purl.org/dc/dcmitype/StillImage"/>
    <dc:date>2025-06-06T08:47:42.408765</dc:date>
    <dc:format>image/svg+xml</dc:format>
    <dc:creator>
     <cc:Agent>
      <dc:title>Matplotlib v3.10.0, https://matplotlib.org/</dc:title>
     </cc:Agent>
    </dc:creator>
   </cc:Work>
  </rdf:RDF>
 </metadata>
 <defs>
  <style type="text/css">*{stroke-linejoin: round; stroke-linecap: butt}</style>
 </defs>
 <g id="figure_1">
  <g id="patch_1">
   <path d="M 0 382.32 
L 572.4 382.32 
L 572.4 0 
L 0 0 
z
" style="fill: #ffffff"/>
  </g>
  <g id="axes_1">
   <g id="patch_2">
    <path d="M 71.55 340.2648 
L 273.190909 340.2648 
L 273.190909 45.8784 
L 71.55 45.8784 
z
" style="fill: #ffffff"/>
   </g>
   <g id="matplotlib.axis_1">
    <g id="xtick_1">
     <g id="line2d_1">
      <defs>
       <path id="m8d29f1c464" d="M 0 0 
L 0 3.5 
" style="stroke: #000000; stroke-width: 0.8"/>
      </defs>
      <g>
       <use xlink:href="#m8d29f1c464" x="95.991322" y="340.2648" style="stroke: #000000; stroke-width: 0.8"/>
      </g>
     </g>
     <g id="text_1">
      <!-- −500 -->
      <g transform="translate(82.257729 354.863238) scale(0.1 -0.1)">
       <defs>
        <path id="DejaVuSans-2212" d="M 678 2272 
L 4684 2272 
L 4684 1741 
L 678 1741 
L 678 2272 
z
" transform="scale(0.015625)"/>
        <path id="DejaVuSans-35" d="M 691 4666 
L 3169 4666 
L 3169 4134 
L 1269 4134 
L 1269 2991 
Q 1406 3038 1543 3061 
Q 1681 3084 1819 3084 
Q 2600 3084 3056 2656 
Q 3513 2228 3513 1497 
Q 3513 744 3044 326 
Q 2575 -91 1722 -91 
Q 1428 -91 1123 -41 
Q 819 9 494 109 
L 494 744 
Q 775 591 1075 516 
Q 1375 441 1709 441 
Q 2250 441 2565 725 
Q 2881 1009 2881 1497 
Q 2881 1984 2565 2268 
Q 2250 2553 1709 2553 
Q 1456 2553 1204 2497 
Q 953 2441 691 2322 
L 691 4666 
z
" transform="scale(0.015625)"/>
        <path id="DejaVuSans-30" d="M 2034 4250 
Q 1547 4250 1301 3770 
Q 1056 3291 1056 2328 
Q 1056 1369 1301 889 
Q 1547 409 2034 409 
Q 2525 409 2770 889 
Q 3016 1369 3016 2328 
Q 3016 3291 2770 3770 
Q 2525 4250 2034 4250 
z
M 2034 4750 
Q 2819 4750 3233 4129 
Q 3647 3509 3647 2328 
Q 3647 1150 3233 529 
Q 2819 -91 2034 -91 
Q 1250 -91 836 529 
Q 422 1150 422 2328 
Q 422 3509 836 4129 
Q 1250 4750 2034 4750 
z
" transform="scale(0.015625)"/>
       </defs>
       <use xlink:href="#DejaVuSans-2212"/>
       <use xlink:href="#DejaVuSans-35" transform="translate(83.789062 0)"/>
       <use xlink:href="#DejaVuSans-30" transform="translate(147.412109 0)"/>
       <use xlink:href="#DejaVuSans-30" transform="translate(211.035156 0)"/>
      </g>
     </g>
    </g>
    <g id="xtick_2">
     <g id="line2d_2">
      <g>
       <use xlink:href="#m8d29f1c464" x="134.180888" y="340.2648" style="stroke: #000000; stroke-width: 0.8"/>
      </g>
     </g>
     <g id="text_2">
      <!-- −250 -->
      <g transform="translate(120.447295 354.863238) scale(0.1 -0.1)">
       <defs>
        <path id="DejaVuSans-32" d="M 1228 531 
L 3431 531 
L 3431 0 
L 469 0 
L 469 531 
Q 828 903 1448 1529 
Q 2069 2156 2228 2338 
Q 2531 2678 2651 2914 
Q 2772 3150 2772 3378 
Q 2772 3750 2511 3984 
Q 2250 4219 1831 4219 
Q 1534 4219 1204 4116 
Q 875 4013 500 3803 
L 500 4441 
Q 881 4594 1212 4672 
Q 1544 4750 1819 4750 
Q 2544 4750 2975 4387 
Q 3406 4025 3406 3419 
Q 3406 3131 3298 2873 
Q 3191 2616 2906 2266 
Q 2828 2175 2409 1742 
Q 1991 1309 1228 531 
z
" transform="scale(0.015625)"/>
       </defs>
       <use xlink:href="#DejaVuSans-2212"/>
       <use xlink:href="#DejaVuSans-32" transform="translate(83.789062 0)"/>
       <use xlink:href="#DejaVuSans-35" transform="translate(147.412109 0)"/>
       <use xlink:href="#DejaVuSans-30" transform="translate(211.035156 0)"/>
      </g>
     </g>
    </g>
    <g id="xtick_3">
     <g id="line2d_3">
      <g>
       <use xlink:href="#m8d29f1c464" x="172.370455" y="340.2648" style="stroke: #000000; stroke-width: 0.8"/>
      </g>
     </g>
     <g id="text_3">
      <!-- 0 -->
      <g transform="translate(169.189205 354.863238) scale(0.1 -0.1)">
       <use xlink:href="#DejaVuSans-30"/>
      </g>
     </g>
    </g>
    <g id="xtick_4">
     <g id="line2d_4">
      <g>
       <use xlink:href="#m8d29f1c464" x="210.560021" y="340.2648" style="stroke: #000000; stroke-width: 0.8"/>
      </g>
     </g>
     <g id="text_4">
      <!-- 250 -->
      <g transform="translate(201.016271 354.863238) scale(0.1 -0.1)">
       <use xlink:href="#DejaVuSans-32"/>
       <use xlink:href="#DejaVuSans-35" transform="translate(63.623047 0)"/>
       <use xlink:href="#DejaVuSans-30" transform="translate(127.246094 0)"/>
      </g>
     </g>
    </g>
    <g id="xtick_5">
     <g id="line2d_5">
      <g>
       <use xlink:href="#m8d29f1c464" x="248.749587" y="340.2648" style="stroke: #000000; stroke-width: 0.8"/>
      </g>
     </g>
     <g id="text_5">
      <!-- 500 -->
      <g transform="translate(239.205837 354.863238) scale(0.1 -0.1)">
       <use xlink:href="#DejaVuSans-35"/>
       <use xlink:href="#DejaVuSans-30" transform="translate(63.623047 0)"/>
       <use xlink:href="#DejaVuSans-30" transform="translate(127.246094 0)"/>
      </g>
     </g>
    </g>
   </g>
   <g id="matplotlib.axis_2">
    <g id="ytick_1">
     <g id="line2d_6">
      <defs>
       <path id="m2e0daedfd8" d="M 0 0 
L -3.5 0 
" style="stroke: #000000; stroke-width: 0.8"/>
      </defs>
      <g>
       <use xlink:href="#m2e0daedfd8" x="71.55" y="326.8836" style="stroke: #000000; stroke-width: 0.8"/>
      </g>
     </g>
     <g id="text_6">
      <!-- 0.0000 -->
      <g transform="translate(29.559375 330.682819) scale(0.1 -0.1)">
       <defs>
        <path id="DejaVuSans-2e" d="M 684 794 
L 1344 794 
L 1344 0 
L 684 0 
L 684 794 
z
" transform="scale(0.015625)"/>
       </defs>
       <use xlink:href="#DejaVuSans-30"/>
       <use xlink:href="#DejaVuSans-2e" transform="translate(63.623047 0)"/>
       <use xlink:href="#DejaVuSans-30" transform="translate(95.410156 0)"/>
       <use xlink:href="#DejaVuSans-30" transform="translate(159.033203 0)"/>
       <use xlink:href="#DejaVuSans-30" transform="translate(222.65625 0)"/>
       <use xlink:href="#DejaVuSans-30" transform="translate(286.279297 0)"/>
      </g>
     </g>
    </g>
    <g id="ytick_2">
     <g id="line2d_7">
      <g>
       <use xlink:href="#m2e0daedfd8" x="71.55" y="276.571033" style="stroke: #000000; stroke-width: 0.8"/>
      </g>
     </g>
     <g id="text_7">
      <!-- 0.0005 -->
      <g transform="translate(29.559375 280.370252) scale(0.1 -0.1)">
       <use xlink:href="#DejaVuSans-30"/>
       <use xlink:href="#DejaVuSans-2e" transform="translate(63.623047 0)"/>
       <use xlink:href="#DejaVuSans-30" transform="translate(95.410156 0)"/>
       <use xlink:href="#DejaVuSans-30" transform="translate(159.033203 0)"/>
       <use xlink:href="#DejaVuSans-30" transform="translate(222.65625 0)"/>
       <use xlink:href="#DejaVuSans-35" transform="translate(286.279297 0)"/>
      </g>
     </g>
    </g>
    <g id="ytick_3">
     <g id="line2d_8">
      <g>
       <use xlink:href="#m2e0daedfd8" x="71.55" y="226.258467" style="stroke: #000000; stroke-width: 0.8"/>
      </g>
     </g>
     <g id="text_8">
      <!-- 0.0010 -->
      <g transform="translate(29.559375 230.057686) scale(0.1 -0.1)">
       <defs>
        <path id="DejaVuSans-31" d="M 794 531 
L 1825 531 
L 1825 4091 
L 703 3866 
L 703 4441 
L 1819 4666 
L 2450 4666 
L 2450 531 
L 3481 531 
L 3481 0 
L 794 0 
L 794 531 
z
" transform="scale(0.015625)"/>
       </defs>
       <use xlink:href="#DejaVuSans-30"/>
       <use xlink:href="#DejaVuSans-2e" transform="translate(63.623047 0)"/>
       <use xlink:href="#DejaVuSans-30" transform="translate(95.410156 0)"/>
       <use xlink:href="#DejaVuSans-30" transform="translate(159.033203 0)"/>
       <use xlink:href="#DejaVuSans-31" transform="translate(222.65625 0)"/>
       <use xlink:href="#DejaVuSans-30" transform="translate(286.279297 0)"/>
      </g>
     </g>
    </g>
    <g id="ytick_4">
     <g id="line2d_9">
      <g>
       <use xlink:href="#m2e0daedfd8" x="71.55" y="175.9459" style="stroke: #000000; stroke-width: 0.8"/>
      </g>
     </g>
     <g id="text_9">
      <!-- 0.0015 -->
      <g transform="translate(29.559375 179.745119) scale(0.1 -0.1)">
       <use xlink:href="#DejaVuSans-30"/>
       <use xlink:href="#DejaVuSans-2e" transform="translate(63.623047 0)"/>
       <use xlink:href="#DejaVuSans-30" transform="translate(95.410156 0)"/>
       <use xlink:href="#DejaVuSans-30" transform="translate(159.033203 0)"/>
       <use xlink:href="#DejaVuSans-31" transform="translate(222.65625 0)"/>
       <use xlink:href="#DejaVuSans-35" transform="translate(286.279297 0)"/>
      </g>
     </g>
    </g>
    <g id="ytick_5">
     <g id="line2d_10">
      <g>
       <use xlink:href="#m2e0daedfd8" x="71.55" y="125.633334" style="stroke: #000000; stroke-width: 0.8"/>
      </g>
     </g>
     <g id="text_10">
      <!-- 0.0020 -->
      <g transform="translate(29.559375 129.432552) scale(0.1 -0.1)">
       <use xlink:href="#DejaVuSans-30"/>
       <use xlink:href="#DejaVuSans-2e" transform="translate(63.623047 0)"/>
       <use xlink:href="#DejaVuSans-30" transform="translate(95.410156 0)"/>
       <use xlink:href="#DejaVuSans-30" transform="translate(159.033203 0)"/>
       <use xlink:href="#DejaVuSans-32" transform="translate(222.65625 0)"/>
       <use xlink:href="#DejaVuSans-30" transform="translate(286.279297 0)"/>
      </g>
     </g>
    </g>
    <g id="ytick_6">
     <g id="line2d_11">
      <g>
       <use xlink:href="#m2e0daedfd8" x="71.55" y="75.320767" style="stroke: #000000; stroke-width: 0.8"/>
      </g>
     </g>
     <g id="text_11">
      <!-- 0.0025 -->
      <g transform="translate(29.559375 79.119986) scale(0.1 -0.1)">
       <use xlink:href="#DejaVuSans-30"/>
       <use xlink:href="#DejaVuSans-2e" transform="translate(63.623047 0)"/>
       <use xlink:href="#DejaVuSans-30" transform="translate(95.410156 0)"/>
       <use xlink:href="#DejaVuSans-30" transform="translate(159.033203 0)"/>
       <use xlink:href="#DejaVuSans-32" transform="translate(222.65625 0)"/>
       <use xlink:href="#DejaVuSans-35" transform="translate(286.279297 0)"/>
      </g>
     </g>
    </g>
    <g id="text_12">
     <!-- Probability [-] -->
     <g transform="translate(23.479687 226.795038) rotate(-90) scale(0.1 -0.1)">
      <defs>
       <path id="DejaVuSans-50" d="M 1259 4147 
L 1259 2394 
L 2053 2394 
Q 2494 2394 2734 2622 
Q 2975 2850 2975 3272 
Q 2975 3691 2734 3919 
Q 2494 4147 2053 4147 
L 1259 4147 
z
M 628 4666 
L 2053 4666 
Q 2838 4666 3239 4311 
Q 3641 3956 3641 3272 
Q 3641 2581 3239 2228 
Q 2838 1875 2053 1875 
L 1259 1875 
L 1259 0 
L 628 0 
L 628 4666 
z
" transform="scale(0.015625)"/>
       <path id="DejaVuSans-72" d="M 2631 2963 
Q 2534 3019 2420 3045 
Q 2306 3072 2169 3072 
Q 1681 3072 1420 2755 
Q 1159 2438 1159 1844 
L 1159 0 
L 581 0 
L 581 3500 
L 1159 3500 
L 1159 2956 
Q 1341 3275 1631 3429 
Q 1922 3584 2338 3584 
Q 2397 3584 2469 3576 
Q 2541 3569 2628 3553 
L 2631 2963 
z
" transform="scale(0.015625)"/>
       <path id="DejaVuSans-6f" d="M 1959 3097 
Q 1497 3097 1228 2736 
Q 959 2375 959 1747 
Q 959 1119 1226 758 
Q 1494 397 1959 397 
Q 2419 397 2687 759 
Q 2956 1122 2956 1747 
Q 2956 2369 2687 2733 
Q 2419 3097 1959 3097 
z
M 1959 3584 
Q 2709 3584 3137 3096 
Q 3566 2609 3566 1747 
Q 3566 888 3137 398 
Q 2709 -91 1959 -91 
Q 1206 -91 779 398 
Q 353 888 353 1747 
Q 353 2609 779 3096 
Q 1206 3584 1959 3584 
z
" transform="scale(0.015625)"/>
       <path id="DejaVuSans-62" d="M 3116 1747 
Q 3116 2381 2855 2742 
Q 2594 3103 2138 3103 
Q 1681 3103 1420 2742 
Q 1159 2381 1159 1747 
Q 1159 1113 1420 752 
Q 1681 391 2138 391 
Q 2594 391 2855 752 
Q 3116 1113 3116 1747 
z
M 1159 2969 
Q 1341 3281 1617 3432 
Q 1894 3584 2278 3584 
Q 2916 3584 3314 3078 
Q 3713 2572 3713 1747 
Q 3713 922 3314 415 
Q 2916 -91 2278 -91 
Q 1894 -91 1617 61 
Q 1341 213 1159 525 
L 1159 0 
L 581 0 
L 581 4863 
L 1159 4863 
L 1159 2969 
z
" transform="scale(0.015625)"/>
       <path id="DejaVuSans-61" d="M 2194 1759 
Q 1497 1759 1228 1600 
Q 959 1441 959 1056 
Q 959 750 1161 570 
Q 1363 391 1709 391 
Q 2188 391 2477 730 
Q 2766 1069 2766 1631 
L 2766 1759 
L 2194 1759 
z
M 3341 1997 
L 3341 0 
L 2766 0 
L 2766 531 
Q 2569 213 2275 61 
Q 1981 -91 1556 -91 
Q 1019 -91 701 211 
Q 384 513 384 1019 
Q 384 1609 779 1909 
Q 1175 2209 1959 2209 
L 2766 2209 
L 2766 2266 
Q 2766 2663 2505 2880 
Q 2244 3097 1772 3097 
Q 1472 3097 1187 3025 
Q 903 2953 641 2809 
L 641 3341 
Q 956 3463 1253 3523 
Q 1550 3584 1831 3584 
Q 2591 3584 2966 3190 
Q 3341 2797 3341 1997 
z
" transform="scale(0.015625)"/>
       <path id="DejaVuSans-69" d="M 603 3500 
L 1178 3500 
L 1178 0 
L 603 0 
L 603 3500 
z
M 603 4863 
L 1178 4863 
L 1178 4134 
L 603 4134 
L 603 4863 
z
" transform="scale(0.015625)"/>
       <path id="DejaVuSans-6c" d="M 603 4863 
L 1178 4863 
L 1178 0 
L 603 0 
L 603 4863 
z
" transform="scale(0.015625)"/>
       <path id="DejaVuSans-74" d="M 1172 4494 
L 1172 3500 
L 2356 3500 
L 2356 3053 
L 1172 3053 
L 1172 1153 
Q 1172 725 1289 603 
Q 1406 481 1766 481 
L 2356 481 
L 2356 0 
L 1766 0 
Q 1100 0 847 248 
Q 594 497 594 1153 
L 594 3053 
L 172 3053 
L 172 3500 
L 594 3500 
L 594 4494 
L 1172 4494 
z
" transform="scale(0.015625)"/>
       <path id="DejaVuSans-79" d="M 2059 -325 
Q 1816 -950 1584 -1140 
Q 1353 -1331 966 -1331 
L 506 -1331 
L 506 -850 
L 844 -850 
Q 1081 -850 1212 -737 
Q 1344 -625 1503 -206 
L 1606 56 
L 191 3500 
L 800 3500 
L 1894 763 
L 2988 3500 
L 3597 3500 
L 2059 -325 
z
" transform="scale(0.015625)"/>
       <path id="DejaVuSans-20" transform="scale(0.015625)"/>
       <path id="DejaVuSans-5b" d="M 550 4863 
L 1875 4863 
L 1875 4416 
L 1125 4416 
L 1125 -397 
L 1875 -397 
L 1875 -844 
L 550 -844 
L 550 4863 
z
" transform="scale(0.015625)"/>
       <path id="DejaVuSans-2d" d="M 313 2009 
L 1997 2009 
L 1997 1497 
L 313 1497 
L 313 2009 
z
" transform="scale(0.015625)"/>
       <path id="DejaVuSans-5d" d="M 1947 4863 
L 1947 -844 
L 622 -844 
L 622 -397 
L 1369 -397 
L 1369 4416 
L 622 4416 
L 622 4863 
L 1947 4863 
z
" transform="scale(0.015625)"/>
      </defs>
      <use xlink:href="#DejaVuSans-50"/>
      <use xlink:href="#DejaVuSans-72" transform="translate(58.552734 0)"/>
      <use xlink:href="#DejaVuSans-6f" transform="translate(97.416016 0)"/>
      <use xlink:href="#DejaVuSans-62" transform="translate(158.597656 0)"/>
      <use xlink:href="#DejaVuSans-61" transform="translate(222.074219 0)"/>
      <use xlink:href="#DejaVuSans-62" transform="translate(283.353516 0)"/>
      <use xlink:href="#DejaVuSans-69" transform="translate(346.830078 0)"/>
      <use xlink:href="#DejaVuSans-6c" transform="translate(374.613281 0)"/>
      <use xlink:href="#DejaVuSans-69" transform="translate(402.396484 0)"/>
      <use xlink:href="#DejaVuSans-74" transform="translate(430.179688 0)"/>
      <use xlink:href="#DejaVuSans-79" transform="translate(469.388672 0)"/>
      <use xlink:href="#DejaVuSans-20" transform="translate(528.568359 0)"/>
      <use xlink:href="#DejaVuSans-5b" transform="translate(560.355469 0)"/>
      <use xlink:href="#DejaVuSans-2d" transform="translate(599.369141 0)"/>
      <use xlink:href="#DejaVuSans-5d" transform="translate(635.453125 0)"/>
     </g>
    </g>
   </g>
   <g id="line2d_12">
    <path d="M 80.715496 326.8836 
L 149.342031 326.8836 
L 149.525525 172.075703 
L 248.611967 172.075703 
L 248.79546 326.8836 
L 264.025413 326.8836 
L 264.025413 326.8836 
" clip-path="url(#paa6f9d5062)" style="fill: none; stroke: #0000ff; stroke-width: 1.5; stroke-linecap: square"/>
   </g>
   <g id="line2d_13">
    <path d="M 80.715496 326.861214 
L 92.459074 326.702689 
L 98.330863 326.417557 
L 102.551212 326.000134 
L 105.854093 325.46031 
L 108.606494 324.799174 
L 110.991909 324.016 
L 113.19383 323.071041 
L 115.212257 321.973578 
L 117.230685 320.609082 
L 119.065619 319.094785 
L 120.900553 317.27683 
L 122.551994 315.343977 
L 124.203434 313.094056 
L 125.854875 310.490831 
L 127.506316 307.497126 
L 129.157756 304.075482 
L 130.99269 299.726857 
L 132.827625 294.755809 
L 134.662559 289.117774 
L 136.497493 282.774108 
L 138.51592 274.944825 
L 140.534348 266.19859 
L 142.736269 255.602842 
L 144.93819 243.926662 
L 147.507097 229.014771 
L 150.259499 211.669254 
L 153.56238 189.394092 
L 164.755478 112.443998 
L 167.140892 98.298672 
L 169.15932 87.63697 
L 170.810761 79.974076 
L 172.278708 74.061704 
L 173.746655 69.068059 
L 175.031109 65.49927 
L 176.132069 63.06166 
L 177.049537 61.481417 
L 177.967004 60.31941 
L 178.700977 59.694738 
L 179.434951 59.343253 
L 180.168925 59.266036 
L 180.902898 59.463324 
L 181.636872 59.934511 
L 182.370845 60.678148 
L 183.288312 61.987273 
L 184.20578 63.712216 
L 185.30674 66.319324 
L 186.4077 69.495502 
L 187.692154 73.89141 
L 189.160102 79.776074 
L 190.811542 87.410561 
L 192.646476 97.02164 
L 194.848397 109.891755 
L 197.417305 126.353158 
L 200.90368 150.300455 
L 209.52787 210.168006 
L 212.463765 228.736657 
L 215.032673 243.672248 
L 217.418087 256.297104 
L 219.620008 266.824324 
L 221.821929 276.25125 
L 223.840356 283.936651 
L 225.858784 290.737068 
L 227.693718 296.187541 
L 229.528652 300.982777 
L 231.363586 305.16862 
L 233.19852 308.794362 
L 235.033454 311.91104 
L 236.868388 314.569951 
L 238.703323 316.821411 
L 240.538257 318.713769 
L 242.373191 320.29264 
L 244.391618 321.717759 
L 246.410046 322.866029 
L 248.611967 323.856565 
L 250.997381 324.679151 
L 253.749782 325.375095 
L 256.86917 325.919213 
L 260.539038 326.32723 
L 264.025413 326.561418 
L 264.025413 326.561418 
" clip-path="url(#paa6f9d5062)" style="fill: none; stroke: #008000; stroke-width: 1.5; stroke-linecap: square"/>
   </g>
   <g id="line2d_14">
    <path d="M 80.715496 326.8836 
L 145.48867 326.787762 
L 147.140111 325.186057 
L 148.791551 323.246353 
L 150.442992 320.945293 
L 152.094433 318.264085 
L 153.745873 315.483793 
L 165.489452 308.896117 
L 168.792333 307.379554 
L 171.544734 306.347075 
L 174.113642 305.612885 
L 176.499056 305.153597 
L 178.884471 304.92368 
L 181.269885 304.930544 
L 183.655299 305.173967 
L 186.040714 305.646108 
L 188.609621 306.392953 
L 191.362023 307.43716 
L 194.481411 308.873321 
L 198.334772 310.915675 
L 205.491015 315.037186 
L 210.995818 318.072666 
L 215.032673 320.047467 
L 218.702541 321.600108 
L 222.188916 322.844288 
L 225.858784 323.914023 
L 229.528652 324.755748 
L 233.565507 325.451919 
L 238.152842 326.004737 
L 243.474151 326.409051 
L 253.749782 326.8836 
L 264.025413 326.8836 
L 264.025413 326.8836 
" clip-path="url(#paa6f9d5062)" style="fill: none; stroke: #ffa500; stroke-width: 1.5; stroke-linecap: square"/>
   </g>
   <g id="patch_3">
    <path d="M 71.55 340.2648 
L 71.55 45.8784 
" style="fill: none; stroke: #000000; stroke-width: 0.8; stroke-linejoin: miter; stroke-linecap: square"/>
   </g>
   <g id="patch_4">
    <path d="M 273.190909 340.2648 
L 273.190909 45.8784 
" style="fill: none; stroke: #000000; stroke-width: 0.8; stroke-linejoin: miter; stroke-linecap: square"/>
   </g>
   <g id="patch_5">
    <path d="M 71.55 340.2648 
L 273.190909 340.2648 
" style="fill: none; stroke: #000000; stroke-width: 0.8; stroke-linejoin: miter; stroke-linecap: square"/>
   </g>
   <g id="patch_6">
    <path d="M 71.55 45.8784 
L 273.190909 45.8784 
" style="fill: none; stroke: #000000; stroke-width: 0.8; stroke-linejoin: miter; stroke-linecap: square"/>
   </g>
   <g id="text_13">
    <!-- N=1, $P_{ij}=$0.074449 -->
    <g transform="translate(122.970455 39.8784) scale(0.1 -0.1)">
     <defs>
      <path id="DejaVuSans-4e" d="M 628 4666 
L 1478 4666 
L 3547 763 
L 3547 4666 
L 4159 4666 
L 4159 0 
L 3309 0 
L 1241 3903 
L 1241 0 
L 628 0 
L 628 4666 
z
" transform="scale(0.015625)"/>
      <path id="DejaVuSans-3d" d="M 678 2906 
L 4684 2906 
L 4684 2381 
L 678 2381 
L 678 2906 
z
M 678 1631 
L 4684 1631 
L 4684 1100 
L 678 1100 
L 678 1631 
z
" transform="scale(0.015625)"/>
      <path id="DejaVuSans-2c" d="M 750 794 
L 1409 794 
L 1409 256 
L 897 -744 
L 494 -744 
L 750 256 
L 750 794 
z
" transform="scale(0.015625)"/>
      <path id="DejaVuSans-Oblique-50" d="M 1081 4666 
L 2541 4666 
Q 3178 4666 3512 4369 
Q 3847 4072 3847 3500 
Q 3847 2731 3353 2303 
Q 2859 1875 1966 1875 
L 1172 1875 
L 806 0 
L 172 0 
L 1081 4666 
z
M 1613 4147 
L 1275 2394 
L 2069 2394 
Q 2606 2394 2893 2669 
Q 3181 2944 3181 3456 
Q 3181 3784 2986 3965 
Q 2791 4147 2438 4147 
L 1613 4147 
z
" transform="scale(0.015625)"/>
      <path id="DejaVuSans-Oblique-69" d="M 1172 4863 
L 1747 4863 
L 1606 4134 
L 1031 4134 
L 1172 4863 
z
M 909 3500 
L 1484 3500 
L 800 0 
L 225 0 
L 909 3500 
z
" transform="scale(0.015625)"/>
      <path id="DejaVuSans-Oblique-6a" d="M 928 3500 
L 1503 3500 
L 813 -63 
L 809 -78 
Q 694 -675 544 -897 
Q 403 -1106 132 -1218 
Q -138 -1331 -506 -1331 
L -722 -1331 
L -628 -844 
L -481 -844 
Q -144 -844 -1 -703 
Q 141 -563 238 -63 
L 928 3500 
z
M 1197 4863 
L 1772 4863 
L 1631 4134 
L 1056 4134 
L 1197 4863 
z
" transform="scale(0.015625)"/>
      <path id="DejaVuSans-37" d="M 525 4666 
L 3525 4666 
L 3525 4397 
L 1831 0 
L 1172 0 
L 2766 4134 
L 525 4134 
L 525 4666 
z
" transform="scale(0.015625)"/>
      <path id="DejaVuSans-34" d="M 2419 4116 
L 825 1625 
L 2419 1625 
L 2419 4116 
z
M 2253 4666 
L 3047 4666 
L 3047 1625 
L 3713 1625 
L 3713 1100 
L 3047 1100 
L 3047 0 
L 2419 0 
L 2419 1100 
L 313 1100 
L 313 1709 
L 2253 4666 
z
" transform="scale(0.015625)"/>
      <path id="DejaVuSans-39" d="M 703 97 
L 703 672 
Q 941 559 1184 500 
Q 1428 441 1663 441 
Q 2288 441 2617 861 
Q 2947 1281 2994 2138 
Q 2813 1869 2534 1725 
Q 2256 1581 1919 1581 
Q 1219 1581 811 2004 
Q 403 2428 403 3163 
Q 403 3881 828 4315 
Q 1253 4750 1959 4750 
Q 2769 4750 3195 4129 
Q 3622 3509 3622 2328 
Q 3622 1225 3098 567 
Q 2575 -91 1691 -91 
Q 1453 -91 1209 -44 
Q 966 3 703 97 
z
M 1959 2075 
Q 2384 2075 2632 2365 
Q 2881 2656 2881 3163 
Q 2881 3666 2632 3958 
Q 2384 4250 1959 4250 
Q 1534 4250 1286 3958 
Q 1038 3666 1038 3163 
Q 1038 2656 1286 2365 
Q 1534 2075 1959 2075 
z
" transform="scale(0.015625)"/>
     </defs>
     <use xlink:href="#DejaVuSans-4e" transform="translate(0 0.78125)"/>
     <use xlink:href="#DejaVuSans-3d" transform="translate(74.804688 0.78125)"/>
     <use xlink:href="#DejaVuSans-31" transform="translate(158.59375 0.78125)"/>
     <use xlink:href="#DejaVuSans-2c" transform="translate(222.216797 0.78125)"/>
     <use xlink:href="#DejaVuSans-20" transform="translate(254.003906 0.78125)"/>
     <use xlink:href="#DejaVuSans-Oblique-50" transform="translate(285.791016 0.78125)"/>
     <use xlink:href="#DejaVuSans-Oblique-69" transform="translate(346.09375 -15.625) scale(0.7)"/>
     <use xlink:href="#DejaVuSans-Oblique-6a" transform="translate(365.541992 -15.625) scale(0.7)"/>
     <use xlink:href="#DejaVuSans-3d" transform="translate(407.207031 0.78125)"/>
     <use xlink:href="#DejaVuSans-30" transform="translate(510.478516 0.78125)"/>
     <use xlink:href="#DejaVuSans-2e" transform="translate(574.101562 0.78125)"/>
     <use xlink:href="#DejaVuSans-30" transform="translate(605.888672 0.78125)"/>
     <use xlink:href="#DejaVuSans-37" transform="translate(669.511719 0.78125)"/>
     <use xlink:href="#DejaVuSans-34" transform="translate(733.134766 0.78125)"/>
     <use xlink:href="#DejaVuSans-34" transform="translate(796.757812 0.78125)"/>
     <use xlink:href="#DejaVuSans-34" transform="translate(860.380859 0.78125)"/>
     <use xlink:href="#DejaVuSans-39" transform="translate(924.003906 0.78125)"/>
    </g>
   </g>
   <g id="legend_1">
    <g id="patch_7">
     <path d="M 78.55 97.912775 
L 156.840625 97.912775 
Q 158.840625 97.912775 158.840625 95.912775 
L 158.840625 52.8784 
Q 158.840625 50.8784 156.840625 50.8784 
L 78.55 50.8784 
Q 76.55 50.8784 76.55 52.8784 
L 76.55 95.912775 
Q 76.55 97.912775 78.55 97.912775 
z
" style="fill: #ffffff; opacity: 0.8; stroke: #cccccc; stroke-linejoin: miter"/>
    </g>
    <g id="line2d_15">
     <path d="M 80.55 58.976837 
L 90.55 58.976837 
L 100.55 58.976837 
" style="fill: none; stroke: #0000ff; stroke-width: 1.5; stroke-linecap: square"/>
    </g>
    <g id="text_14">
     <!-- Uniform -->
     <g transform="translate(108.55 62.476837) scale(0.1 -0.1)">
      <defs>
       <path id="DejaVuSans-55" d="M 556 4666 
L 1191 4666 
L 1191 1831 
Q 1191 1081 1462 751 
Q 1734 422 2344 422 
Q 2950 422 3222 751 
Q 3494 1081 3494 1831 
L 3494 4666 
L 4128 4666 
L 4128 1753 
Q 4128 841 3676 375 
Q 3225 -91 2344 -91 
Q 1459 -91 1007 375 
Q 556 841 556 1753 
L 556 4666 
z
" transform="scale(0.015625)"/>
       <path id="DejaVuSans-6e" d="M 3513 2113 
L 3513 0 
L 2938 0 
L 2938 2094 
Q 2938 2591 2744 2837 
Q 2550 3084 2163 3084 
Q 1697 3084 1428 2787 
Q 1159 2491 1159 1978 
L 1159 0 
L 581 0 
L 581 3500 
L 1159 3500 
L 1159 2956 
Q 1366 3272 1645 3428 
Q 1925 3584 2291 3584 
Q 2894 3584 3203 3211 
Q 3513 2838 3513 2113 
z
" transform="scale(0.015625)"/>
       <path id="DejaVuSans-66" d="M 2375 4863 
L 2375 4384 
L 1825 4384 
Q 1516 4384 1395 4259 
Q 1275 4134 1275 3809 
L 1275 3500 
L 2222 3500 
L 2222 3053 
L 1275 3053 
L 1275 0 
L 697 0 
L 697 3053 
L 147 3053 
L 147 3500 
L 697 3500 
L 697 3744 
Q 697 4328 969 4595 
Q 1241 4863 1831 4863 
L 2375 4863 
z
" transform="scale(0.015625)"/>
       <path id="DejaVuSans-6d" d="M 3328 2828 
Q 3544 3216 3844 3400 
Q 4144 3584 4550 3584 
Q 5097 3584 5394 3201 
Q 5691 2819 5691 2113 
L 5691 0 
L 5113 0 
L 5113 2094 
Q 5113 2597 4934 2840 
Q 4756 3084 4391 3084 
Q 3944 3084 3684 2787 
Q 3425 2491 3425 1978 
L 3425 0 
L 2847 0 
L 2847 2094 
Q 2847 2600 2669 2842 
Q 2491 3084 2119 3084 
Q 1678 3084 1418 2786 
Q 1159 2488 1159 1978 
L 1159 0 
L 581 0 
L 581 3500 
L 1159 3500 
L 1159 2956 
Q 1356 3278 1631 3431 
Q 1906 3584 2284 3584 
Q 2666 3584 2933 3390 
Q 3200 3197 3328 2828 
z
" transform="scale(0.015625)"/>
      </defs>
      <use xlink:href="#DejaVuSans-55"/>
      <use xlink:href="#DejaVuSans-6e" transform="translate(73.193359 0)"/>
      <use xlink:href="#DejaVuSans-69" transform="translate(136.572266 0)"/>
      <use xlink:href="#DejaVuSans-66" transform="translate(164.355469 0)"/>
      <use xlink:href="#DejaVuSans-6f" transform="translate(199.560547 0)"/>
      <use xlink:href="#DejaVuSans-72" transform="translate(260.742188 0)"/>
      <use xlink:href="#DejaVuSans-6d" transform="translate(300.105469 0)"/>
     </g>
    </g>
    <g id="line2d_16">
     <path d="M 80.55 73.654963 
L 90.55 73.654963 
L 100.55 73.654963 
" style="fill: none; stroke: #008000; stroke-width: 1.5; stroke-linecap: square"/>
    </g>
    <g id="text_15">
     <!-- Normal -->
     <g transform="translate(108.55 77.154963) scale(0.1 -0.1)">
      <use xlink:href="#DejaVuSans-4e"/>
      <use xlink:href="#DejaVuSans-6f" transform="translate(74.804688 0)"/>
      <use xlink:href="#DejaVuSans-72" transform="translate(135.986328 0)"/>
      <use xlink:href="#DejaVuSans-6d" transform="translate(175.349609 0)"/>
      <use xlink:href="#DejaVuSans-61" transform="translate(272.761719 0)"/>
      <use xlink:href="#DejaVuSans-6c" transform="translate(334.041016 0)"/>
     </g>
    </g>
    <g id="line2d_17">
     <path d="M 80.55 88.333087 
L 90.55 88.333087 
L 100.55 88.333087 
" style="fill: none; stroke: #ffa500; stroke-width: 1.5; stroke-linecap: square"/>
    </g>
    <g id="text_16">
     <!-- Exposure -->
     <g transform="translate(108.55 91.833087) scale(0.1 -0.1)">
      <defs>
       <path id="DejaVuSans-45" d="M 628 4666 
L 3578 4666 
L 3578 4134 
L 1259 4134 
L 1259 2753 
L 3481 2753 
L 3481 2222 
L 1259 2222 
L 1259 531 
L 3634 531 
L 3634 0 
L 628 0 
L 628 4666 
z
" transform="scale(0.015625)"/>
       <path id="DejaVuSans-78" d="M 3513 3500 
L 2247 1797 
L 3578 0 
L 2900 0 
L 1881 1375 
L 863 0 
L 184 0 
L 1544 1831 
L 300 3500 
L 978 3500 
L 1906 2253 
L 2834 3500 
L 3513 3500 
z
" transform="scale(0.015625)"/>
       <path id="DejaVuSans-70" d="M 1159 525 
L 1159 -1331 
L 581 -1331 
L 581 3500 
L 1159 3500 
L 1159 2969 
Q 1341 3281 1617 3432 
Q 1894 3584 2278 3584 
Q 2916 3584 3314 3078 
Q 3713 2572 3713 1747 
Q 3713 922 3314 415 
Q 2916 -91 2278 -91 
Q 1894 -91 1617 61 
Q 1341 213 1159 525 
z
M 3116 1747 
Q 3116 2381 2855 2742 
Q 2594 3103 2138 3103 
Q 1681 3103 1420 2742 
Q 1159 2381 1159 1747 
Q 1159 1113 1420 752 
Q 1681 391 2138 391 
Q 2594 391 2855 752 
Q 3116 1113 3116 1747 
z
" transform="scale(0.015625)"/>
       <path id="DejaVuSans-73" d="M 2834 3397 
L 2834 2853 
Q 2591 2978 2328 3040 
Q 2066 3103 1784 3103 
Q 1356 3103 1142 2972 
Q 928 2841 928 2578 
Q 928 2378 1081 2264 
Q 1234 2150 1697 2047 
L 1894 2003 
Q 2506 1872 2764 1633 
Q 3022 1394 3022 966 
Q 3022 478 2636 193 
Q 2250 -91 1575 -91 
Q 1294 -91 989 -36 
Q 684 19 347 128 
L 347 722 
Q 666 556 975 473 
Q 1284 391 1588 391 
Q 1994 391 2212 530 
Q 2431 669 2431 922 
Q 2431 1156 2273 1281 
Q 2116 1406 1581 1522 
L 1381 1569 
Q 847 1681 609 1914 
Q 372 2147 372 2553 
Q 372 3047 722 3315 
Q 1072 3584 1716 3584 
Q 2034 3584 2315 3537 
Q 2597 3491 2834 3397 
z
" transform="scale(0.015625)"/>
       <path id="DejaVuSans-75" d="M 544 1381 
L 544 3500 
L 1119 3500 
L 1119 1403 
Q 1119 906 1312 657 
Q 1506 409 1894 409 
Q 2359 409 2629 706 
Q 2900 1003 2900 1516 
L 2900 3500 
L 3475 3500 
L 3475 0 
L 2900 0 
L 2900 538 
Q 2691 219 2414 64 
Q 2138 -91 1772 -91 
Q 1169 -91 856 284 
Q 544 659 544 1381 
z
M 1991 3584 
L 1991 3584 
z
" transform="scale(0.015625)"/>
       <path id="DejaVuSans-65" d="M 3597 1894 
L 3597 1613 
L 953 1613 
Q 991 1019 1311 708 
Q 1631 397 2203 397 
Q 2534 397 2845 478 
Q 3156 559 3463 722 
L 3463 178 
Q 3153 47 2828 -22 
Q 2503 -91 2169 -91 
Q 1331 -91 842 396 
Q 353 884 353 1716 
Q 353 2575 817 3079 
Q 1281 3584 2069 3584 
Q 2775 3584 3186 3129 
Q 3597 2675 3597 1894 
z
M 3022 2063 
Q 3016 2534 2758 2815 
Q 2500 3097 2075 3097 
Q 1594 3097 1305 2825 
Q 1016 2553 972 2059 
L 3022 2063 
z
" transform="scale(0.015625)"/>
      </defs>
      <use xlink:href="#DejaVuSans-45"/>
      <use xlink:href="#DejaVuSans-78" transform="translate(63.183594 0)"/>
      <use xlink:href="#DejaVuSans-70" transform="translate(122.363281 0)"/>
      <use xlink:href="#DejaVuSans-6f" transform="translate(185.839844 0)"/>
      <use xlink:href="#DejaVuSans-73" transform="translate(247.021484 0)"/>
      <use xlink:href="#DejaVuSans-75" transform="translate(299.121094 0)"/>
      <use xlink:href="#DejaVuSans-72" transform="translate(362.5 0)"/>
      <use xlink:href="#DejaVuSans-65" transform="translate(401.363281 0)"/>
     </g>
    </g>
   </g>
  </g>
  <g id="axes_2">
   <g id="patch_8">
    <path d="M 313.519091 340.2648 
L 515.16 340.2648 
L 515.16 45.8784 
L 313.519091 45.8784 
z
" style="fill: #ffffff"/>
   </g>
   <g id="matplotlib.axis_3">
    <g id="xtick_6">
     <g id="line2d_18">
      <g>
       <use xlink:href="#m8d29f1c464" x="337.960413" y="340.2648" style="stroke: #000000; stroke-width: 0.8"/>
      </g>
     </g>
     <g id="text_17">
      <!-- −500 -->
      <g transform="translate(324.226819 354.863238) scale(0.1 -0.1)">
       <use xlink:href="#DejaVuSans-2212"/>
       <use xlink:href="#DejaVuSans-35" transform="translate(83.789062 0)"/>
       <use xlink:href="#DejaVuSans-30" transform="translate(147.412109 0)"/>
       <use xlink:href="#DejaVuSans-30" transform="translate(211.035156 0)"/>
      </g>
     </g>
    </g>
    <g id="xtick_7">
     <g id="line2d_19">
      <g>
       <use xlink:href="#m8d29f1c464" x="376.149979" y="340.2648" style="stroke: #000000; stroke-width: 0.8"/>
      </g>
     </g>
     <g id="text_18">
      <!-- −250 -->
      <g transform="translate(362.416386 354.863238) scale(0.1 -0.1)">
       <use xlink:href="#DejaVuSans-2212"/>
       <use xlink:href="#DejaVuSans-32" transform="translate(83.789062 0)"/>
       <use xlink:href="#DejaVuSans-35" transform="translate(147.412109 0)"/>
       <use xlink:href="#DejaVuSans-30" transform="translate(211.035156 0)"/>
      </g>
     </g>
    </g>
    <g id="xtick_8">
     <g id="line2d_20">
      <g>
       <use xlink:href="#m8d29f1c464" x="414.339545" y="340.2648" style="stroke: #000000; stroke-width: 0.8"/>
      </g>
     </g>
     <g id="text_19">
      <!-- 0 -->
      <g transform="translate(411.158295 354.863238) scale(0.1 -0.1)">
       <use xlink:href="#DejaVuSans-30"/>
      </g>
     </g>
    </g>
    <g id="xtick_9">
     <g id="line2d_21">
      <g>
       <use xlink:href="#m8d29f1c464" x="452.529112" y="340.2648" style="stroke: #000000; stroke-width: 0.8"/>
      </g>
     </g>
     <g id="text_20">
      <!-- 250 -->
      <g transform="translate(442.985362 354.863238) scale(0.1 -0.1)">
       <use xlink:href="#DejaVuSans-32"/>
       <use xlink:href="#DejaVuSans-35" transform="translate(63.623047 0)"/>
       <use xlink:href="#DejaVuSans-30" transform="translate(127.246094 0)"/>
      </g>
     </g>
    </g>
    <g id="xtick_10">
     <g id="line2d_22">
      <g>
       <use xlink:href="#m8d29f1c464" x="490.718678" y="340.2648" style="stroke: #000000; stroke-width: 0.8"/>
      </g>
     </g>
     <g id="text_21">
      <!-- 500 -->
      <g transform="translate(481.174928 354.863238) scale(0.1 -0.1)">
       <use xlink:href="#DejaVuSans-35"/>
       <use xlink:href="#DejaVuSans-30" transform="translate(63.623047 0)"/>
       <use xlink:href="#DejaVuSans-30" transform="translate(127.246094 0)"/>
      </g>
     </g>
    </g>
   </g>
   <g id="matplotlib.axis_4"/>
   <g id="line2d_23">
    <path d="M 322.684587 326.8836 
L 391.311122 326.8836 
L 391.494616 172.075703 
L 411.128411 172.075703 
L 411.311904 326.8836 
L 505.994504 326.8836 
L 505.994504 326.8836 
" clip-path="url(#pff39d97a01)" style="fill: none; stroke: #0000ff; stroke-width: 1.5; stroke-linecap: square"/>
   </g>
   <g id="line2d_24">
    <path d="M 322.684587 326.8836 
L 387.457761 326.787762 
L 389.109201 325.186057 
L 390.760642 323.246353 
L 392.412083 320.945293 
L 394.063524 318.264085 
L 395.714964 315.483793 
L 407.091556 309.08002 
L 407.275049 309.139797 
L 409.109983 312.488294 
L 411.128411 316.680276 
L 413.330332 321.781435 
L 415.532253 326.8836 
L 505.994504 326.8836 
L 505.994504 326.8836 
" clip-path="url(#pff39d97a01)" style="fill: none; stroke: #ffa500; stroke-width: 1.5; stroke-linecap: square"/>
   </g>
   <g id="line2d_25">
    <path d="M 322.684587 326.8836 
L 411.128411 326.8836 
L 411.311904 172.075703 
L 431.129193 172.075703 
L 431.312686 326.8836 
L 505.994504 326.8836 
L 505.994504 326.8836 
" clip-path="url(#pff39d97a01)" style="fill: none; stroke: #0000ff; stroke-width: 1.5; stroke-linecap: square"/>
   </g>
   <g id="line2d_26">
    <path d="M 322.684587 326.8836 
L 407.091556 326.8836 
L 407.275049 326.731534 
L 409.47697 321.608362 
L 412.045878 315.007574 
L 415.532253 305.75004 
L 417.917667 305.239649 
L 420.303081 304.95587 
L 422.688496 304.907831 
L 425.07391 305.097086 
L 426.908844 305.400575 
L 427.092338 305.511942 
L 431.496179 317.672543 
L 434.248581 324.611375 
L 435.166048 326.756726 
L 435.533034 326.8836 
L 505.994504 326.8836 
L 505.994504 326.8836 
" clip-path="url(#pff39d97a01)" style="fill: none; stroke: #ffa500; stroke-width: 1.5; stroke-linecap: square"/>
   </g>
   <g id="line2d_27">
    <path d="M 322.684587 326.8836 
L 431.129193 326.8836 
L 431.312686 172.075703 
L 450.946481 172.075703 
L 451.129974 326.8836 
L 505.994504 326.8836 
L 505.994504 326.8836 
" clip-path="url(#pff39d97a01)" style="fill: none; stroke: #0000ff; stroke-width: 1.5; stroke-linecap: square"/>
   </g>
   <g id="line2d_28">
    <path d="M 322.684587 326.8836 
L 427.092338 326.809913 
L 430.211725 318.930815 
L 432.59714 313.489556 
L 434.615567 309.402516 
L 435.166048 308.38038 
L 435.349541 308.339772 
L 438.835916 310.110635 
L 443.790238 312.907963 
L 446.909626 314.719925 
L 449.662027 319.845205 
L 451.496961 322.671647 
L 453.148402 324.819576 
L 454.799843 326.612753 
L 455.166829 326.8836 
L 505.994504 326.8836 
L 505.994504 326.8836 
" clip-path="url(#pff39d97a01)" style="fill: none; stroke: #ffa500; stroke-width: 1.5; stroke-linecap: square"/>
   </g>
   <g id="line2d_29">
    <path d="M 322.684587 326.8836 
L 450.946481 326.8836 
L 451.129974 172.075703 
L 470.763769 172.075703 
L 470.947263 326.8836 
L 505.994504 326.8836 
L 505.994504 326.8836 
" clip-path="url(#pff39d97a01)" style="fill: none; stroke: #0000ff; stroke-width: 1.5; stroke-linecap: square"/>
   </g>
   <g id="line2d_30">
    <path d="M 322.684587 326.8836 
L 446.909626 326.8836 
L 449.478534 323.531536 
L 451.129974 321.835849 
L 452.597922 320.62041 
L 454.065869 319.661975 
L 454.983336 319.184949 
L 455.350323 319.271119 
L 459.203684 321.008522 
L 462.873553 322.412236 
L 466.543421 323.566747 
L 466.910408 323.719705 
L 468.745342 324.804218 
L 470.580276 325.64491 
L 472.598703 326.334032 
L 474.800624 326.857487 
L 475.718091 326.8836 
L 505.994504 326.8836 
L 505.994504 326.8836 
" clip-path="url(#pff39d97a01)" style="fill: none; stroke: #ffa500; stroke-width: 1.5; stroke-linecap: square"/>
   </g>
   <g id="line2d_31">
    <path d="M 322.684587 326.8836 
L 470.763769 326.8836 
L 470.947263 172.075703 
L 490.581058 172.075703 
L 490.764551 326.8836 
L 505.994504 326.8836 
L 505.994504 326.8836 
" clip-path="url(#pff39d97a01)" style="fill: none; stroke: #0000ff; stroke-width: 1.5; stroke-linecap: square"/>
   </g>
   <g id="line2d_32">
    <path d="M 322.684587 326.8836 
L 466.910408 326.832782 
L 468.928835 326.174348 
L 471.130756 325.709267 
L 473.51617 325.436989 
L 475.167611 325.3975 
L 479.571453 325.949763 
L 484.709268 326.36529 
L 494.801406 326.8836 
L 505.994504 326.8836 
L 505.994504 326.8836 
" clip-path="url(#pff39d97a01)" style="fill: none; stroke: #ffa500; stroke-width: 1.5; stroke-linecap: square"/>
   </g>
   <g id="line2d_33">
    <path d="M 322.684587 326.861214 
L 334.428165 326.702689 
L 340.299954 326.417557 
L 344.520303 326.000134 
L 347.823184 325.46031 
L 350.575585 324.799174 
L 352.961 324.016 
L 355.16292 323.071041 
L 357.181348 321.973578 
L 359.199776 320.609082 
L 361.03471 319.094785 
L 362.869644 317.27683 
L 364.521084 315.343977 
L 366.172525 313.094056 
L 367.823966 310.490831 
L 369.475407 307.497126 
L 371.126847 304.075482 
L 372.961781 299.726857 
L 374.796715 294.755809 
L 376.63165 289.117774 
L 378.466584 282.774108 
L 380.485011 274.944825 
L 382.503439 266.19859 
L 384.70536 255.602842 
L 386.907281 243.926662 
L 389.476188 229.014771 
L 392.228589 211.669254 
L 395.531471 189.394092 
L 406.724569 112.443998 
L 409.109983 98.298672 
L 411.128411 87.63697 
L 412.779851 79.974076 
L 414.247799 74.061704 
L 415.715746 69.068059 
L 417.0002 65.49927 
L 418.10116 63.06166 
L 419.018627 61.481417 
L 419.936094 60.31941 
L 420.670068 59.694738 
L 421.404042 59.343253 
L 422.138015 59.266036 
L 422.871989 59.463324 
L 423.605963 59.934511 
L 424.339936 60.678148 
L 425.257403 61.987273 
L 426.17487 63.712216 
L 427.275831 66.319324 
L 428.376791 69.495502 
L 429.661245 73.89141 
L 431.129193 79.776074 
L 432.780633 87.410561 
L 434.615567 97.02164 
L 436.817488 109.891755 
L 439.386396 126.353158 
L 442.872771 150.300455 
L 451.496961 210.168006 
L 454.432856 228.736657 
L 457.001763 243.672248 
L 459.387178 256.297104 
L 461.589099 266.824324 
L 463.79102 276.25125 
L 465.809447 283.936651 
L 467.827875 290.737068 
L 469.662809 296.187541 
L 471.497743 300.982777 
L 473.332677 305.16862 
L 475.167611 308.794362 
L 477.002545 311.91104 
L 478.837479 314.569951 
L 480.672413 316.821411 
L 482.507348 318.713769 
L 484.342282 320.29264 
L 486.360709 321.717759 
L 488.379137 322.866029 
L 490.581058 323.856565 
L 492.966472 324.679151 
L 495.718873 325.375095 
L 498.838261 325.919213 
L 502.508129 326.32723 
L 505.994504 326.561418 
L 505.994504 326.561418 
" clip-path="url(#pff39d97a01)" style="fill: none; stroke: #008000; stroke-width: 1.5; stroke-linecap: square"/>
   </g>
   <g id="patch_9">
    <path d="M 313.519091 340.2648 
L 313.519091 45.8784 
" style="fill: none; stroke: #000000; stroke-width: 0.8; stroke-linejoin: miter; stroke-linecap: square"/>
   </g>
   <g id="patch_10">
    <path d="M 515.16 340.2648 
L 515.16 45.8784 
" style="fill: none; stroke: #000000; stroke-width: 0.8; stroke-linejoin: miter; stroke-linecap: square"/>
   </g>
   <g id="patch_11">
    <path d="M 313.519091 340.2648 
L 515.16 340.2648 
" style="fill: none; stroke: #000000; stroke-width: 0.8; stroke-linejoin: miter; stroke-linecap: square"/>
   </g>
   <g id="patch_12">
    <path d="M 313.519091 45.8784 
L 515.16 45.8784 
" style="fill: none; stroke: #000000; stroke-width: 0.8; stroke-linejoin: miter; stroke-linecap: square"/>
   </g>
   <g id="text_22">
    <!-- N=5, $P_{ij}=$0.074449 -->
    <g transform="translate(364.939545 39.8784) scale(0.1 -0.1)">
     <use xlink:href="#DejaVuSans-4e" transform="translate(0 0.78125)"/>
     <use xlink:href="#DejaVuSans-3d" transform="translate(74.804688 0.78125)"/>
     <use xlink:href="#DejaVuSans-35" transform="translate(158.59375 0.78125)"/>
     <use xlink:href="#DejaVuSans-2c" transform="translate(222.216797 0.78125)"/>
     <use xlink:href="#DejaVuSans-20" transform="translate(254.003906 0.78125)"/>
     <use xlink:href="#DejaVuSans-Oblique-50" transform="translate(285.791016 0.78125)"/>
     <use xlink:href="#DejaVuSans-Oblique-69" transform="translate(346.09375 -15.625) scale(0.7)"/>
     <use xlink:href="#DejaVuSans-Oblique-6a" transform="translate(365.541992 -15.625) scale(0.7)"/>
     <use xlink:href="#DejaVuSans-3d" transform="translate(407.207031 0.78125)"/>
     <use xlink:href="#DejaVuSans-30" transform="translate(510.478516 0.78125)"/>
     <use xlink:href="#DejaVuSans-2e" transform="translate(574.101562 0.78125)"/>
     <use xlink:href="#DejaVuSans-30" transform="translate(605.888672 0.78125)"/>
     <use xlink:href="#DejaVuSans-37" transform="translate(669.511719 0.78125)"/>
     <use xlink:href="#DejaVuSans-34" transform="translate(733.134766 0.78125)"/>
     <use xlink:href="#DejaVuSans-34" transform="translate(796.757812 0.78125)"/>
     <use xlink:href="#DejaVuSans-34" transform="translate(860.380859 0.78125)"/>
     <use xlink:href="#DejaVuSans-39" transform="translate(924.003906 0.78125)"/>
    </g>
   </g>
  </g>
  <g id="text_23">
   <!-- PDF$,\mu=$50$ ,\sigma=$150$ ,\overline{b}_{ij}=$27$, y_0=$-150$, \Delta{y}=$650 -->
   <g transform="translate(142.44 19.7664) scale(0.12 -0.12)">
    <defs>
     <path id="DejaVuSans-44" d="M 1259 4147 
L 1259 519 
L 2022 519 
Q 2988 519 3436 956 
Q 3884 1394 3884 2338 
Q 3884 3275 3436 3711 
Q 2988 4147 2022 4147 
L 1259 4147 
z
M 628 4666 
L 1925 4666 
Q 3281 4666 3915 4102 
Q 4550 3538 4550 2338 
Q 4550 1131 3912 565 
Q 3275 0 1925 0 
L 628 0 
L 628 4666 
z
" transform="scale(0.015625)"/>
     <path id="DejaVuSans-46" d="M 628 4666 
L 3309 4666 
L 3309 4134 
L 1259 4134 
L 1259 2759 
L 3109 2759 
L 3109 2228 
L 1259 2228 
L 1259 0 
L 628 0 
L 628 4666 
z
" transform="scale(0.015625)"/>
     <path id="DejaVuSans-Oblique-3bc" d="M -84 -1331 
L 856 3500 
L 1434 3500 
L 1009 1322 
Q 997 1256 987 1175 
Q 978 1094 978 1013 
Q 978 722 1161 565 
Q 1344 409 1684 409 
Q 2147 409 2431 671 
Q 2716 934 2816 1459 
L 3213 3500 
L 3788 3500 
L 3266 809 
Q 3253 750 3248 706 
Q 3244 663 3244 628 
Q 3244 531 3283 486 
Q 3322 441 3406 441 
Q 3438 441 3492 456 
Q 3547 472 3647 513 
L 3559 50 
Q 3422 -19 3297 -55 
Q 3172 -91 3053 -91 
Q 2847 -91 2730 40 
Q 2613 172 2613 403 
Q 2438 153 2195 31 
Q 1953 -91 1625 -91 
Q 1334 -91 1117 43 
Q 900 178 831 397 
L 494 -1331 
L -84 -1331 
z
" transform="scale(0.015625)"/>
     <path id="DejaVuSans-Oblique-3c3" d="M 2219 3044 
Q 1744 3044 1422 2700 
Q 1081 2341 969 1747 
Q 844 1119 1044 756 
Q 1241 397 1706 397 
Q 2166 397 2503 759 
Q 2844 1122 2966 1747 
Q 3075 2319 2881 2700 
Q 2700 3044 2219 3044 
z
M 2309 3503 
L 4219 3500 
L 4106 2925 
L 3463 2925 
Q 3706 2438 3575 1747 
Q 3406 888 2884 400 
Q 2359 -91 1609 -91 
Q 856 -91 525 400 
Q 194 888 363 1747 
Q 528 2609 1050 3097 
Q 1484 3503 2309 3503 
z
" transform="scale(0.015625)"/>
     <path id="DejaVuSans-Oblique-62" d="M 3169 2138 
Q 3169 2591 2961 2847 
Q 2753 3103 2388 3103 
Q 2122 3103 1889 2973 
Q 1656 2844 1484 2597 
Q 1303 2338 1198 1995 
Q 1094 1653 1094 1313 
Q 1094 881 1298 636 
Q 1503 391 1863 391 
Q 2134 391 2365 517 
Q 2597 644 2772 891 
Q 2950 1147 3059 1487 
Q 3169 1828 3169 2138 
z
M 1381 2969 
Q 1594 3256 1914 3420 
Q 2234 3584 2584 3584 
Q 3122 3584 3439 3221 
Q 3756 2859 3756 2241 
Q 3756 1734 3570 1259 
Q 3384 784 3041 416 
Q 2816 172 2522 40 
Q 2228 -91 1906 -91 
Q 1566 -91 1316 65 
Q 1066 222 909 531 
L 806 0 
L 231 0 
L 1178 4863 
L 1753 4863 
L 1381 2969 
z
" transform="scale(0.015625)"/>
     <path id="DejaVuSans-Oblique-79" d="M 1588 -325 
Q 1188 -997 936 -1164 
Q 684 -1331 294 -1331 
L -159 -1331 
L -63 -850 
L 269 -850 
Q 509 -850 678 -719 
Q 847 -588 1056 -206 
L 1234 128 
L 459 3500 
L 1069 3500 
L 1650 819 
L 3256 3500 
L 3859 3500 
L 1588 -325 
z
" transform="scale(0.015625)"/>
     <path id="DejaVuSans-394" d="M 2188 4044 
L 906 525 
L 3472 525 
L 2188 4044 
z
M 50 0 
L 1831 4666 
L 2547 4666 
L 4325 0 
L 50 0 
z
" transform="scale(0.015625)"/>
     <path id="DejaVuSans-36" d="M 2113 2584 
Q 1688 2584 1439 2293 
Q 1191 2003 1191 1497 
Q 1191 994 1439 701 
Q 1688 409 2113 409 
Q 2538 409 2786 701 
Q 3034 994 3034 1497 
Q 3034 2003 2786 2293 
Q 2538 2584 2113 2584 
z
M 3366 4563 
L 3366 3988 
Q 3128 4100 2886 4159 
Q 2644 4219 2406 4219 
Q 1781 4219 1451 3797 
Q 1122 3375 1075 2522 
Q 1259 2794 1537 2939 
Q 1816 3084 2150 3084 
Q 2853 3084 3261 2657 
Q 3669 2231 3669 1497 
Q 3669 778 3244 343 
Q 2819 -91 2113 -91 
Q 1303 -91 875 529 
Q 447 1150 447 2328 
Q 447 3434 972 4092 
Q 1497 4750 2381 4750 
Q 2619 4750 2861 4703 
Q 3103 4656 3366 4563 
z
" transform="scale(0.015625)"/>
    </defs>
    <use xlink:href="#DejaVuSans-50" transform="translate(0 0.265625)"/>
    <use xlink:href="#DejaVuSans-44" transform="translate(60.302734 0.265625)"/>
    <use xlink:href="#DejaVuSans-46" transform="translate(137.304688 0.265625)"/>
    <use xlink:href="#DejaVuSans-2c" transform="translate(194.824219 0.265625)"/>
    <use xlink:href="#DejaVuSans-Oblique-3bc" transform="translate(246.09375 0.265625)"/>
    <use xlink:href="#DejaVuSans-3d" transform="translate(329.199219 0.265625)"/>
    <use xlink:href="#DejaVuSans-35" transform="translate(432.470703 0.265625)"/>
    <use xlink:href="#DejaVuSans-30" transform="translate(496.09375 0.265625)"/>
    <use xlink:href="#DejaVuSans-2c" transform="translate(559.716797 0.265625)"/>
    <use xlink:href="#DejaVuSans-Oblique-3c3" transform="translate(610.986328 0.265625)"/>
    <use xlink:href="#DejaVuSans-3d" transform="translate(693.847656 0.265625)"/>
    <use xlink:href="#DejaVuSans-31" transform="translate(797.119141 0.265625)"/>
    <use xlink:href="#DejaVuSans-35" transform="translate(860.742188 0.265625)"/>
    <use xlink:href="#DejaVuSans-30" transform="translate(924.365234 0.265625)"/>
    <use xlink:href="#DejaVuSans-2c" transform="translate(987.988281 0.265625)"/>
    <use xlink:href="#DejaVuSans-Oblique-62" transform="translate(1039.257812 0.765625)"/>
    <use xlink:href="#DejaVuSans-Oblique-69" transform="translate(1103.691406 -16.140625) scale(0.7)"/>
    <use xlink:href="#DejaVuSans-Oblique-6a" transform="translate(1123.139648 -16.140625) scale(0.7)"/>
    <use xlink:href="#DejaVuSans-3d" transform="translate(1164.804688 0.265625)"/>
    <use xlink:href="#DejaVuSans-32" transform="translate(1268.076172 0.265625)"/>
    <use xlink:href="#DejaVuSans-37" transform="translate(1331.699219 0.265625)"/>
    <use xlink:href="#DejaVuSans-2c" transform="translate(1395.322266 0.265625)"/>
    <use xlink:href="#DejaVuSans-Oblique-79" transform="translate(1446.591797 0.265625)"/>
    <use xlink:href="#DejaVuSans-30" transform="translate(1505.771484 -16.140625) scale(0.7)"/>
    <use xlink:href="#DejaVuSans-3d" transform="translate(1572.524414 0.265625)"/>
    <use xlink:href="#DejaVuSans-2d" transform="translate(1675.795898 0.265625)"/>
    <use xlink:href="#DejaVuSans-31" transform="translate(1711.879883 0.265625)"/>
    <use xlink:href="#DejaVuSans-35" transform="translate(1775.50293 0.265625)"/>
    <use xlink:href="#DejaVuSans-30" transform="translate(1839.125977 0.265625)"/>
    <use xlink:href="#DejaVuSans-2c" transform="translate(1902.749023 0.265625)"/>
    <use xlink:href="#DejaVuSans-394" transform="translate(1954.018555 0.265625)"/>
    <use xlink:href="#DejaVuSans-Oblique-79" transform="translate(2022.426758 0.265625)"/>
    <use xlink:href="#DejaVuSans-3d" transform="translate(2101.088867 0.265625)"/>
    <use xlink:href="#DejaVuSans-36" transform="translate(2204.360352 0.265625)"/>
    <use xlink:href="#DejaVuSans-35" transform="translate(2267.983398 0.265625)"/>
    <use xlink:href="#DejaVuSans-30" transform="translate(2331.606445 0.265625)"/>
    <path d="M 1039.257812 88.5 
L 1039.257812 94.75 
L 1102.734375 94.75 
L 1102.734375 88.5 
L 1039.257812 88.5 
z
"/>
   </g>
  </g>
 </g>
 <defs>
  <clipPath id="paa6f9d5062">
   <rect x="71.55" y="45.8784" width="201.640909" height="294.3864"/>
  </clipPath>
  <clipPath id="pff39d97a01">
   <rect x="313.519091" y="45.8784" width="201.640909" height="294.3864"/>
  </clipPath>
 </defs>
</svg>
