<?xml version="1.0" encoding="utf-8" standalone="no"?>
<!DOCTYPE svg PUBLIC "-//W3C//DTD SVG 1.1//EN"
  "http://www.w3.org/Graphics/SVG/1.1/DTD/svg11.dtd">
<svg xmlns:xlink="http://www.w3.org/1999/xlink" width="1382.4pt" height="789.84pt" viewBox="0 0 1382.4 789.84" xmlns="http://www.w3.org/2000/svg" version="1.1">
 <metadata>
  <rdf:RDF xmlns:dc="http://purl.org/dc/elements/1.1/" xmlns:cc="http://creativecommons.org/ns#" xmlns:rdf="http://www.w3.org/1999/02/22-rdf-syntax-ns#">
   <cc:Work>
    <dc:type rdf:resource="http://purl.org/dc/dcmitype/StillImage"/>
    <dc:date>2025-04-16T13:01:18.044256</dc:date>
    <dc:format>image/svg+xml</dc:format>
    <dc:creator>
     <cc:Agent>
      <dc:title>Matplotlib v3.10.0, https://matplotlib.org/</dc:title>
     </cc:Agent>
    </dc:creator>
   </cc:Work>
  </rdf:RDF>
 </metadata>
 <defs>
  <style type="text/css">*{stroke-linejoin: round; stroke-linecap: butt}</style>
 </defs>
 <g id="figure_1">
  <g id="patch_1">
   <path d="M 0 789.84 
L 1382.4 789.84 
L 1382.4 0 
L 0 0 
z
" style="fill: #ffffff"/>
  </g>
  <g id="axes_1">
   <g id="patch_2">
    <path d="M 172.8 702.9576 
L 1244.16 702.9576 
L 1244.16 94.7808 
L 172.8 94.7808 
z
" style="fill: #ffffff"/>
   </g>
   <g id="patch_3">
    <path d="M 803.508343 244.955526 
L 800.935073 244.236227 
L 798.327978 243.651276 
L 795.694067 243.202247 
L 793.040422 242.890347 
L 790.374177 242.716415 
L 787.702501 242.680917 
L 785.032577 242.783951 
L 782.371582 243.025238 
L 779.726671 243.404129 
L 777.104955 243.919607 
L 774.513482 244.570286 
L 771.95922 245.354415 
L 769.449036 246.269887 
L 766.989679 247.314241 
L 764.58776 248.484668 
L 762.249738 249.778022 
L 759.981898 251.190826 
L 757.790338 252.719282 
L 755.680949 254.359279 
L 753.659403 256.106409 
L 751.731134 257.955975 
L 749.901328 259.903004 
L 748.174903 261.942261 
L 746.556501 264.068264 
L 745.050473 266.275297 
L 743.660869 268.557426 
L 742.391424 270.908515 
L 741.24555 273.322244 
L 740.22633 275.792124 
L 739.336503 278.311512 
L 738.578461 280.873638 
L 647.961459 619.154897 
L 647.512502 621.013731 
L 647.156041 622.892497 
L 646.892948 624.786596 
L 646.723869 626.691389 
L 646.649216 628.602215 
L 646.669172 630.514394 
L 646.78369 632.423245 
L 646.992487 634.324095 
L 647.295054 636.21229 
L 647.690649 638.083207 
L 648.178304 639.932266 
L 648.756825 641.75494 
L 649.424795 643.546766 
L 650.18058 645.303359 
L 651.022329 647.020416 
L 651.94798 648.693735 
L 652.955269 650.319219 
L 654.041728 651.892887 
L 655.204698 653.410888 
L 656.441332 654.869505 
L 657.748602 656.265167 
L 659.123307 657.594457 
L 660.562083 658.854121 
L 662.061405 660.041074 
L 663.617605 661.152411 
L 665.226871 662.185411 
L 666.885265 663.137544 
L 668.588725 664.006481 
L 670.333081 664.790093 
L 672.114063 665.486461 
L 673.927311 666.093882 
L 675.768385 666.610868 
L 677.632777 667.036153 
L 679.515924 667.368696 
L 681.413215 667.607683 
L 683.320004 667.752529 
L 685.231625 667.802879 
L 687.143395 667.758609 
L 689.050636 667.61983 
L 690.948677 667.386879 
L 692.832872 667.060327 
L 694.698608 666.640975 
L 696.541317 666.129848 
L 698.356487 665.528198 
L 700.139676 664.837498 
L 701.886516 664.059438 
L 703.592731 663.195925 
L 705.254145 662.249071 
L 706.866689 661.221195 
L 708.426416 660.114814 
L 709.929506 658.932636 
L 711.372281 657.677555 
L 712.751208 656.352645 
L 714.06291 654.961148 
L 715.304178 653.506472 
L 716.47197 651.992178 
L 717.56343 650.421973 
L 718.575884 648.799701 
L 719.506853 647.129335 
L 720.354059 645.414964 
L 721.115427 643.660785 
L 721.789094 641.871092 
L 837.015308 311.161898 
L 837.828717 308.616809 
L 838.509111 306.032979 
L 839.054661 303.417355 
L 839.4639 300.77697 
L 839.735728 298.118921 
L 839.869414 295.450356 
L 839.864598 292.778448 
L 839.721294 290.110382 
L 839.439888 287.45333 
L 839.021134 284.814437 
L 838.46616 282.200796 
L 837.776457 279.619436 
L 836.95388 277.077295 
L 836.00064 274.581209 
L 834.9193 272.137888 
L 833.712768 269.753901 
L 832.384286 267.435658 
L 830.937427 265.189392 
L 829.376081 263.021141 
L 827.704445 260.936736 
L 825.927014 258.941779 
L 824.048566 257.041636 
L 822.074152 255.241413 
L 820.009079 253.545952 
L 817.858901 251.95981 
L 815.629398 250.487252 
L 813.326563 249.132237 
L 810.956589 247.898407 
L 808.525846 246.789082 
L 806.040871 245.807241 
z
" clip-path="url(#p742deef90d)" style="fill: #0000ff; opacity: 0.2; stroke: #000000; stroke-width: 2; stroke-linejoin: miter"/>
   </g>
   <g id="patch_4">
    <path d="M 509.438596 375.924625 
L 505.659135 378.712083 
L 502.044511 381.710207 
L 498.606451 384.909268 
L 495.35611 388.298889 
L 492.304032 391.868073 
L 489.46012 395.60524 
L 486.833601 399.498265 
L 484.432994 403.534518 
L 482.26609 407.700905 
L 480.339918 411.983907 
L 478.660726 416.36963 
L 477.233964 420.843845 
L 476.06426 425.392036 
L 475.155408 429.999447 
L 474.510358 434.651131 
L 474.131201 439.331995 
L 474.019169 444.026854 
L 474.174625 448.720476 
L 474.597064 453.397632 
L 475.285116 458.04315 
L 476.236549 462.641957 
L 477.448275 467.179133 
L 478.916364 471.639959 
L 480.636052 476.009962 
L 482.601761 480.274963 
L 484.807113 484.421127 
L 487.244953 488.435001 
L 489.907372 492.303564 
L 492.785732 496.014264 
L 495.870694 499.555062 
L 499.152251 502.914472 
L 658.426806 656.937422 
L 659.68569 658.101873 
L 660.99499 659.209333 
L 662.352128 660.257621 
L 663.754433 661.244675 
L 665.199144 662.16855 
L 666.683416 663.027428 
L 668.204326 663.819617 
L 669.758882 664.543558 
L 671.344022 665.197825 
L 672.956625 665.781131 
L 674.593516 666.292328 
L 676.251472 666.730407 
L 677.92723 667.094508 
L 679.61749 667.383913 
L 681.318924 667.598052 
L 683.028183 667.736504 
L 684.7419 667.798997 
L 686.456703 667.785406 
L 688.169215 667.69576 
L 689.876065 667.530234 
L 691.573891 667.289155 
L 693.259352 666.972996 
L 694.929128 666.582381 
L 696.579933 666.118078 
L 698.208516 665.581002 
L 699.811672 664.97221 
L 701.386242 664.292901 
L 702.929128 663.544412 
L 704.437292 662.728216 
L 705.907765 661.845921 
L 707.337651 660.899264 
L 708.724135 659.890109 
L 710.064488 658.820441 
L 711.356071 657.692369 
L 712.59634 656.508111 
L 713.782854 655.27 
L 714.913277 653.980474 
L 715.985383 652.642071 
L 716.997062 651.257427 
L 717.946321 649.829267 
L 718.831292 648.360404 
L 719.650233 646.853728 
L 720.40153 645.312208 
L 721.083706 643.738877 
L 721.695416 642.136833 
L 722.235457 640.509231 
L 722.702765 638.859274 
L 723.09642 637.190211 
L 723.415647 635.505329 
L 723.659818 633.807945 
L 723.828452 632.1014 
L 723.921217 630.389054 
L 723.93793 628.674278 
L 723.878558 626.96045 
L 723.743218 625.250942 
L 723.532178 623.549121 
L 723.245851 621.858336 
L 722.884803 620.181918 
L 722.449743 618.523167 
L 721.941528 616.885347 
L 721.36116 615.271685 
L 720.70978 613.685357 
L 632.022595 410.6434 
L 630.021026 406.39511 
L 627.780825 402.267671 
L 625.309258 398.274476 
L 622.614344 394.42848 
L 619.704826 390.742159 
L 616.590145 387.227475 
L 613.280404 383.895829 
L 609.786341 380.75803 
L 606.119294 377.824259 
L 602.291158 375.104034 
L 598.314353 372.60618 
L 594.201782 370.338801 
L 589.966787 368.309252 
L 585.623108 366.524119 
L 581.184836 364.989193 
L 576.666372 363.709454 
L 572.082375 362.689054 
L 567.447716 361.931302 
L 562.777432 361.438659 
L 558.086675 361.212721 
L 553.390663 361.254223 
L 548.704632 361.563028 
L 544.043784 362.138136 
L 539.423241 362.977681 
L 534.857994 364.078939 
L 530.362854 365.438336 
L 525.952403 367.051463 
L 521.640952 368.913087 
L 517.442489 371.017166 
L 513.370633 373.356876 
z
" clip-path="url(#p742deef90d)" style="fill: #0000ff; opacity: 0.2; stroke: #000000; stroke-width: 2; stroke-linejoin: miter"/>
   </g>
   <g id="patch_5">
    <path d="M 831.668965 266.293131 
L 830.244814 264.198183 
L 828.71943 262.175755 
L 827.096498 260.230735 
L 825.37994 258.367822 
L 823.573906 256.591519 
L 821.682759 254.906118 
L 819.71107 253.315693 
L 817.663603 251.824086 
L 815.545306 250.434902 
L 813.361299 249.151498 
L 811.116858 247.976977 
L 808.817409 246.914175 
L 806.468508 245.965662 
L 804.075832 245.13373 
L 801.645162 244.420389 
L 799.182372 243.827363 
L 796.693415 243.356085 
L 794.184304 243.007694 
L 791.661104 242.783032 
L 789.129911 242.682642 
L 786.596844 242.706766 
L 784.068023 242.855346 
L 781.549559 243.128024 
L 779.047539 243.52414 
L 776.568008 244.042736 
L 774.11696 244.682561 
L 771.700317 245.442066 
L 769.323919 246.319418 
L 766.99351 247.312496 
L 764.71472 248.418899 
L 762.493056 249.635955 
L 524.140849 387.931409 
L 521.279123 389.693175 
L 518.513175 391.601794 
L 515.850533 393.652072 
L 513.298446 395.838426 
L 510.86386 398.154907 
L 508.553401 400.595209 
L 506.373358 403.15269 
L 504.329665 405.820388 
L 502.427885 408.591043 
L 500.673194 411.457113 
L 499.070369 414.410796 
L 497.623772 417.444054 
L 496.337341 420.548629 
L 495.214577 423.716072 
L 494.258536 426.937761 
L 493.47182 430.204927 
L 492.856571 433.508677 
L 492.414464 436.840019 
L 492.146702 440.189884 
L 492.054014 443.549155 
L 492.136651 446.908689 
L 492.39439 450.259341 
L 492.826528 453.59199 
L 493.431889 456.897566 
L 494.208826 460.167071 
L 495.155224 463.391606 
L 496.268506 466.562394 
L 497.545643 469.670805 
L 498.983159 472.708377 
L 500.57714 475.666843 
L 502.323247 478.538149 
L 504.216729 481.314482 
L 506.252431 483.988283 
L 508.424813 486.552274 
L 510.72796 488.999478 
L 513.155605 491.323233 
L 515.70114 493.517213 
L 518.357635 495.575447 
L 521.11786 497.492333 
L 523.974302 499.262653 
L 526.919186 500.881589 
L 529.944497 502.344733 
L 533.041999 503.648104 
L 536.203262 504.788153 
L 539.419681 505.761778 
L 542.682501 506.566328 
L 545.982841 507.199614 
L 549.311717 507.659911 
L 552.66007 507.945968 
L 556.018785 508.057005 
L 559.37872 507.99272 
L 562.730729 507.753287 
L 566.065689 507.33936 
L 569.374523 506.752064 
L 572.648223 505.992998 
L 575.87788 505.064228 
L 579.054702 503.968282 
L 582.170042 502.708144 
L 585.215421 501.287242 
L 588.18255 499.709445 
L 591.063351 497.979048 
L 593.849985 496.100759 
L 818.260366 336.171435 
L 820.286522 334.651007 
L 822.235511 333.032842 
L 824.102621 331.320851 
L 825.883341 329.519172 
L 827.573367 327.632157 
L 829.168616 325.664368 
L 830.665231 323.620559 
L 832.059598 321.50567 
L 833.348345 319.324812 
L 834.528359 317.083254 
L 835.596787 314.786415 
L 836.551049 312.439843 
L 837.388837 310.049211 
L 838.108128 307.620295 
L 838.707182 305.158964 
L 839.184553 302.671168 
L 839.539086 300.162918 
L 839.769926 297.640275 
L 839.876513 295.109336 
L 839.858591 292.576218 
L 839.716203 290.04704 
L 839.449693 287.527916 
L 839.059705 285.024934 
L 838.547181 282.544141 
L 837.91336 280.091534 
L 837.159774 277.673038 
L 836.288243 275.294499 
L 835.300874 272.961665 
L 834.200054 270.680173 
L 832.988442 268.455536 
z
" clip-path="url(#p742deef90d)" style="fill: #0000ff; opacity: 0.2; stroke: #000000; stroke-width: 2; stroke-linejoin: miter"/>
   </g>
   <g id="patch_6">
    <path d="M 222.123708 495.316749 
L 222.551627 497.7101 
L 223.091962 500.080603 
L 223.743509 502.422981 
L 224.504818 504.732018 
L 225.374194 507.002576 
L 226.349701 509.229599 
L 227.429169 511.408129 
L 228.610194 513.533317 
L 229.890147 515.600433 
L 231.266179 517.604873 
L 232.735226 519.542177 
L 234.294018 521.408032 
L 235.939085 523.198283 
L 237.666765 524.908945 
L 239.473212 526.536211 
L 241.354405 528.076458 
L 243.306155 529.526257 
L 245.324118 530.88238 
L 247.403802 532.141809 
L 249.540576 533.301741 
L 251.729685 534.359591 
L 253.966255 535.313007 
L 256.245307 536.159866 
L 258.561767 536.898281 
L 260.910479 537.52661 
L 263.286214 538.043454 
L 265.683684 538.447662 
L 268.097551 538.738334 
L 270.522442 538.914824 
L 272.952959 538.976737 
L 275.383691 538.923938 
L 560.201581 526.009594 
L 564.654386 525.686695 
L 569.083184 525.123244 
L 573.47499 524.320893 
L 577.816928 523.281994 
L 582.096265 522.009595 
L 586.300455 520.507424 
L 590.417171 518.779888 
L 594.434341 516.83205 
L 598.340188 514.669624 
L 602.123259 512.298948 
L 605.772462 509.726974 
L 609.277097 506.961243 
L 612.626887 504.009865 
L 615.812012 500.881493 
L 618.823132 497.5853 
L 621.651418 494.130951 
L 624.288577 490.528574 
L 626.726877 486.788731 
L 628.959169 482.922389 
L 630.978908 478.940883 
L 632.78017 474.855889 
L 634.357676 470.679382 
L 635.706799 466.42361 
L 636.823584 462.10105 
L 637.704756 457.724377 
L 638.347731 453.306424 
L 638.750625 448.860144 
L 638.912256 444.398574 
L 638.83215 439.934796 
L 638.510541 435.481898 
L 637.948374 431.052937 
L 637.147296 426.660898 
L 636.109656 422.31866 
L 634.838496 418.038954 
L 633.337544 413.834329 
L 631.611201 409.717113 
L 629.664528 405.699378 
L 627.503234 401.792904 
L 625.133654 398.009146 
L 622.562738 394.359198 
L 619.798023 390.853762 
L 616.847616 387.503116 
L 613.720168 384.317085 
L 610.424848 381.30501 
L 606.971318 378.475723 
L 603.369705 375.83752 
L 599.63057 373.398136 
L 595.764875 371.164723 
L 591.783955 369.143831 
L 587.699482 367.341384 
L 583.523433 365.762668 
L 579.268052 364.412312 
L 574.945816 363.294274 
L 570.569399 362.411834 
L 566.151632 361.767578 
L 561.705469 361.363395 
L 557.243946 361.200472 
L 552.780145 361.279284 
L 548.327154 361.599602 
L 543.89803 362.160485 
L 539.50576 362.96029 
L 535.163221 363.996672 
L 259.734716 437.665862 
L 257.401449 438.349316 
L 255.103016 439.142068 
L 252.844536 440.042351 
L 250.631034 441.048162 
L 248.467439 442.157262 
L 246.358567 443.367181 
L 244.309113 444.675227 
L 242.323639 446.078487 
L 240.406565 447.573838 
L 238.562159 449.15795 
L 236.794526 450.827297 
L 235.107602 452.578163 
L 233.505142 454.406651 
L 231.990713 456.308689 
L 230.567687 458.280045 
L 229.23923 460.316328 
L 228.008302 462.413007 
L 226.877642 464.565413 
L 225.849766 466.768755 
L 224.926964 469.018129 
L 224.111289 471.308526 
L 223.404557 473.634848 
L 222.808341 475.991917 
L 222.323969 478.374485 
L 221.95252 480.777248 
L 221.694819 483.194857 
L 221.551441 485.621931 
L 221.522704 488.053067 
L 221.608673 490.482852 
L 221.809157 492.905877 
z
" clip-path="url(#p742deef90d)" style="fill: #0000ff; opacity: 0.2; stroke: #000000; stroke-width: 2; stroke-linejoin: miter"/>
   </g>
   <g id="patch_7">
    <path d="M 741.264859 273.278745 
L 740.235015 275.769442 
L 739.336806 278.310579 
L 738.57269 280.895202 
L 737.944757 283.516243 
L 737.454725 286.16653 
L 737.103934 288.838813 
L 736.893344 291.525783 
L 736.823532 294.220088 
L 736.894688 296.914357 
L 737.106617 299.601221 
L 737.458741 302.27333 
L 737.950094 304.923372 
L 738.579334 307.544099 
L 739.344739 310.128341 
L 740.244215 312.669029 
L 741.275302 315.159212 
L 742.435178 317.592079 
L 743.720671 319.960973 
L 745.128264 322.259415 
L 746.654107 324.481116 
L 748.294025 326.619999 
L 750.043533 328.670213 
L 751.897843 330.626149 
L 753.851884 332.482456 
L 755.90031 334.234057 
L 758.037517 335.876159 
L 760.257659 337.40427 
L 762.554661 338.81421 
L 764.922242 340.102122 
L 767.353922 341.264483 
L 769.843051 342.298112 
L 1006.35776 433.336274 
L 1008.142248 433.97338 
L 1009.955819 434.522257 
L 1011.794111 434.981587 
L 1013.652707 435.350264 
L 1015.52714 435.627404 
L 1017.412903 435.812339 
L 1019.305463 435.904625 
L 1021.200273 435.90404 
L 1023.092776 435.810586 
L 1024.978425 435.624488 
L 1026.852686 435.346192 
L 1028.711054 434.976368 
L 1030.549063 434.515904 
L 1032.362294 433.965908 
L 1034.146389 433.327701 
L 1035.89706 432.602818 
L 1037.610097 431.793 
L 1039.281385 430.900195 
L 1040.906905 429.926548 
L 1042.48275 428.8744 
L 1044.005133 427.74628 
L 1045.470393 426.5449 
L 1046.875009 425.273147 
L 1048.215605 423.934078 
L 1049.488958 422.530912 
L 1050.692008 421.067022 
L 1051.821862 419.545926 
L 1052.875805 417.971281 
L 1053.851304 416.346872 
L 1054.746013 414.676603 
L 1055.557783 412.964489 
L 1056.284661 411.214646 
L 1056.924901 409.431279 
L 1057.476963 407.618676 
L 1057.939521 405.781193 
L 1058.311463 403.923248 
L 1058.591895 402.049305 
L 1058.780142 400.16387 
L 1058.875753 398.271474 
L 1058.878497 396.376666 
L 1058.788368 394.484002 
L 1058.605582 392.598029 
L 1058.330579 390.723282 
L 1057.96402 388.864267 
L 1057.506785 387.025452 
L 1056.959975 385.211258 
L 1056.324903 383.426044 
L 1055.603096 381.674103 
L 1054.796289 379.959645 
L 1053.906421 378.286792 
L 1052.935632 376.659564 
L 1051.886254 375.081873 
L 1050.76081 373.557512 
L 1049.562005 372.090143 
L 1048.292721 370.683295 
L 1046.956009 369.340349 
L 1045.555082 368.064533 
L 1044.093308 366.858913 
L 1042.574199 365.726389 
L 1041.001408 364.669681 
L 1039.378715 363.691331 
L 1037.71002 362.793689 
L 811.646064 248.241332 
L 809.210861 247.08637 
L 806.718602 246.060312 
L 804.176103 245.165967 
L 801.590321 244.405781 
L 798.968329 243.781832 
L 796.3173 243.29583 
L 793.644486 242.949101 
L 790.9572 242.742597 
L 788.262792 242.67688 
L 785.568634 242.752131 
L 782.882095 242.968144 
L 780.210525 243.324329 
L 777.561233 243.81971 
L 774.941465 244.452933 
L 772.358389 245.222266 
L 769.819071 246.125603 
L 767.330458 247.160473 
L 764.899358 248.324046 
L 762.53242 249.613139 
L 760.236121 251.024224 
L 758.016741 252.553442 
L 755.880354 254.19661 
L 753.832801 255.949232 
L 751.879686 257.806513 
L 750.026352 259.763374 
L 748.277867 261.81446 
L 746.639016 263.95416 
L 745.114281 266.176622 
L 743.707834 268.475765 
L 742.423522 270.845301 
z
" clip-path="url(#p742deef90d)" style="fill: #0000ff; opacity: 0.2; stroke: #000000; stroke-width: 2; stroke-linejoin: miter"/>
   </g>
   <g id="patch_8">
    <path d="M 1184.275748 266.04028 
L 1182.766213 264.250663 
L 1181.165818 262.541815 
L 1179.478879 260.918342 
L 1177.709945 259.384623 
L 1175.863784 257.944792 
L 1173.945374 256.602731 
L 1171.959887 255.362058 
L 1169.912677 254.22612 
L 1167.809263 253.197978 
L 1165.655317 252.280405 
L 1163.456646 251.475874 
L 1161.219178 250.786554 
L 1158.948945 250.214305 
L 1156.652069 249.760669 
L 1154.334743 249.42687 
L 1152.003213 249.213806 
L 1149.663767 249.122053 
L 1147.322713 249.151858 
L 1144.986361 249.30314 
L 1142.661012 249.575493 
L 1140.352935 249.96818 
L 1138.068352 250.480145 
L 1135.813424 251.110006 
L 1133.59423 251.856065 
L 1131.416754 252.71631 
L 1129.286866 253.688423 
L 1127.21031 254.769782 
L 1125.192683 255.957471 
L 1123.239426 257.248289 
L 1121.355804 258.638756 
L 1119.546898 260.125121 
L 994.937963 368.054875 
L 993.525974 369.340268 
L 992.179196 370.693831 
L 990.900915 372.112261 
L 989.694252 373.592096 
L 988.562152 375.129723 
L 987.507379 376.721388 
L 986.532507 378.363208 
L 985.639916 380.051173 
L 984.831784 381.781164 
L 984.110085 383.548958 
L 983.476579 385.35024 
L 982.932814 387.180614 
L 982.480116 389.03561 
L 982.119591 390.910701 
L 981.852118 392.801311 
L 981.678351 394.702824 
L 981.598713 396.610598 
L 981.6134 398.519978 
L 981.722374 400.426302 
L 981.925371 402.324917 
L 982.221895 404.211188 
L 982.611221 406.080512 
L 983.0924 407.928325 
L 983.664257 409.750117 
L 984.325395 411.541441 
L 985.074203 413.297924 
L 985.90885 415.01528 
L 986.827301 416.689315 
L 987.827314 418.315944 
L 988.906446 419.891196 
L 990.062065 421.411226 
L 991.291349 422.872324 
L 992.591297 424.270924 
L 993.958737 425.60361 
L 995.390331 426.867131 
L 996.882585 428.058402 
L 998.431855 429.174515 
L 1000.03436 430.212746 
L 1001.686188 431.170561 
L 1003.383308 432.045621 
L 1005.121577 432.835791 
L 1006.896751 433.539142 
L 1008.704498 434.153956 
L 1010.540405 434.678735 
L 1012.399991 435.112195 
L 1014.278715 435.45328 
L 1016.171994 435.701156 
L 1018.075205 435.855219 
L 1019.983702 435.915092 
L 1021.892827 435.88063 
L 1023.79792 435.751917 
L 1025.69433 435.529266 
L 1027.577429 435.213221 
L 1029.44262 434.804554 
L 1031.285351 434.304262 
L 1033.101122 433.713567 
L 1034.885502 433.03391 
L 1036.634135 432.26695 
L 1038.342754 431.41456 
L 1040.007186 430.478819 
L 1041.623371 429.462013 
L 1043.187361 428.366622 
L 1175.837862 330.488827 
L 1177.685052 329.050315 
L 1179.455082 327.51786 
L 1181.143181 325.895594 
L 1182.744796 324.18789 
L 1184.25561 322.399352 
L 1185.671549 320.534804 
L 1186.988795 318.599271 
L 1188.203798 316.597973 
L 1189.31328 314.536305 
L 1190.314252 312.419827 
L 1191.204013 310.254244 
L 1191.980165 308.045395 
L 1192.640615 305.799236 
L 1193.183583 303.521823 
L 1193.607605 301.219296 
L 1193.911537 298.897863 
L 1194.09456 296.563783 
L 1194.156181 294.22335 
L 1194.096233 291.882873 
L 1193.914878 289.548664 
L 1193.612605 287.227014 
L 1193.190229 284.924185 
L 1192.648888 282.646384 
L 1191.990043 280.399754 
L 1191.21547 278.190351 
L 1190.327256 276.024133 
L 1189.327798 273.906939 
L 1188.219789 271.844479 
L 1187.006217 269.842313 
L 1185.690354 267.90584 
z
" clip-path="url(#p742deef90d)" style="fill: #0000ff; opacity: 0.2; stroke: #000000; stroke-width: 2; stroke-linejoin: miter"/>
   </g>
   <g id="patch_9">
    <path d="M 492.571719 130.558678 
L 489.673597 131.223088 
L 486.810764 132.026041 
L 483.989837 132.965681 
L 481.21734 134.039835 
L 478.499681 135.246019 
L 475.843145 136.581445 
L 473.253872 138.043026 
L 470.737851 139.627382 
L 468.300897 141.33085 
L 465.948645 143.149492 
L 463.686533 145.079103 
L 461.519791 147.115222 
L 459.453429 149.253141 
L 457.492225 151.487917 
L 455.640712 153.814384 
L 453.903171 156.227163 
L 452.28362 158.720675 
L 450.785803 161.289156 
L 449.413183 163.926666 
L 448.168933 166.627109 
L 447.05593 169.38424 
L 446.076748 172.191686 
L 445.233649 175.042955 
L 444.528585 177.931455 
L 443.963183 180.850508 
L 443.538753 183.793365 
L 443.256275 186.753222 
L 443.116402 189.723236 
L 443.119458 192.696541 
L 443.265435 195.666261 
L 443.553996 198.625532 
L 474.623584 453.617744 
L 475.270416 457.960015 
L 476.147464 462.261699 
L 477.252242 466.510602 
L 478.581616 470.694675 
L 480.131818 474.802056 
L 481.898453 478.821099 
L 483.87651 482.740409 
L 486.060383 486.548874 
L 488.443879 490.235696 
L 491.020241 493.79042 
L 493.782163 497.202969 
L 496.721814 500.463668 
L 499.830861 503.56327 
L 503.100487 506.492988 
L 506.521423 509.244516 
L 510.083969 511.810051 
L 513.778025 514.182319 
L 517.593116 516.354596 
L 521.518426 518.320721 
L 525.542825 520.07512 
L 529.654903 521.612819 
L 533.843001 522.929459 
L 538.095245 524.021305 
L 542.399578 524.885262 
L 546.743796 525.518881 
L 551.115582 525.920366 
L 555.502541 526.088577 
L 559.892235 526.023038 
L 564.272217 525.723935 
L 568.630069 525.192116 
L 572.953435 524.429089 
L 577.230057 523.437017 
L 581.44781 522.218712 
L 585.594735 520.77763 
L 589.659075 519.117856 
L 593.629305 517.244096 
L 597.494169 515.161662 
L 601.242709 512.87646 
L 604.864298 510.394967 
L 608.348665 507.724221 
L 611.685933 504.871793 
L 614.86664 501.84577 
L 617.881766 498.654733 
L 620.722764 495.307729 
L 623.381578 491.814247 
L 625.850669 488.184193 
L 628.123038 484.427859 
L 630.192241 480.555896 
L 632.052412 476.57928 
L 633.698276 472.509288 
L 635.125167 468.357458 
L 636.329039 464.135563 
L 637.306479 459.855573 
L 638.054715 455.529623 
L 638.571627 451.169977 
L 638.855748 446.788998 
L 638.906273 442.399106 
L 638.723059 438.012748 
L 638.306625 433.64236 
L 637.658152 429.300335 
L 636.779478 424.998982 
L 635.673095 420.750497 
L 564.341129 173.975096 
L 563.447045 171.139402 
L 562.417683 168.349964 
L 561.255425 165.613232 
L 559.962958 162.935532 
L 558.543269 160.323056 
L 556.99964 157.781843 
L 555.335642 155.31777 
L 553.555121 152.936532 
L 551.662193 150.643636 
L 549.661235 148.444382 
L 547.556873 146.343856 
L 545.353973 144.346913 
L 543.057628 142.458171 
L 540.673147 140.681996 
L 538.206042 139.022496 
L 535.662018 137.483505 
L 533.046956 136.068584 
L 530.366903 134.781003 
L 527.628055 133.623739 
L 524.836744 132.599468 
L 521.999424 131.710557 
L 519.122654 130.959063 
L 516.213086 130.346722 
L 513.277446 129.87495 
L 510.322522 129.544838 
L 507.355146 129.357149 
L 504.382178 129.312317 
L 501.410492 129.410445 
L 498.446958 129.651308 
L 495.498428 130.034348 
z
" clip-path="url(#p742deef90d)" style="fill: #0000ff; opacity: 0.2; stroke: #000000; stroke-width: 2; stroke-linejoin: miter"/>
   </g>
   <g id="patch_10">
    <path d="M 788.35397 345.737679 
C 802.020003 345.737679 815.12815 340.308107 824.791494 330.644762 
C 834.454838 320.981418 839.88441 307.873271 839.88441 294.207239 
C 839.88441 280.541207 834.454838 267.43306 824.791494 257.769716 
C 815.12815 248.106371 802.020003 242.676799 788.35397 242.676799 
C 774.687938 242.676799 761.579791 248.106371 751.916447 257.769716 
C 742.253103 267.43306 736.823531 280.541207 736.823531 294.207239 
C 736.823531 307.873271 742.253103 320.981418 751.916447 330.644762 
C 761.579791 340.308107 774.687938 345.737679 788.35397 345.737679 
z
" clip-path="url(#p742deef90d)" style="fill: #008000; opacity: 0.2; stroke: #008000; stroke-linejoin: miter"/>
   </g>
   <g id="patch_11">
    <path d="M 556.466991 526.094218 
C 578.332643 526.094218 599.305678 517.406902 614.767029 501.945552 
C 630.228379 486.484201 638.915695 465.511166 638.915695 443.645514 
C 638.915695 421.779863 630.228379 400.806828 614.767029 385.345477 
C 599.305678 369.884126 578.332643 361.196811 556.466991 361.196811 
C 534.601339 361.196811 513.628304 369.884126 498.166954 385.345477 
C 482.705603 400.806828 474.018288 421.779863 474.018288 443.645514 
C 474.018288 465.511166 482.705603 486.484201 498.166954 501.945552 
C 513.628304 517.406902 534.601339 526.094218 556.466991 526.094218 
z
" clip-path="url(#p742deef90d)" style="fill: #008000; opacity: 0.2; stroke: #008000; stroke-linejoin: miter"/>
   </g>
   <g id="patch_12">
    <path d="M 685.293091 667.802927 
C 695.542615 667.802927 705.373725 663.730748 712.621233 656.48324 
C 719.868741 649.235732 723.940921 639.404622 723.940921 629.155098 
C 723.940921 618.905573 719.868741 609.074463 712.621233 601.826955 
C 705.373725 594.579447 695.542615 590.507268 685.293091 590.507268 
C 675.043566 590.507268 665.212456 594.579447 657.964948 601.826955 
C 650.71744 609.074463 646.645261 618.905573 646.645261 629.155098 
C 646.645261 639.404622 650.71744 649.235732 657.964948 656.48324 
C 665.212456 663.730748 675.043566 667.802927 685.293091 667.802927 
z
" clip-path="url(#p742deef90d)" style="fill: #008000; opacity: 0.2; stroke: #008000; stroke-linejoin: miter"/>
   </g>
   <g id="patch_13">
    <path d="M 273.049572 538.976828 
C 286.715605 538.976828 299.823752 533.547256 309.487096 523.883912 
C 319.15044 514.220567 324.580012 501.112421 324.580012 487.446388 
C 324.580012 473.780356 319.15044 460.672209 309.487096 451.008865 
C 299.823752 441.345521 286.715605 435.915948 273.049572 435.915948 
C 259.38354 435.915948 246.275393 441.345521 236.612049 451.008865 
C 226.948705 460.672209 221.519133 473.780356 221.519133 487.446388 
C 221.519133 501.112421 226.948705 514.220567 236.612049 523.883912 
C 246.275393 533.547256 259.38354 538.976828 273.049572 538.976828 
z
" clip-path="url(#p742deef90d)" style="fill: #008000; opacity: 0.2; stroke: #008000; stroke-linejoin: miter"/>
   </g>
   <g id="patch_14">
    <path d="M 1020.240949 435.915948 
C 1030.490474 435.915948 1040.321584 431.843769 1047.569092 424.596261 
C 1054.8166 417.348753 1058.888779 407.517643 1058.888779 397.268119 
C 1058.888779 387.018594 1054.8166 377.187484 1047.569092 369.939976 
C 1040.321584 362.692468 1030.490474 358.620289 1020.240949 358.620289 
C 1009.991425 358.620289 1000.160315 362.692468 992.912807 369.939976 
C 985.665299 377.187484 981.59312 387.018594 981.59312 397.268119 
C 981.59312 407.517643 985.665299 417.348753 992.912807 424.596261 
C 1000.160315 431.843769 1009.991425 435.915948 1020.240949 435.915948 
z
" clip-path="url(#p742deef90d)" style="fill: #008000; opacity: 0.2; stroke: #008000; stroke-linejoin: miter"/>
   </g>
   <g id="patch_15">
    <path d="M 1149.067049 339.296374 
C 1161.024827 339.296374 1172.494456 334.545498 1180.949882 326.090072 
C 1189.405308 317.634646 1194.156184 306.165017 1194.156184 294.207239 
C 1194.156184 282.249461 1189.405308 270.779832 1180.949882 262.324406 
C 1172.494456 253.86898 1161.024827 249.118104 1149.067049 249.118104 
C 1137.109271 249.118104 1125.639642 253.86898 1117.184216 262.324406 
C 1108.72879 270.779832 1103.977914 282.249461 1103.977914 294.207239 
C 1103.977914 306.165017 1108.72879 317.634646 1117.184216 326.090072 
C 1125.639642 334.545498 1137.109271 339.296374 1149.067049 339.296374 
z
" clip-path="url(#p742deef90d)" style="fill: #008000; opacity: 0.2; stroke: #008000; stroke-linejoin: miter"/>
   </g>
   <g id="patch_16">
    <path d="M 504.936551 252.982887 
C 521.33579 252.982887 537.065567 246.4674 548.66158 234.871387 
C 560.257593 223.275374 566.773079 207.545598 566.773079 191.146359 
C 566.773079 174.74712 560.257593 159.017344 548.66158 147.421331 
C 537.065567 135.825318 521.33579 129.309832 504.936551 129.309832 
C 488.537313 129.309832 472.807536 135.825318 461.211523 147.421331 
C 449.61551 159.017344 443.100024 174.74712 443.100024 191.146359 
C 443.100024 207.545598 449.61551 223.275374 461.211523 234.871387 
C 472.807536 246.4674 488.537313 252.982887 504.936551 252.982887 
z
" clip-path="url(#p742deef90d)" style="fill: #008000; opacity: 0.2; stroke: #008000; stroke-linejoin: miter"/>
   </g>
   <g id="patch_17">
    <path d="M 685.293091 629.155098 
L 686.145524 613.243006 
L 689.83928 614.379546 
L 788.353847 294.207201 
L 788.354093 294.207277 
L 689.839526 614.379622 
L 693.533281 615.516162 
z
" clip-path="url(#p742deef90d)" style="stroke: #000000; stroke-linejoin: miter"/>
   </g>
   <g id="patch_18">
    <path d="M 685.293091 629.155098 
L 673.30085 618.661887 
L 676.475161 616.457504 
L 556.466885 443.645588 
L 556.467097 443.645441 
L 676.475372 616.457357 
L 679.649683 614.252975 
z
" clip-path="url(#p742deef90d)" style="stroke: #000000; stroke-linejoin: miter"/>
   </g>
   <g id="patch_19">
    <path d="M 556.466991 443.645514 
L 567.367932 432.022657 
L 569.46142 435.271174 
L 788.353901 294.207131 
L 788.35404 294.207347 
L 569.46156 435.27139 
L 571.555048 438.519907 
z
" clip-path="url(#p742deef90d)" style="stroke: #000000; stroke-linejoin: miter"/>
   </g>
   <g id="patch_20">
    <path d="M 556.466991 443.645514 
L 541.779509 449.826062 
L 541.189252 446.00675 
L 273.049592 487.446515 
L 273.049553 487.446261 
L 541.189212 446.006495 
L 540.598955 442.187183 
z
" clip-path="url(#p742deef90d)" style="stroke: #000000; stroke-linejoin: miter"/>
   </g>
   <g id="patch_21">
    <path d="M 1020.240949 397.268119 
L 1004.544579 394.521254 
L 1006.114164 390.989688 
L 788.353918 294.207357 
L 788.354023 294.207121 
L 1006.114268 390.989453 
L 1007.683853 387.457887 
z
" clip-path="url(#p742deef90d)" style="stroke: #000000; stroke-linejoin: miter"/>
   </g>
   <g id="patch_22">
    <path d="M 1020.240949 397.268119 
L 1029.898193 384.592987 
L 1032.312423 387.610775 
L 1149.066968 294.207138 
L 1149.067129 294.20734 
L 1032.312584 387.610976 
L 1034.726814 390.628764 
z
" clip-path="url(#p742deef90d)" style="stroke: #000000; stroke-linejoin: miter"/>
   </g>
   <g id="patch_23">
    <path d="M 556.466991 443.645514 
L 549.589053 429.271396 
L 553.375657 428.49862 
L 504.936425 191.146385 
L 504.936678 191.146334 
L 553.375909 428.498568 
L 557.162513 427.725792 
z
" clip-path="url(#p742deef90d)" style="stroke: #000000; stroke-linejoin: miter"/>
   </g>
   <g id="matplotlib.axis_1">
    <g id="xtick_1">
     <g id="line2d_1">
      <defs>
       <path id="mbee254fc99" d="M 0 0 
L 0 3.5 
" style="stroke: #000000; stroke-width: 0.8"/>
      </defs>
      <g>
       <use xlink:href="#mbee254fc99" x="247.284352" y="702.9576" style="stroke: #000000; stroke-width: 0.8"/>
      </g>
     </g>
     <g id="text_1">
      <!-- −1500 -->
      <g transform="translate(230.369509 717.556038) scale(0.1 -0.1)">
       <defs>
        <path id="DejaVuSans-2212" d="M 678 2272 
L 4684 2272 
L 4684 1741 
L 678 1741 
L 678 2272 
z
" transform="scale(0.015625)"/>
        <path id="DejaVuSans-31" d="M 794 531 
L 1825 531 
L 1825 4091 
L 703 3866 
L 703 4441 
L 1819 4666 
L 2450 4666 
L 2450 531 
L 3481 531 
L 3481 0 
L 794 0 
L 794 531 
z
" transform="scale(0.015625)"/>
        <path id="DejaVuSans-35" d="M 691 4666 
L 3169 4666 
L 3169 4134 
L 1269 4134 
L 1269 2991 
Q 1406 3038 1543 3061 
Q 1681 3084 1819 3084 
Q 2600 3084 3056 2656 
Q 3513 2228 3513 1497 
Q 3513 744 3044 326 
Q 2575 -91 1722 -91 
Q 1428 -91 1123 -41 
Q 819 9 494 109 
L 494 744 
Q 775 591 1075 516 
Q 1375 441 1709 441 
Q 2250 441 2565 725 
Q 2881 1009 2881 1497 
Q 2881 1984 2565 2268 
Q 2250 2553 1709 2553 
Q 1456 2553 1204 2497 
Q 953 2441 691 2322 
L 691 4666 
z
" transform="scale(0.015625)"/>
        <path id="DejaVuSans-30" d="M 2034 4250 
Q 1547 4250 1301 3770 
Q 1056 3291 1056 2328 
Q 1056 1369 1301 889 
Q 1547 409 2034 409 
Q 2525 409 2770 889 
Q 3016 1369 3016 2328 
Q 3016 3291 2770 3770 
Q 2525 4250 2034 4250 
z
M 2034 4750 
Q 2819 4750 3233 4129 
Q 3647 3509 3647 2328 
Q 3647 1150 3233 529 
Q 2819 -91 2034 -91 
Q 1250 -91 836 529 
Q 422 1150 422 2328 
Q 422 3509 836 4129 
Q 1250 4750 2034 4750 
z
" transform="scale(0.015625)"/>
       </defs>
       <use xlink:href="#DejaVuSans-2212"/>
       <use xlink:href="#DejaVuSans-31" transform="translate(83.789062 0)"/>
       <use xlink:href="#DejaVuSans-35" transform="translate(147.412109 0)"/>
       <use xlink:href="#DejaVuSans-30" transform="translate(211.035156 0)"/>
       <use xlink:href="#DejaVuSans-30" transform="translate(274.658203 0)"/>
      </g>
     </g>
    </g>
    <g id="xtick_2">
     <g id="line2d_2">
      <g>
       <use xlink:href="#mbee254fc99" x="376.110452" y="702.9576" style="stroke: #000000; stroke-width: 0.8"/>
      </g>
     </g>
     <g id="text_2">
      <!-- −1000 -->
      <g transform="translate(359.195608 717.556038) scale(0.1 -0.1)">
       <use xlink:href="#DejaVuSans-2212"/>
       <use xlink:href="#DejaVuSans-31" transform="translate(83.789062 0)"/>
       <use xlink:href="#DejaVuSans-30" transform="translate(147.412109 0)"/>
       <use xlink:href="#DejaVuSans-30" transform="translate(211.035156 0)"/>
       <use xlink:href="#DejaVuSans-30" transform="translate(274.658203 0)"/>
      </g>
     </g>
    </g>
    <g id="xtick_3">
     <g id="line2d_3">
      <g>
       <use xlink:href="#mbee254fc99" x="504.936551" y="702.9576" style="stroke: #000000; stroke-width: 0.8"/>
      </g>
     </g>
     <g id="text_3">
      <!-- −500 -->
      <g transform="translate(491.202958 717.556038) scale(0.1 -0.1)">
       <use xlink:href="#DejaVuSans-2212"/>
       <use xlink:href="#DejaVuSans-35" transform="translate(83.789062 0)"/>
       <use xlink:href="#DejaVuSans-30" transform="translate(147.412109 0)"/>
       <use xlink:href="#DejaVuSans-30" transform="translate(211.035156 0)"/>
      </g>
     </g>
    </g>
    <g id="xtick_4">
     <g id="line2d_4">
      <g>
       <use xlink:href="#mbee254fc99" x="633.762651" y="702.9576" style="stroke: #000000; stroke-width: 0.8"/>
      </g>
     </g>
     <g id="text_4">
      <!-- 0 -->
      <g transform="translate(630.581401 717.556038) scale(0.1 -0.1)">
       <use xlink:href="#DejaVuSans-30"/>
      </g>
     </g>
    </g>
    <g id="xtick_5">
     <g id="line2d_5">
      <g>
       <use xlink:href="#mbee254fc99" x="762.58875" y="702.9576" style="stroke: #000000; stroke-width: 0.8"/>
      </g>
     </g>
     <g id="text_5">
      <!-- 500 -->
      <g transform="translate(753.045 717.556038) scale(0.1 -0.1)">
       <use xlink:href="#DejaVuSans-35"/>
       <use xlink:href="#DejaVuSans-30" transform="translate(63.623047 0)"/>
       <use xlink:href="#DejaVuSans-30" transform="translate(127.246094 0)"/>
      </g>
     </g>
    </g>
    <g id="xtick_6">
     <g id="line2d_6">
      <g>
       <use xlink:href="#mbee254fc99" x="891.41485" y="702.9576" style="stroke: #000000; stroke-width: 0.8"/>
      </g>
     </g>
     <g id="text_6">
      <!-- 1000 -->
      <g transform="translate(878.68985 717.556038) scale(0.1 -0.1)">
       <use xlink:href="#DejaVuSans-31"/>
       <use xlink:href="#DejaVuSans-30" transform="translate(63.623047 0)"/>
       <use xlink:href="#DejaVuSans-30" transform="translate(127.246094 0)"/>
       <use xlink:href="#DejaVuSans-30" transform="translate(190.869141 0)"/>
      </g>
     </g>
    </g>
    <g id="xtick_7">
     <g id="line2d_7">
      <g>
       <use xlink:href="#mbee254fc99" x="1020.240949" y="702.9576" style="stroke: #000000; stroke-width: 0.8"/>
      </g>
     </g>
     <g id="text_7">
      <!-- 1500 -->
      <g transform="translate(1007.515949 717.556038) scale(0.1 -0.1)">
       <use xlink:href="#DejaVuSans-31"/>
       <use xlink:href="#DejaVuSans-35" transform="translate(63.623047 0)"/>
       <use xlink:href="#DejaVuSans-30" transform="translate(127.246094 0)"/>
       <use xlink:href="#DejaVuSans-30" transform="translate(190.869141 0)"/>
      </g>
     </g>
    </g>
    <g id="xtick_8">
     <g id="line2d_8">
      <g>
       <use xlink:href="#mbee254fc99" x="1149.067049" y="702.9576" style="stroke: #000000; stroke-width: 0.8"/>
      </g>
     </g>
     <g id="text_8">
      <!-- 2000 -->
      <g transform="translate(1136.342049 717.556038) scale(0.1 -0.1)">
       <defs>
        <path id="DejaVuSans-32" d="M 1228 531 
L 3431 531 
L 3431 0 
L 469 0 
L 469 531 
Q 828 903 1448 1529 
Q 2069 2156 2228 2338 
Q 2531 2678 2651 2914 
Q 2772 3150 2772 3378 
Q 2772 3750 2511 3984 
Q 2250 4219 1831 4219 
Q 1534 4219 1204 4116 
Q 875 4013 500 3803 
L 500 4441 
Q 881 4594 1212 4672 
Q 1544 4750 1819 4750 
Q 2544 4750 2975 4387 
Q 3406 4025 3406 3419 
Q 3406 3131 3298 2873 
Q 3191 2616 2906 2266 
Q 2828 2175 2409 1742 
Q 1991 1309 1228 531 
z
" transform="scale(0.015625)"/>
       </defs>
       <use xlink:href="#DejaVuSans-32"/>
       <use xlink:href="#DejaVuSans-30" transform="translate(63.623047 0)"/>
       <use xlink:href="#DejaVuSans-30" transform="translate(127.246094 0)"/>
       <use xlink:href="#DejaVuSans-30" transform="translate(190.869141 0)"/>
      </g>
     </g>
    </g>
   </g>
   <g id="matplotlib.axis_2">
    <g id="ytick_1">
     <g id="line2d_9">
      <defs>
       <path id="m8aa3570c0c" d="M 0 0 
L -3.5 0 
" style="stroke: #000000; stroke-width: 0.8"/>
      </defs>
      <g>
       <use xlink:href="#m8aa3570c0c" x="172.8" y="577.624658" style="stroke: #000000; stroke-width: 0.8"/>
      </g>
     </g>
     <g id="text_9">
      <!-- −500 -->
      <g transform="translate(138.332812 581.423877) scale(0.1 -0.1)">
       <use xlink:href="#DejaVuSans-2212"/>
       <use xlink:href="#DejaVuSans-35" transform="translate(83.789062 0)"/>
       <use xlink:href="#DejaVuSans-30" transform="translate(147.412109 0)"/>
       <use xlink:href="#DejaVuSans-30" transform="translate(211.035156 0)"/>
      </g>
     </g>
    </g>
    <g id="ytick_2">
     <g id="line2d_10">
      <g>
       <use xlink:href="#m8aa3570c0c" x="172.8" y="448.798558" style="stroke: #000000; stroke-width: 0.8"/>
      </g>
     </g>
     <g id="text_10">
      <!-- 0 -->
      <g transform="translate(159.4375 452.597777) scale(0.1 -0.1)">
       <use xlink:href="#DejaVuSans-30"/>
      </g>
     </g>
    </g>
    <g id="ytick_3">
     <g id="line2d_11">
      <g>
       <use xlink:href="#m8aa3570c0c" x="172.8" y="319.972459" style="stroke: #000000; stroke-width: 0.8"/>
      </g>
     </g>
     <g id="text_11">
      <!-- 500 -->
      <g transform="translate(146.7125 323.771678) scale(0.1 -0.1)">
       <use xlink:href="#DejaVuSans-35"/>
       <use xlink:href="#DejaVuSans-30" transform="translate(63.623047 0)"/>
       <use xlink:href="#DejaVuSans-30" transform="translate(127.246094 0)"/>
      </g>
     </g>
    </g>
    <g id="ytick_4">
     <g id="line2d_12">
      <g>
       <use xlink:href="#m8aa3570c0c" x="172.8" y="191.146359" style="stroke: #000000; stroke-width: 0.8"/>
      </g>
     </g>
     <g id="text_12">
      <!-- 1000 -->
      <g transform="translate(140.35 194.945578) scale(0.1 -0.1)">
       <use xlink:href="#DejaVuSans-31"/>
       <use xlink:href="#DejaVuSans-30" transform="translate(63.623047 0)"/>
       <use xlink:href="#DejaVuSans-30" transform="translate(127.246094 0)"/>
       <use xlink:href="#DejaVuSans-30" transform="translate(190.869141 0)"/>
      </g>
     </g>
    </g>
   </g>
   <g id="patch_24">
    <path d="M 172.8 702.9576 
L 172.8 94.7808 
" style="fill: none; stroke: #000000; stroke-width: 0.8; stroke-linejoin: miter; stroke-linecap: square"/>
   </g>
   <g id="patch_25">
    <path d="M 1244.16 702.9576 
L 1244.16 94.7808 
" style="fill: none; stroke: #000000; stroke-width: 0.8; stroke-linejoin: miter; stroke-linecap: square"/>
   </g>
   <g id="patch_26">
    <path d="M 172.8 702.9576 
L 1244.16 702.9576 
" style="fill: none; stroke: #000000; stroke-width: 0.8; stroke-linejoin: miter; stroke-linecap: square"/>
   </g>
   <g id="patch_27">
    <path d="M 172.8 94.7808 
L 1244.16 94.7808 
" style="fill: none; stroke: #000000; stroke-width: 0.8; stroke-linejoin: miter; stroke-linecap: square"/>
   </g>
  </g>
 </g>
 <defs>
  <clipPath id="p742deef90d">
   <rect x="172.8" y="94.7808" width="1071.36" height="608.1768"/>
  </clipPath>
 </defs>
</svg>
