<?xml version="1.0" encoding="utf-8" standalone="no"?>
<!DOCTYPE svg PUBLIC "-//W3C//DTD SVG 1.1//EN"
  "http://www.w3.org/Graphics/SVG/1.1/DTD/svg11.dtd">
<svg xmlns:xlink="http://www.w3.org/1999/xlink" width="1382.4pt" height="789.84pt" viewBox="0 0 1382.4 789.84" xmlns="http://www.w3.org/2000/svg" version="1.1">
 <metadata>
  <rdf:RDF xmlns:dc="http://purl.org/dc/elements/1.1/" xmlns:cc="http://creativecommons.org/ns#" xmlns:rdf="http://www.w3.org/1999/02/22-rdf-syntax-ns#">
   <cc:Work>
    <dc:type rdf:resource="http://purl.org/dc/dcmitype/StillImage"/>
    <dc:date>2025-04-16T13:01:56.345588</dc:date>
    <dc:format>image/svg+xml</dc:format>
    <dc:creator>
     <cc:Agent>
      <dc:title>Matplotlib v3.10.0, https://matplotlib.org/</dc:title>
     </cc:Agent>
    </dc:creator>
   </cc:Work>
  </rdf:RDF>
 </metadata>
 <defs>
  <style type="text/css">*{stroke-linejoin: round; stroke-linecap: butt}</style>
 </defs>
 <g id="figure_1">
  <g id="patch_1">
   <path d="M 0 789.84 
L 1382.4 789.84 
L 1382.4 0 
L 0 0 
z
" style="fill: #ffffff"/>
  </g>
  <g id="axes_1">
   <g id="patch_2">
    <path d="M 172.8 702.9576 
L 1244.16 702.9576 
L 1244.16 94.7808 
L 172.8 94.7808 
z
" style="fill: #ffffff"/>
   </g>
   <g id="patch_3">
    <path d="M 1009.418531 257.458689 
L 1006.957088 253.837869 
L 1004.320677 250.34239 
L 1001.51567 246.980699 
L 998.548845 243.760919 
L 995.427371 240.690831 
L 992.158792 237.777855 
L 988.751007 235.02903 
L 985.212251 232.450999 
L 981.551076 230.049992 
L 977.77633 227.831812 
L 973.897134 225.801818 
L 969.922863 223.964916 
L 965.863121 222.325546 
L 961.72772 220.88767 
L 957.526652 219.654761 
L 953.27007 218.629799 
L 948.96826 217.815262 
L 944.631619 217.213118 
L 940.270626 216.824822 
L 935.895819 216.651312 
L 931.517772 216.693007 
L 927.147064 216.949807 
L 922.794257 217.421092 
L 918.469871 218.105722 
L 914.184355 219.002042 
L 909.948066 220.107888 
L 905.771242 221.420585 
L 901.663976 222.936963 
L 897.636194 224.653357 
L 893.697629 226.565618 
L 889.857799 228.669126 
L 477.899868 467.693173 
L 472.953781 470.738136 
L 468.173233 474.036912 
L 463.571236 477.580525 
L 459.160316 481.359328 
L 454.952479 485.363036 
L 450.959179 489.580752 
L 447.191284 494.000994 
L 443.659052 498.611732 
L 440.372095 503.400415 
L 437.339362 508.354009 
L 434.569106 513.459031 
L 432.068868 518.701586 
L 429.845454 524.067404 
L 427.904916 529.541879 
L 426.252535 535.110111 
L 424.892809 540.756944 
L 423.829439 546.467006 
L 423.06532 552.224757 
L 422.602531 558.014523 
L 422.442332 563.820546 
L 422.585159 569.627023 
L 423.030624 575.418148 
L 423.777513 581.178159 
L 424.823794 586.891378 
L 426.166619 592.542253 
L 427.802333 598.115404 
L 429.726484 603.59566 
L 431.933834 608.968106 
L 434.418375 614.218118 
L 437.173345 619.331406 
L 440.191244 624.294052 
L 443.463858 629.092548 
L 446.98228 633.713833 
L 450.736933 638.145329 
L 454.717596 642.374973 
L 458.913436 646.391252 
L 463.31303 650.183235 
L 467.904405 653.740601 
L 472.675062 657.053666 
L 477.612016 660.113413 
L 482.70183 662.911513 
L 487.93065 665.44035 
L 493.284242 667.693041 
L 498.748036 669.663454 
L 504.307159 671.346226 
L 509.946479 672.736777 
L 515.650648 673.831322 
L 521.404139 674.626881 
L 527.191291 675.121289 
L 532.996353 675.3132 
L 538.803523 675.202092 
L 544.596995 674.788268 
L 550.361 674.072853 
L 556.079848 673.057795 
L 561.737974 671.745858 
L 567.319977 670.140611 
L 572.810662 668.246424 
L 578.195085 666.068453 
L 583.45859 663.612627 
L 588.586851 660.885629 
L 593.565907 657.894883 
L 598.382208 654.648529 
L 986.243671 378.23341 
L 989.745595 375.605566 
L 993.114145 372.808798 
L 996.341179 369.849866 
L 999.418901 366.735918 
L 1002.339871 363.474482 
L 1005.097032 360.073438 
L 1007.68372 356.541005 
L 1010.093684 352.88572 
L 1012.3211 349.116416 
L 1014.360586 345.242202 
L 1016.207213 341.272441 
L 1017.856519 337.216725 
L 1019.304517 333.084857 
L 1020.547708 328.88682 
L 1021.583089 324.63276 
L 1022.408157 320.332958 
L 1023.020918 315.997804 
L 1023.419891 311.637775 
L 1023.604112 307.263406 
L 1023.573137 302.88527 
L 1023.327039 298.513946 
L 1022.866414 294.159999 
L 1022.192374 289.833949 
L 1021.306549 285.546251 
L 1020.21108 281.307267 
L 1018.908613 277.127242 
L 1017.402297 273.016275 
L 1015.69577 268.984302 
L 1013.793158 265.041067 
L 1011.699058 261.196099 
z
" clip-path="url(#p9a3e0658bf)" style="fill: #0000ff; opacity: 0.2; stroke: #000000; stroke-width: 2; stroke-linejoin: miter"/>
   </g>
   <g id="patch_4">
    <path d="M 422.442332 675.3132 
L 1023.604112 675.3132 
L 1023.604112 216.651312 
L 422.442332 216.651312 
L 422.442332 675.3132 
z
" clip-path="url(#p9a3e0658bf)" style="fill: none; stroke: #ff0000; stroke-width: 2; stroke-linejoin: miter"/>
   </g>
   <g id="patch_5">
    <path d="M 533.771014 563.987089 
L 552.611741 543.898632 
L 556.230038 549.513231 
L 934.554595 305.704072 
L 934.554836 305.704446 
L 556.230279 549.513605 
L 559.848576 555.128204 
z
" clip-path="url(#p9a3e0658bf)" style="stroke: #000000; stroke-width: 5; stroke-linejoin: miter"/>
   </g>
   <g id="matplotlib.axis_1">
    <g id="xtick_1">
     <g id="line2d_1">
      <path d="M 222.050356 702.9576 
L 222.050356 94.7808 
" clip-path="url(#p9a3e0658bf)" style="fill: none; stroke: #b0b0b0; stroke-width: 0.8; stroke-linecap: square"/>
     </g>
     <g id="line2d_2">
      <defs>
       <path id="m0a01dc56c7" d="M 0 0 
L 0 3.5 
" style="stroke: #000000; stroke-width: 0.8"/>
      </defs>
      <g>
       <use xlink:href="#m0a01dc56c7" x="222.050356" y="702.9576" style="stroke: #000000; stroke-width: 0.8"/>
      </g>
     </g>
     <g id="text_1">
      <!-- −1000 -->
      <g transform="translate(205.135513 717.556038) scale(0.1 -0.1)">
       <defs>
        <path id="DejaVuSans-2212" d="M 678 2272 
L 4684 2272 
L 4684 1741 
L 678 1741 
L 678 2272 
z
" transform="scale(0.015625)"/>
        <path id="DejaVuSans-31" d="M 794 531 
L 1825 531 
L 1825 4091 
L 703 3866 
L 703 4441 
L 1819 4666 
L 2450 4666 
L 2450 531 
L 3481 531 
L 3481 0 
L 794 0 
L 794 531 
z
" transform="scale(0.015625)"/>
        <path id="DejaVuSans-30" d="M 2034 4250 
Q 1547 4250 1301 3770 
Q 1056 3291 1056 2328 
Q 1056 1369 1301 889 
Q 1547 409 2034 409 
Q 2525 409 2770 889 
Q 3016 1369 3016 2328 
Q 3016 3291 2770 3770 
Q 2525 4250 2034 4250 
z
M 2034 4750 
Q 2819 4750 3233 4129 
Q 3647 3509 3647 2328 
Q 3647 1150 3233 529 
Q 2819 -91 2034 -91 
Q 1250 -91 836 529 
Q 422 1150 422 2328 
Q 422 3509 836 4129 
Q 1250 4750 2034 4750 
z
" transform="scale(0.015625)"/>
       </defs>
       <use xlink:href="#DejaVuSans-2212"/>
       <use xlink:href="#DejaVuSans-31" transform="translate(83.789062 0)"/>
       <use xlink:href="#DejaVuSans-30" transform="translate(147.412109 0)"/>
       <use xlink:href="#DejaVuSans-30" transform="translate(211.035156 0)"/>
       <use xlink:href="#DejaVuSans-30" transform="translate(274.658203 0)"/>
      </g>
     </g>
    </g>
    <g id="xtick_2">
     <g id="line2d_3">
      <path d="M 444.707969 702.9576 
L 444.707969 94.7808 
" clip-path="url(#p9a3e0658bf)" style="fill: none; stroke: #b0b0b0; stroke-width: 0.8; stroke-linecap: square"/>
     </g>
     <g id="line2d_4">
      <g>
       <use xlink:href="#m0a01dc56c7" x="444.707969" y="702.9576" style="stroke: #000000; stroke-width: 0.8"/>
      </g>
     </g>
     <g id="text_2">
      <!-- −500 -->
      <g transform="translate(430.974375 717.556038) scale(0.1 -0.1)">
       <defs>
        <path id="DejaVuSans-35" d="M 691 4666 
L 3169 4666 
L 3169 4134 
L 1269 4134 
L 1269 2991 
Q 1406 3038 1543 3061 
Q 1681 3084 1819 3084 
Q 2600 3084 3056 2656 
Q 3513 2228 3513 1497 
Q 3513 744 3044 326 
Q 2575 -91 1722 -91 
Q 1428 -91 1123 -41 
Q 819 9 494 109 
L 494 744 
Q 775 591 1075 516 
Q 1375 441 1709 441 
Q 2250 441 2565 725 
Q 2881 1009 2881 1497 
Q 2881 1984 2565 2268 
Q 2250 2553 1709 2553 
Q 1456 2553 1204 2497 
Q 953 2441 691 2322 
L 691 4666 
z
" transform="scale(0.015625)"/>
       </defs>
       <use xlink:href="#DejaVuSans-2212"/>
       <use xlink:href="#DejaVuSans-35" transform="translate(83.789062 0)"/>
       <use xlink:href="#DejaVuSans-30" transform="translate(147.412109 0)"/>
       <use xlink:href="#DejaVuSans-30" transform="translate(211.035156 0)"/>
      </g>
     </g>
    </g>
    <g id="xtick_3">
     <g id="line2d_5">
      <path d="M 667.365581 702.9576 
L 667.365581 94.7808 
" clip-path="url(#p9a3e0658bf)" style="fill: none; stroke: #b0b0b0; stroke-width: 0.8; stroke-linecap: square"/>
     </g>
     <g id="line2d_6">
      <g>
       <use xlink:href="#m0a01dc56c7" x="667.365581" y="702.9576" style="stroke: #000000; stroke-width: 0.8"/>
      </g>
     </g>
     <g id="text_3">
      <!-- 0 -->
      <g transform="translate(664.184331 717.556038) scale(0.1 -0.1)">
       <use xlink:href="#DejaVuSans-30"/>
      </g>
     </g>
    </g>
    <g id="xtick_4">
     <g id="line2d_7">
      <path d="M 890.023193 702.9576 
L 890.023193 94.7808 
" clip-path="url(#p9a3e0658bf)" style="fill: none; stroke: #b0b0b0; stroke-width: 0.8; stroke-linecap: square"/>
     </g>
     <g id="line2d_8">
      <g>
       <use xlink:href="#m0a01dc56c7" x="890.023193" y="702.9576" style="stroke: #000000; stroke-width: 0.8"/>
      </g>
     </g>
     <g id="text_4">
      <!-- 500 -->
      <g transform="translate(880.479443 717.556038) scale(0.1 -0.1)">
       <use xlink:href="#DejaVuSans-35"/>
       <use xlink:href="#DejaVuSans-30" transform="translate(63.623047 0)"/>
       <use xlink:href="#DejaVuSans-30" transform="translate(127.246094 0)"/>
      </g>
     </g>
    </g>
    <g id="xtick_5">
     <g id="line2d_9">
      <path d="M 1112.680805 702.9576 
L 1112.680805 94.7808 
" clip-path="url(#p9a3e0658bf)" style="fill: none; stroke: #b0b0b0; stroke-width: 0.8; stroke-linecap: square"/>
     </g>
     <g id="line2d_10">
      <g>
       <use xlink:href="#m0a01dc56c7" x="1112.680805" y="702.9576" style="stroke: #000000; stroke-width: 0.8"/>
      </g>
     </g>
     <g id="text_5">
      <!-- 1000 -->
      <g transform="translate(1099.955805 717.556038) scale(0.1 -0.1)">
       <use xlink:href="#DejaVuSans-31"/>
       <use xlink:href="#DejaVuSans-30" transform="translate(63.623047 0)"/>
       <use xlink:href="#DejaVuSans-30" transform="translate(127.246094 0)"/>
       <use xlink:href="#DejaVuSans-30" transform="translate(190.869141 0)"/>
      </g>
     </g>
    </g>
   </g>
   <g id="matplotlib.axis_2">
    <g id="ytick_1">
     <g id="line2d_11">
      <path d="M 172.8 661.956438 
L 1244.16 661.956438 
" clip-path="url(#p9a3e0658bf)" style="fill: none; stroke: #b0b0b0; stroke-width: 0.8; stroke-linecap: square"/>
     </g>
     <g id="line2d_12">
      <defs>
       <path id="mf8dfef587d" d="M 0 0 
L -3.5 0 
" style="stroke: #000000; stroke-width: 0.8"/>
      </defs>
      <g>
       <use xlink:href="#mf8dfef587d" x="172.8" y="661.956438" style="stroke: #000000; stroke-width: 0.8"/>
      </g>
     </g>
     <g id="text_6">
      <!-- −200 -->
      <g transform="translate(138.332812 665.755657) scale(0.1 -0.1)">
       <defs>
        <path id="DejaVuSans-32" d="M 1228 531 
L 3431 531 
L 3431 0 
L 469 0 
L 469 531 
Q 828 903 1448 1529 
Q 2069 2156 2228 2338 
Q 2531 2678 2651 2914 
Q 2772 3150 2772 3378 
Q 2772 3750 2511 3984 
Q 2250 4219 1831 4219 
Q 1534 4219 1204 4116 
Q 875 4013 500 3803 
L 500 4441 
Q 881 4594 1212 4672 
Q 1544 4750 1819 4750 
Q 2544 4750 2975 4387 
Q 3406 4025 3406 3419 
Q 3406 3131 3298 2873 
Q 3191 2616 2906 2266 
Q 2828 2175 2409 1742 
Q 1991 1309 1228 531 
z
" transform="scale(0.015625)"/>
       </defs>
       <use xlink:href="#DejaVuSans-2212"/>
       <use xlink:href="#DejaVuSans-32" transform="translate(83.789062 0)"/>
       <use xlink:href="#DejaVuSans-30" transform="translate(147.412109 0)"/>
       <use xlink:href="#DejaVuSans-30" transform="translate(211.035156 0)"/>
      </g>
     </g>
    </g>
    <g id="ytick_2">
     <g id="line2d_13">
      <path d="M 172.8 572.893394 
L 1244.16 572.893394 
" clip-path="url(#p9a3e0658bf)" style="fill: none; stroke: #b0b0b0; stroke-width: 0.8; stroke-linecap: square"/>
     </g>
     <g id="line2d_14">
      <g>
       <use xlink:href="#mf8dfef587d" x="172.8" y="572.893394" style="stroke: #000000; stroke-width: 0.8"/>
      </g>
     </g>
     <g id="text_7">
      <!-- 0 -->
      <g transform="translate(159.4375 576.692612) scale(0.1 -0.1)">
       <use xlink:href="#DejaVuSans-30"/>
      </g>
     </g>
    </g>
    <g id="ytick_3">
     <g id="line2d_15">
      <path d="M 172.8 483.830349 
L 1244.16 483.830349 
" clip-path="url(#p9a3e0658bf)" style="fill: none; stroke: #b0b0b0; stroke-width: 0.8; stroke-linecap: square"/>
     </g>
     <g id="line2d_16">
      <g>
       <use xlink:href="#mf8dfef587d" x="172.8" y="483.830349" style="stroke: #000000; stroke-width: 0.8"/>
      </g>
     </g>
     <g id="text_8">
      <!-- 200 -->
      <g transform="translate(146.7125 487.629567) scale(0.1 -0.1)">
       <use xlink:href="#DejaVuSans-32"/>
       <use xlink:href="#DejaVuSans-30" transform="translate(63.623047 0)"/>
       <use xlink:href="#DejaVuSans-30" transform="translate(127.246094 0)"/>
      </g>
     </g>
    </g>
    <g id="ytick_4">
     <g id="line2d_17">
      <path d="M 172.8 394.767304 
L 1244.16 394.767304 
" clip-path="url(#p9a3e0658bf)" style="fill: none; stroke: #b0b0b0; stroke-width: 0.8; stroke-linecap: square"/>
     </g>
     <g id="line2d_18">
      <g>
       <use xlink:href="#mf8dfef587d" x="172.8" y="394.767304" style="stroke: #000000; stroke-width: 0.8"/>
      </g>
     </g>
     <g id="text_9">
      <!-- 400 -->
      <g transform="translate(146.7125 398.566523) scale(0.1 -0.1)">
       <defs>
        <path id="DejaVuSans-34" d="M 2419 4116 
L 825 1625 
L 2419 1625 
L 2419 4116 
z
M 2253 4666 
L 3047 4666 
L 3047 1625 
L 3713 1625 
L 3713 1100 
L 3047 1100 
L 3047 0 
L 2419 0 
L 2419 1100 
L 313 1100 
L 313 1709 
L 2253 4666 
z
" transform="scale(0.015625)"/>
       </defs>
       <use xlink:href="#DejaVuSans-34"/>
       <use xlink:href="#DejaVuSans-30" transform="translate(63.623047 0)"/>
       <use xlink:href="#DejaVuSans-30" transform="translate(127.246094 0)"/>
      </g>
     </g>
    </g>
    <g id="ytick_5">
     <g id="line2d_19">
      <path d="M 172.8 305.704259 
L 1244.16 305.704259 
" clip-path="url(#p9a3e0658bf)" style="fill: none; stroke: #b0b0b0; stroke-width: 0.8; stroke-linecap: square"/>
     </g>
     <g id="line2d_20">
      <g>
       <use xlink:href="#mf8dfef587d" x="172.8" y="305.704259" style="stroke: #000000; stroke-width: 0.8"/>
      </g>
     </g>
     <g id="text_10">
      <!-- 600 -->
      <g transform="translate(146.7125 309.503478) scale(0.1 -0.1)">
       <defs>
        <path id="DejaVuSans-36" d="M 2113 2584 
Q 1688 2584 1439 2293 
Q 1191 2003 1191 1497 
Q 1191 994 1439 701 
Q 1688 409 2113 409 
Q 2538 409 2786 701 
Q 3034 994 3034 1497 
Q 3034 2003 2786 2293 
Q 2538 2584 2113 2584 
z
M 3366 4563 
L 3366 3988 
Q 3128 4100 2886 4159 
Q 2644 4219 2406 4219 
Q 1781 4219 1451 3797 
Q 1122 3375 1075 2522 
Q 1259 2794 1537 2939 
Q 1816 3084 2150 3084 
Q 2853 3084 3261 2657 
Q 3669 2231 3669 1497 
Q 3669 778 3244 343 
Q 2819 -91 2113 -91 
Q 1303 -91 875 529 
Q 447 1150 447 2328 
Q 447 3434 972 4092 
Q 1497 4750 2381 4750 
Q 2619 4750 2861 4703 
Q 3103 4656 3366 4563 
z
" transform="scale(0.015625)"/>
       </defs>
       <use xlink:href="#DejaVuSans-36"/>
       <use xlink:href="#DejaVuSans-30" transform="translate(63.623047 0)"/>
       <use xlink:href="#DejaVuSans-30" transform="translate(127.246094 0)"/>
      </g>
     </g>
    </g>
    <g id="ytick_6">
     <g id="line2d_21">
      <path d="M 172.8 216.641214 
L 1244.16 216.641214 
" clip-path="url(#p9a3e0658bf)" style="fill: none; stroke: #b0b0b0; stroke-width: 0.8; stroke-linecap: square"/>
     </g>
     <g id="line2d_22">
      <g>
       <use xlink:href="#mf8dfef587d" x="172.8" y="216.641214" style="stroke: #000000; stroke-width: 0.8"/>
      </g>
     </g>
     <g id="text_11">
      <!-- 800 -->
      <g transform="translate(146.7125 220.440433) scale(0.1 -0.1)">
       <defs>
        <path id="DejaVuSans-38" d="M 2034 2216 
Q 1584 2216 1326 1975 
Q 1069 1734 1069 1313 
Q 1069 891 1326 650 
Q 1584 409 2034 409 
Q 2484 409 2743 651 
Q 3003 894 3003 1313 
Q 3003 1734 2745 1975 
Q 2488 2216 2034 2216 
z
M 1403 2484 
Q 997 2584 770 2862 
Q 544 3141 544 3541 
Q 544 4100 942 4425 
Q 1341 4750 2034 4750 
Q 2731 4750 3128 4425 
Q 3525 4100 3525 3541 
Q 3525 3141 3298 2862 
Q 3072 2584 2669 2484 
Q 3125 2378 3379 2068 
Q 3634 1759 3634 1313 
Q 3634 634 3220 271 
Q 2806 -91 2034 -91 
Q 1263 -91 848 271 
Q 434 634 434 1313 
Q 434 1759 690 2068 
Q 947 2378 1403 2484 
z
M 1172 3481 
Q 1172 3119 1398 2916 
Q 1625 2713 2034 2713 
Q 2441 2713 2670 2916 
Q 2900 3119 2900 3481 
Q 2900 3844 2670 4047 
Q 2441 4250 2034 4250 
Q 1625 4250 1398 4047 
Q 1172 3844 1172 3481 
z
" transform="scale(0.015625)"/>
       </defs>
       <use xlink:href="#DejaVuSans-38"/>
       <use xlink:href="#DejaVuSans-30" transform="translate(63.623047 0)"/>
       <use xlink:href="#DejaVuSans-30" transform="translate(127.246094 0)"/>
      </g>
     </g>
    </g>
    <g id="ytick_7">
     <g id="line2d_23">
      <path d="M 172.8 127.578169 
L 1244.16 127.578169 
" clip-path="url(#p9a3e0658bf)" style="fill: none; stroke: #b0b0b0; stroke-width: 0.8; stroke-linecap: square"/>
     </g>
     <g id="line2d_24">
      <g>
       <use xlink:href="#mf8dfef587d" x="172.8" y="127.578169" style="stroke: #000000; stroke-width: 0.8"/>
      </g>
     </g>
     <g id="text_12">
      <!-- 1000 -->
      <g transform="translate(140.35 131.377388) scale(0.1 -0.1)">
       <use xlink:href="#DejaVuSans-31"/>
       <use xlink:href="#DejaVuSans-30" transform="translate(63.623047 0)"/>
       <use xlink:href="#DejaVuSans-30" transform="translate(127.246094 0)"/>
       <use xlink:href="#DejaVuSans-30" transform="translate(190.869141 0)"/>
      </g>
     </g>
    </g>
   </g>
   <g id="line2d_25">
    <path d="M 1028.352355 122.4252 
L 970.901774 171.62075 
L 913.451192 218.963675 
L 856.00061 264.453975 
L 798.550029 308.091651 
L 741.099447 349.876702 
L 683.648865 389.809128 
L 626.198283 427.888929 
L 568.747702 464.116105 
L 511.29712 498.490657 
L 453.846538 531.012584 
L 396.395957 561.681886 
L 338.945375 590.498564 
" clip-path="url(#p9a3e0658bf)" style="fill: none; stroke-dasharray: 1.5,2.475; stroke-dashoffset: 0; stroke: #000000; stroke-width: 1.5"/>
    <defs>
     <path id="md670e07bfa" d="M -3 3 
L 3 -3 
M -3 -3 
L 3 3 
" style="stroke: #000000"/>
    </defs>
    <g clip-path="url(#p9a3e0658bf)">
     <use xlink:href="#md670e07bfa" x="1028.352355" y="122.4252" style="stroke: #000000"/>
     <use xlink:href="#md670e07bfa" x="970.901774" y="171.62075" style="stroke: #000000"/>
     <use xlink:href="#md670e07bfa" x="913.451192" y="218.963675" style="stroke: #000000"/>
     <use xlink:href="#md670e07bfa" x="856.00061" y="264.453975" style="stroke: #000000"/>
     <use xlink:href="#md670e07bfa" x="798.550029" y="308.091651" style="stroke: #000000"/>
     <use xlink:href="#md670e07bfa" x="741.099447" y="349.876702" style="stroke: #000000"/>
     <use xlink:href="#md670e07bfa" x="683.648865" y="389.809128" style="stroke: #000000"/>
     <use xlink:href="#md670e07bfa" x="626.198283" y="427.888929" style="stroke: #000000"/>
     <use xlink:href="#md670e07bfa" x="568.747702" y="464.116105" style="stroke: #000000"/>
     <use xlink:href="#md670e07bfa" x="511.29712" y="498.490657" style="stroke: #000000"/>
     <use xlink:href="#md670e07bfa" x="453.846538" y="531.012584" style="stroke: #000000"/>
     <use xlink:href="#md670e07bfa" x="396.395957" y="561.681886" style="stroke: #000000"/>
     <use xlink:href="#md670e07bfa" x="338.945375" y="590.498564" style="stroke: #000000"/>
    </g>
   </g>
   <g id="line2d_26">
    <path d="M 1087.818549 214.700327 
L 1028.313622 215.739151 
L 968.808696 223.101522 
L 909.30377 236.787442 
L 849.798844 256.79691 
L 790.293917 283.129925 
L 730.788991 315.786489 
L 671.284065 354.7666 
L 611.779139 400.07026 
L 552.274212 451.697468 
L 492.769286 509.648223 
L 433.26436 573.922527 
L 373.759434 644.520379 
" clip-path="url(#p9a3e0658bf)" style="fill: none; stroke-dasharray: 1.5,2.475; stroke-dashoffset: 0; stroke: #000000; stroke-width: 1.5"/>
    <g clip-path="url(#p9a3e0658bf)">
     <use xlink:href="#md670e07bfa" x="1087.818549" y="214.700327" style="stroke: #000000"/>
     <use xlink:href="#md670e07bfa" x="1028.313622" y="215.739151" style="stroke: #000000"/>
     <use xlink:href="#md670e07bfa" x="968.808696" y="223.101522" style="stroke: #000000"/>
     <use xlink:href="#md670e07bfa" x="909.30377" y="236.787442" style="stroke: #000000"/>
     <use xlink:href="#md670e07bfa" x="849.798844" y="256.79691" style="stroke: #000000"/>
     <use xlink:href="#md670e07bfa" x="790.293917" y="283.129925" style="stroke: #000000"/>
     <use xlink:href="#md670e07bfa" x="730.788991" y="315.786489" style="stroke: #000000"/>
     <use xlink:href="#md670e07bfa" x="671.284065" y="354.7666" style="stroke: #000000"/>
     <use xlink:href="#md670e07bfa" x="611.779139" y="400.07026" style="stroke: #000000"/>
     <use xlink:href="#md670e07bfa" x="552.274212" y="451.697468" style="stroke: #000000"/>
     <use xlink:href="#md670e07bfa" x="492.769286" y="509.648223" style="stroke: #000000"/>
     <use xlink:href="#md670e07bfa" x="433.26436" y="573.922527" style="stroke: #000000"/>
     <use xlink:href="#md670e07bfa" x="373.759434" y="644.520379" style="stroke: #000000"/>
    </g>
   </g>
   <g id="line2d_27">
    <path d="M 1060.39562 172.147508 
L 999.457773 215.143005 
L 938.519925 256.429291 
L 877.582078 296.006367 
L 816.644231 333.874232 
L 755.706383 370.032887 
L 694.768536 404.482332 
L 633.830688 437.222566 
L 572.892841 468.253589 
L 511.954994 497.575402 
L 451.017146 525.188005 
L 390.079299 551.091397 
L 329.141451 575.285579 
" clip-path="url(#p9a3e0658bf)" style="fill: none; stroke-dasharray: 1.5,2.475; stroke-dashoffset: 0; stroke: #000000; stroke-width: 1.5"/>
    <g clip-path="url(#p9a3e0658bf)">
     <use xlink:href="#md670e07bfa" x="1060.39562" y="172.147508" style="stroke: #000000"/>
     <use xlink:href="#md670e07bfa" x="999.457773" y="215.143005" style="stroke: #000000"/>
     <use xlink:href="#md670e07bfa" x="938.519925" y="256.429291" style="stroke: #000000"/>
     <use xlink:href="#md670e07bfa" x="877.582078" y="296.006367" style="stroke: #000000"/>
     <use xlink:href="#md670e07bfa" x="816.644231" y="333.874232" style="stroke: #000000"/>
     <use xlink:href="#md670e07bfa" x="755.706383" y="370.032887" style="stroke: #000000"/>
     <use xlink:href="#md670e07bfa" x="694.768536" y="404.482332" style="stroke: #000000"/>
     <use xlink:href="#md670e07bfa" x="633.830688" y="437.222566" style="stroke: #000000"/>
     <use xlink:href="#md670e07bfa" x="572.892841" y="468.253589" style="stroke: #000000"/>
     <use xlink:href="#md670e07bfa" x="511.954994" y="497.575402" style="stroke: #000000"/>
     <use xlink:href="#md670e07bfa" x="451.017146" y="525.188005" style="stroke: #000000"/>
     <use xlink:href="#md670e07bfa" x="390.079299" y="551.091397" style="stroke: #000000"/>
     <use xlink:href="#md670e07bfa" x="329.141451" y="575.285579" style="stroke: #000000"/>
    </g>
   </g>
   <g id="line2d_28">
    <path d="M 1035.042011 132.8057 
L 978.946971 179.98039 
L 922.851932 226.052326 
L 866.756892 271.021508 
L 810.661852 314.887934 
L 754.566813 357.651607 
L 698.471773 399.312525 
L 642.376733 439.870689 
L 586.281694 479.326098 
L 530.186654 517.678753 
L 474.091614 554.928654 
L 417.996575 591.0758 
L 361.901535 626.120191 
" clip-path="url(#p9a3e0658bf)" style="fill: none; stroke-dasharray: 1.5,2.475; stroke-dashoffset: 0; stroke: #000000; stroke-width: 1.5"/>
    <g clip-path="url(#p9a3e0658bf)">
     <use xlink:href="#md670e07bfa" x="1035.042011" y="132.8057" style="stroke: #000000"/>
     <use xlink:href="#md670e07bfa" x="978.946971" y="179.98039" style="stroke: #000000"/>
     <use xlink:href="#md670e07bfa" x="922.851932" y="226.052326" style="stroke: #000000"/>
     <use xlink:href="#md670e07bfa" x="866.756892" y="271.021508" style="stroke: #000000"/>
     <use xlink:href="#md670e07bfa" x="810.661852" y="314.887934" style="stroke: #000000"/>
     <use xlink:href="#md670e07bfa" x="754.566813" y="357.651607" style="stroke: #000000"/>
     <use xlink:href="#md670e07bfa" x="698.471773" y="399.312525" style="stroke: #000000"/>
     <use xlink:href="#md670e07bfa" x="642.376733" y="439.870689" style="stroke: #000000"/>
     <use xlink:href="#md670e07bfa" x="586.281694" y="479.326098" style="stroke: #000000"/>
     <use xlink:href="#md670e07bfa" x="530.186654" y="517.678753" style="stroke: #000000"/>
     <use xlink:href="#md670e07bfa" x="474.091614" y="554.928654" style="stroke: #000000"/>
     <use xlink:href="#md670e07bfa" x="417.996575" y="591.0758" style="stroke: #000000"/>
     <use xlink:href="#md670e07bfa" x="361.901535" y="626.120191" style="stroke: #000000"/>
    </g>
   </g>
   <g id="line2d_29">
    <path d="M 1071.131367 188.806425 
L 1013.577687 202.83657 
L 956.024008 221.378712 
L 898.470328 244.432853 
L 840.916648 271.998991 
L 783.362968 304.077128 
L 725.809289 340.667263 
L 668.255609 381.769396 
L 610.701929 427.383527 
L 553.148249 477.509656 
L 495.594569 532.147783 
L 438.04089 591.297908 
L 380.48721 654.960032 
" clip-path="url(#p9a3e0658bf)" style="fill: none; stroke-dasharray: 1.5,2.475; stroke-dashoffset: 0; stroke: #000000; stroke-width: 1.5"/>
    <g clip-path="url(#p9a3e0658bf)">
     <use xlink:href="#md670e07bfa" x="1071.131367" y="188.806425" style="stroke: #000000"/>
     <use xlink:href="#md670e07bfa" x="1013.577687" y="202.83657" style="stroke: #000000"/>
     <use xlink:href="#md670e07bfa" x="956.024008" y="221.378712" style="stroke: #000000"/>
     <use xlink:href="#md670e07bfa" x="898.470328" y="244.432853" style="stroke: #000000"/>
     <use xlink:href="#md670e07bfa" x="840.916648" y="271.998991" style="stroke: #000000"/>
     <use xlink:href="#md670e07bfa" x="783.362968" y="304.077128" style="stroke: #000000"/>
     <use xlink:href="#md670e07bfa" x="725.809289" y="340.667263" style="stroke: #000000"/>
     <use xlink:href="#md670e07bfa" x="668.255609" y="381.769396" style="stroke: #000000"/>
     <use xlink:href="#md670e07bfa" x="610.701929" y="427.383527" style="stroke: #000000"/>
     <use xlink:href="#md670e07bfa" x="553.148249" y="477.509656" style="stroke: #000000"/>
     <use xlink:href="#md670e07bfa" x="495.594569" y="532.147783" style="stroke: #000000"/>
     <use xlink:href="#md670e07bfa" x="438.04089" y="591.297908" style="stroke: #000000"/>
     <use xlink:href="#md670e07bfa" x="380.48721" y="654.960032" style="stroke: #000000"/>
    </g>
   </g>
   <g id="line2d_30">
    <path d="M 1048.625012 153.882771 
L 989.654075 191.680511 
L 930.683137 229.269015 
L 871.7122 266.648283 
L 812.741262 303.818315 
L 753.770325 340.77911 
L 694.799388 377.53067 
L 635.82845 414.072992 
L 576.857513 450.406079 
L 517.886575 486.529929 
L 458.915638 522.444543 
L 399.944701 558.149921 
L 340.973763 593.646063 
" clip-path="url(#p9a3e0658bf)" style="fill: none; stroke-dasharray: 1.5,2.475; stroke-dashoffset: 0; stroke: #000000; stroke-width: 1.5"/>
    <g clip-path="url(#p9a3e0658bf)">
     <use xlink:href="#md670e07bfa" x="1048.625012" y="153.882771" style="stroke: #000000"/>
     <use xlink:href="#md670e07bfa" x="989.654075" y="191.680511" style="stroke: #000000"/>
     <use xlink:href="#md670e07bfa" x="930.683137" y="229.269015" style="stroke: #000000"/>
     <use xlink:href="#md670e07bfa" x="871.7122" y="266.648283" style="stroke: #000000"/>
     <use xlink:href="#md670e07bfa" x="812.741262" y="303.818315" style="stroke: #000000"/>
     <use xlink:href="#md670e07bfa" x="753.770325" y="340.77911" style="stroke: #000000"/>
     <use xlink:href="#md670e07bfa" x="694.799388" y="377.53067" style="stroke: #000000"/>
     <use xlink:href="#md670e07bfa" x="635.82845" y="414.072992" style="stroke: #000000"/>
     <use xlink:href="#md670e07bfa" x="576.857513" y="450.406079" style="stroke: #000000"/>
     <use xlink:href="#md670e07bfa" x="517.886575" y="486.529929" style="stroke: #000000"/>
     <use xlink:href="#md670e07bfa" x="458.915638" y="522.444543" style="stroke: #000000"/>
     <use xlink:href="#md670e07bfa" x="399.944701" y="558.149921" style="stroke: #000000"/>
     <use xlink:href="#md670e07bfa" x="340.973763" y="593.646063" style="stroke: #000000"/>
    </g>
   </g>
   <g id="line2d_31">
    <path d="M 1058.485983 169.184277 
L 1000.730194 186.677751 
L 942.974405 207.996505 
L 885.218616 233.140539 
L 827.462827 262.109854 
L 769.707038 294.904449 
L 711.951249 331.524325 
L 654.19546 371.969482 
L 596.439671 416.239918 
L 538.683882 464.335636 
L 480.928093 516.256634 
L 423.172304 572.002912 
L 365.416515 631.57447 
" clip-path="url(#p9a3e0658bf)" style="fill: none; stroke-dasharray: 1.5,2.475; stroke-dashoffset: 0; stroke: #000000; stroke-width: 1.5"/>
    <g clip-path="url(#p9a3e0658bf)">
     <use xlink:href="#md670e07bfa" x="1058.485983" y="169.184277" style="stroke: #000000"/>
     <use xlink:href="#md670e07bfa" x="1000.730194" y="186.677751" style="stroke: #000000"/>
     <use xlink:href="#md670e07bfa" x="942.974405" y="207.996505" style="stroke: #000000"/>
     <use xlink:href="#md670e07bfa" x="885.218616" y="233.140539" style="stroke: #000000"/>
     <use xlink:href="#md670e07bfa" x="827.462827" y="262.109854" style="stroke: #000000"/>
     <use xlink:href="#md670e07bfa" x="769.707038" y="294.904449" style="stroke: #000000"/>
     <use xlink:href="#md670e07bfa" x="711.951249" y="331.524325" style="stroke: #000000"/>
     <use xlink:href="#md670e07bfa" x="654.19546" y="371.969482" style="stroke: #000000"/>
     <use xlink:href="#md670e07bfa" x="596.439671" y="416.239918" style="stroke: #000000"/>
     <use xlink:href="#md670e07bfa" x="538.683882" y="464.335636" style="stroke: #000000"/>
     <use xlink:href="#md670e07bfa" x="480.928093" y="516.256634" style="stroke: #000000"/>
     <use xlink:href="#md670e07bfa" x="423.172304" y="572.002912" style="stroke: #000000"/>
     <use xlink:href="#md670e07bfa" x="365.416515" y="631.57447" style="stroke: #000000"/>
    </g>
   </g>
   <g id="line2d_32">
    <path d="M 1034.510758 131.981342 
L 979.826841 158.179776 
L 925.142925 187.487444 
L 870.459009 219.904344 
L 815.775092 255.430477 
L 761.091176 294.065842 
L 706.407259 335.810441 
L 651.723343 380.664272 
L 597.039427 428.627337 
L 542.35551 479.699634 
L 487.671594 533.881163 
L 432.987677 591.171926 
L 378.303761 651.571921 
" clip-path="url(#p9a3e0658bf)" style="fill: none; stroke-dasharray: 1.5,2.475; stroke-dashoffset: 0; stroke: #000000; stroke-width: 1.5"/>
    <g clip-path="url(#p9a3e0658bf)">
     <use xlink:href="#md670e07bfa" x="1034.510758" y="131.981342" style="stroke: #000000"/>
     <use xlink:href="#md670e07bfa" x="979.826841" y="158.179776" style="stroke: #000000"/>
     <use xlink:href="#md670e07bfa" x="925.142925" y="187.487444" style="stroke: #000000"/>
     <use xlink:href="#md670e07bfa" x="870.459009" y="219.904344" style="stroke: #000000"/>
     <use xlink:href="#md670e07bfa" x="815.775092" y="255.430477" style="stroke: #000000"/>
     <use xlink:href="#md670e07bfa" x="761.091176" y="294.065842" style="stroke: #000000"/>
     <use xlink:href="#md670e07bfa" x="706.407259" y="335.810441" style="stroke: #000000"/>
     <use xlink:href="#md670e07bfa" x="651.723343" y="380.664272" style="stroke: #000000"/>
     <use xlink:href="#md670e07bfa" x="597.039427" y="428.627337" style="stroke: #000000"/>
     <use xlink:href="#md670e07bfa" x="542.35551" y="479.699634" style="stroke: #000000"/>
     <use xlink:href="#md670e07bfa" x="487.671594" y="533.881163" style="stroke: #000000"/>
     <use xlink:href="#md670e07bfa" x="432.987677" y="591.171926" style="stroke: #000000"/>
     <use xlink:href="#md670e07bfa" x="378.303761" y="651.571921" style="stroke: #000000"/>
    </g>
   </g>
   <g id="line2d_33">
    <path d="M 1061.483903 173.836222 
L 1000.519183 222.678825 
L 939.554462 268.741526 
L 878.589742 312.024324 
L 817.625022 352.52722 
L 756.660302 390.250214 
L 695.695582 425.193305 
L 634.730861 457.356494 
L 573.766141 486.73978 
L 512.801421 513.343165 
L 451.836701 537.166646 
L 390.871981 558.210226 
L 329.90726 576.473903 
" clip-path="url(#p9a3e0658bf)" style="fill: none; stroke-dasharray: 1.5,2.475; stroke-dashoffset: 0; stroke: #000000; stroke-width: 1.5"/>
    <g clip-path="url(#p9a3e0658bf)">
     <use xlink:href="#md670e07bfa" x="1061.483903" y="173.836222" style="stroke: #000000"/>
     <use xlink:href="#md670e07bfa" x="1000.519183" y="222.678825" style="stroke: #000000"/>
     <use xlink:href="#md670e07bfa" x="939.554462" y="268.741526" style="stroke: #000000"/>
     <use xlink:href="#md670e07bfa" x="878.589742" y="312.024324" style="stroke: #000000"/>
     <use xlink:href="#md670e07bfa" x="817.625022" y="352.52722" style="stroke: #000000"/>
     <use xlink:href="#md670e07bfa" x="756.660302" y="390.250214" style="stroke: #000000"/>
     <use xlink:href="#md670e07bfa" x="695.695582" y="425.193305" style="stroke: #000000"/>
     <use xlink:href="#md670e07bfa" x="634.730861" y="457.356494" style="stroke: #000000"/>
     <use xlink:href="#md670e07bfa" x="573.766141" y="486.73978" style="stroke: #000000"/>
     <use xlink:href="#md670e07bfa" x="512.801421" y="513.343165" style="stroke: #000000"/>
     <use xlink:href="#md670e07bfa" x="451.836701" y="537.166646" style="stroke: #000000"/>
     <use xlink:href="#md670e07bfa" x="390.871981" y="558.210226" style="stroke: #000000"/>
     <use xlink:href="#md670e07bfa" x="329.90726" y="576.473903" style="stroke: #000000"/>
    </g>
   </g>
   <g id="line2d_34">
    <path d="M 1084.670439 209.815329 
L 1024.314433 234.347942 
L 963.958428 260.692388 
L 903.602423 288.848667 
L 843.246417 318.816781 
L 782.890412 350.596728 
L 722.534407 384.188509 
L 662.178401 419.592123 
L 601.822396 456.807571 
L 541.466391 495.834853 
L 481.110385 536.673969 
L 420.75438 579.324918 
L 360.398375 623.787701 
" clip-path="url(#p9a3e0658bf)" style="fill: none; stroke-dasharray: 1.5,2.475; stroke-dashoffset: 0; stroke: #000000; stroke-width: 1.5"/>
    <g clip-path="url(#p9a3e0658bf)">
     <use xlink:href="#md670e07bfa" x="1084.670439" y="209.815329" style="stroke: #000000"/>
     <use xlink:href="#md670e07bfa" x="1024.314433" y="234.347942" style="stroke: #000000"/>
     <use xlink:href="#md670e07bfa" x="963.958428" y="260.692388" style="stroke: #000000"/>
     <use xlink:href="#md670e07bfa" x="903.602423" y="288.848667" style="stroke: #000000"/>
     <use xlink:href="#md670e07bfa" x="843.246417" y="318.816781" style="stroke: #000000"/>
     <use xlink:href="#md670e07bfa" x="782.890412" y="350.596728" style="stroke: #000000"/>
     <use xlink:href="#md670e07bfa" x="722.534407" y="384.188509" style="stroke: #000000"/>
     <use xlink:href="#md670e07bfa" x="662.178401" y="419.592123" style="stroke: #000000"/>
     <use xlink:href="#md670e07bfa" x="601.822396" y="456.807571" style="stroke: #000000"/>
     <use xlink:href="#md670e07bfa" x="541.466391" y="495.834853" style="stroke: #000000"/>
     <use xlink:href="#md670e07bfa" x="481.110385" y="536.673969" style="stroke: #000000"/>
     <use xlink:href="#md670e07bfa" x="420.75438" y="579.324918" style="stroke: #000000"/>
     <use xlink:href="#md670e07bfa" x="360.398375" y="623.787701" style="stroke: #000000"/>
    </g>
   </g>
   <g id="patch_6">
    <path d="M 172.8 702.9576 
L 172.8 94.7808 
" style="fill: none; stroke: #000000; stroke-width: 0.8; stroke-linejoin: miter; stroke-linecap: square"/>
   </g>
   <g id="patch_7">
    <path d="M 1244.16 702.9576 
L 1244.16 94.7808 
" style="fill: none; stroke: #000000; stroke-width: 0.8; stroke-linejoin: miter; stroke-linecap: square"/>
   </g>
   <g id="patch_8">
    <path d="M 172.8 702.9576 
L 1244.16 702.9576 
" style="fill: none; stroke: #000000; stroke-width: 0.8; stroke-linejoin: miter; stroke-linecap: square"/>
   </g>
   <g id="patch_9">
    <path d="M 172.8 94.7808 
L 1244.16 94.7808 
" style="fill: none; stroke: #000000; stroke-width: 0.8; stroke-linejoin: miter; stroke-linecap: square"/>
   </g>
   <g id="text_13">
    <!-- 10 Random trajectories -->
    <g transform="translate(638.065312 88.7808) scale(0.12 -0.12)">
     <defs>
      <path id="DejaVuSans-20" transform="scale(0.015625)"/>
      <path id="DejaVuSans-52" d="M 2841 2188 
Q 3044 2119 3236 1894 
Q 3428 1669 3622 1275 
L 4263 0 
L 3584 0 
L 2988 1197 
Q 2756 1666 2539 1819 
Q 2322 1972 1947 1972 
L 1259 1972 
L 1259 0 
L 628 0 
L 628 4666 
L 2053 4666 
Q 2853 4666 3247 4331 
Q 3641 3997 3641 3322 
Q 3641 2881 3436 2590 
Q 3231 2300 2841 2188 
z
M 1259 4147 
L 1259 2491 
L 2053 2491 
Q 2509 2491 2742 2702 
Q 2975 2913 2975 3322 
Q 2975 3731 2742 3939 
Q 2509 4147 2053 4147 
L 1259 4147 
z
" transform="scale(0.015625)"/>
      <path id="DejaVuSans-61" d="M 2194 1759 
Q 1497 1759 1228 1600 
Q 959 1441 959 1056 
Q 959 750 1161 570 
Q 1363 391 1709 391 
Q 2188 391 2477 730 
Q 2766 1069 2766 1631 
L 2766 1759 
L 2194 1759 
z
M 3341 1997 
L 3341 0 
L 2766 0 
L 2766 531 
Q 2569 213 2275 61 
Q 1981 -91 1556 -91 
Q 1019 -91 701 211 
Q 384 513 384 1019 
Q 384 1609 779 1909 
Q 1175 2209 1959 2209 
L 2766 2209 
L 2766 2266 
Q 2766 2663 2505 2880 
Q 2244 3097 1772 3097 
Q 1472 3097 1187 3025 
Q 903 2953 641 2809 
L 641 3341 
Q 956 3463 1253 3523 
Q 1550 3584 1831 3584 
Q 2591 3584 2966 3190 
Q 3341 2797 3341 1997 
z
" transform="scale(0.015625)"/>
      <path id="DejaVuSans-6e" d="M 3513 2113 
L 3513 0 
L 2938 0 
L 2938 2094 
Q 2938 2591 2744 2837 
Q 2550 3084 2163 3084 
Q 1697 3084 1428 2787 
Q 1159 2491 1159 1978 
L 1159 0 
L 581 0 
L 581 3500 
L 1159 3500 
L 1159 2956 
Q 1366 3272 1645 3428 
Q 1925 3584 2291 3584 
Q 2894 3584 3203 3211 
Q 3513 2838 3513 2113 
z
" transform="scale(0.015625)"/>
      <path id="DejaVuSans-64" d="M 2906 2969 
L 2906 4863 
L 3481 4863 
L 3481 0 
L 2906 0 
L 2906 525 
Q 2725 213 2448 61 
Q 2172 -91 1784 -91 
Q 1150 -91 751 415 
Q 353 922 353 1747 
Q 353 2572 751 3078 
Q 1150 3584 1784 3584 
Q 2172 3584 2448 3432 
Q 2725 3281 2906 2969 
z
M 947 1747 
Q 947 1113 1208 752 
Q 1469 391 1925 391 
Q 2381 391 2643 752 
Q 2906 1113 2906 1747 
Q 2906 2381 2643 2742 
Q 2381 3103 1925 3103 
Q 1469 3103 1208 2742 
Q 947 2381 947 1747 
z
" transform="scale(0.015625)"/>
      <path id="DejaVuSans-6f" d="M 1959 3097 
Q 1497 3097 1228 2736 
Q 959 2375 959 1747 
Q 959 1119 1226 758 
Q 1494 397 1959 397 
Q 2419 397 2687 759 
Q 2956 1122 2956 1747 
Q 2956 2369 2687 2733 
Q 2419 3097 1959 3097 
z
M 1959 3584 
Q 2709 3584 3137 3096 
Q 3566 2609 3566 1747 
Q 3566 888 3137 398 
Q 2709 -91 1959 -91 
Q 1206 -91 779 398 
Q 353 888 353 1747 
Q 353 2609 779 3096 
Q 1206 3584 1959 3584 
z
" transform="scale(0.015625)"/>
      <path id="DejaVuSans-6d" d="M 3328 2828 
Q 3544 3216 3844 3400 
Q 4144 3584 4550 3584 
Q 5097 3584 5394 3201 
Q 5691 2819 5691 2113 
L 5691 0 
L 5113 0 
L 5113 2094 
Q 5113 2597 4934 2840 
Q 4756 3084 4391 3084 
Q 3944 3084 3684 2787 
Q 3425 2491 3425 1978 
L 3425 0 
L 2847 0 
L 2847 2094 
Q 2847 2600 2669 2842 
Q 2491 3084 2119 3084 
Q 1678 3084 1418 2786 
Q 1159 2488 1159 1978 
L 1159 0 
L 581 0 
L 581 3500 
L 1159 3500 
L 1159 2956 
Q 1356 3278 1631 3431 
Q 1906 3584 2284 3584 
Q 2666 3584 2933 3390 
Q 3200 3197 3328 2828 
z
" transform="scale(0.015625)"/>
      <path id="DejaVuSans-74" d="M 1172 4494 
L 1172 3500 
L 2356 3500 
L 2356 3053 
L 1172 3053 
L 1172 1153 
Q 1172 725 1289 603 
Q 1406 481 1766 481 
L 2356 481 
L 2356 0 
L 1766 0 
Q 1100 0 847 248 
Q 594 497 594 1153 
L 594 3053 
L 172 3053 
L 172 3500 
L 594 3500 
L 594 4494 
L 1172 4494 
z
" transform="scale(0.015625)"/>
      <path id="DejaVuSans-72" d="M 2631 2963 
Q 2534 3019 2420 3045 
Q 2306 3072 2169 3072 
Q 1681 3072 1420 2755 
Q 1159 2438 1159 1844 
L 1159 0 
L 581 0 
L 581 3500 
L 1159 3500 
L 1159 2956 
Q 1341 3275 1631 3429 
Q 1922 3584 2338 3584 
Q 2397 3584 2469 3576 
Q 2541 3569 2628 3553 
L 2631 2963 
z
" transform="scale(0.015625)"/>
      <path id="DejaVuSans-6a" d="M 603 3500 
L 1178 3500 
L 1178 -63 
Q 1178 -731 923 -1031 
Q 669 -1331 103 -1331 
L -116 -1331 
L -116 -844 
L 38 -844 
Q 366 -844 484 -692 
Q 603 -541 603 -63 
L 603 3500 
z
M 603 4863 
L 1178 4863 
L 1178 4134 
L 603 4134 
L 603 4863 
z
" transform="scale(0.015625)"/>
      <path id="DejaVuSans-65" d="M 3597 1894 
L 3597 1613 
L 953 1613 
Q 991 1019 1311 708 
Q 1631 397 2203 397 
Q 2534 397 2845 478 
Q 3156 559 3463 722 
L 3463 178 
Q 3153 47 2828 -22 
Q 2503 -91 2169 -91 
Q 1331 -91 842 396 
Q 353 884 353 1716 
Q 353 2575 817 3079 
Q 1281 3584 2069 3584 
Q 2775 3584 3186 3129 
Q 3597 2675 3597 1894 
z
M 3022 2063 
Q 3016 2534 2758 2815 
Q 2500 3097 2075 3097 
Q 1594 3097 1305 2825 
Q 1016 2553 972 2059 
L 3022 2063 
z
" transform="scale(0.015625)"/>
      <path id="DejaVuSans-63" d="M 3122 3366 
L 3122 2828 
Q 2878 2963 2633 3030 
Q 2388 3097 2138 3097 
Q 1578 3097 1268 2742 
Q 959 2388 959 1747 
Q 959 1106 1268 751 
Q 1578 397 2138 397 
Q 2388 397 2633 464 
Q 2878 531 3122 666 
L 3122 134 
Q 2881 22 2623 -34 
Q 2366 -91 2075 -91 
Q 1284 -91 818 406 
Q 353 903 353 1747 
Q 353 2603 823 3093 
Q 1294 3584 2113 3584 
Q 2378 3584 2631 3529 
Q 2884 3475 3122 3366 
z
" transform="scale(0.015625)"/>
      <path id="DejaVuSans-69" d="M 603 3500 
L 1178 3500 
L 1178 0 
L 603 0 
L 603 3500 
z
M 603 4863 
L 1178 4863 
L 1178 4134 
L 603 4134 
L 603 4863 
z
" transform="scale(0.015625)"/>
      <path id="DejaVuSans-73" d="M 2834 3397 
L 2834 2853 
Q 2591 2978 2328 3040 
Q 2066 3103 1784 3103 
Q 1356 3103 1142 2972 
Q 928 2841 928 2578 
Q 928 2378 1081 2264 
Q 1234 2150 1697 2047 
L 1894 2003 
Q 2506 1872 2764 1633 
Q 3022 1394 3022 966 
Q 3022 478 2636 193 
Q 2250 -91 1575 -91 
Q 1294 -91 989 -36 
Q 684 19 347 128 
L 347 722 
Q 666 556 975 473 
Q 1284 391 1588 391 
Q 1994 391 2212 530 
Q 2431 669 2431 922 
Q 2431 1156 2273 1281 
Q 2116 1406 1581 1522 
L 1381 1569 
Q 847 1681 609 1914 
Q 372 2147 372 2553 
Q 372 3047 722 3315 
Q 1072 3584 1716 3584 
Q 2034 3584 2315 3537 
Q 2597 3491 2834 3397 
z
" transform="scale(0.015625)"/>
     </defs>
     <use xlink:href="#DejaVuSans-31"/>
     <use xlink:href="#DejaVuSans-30" transform="translate(63.623047 0)"/>
     <use xlink:href="#DejaVuSans-20" transform="translate(127.246094 0)"/>
     <use xlink:href="#DejaVuSans-52" transform="translate(159.033203 0)"/>
     <use xlink:href="#DejaVuSans-61" transform="translate(226.265625 0)"/>
     <use xlink:href="#DejaVuSans-6e" transform="translate(287.544922 0)"/>
     <use xlink:href="#DejaVuSans-64" transform="translate(350.923828 0)"/>
     <use xlink:href="#DejaVuSans-6f" transform="translate(414.400391 0)"/>
     <use xlink:href="#DejaVuSans-6d" transform="translate(475.582031 0)"/>
     <use xlink:href="#DejaVuSans-20" transform="translate(572.994141 0)"/>
     <use xlink:href="#DejaVuSans-74" transform="translate(604.78125 0)"/>
     <use xlink:href="#DejaVuSans-72" transform="translate(643.990234 0)"/>
     <use xlink:href="#DejaVuSans-61" transform="translate(685.103516 0)"/>
     <use xlink:href="#DejaVuSans-6a" transform="translate(746.382812 0)"/>
     <use xlink:href="#DejaVuSans-65" transform="translate(774.166016 0)"/>
     <use xlink:href="#DejaVuSans-63" transform="translate(835.689453 0)"/>
     <use xlink:href="#DejaVuSans-74" transform="translate(890.669922 0)"/>
     <use xlink:href="#DejaVuSans-6f" transform="translate(929.878906 0)"/>
     <use xlink:href="#DejaVuSans-72" transform="translate(991.060547 0)"/>
     <use xlink:href="#DejaVuSans-69" transform="translate(1032.173828 0)"/>
     <use xlink:href="#DejaVuSans-65" transform="translate(1059.957031 0)"/>
     <use xlink:href="#DejaVuSans-73" transform="translate(1121.480469 0)"/>
    </g>
   </g>
   <g id="legend_1">
    <g id="patch_10">
     <path d="M 1155.789687 132.13705 
L 1237.16 132.13705 
Q 1239.16 132.13705 1239.16 130.13705 
L 1239.16 101.7808 
Q 1239.16 99.7808 1237.16 99.7808 
L 1155.789687 99.7808 
Q 1153.789687 99.7808 1153.789687 101.7808 
L 1153.789687 130.13705 
Q 1153.789687 132.13705 1155.789687 132.13705 
z
" style="fill: #ffffff; opacity: 0.8; stroke: #cccccc; stroke-linejoin: miter"/>
    </g>
    <g id="line2d_35">
     <path d="M 1157.789687 107.879238 
L 1167.789687 107.879238 
L 1177.789687 107.879238 
" style="fill: none; stroke-dasharray: 1.5,2.475; stroke-dashoffset: 0; stroke: #000000; stroke-width: 1.5"/>
     <g>
      <use xlink:href="#md670e07bfa" x="1167.789687" y="107.879238" style="stroke: #000000"/>
     </g>
    </g>
    <g id="text_14">
     <!-- Trajectory -->
     <g transform="translate(1185.789687 111.379238) scale(0.1 -0.1)">
      <defs>
       <path id="DejaVuSans-54" d="M -19 4666 
L 3928 4666 
L 3928 4134 
L 2272 4134 
L 2272 0 
L 1638 0 
L 1638 4134 
L -19 4134 
L -19 4666 
z
" transform="scale(0.015625)"/>
       <path id="DejaVuSans-79" d="M 2059 -325 
Q 1816 -950 1584 -1140 
Q 1353 -1331 966 -1331 
L 506 -1331 
L 506 -850 
L 844 -850 
Q 1081 -850 1212 -737 
Q 1344 -625 1503 -206 
L 1606 56 
L 191 3500 
L 800 3500 
L 1894 763 
L 2988 3500 
L 3597 3500 
L 2059 -325 
z
" transform="scale(0.015625)"/>
      </defs>
      <use xlink:href="#DejaVuSans-54"/>
      <use xlink:href="#DejaVuSans-72" transform="translate(46.333984 0)"/>
      <use xlink:href="#DejaVuSans-61" transform="translate(87.447266 0)"/>
      <use xlink:href="#DejaVuSans-6a" transform="translate(148.726562 0)"/>
      <use xlink:href="#DejaVuSans-65" transform="translate(176.509766 0)"/>
      <use xlink:href="#DejaVuSans-63" transform="translate(238.033203 0)"/>
      <use xlink:href="#DejaVuSans-74" transform="translate(293.013672 0)"/>
      <use xlink:href="#DejaVuSans-6f" transform="translate(332.222656 0)"/>
      <use xlink:href="#DejaVuSans-72" transform="translate(393.404297 0)"/>
      <use xlink:href="#DejaVuSans-79" transform="translate(434.517578 0)"/>
     </g>
    </g>
    <g id="patch_11">
     <path d="M 1157.789687 126.057363 
L 1177.789687 126.057363 
L 1177.789687 119.057363 
L 1157.789687 119.057363 
L 1157.789687 126.057363 
z
" style="fill: none; stroke: #ff0000; stroke-width: 2; stroke-linejoin: miter"/>
    </g>
    <g id="text_15">
     <!-- AABB -->
     <g transform="translate(1185.789687 126.057363) scale(0.1 -0.1)">
      <defs>
       <path id="DejaVuSans-41" d="M 2188 4044 
L 1331 1722 
L 3047 1722 
L 2188 4044 
z
M 1831 4666 
L 2547 4666 
L 4325 0 
L 3669 0 
L 3244 1197 
L 1141 1197 
L 716 0 
L 50 0 
L 1831 4666 
z
" transform="scale(0.015625)"/>
       <path id="DejaVuSans-42" d="M 1259 2228 
L 1259 519 
L 2272 519 
Q 2781 519 3026 730 
Q 3272 941 3272 1375 
Q 3272 1813 3026 2020 
Q 2781 2228 2272 2228 
L 1259 2228 
z
M 1259 4147 
L 1259 2741 
L 2194 2741 
Q 2656 2741 2882 2914 
Q 3109 3088 3109 3444 
Q 3109 3797 2882 3972 
Q 2656 4147 2194 4147 
L 1259 4147 
z
M 628 4666 
L 2241 4666 
Q 2963 4666 3353 4366 
Q 3744 4066 3744 3513 
Q 3744 3084 3544 2831 
Q 3344 2578 2956 2516 
Q 3422 2416 3680 2098 
Q 3938 1781 3938 1306 
Q 3938 681 3513 340 
Q 3088 0 2303 0 
L 628 0 
L 628 4666 
z
" transform="scale(0.015625)"/>
      </defs>
      <use xlink:href="#DejaVuSans-41"/>
      <use xlink:href="#DejaVuSans-41" transform="translate(71.158203 0)"/>
      <use xlink:href="#DejaVuSans-42" transform="translate(139.566406 0)"/>
      <use xlink:href="#DejaVuSans-42" transform="translate(208.169922 0)"/>
     </g>
    </g>
   </g>
  </g>
 </g>
 <defs>
  <clipPath id="p9a3e0658bf">
   <rect x="172.8" y="94.7808" width="1071.36" height="608.1768"/>
  </clipPath>
 </defs>
</svg>
